<svg xmlns="http://www.w3.org/2000/svg" xmlns:xlink="http://www.w3.org/1999/xlink" viewBox="1433 4799 224.044 228.522"><defs><style>.a,.c{fill:#fff;}.b{fill:#f4f4f4;}.b,.c,.g{opacity:0.5;}.d{fill:#ff7c5c;}.e,.f,.g{fill:#0071ef;}.e{opacity:0.2;}.h{fill:#000078;}.i{filter:url(#a);}</style><filter id="a" x="1433" y="4799" width="224.044" height="228.522" filterUnits="userSpaceOnUse"><feOffset dy="10" input="SourceAlpha"/><feGaussianBlur stdDeviation="5" result="b"/><feFlood flood-opacity="0.11"/><feComposite operator="in" in2="b"/><feComposite in="SourceGraphic"/></filter></defs><g class="i" transform="matrix(1, 0, 0, 1, 0, 0)"><rect class="a" width="194.044" height="198.522" rx="25" transform="translate(1448 4804)"/></g><g transform="translate(1496 4853.789)"><path class="b" d="M98.171,49.647a7.6,7.6,0,0,0-5.507-4.778,1.115,1.115,0,0,1-1.058-1.094,32.609,32.609,0,0,0-2.845-8.716c-.766-1.568-1.641-3.1-2.516-4.7-.365-.656-.766-1.349-1.131-2.042a8.033,8.033,0,0,0,1.678-4.632,7.369,7.369,0,0,0-4.158-6.893,7.253,7.253,0,0,0-7.95.438c-.4.255-.584.365-1.021.073a41.98,41.98,0,0,0-14.916-6.09.823.823,0,0,1-.766-.766,7.769,7.769,0,0,0-4.449-5.689,7.537,7.537,0,0,0-6.565.073,7.945,7.945,0,0,0-4.231,5.507.926.926,0,0,1-.912.912,33.148,33.148,0,0,0-8.5,2.7c-1.6.8-3.173,1.641-4.814,2.516-.693.365-1.386.766-2.079,1.131-4.158-2.407-7.549-2.188-10.285.729a7.9,7.9,0,0,0-.511,10.321l-.036.073c-.073.109-.146.255-.219.365a41.8,41.8,0,0,0-6.309,14.88c-.109.584-.365.729-.912.839a7.781,7.781,0,0,0,.109,15.244h.036c.365.073.584.109.656.547a41.463,41.463,0,0,0,6.273,15.354.541.541,0,0,1,0,.8A7.768,7.768,0,0,0,16,86.7a7.634,7.634,0,0,0,9.956.766.572.572,0,0,1,.8,0A44.434,44.434,0,0,0,41.9,93.848c.474.109.656.255.766.729a7.662,7.662,0,0,0,7.622,6.163h.146a7.732,7.732,0,0,0,7.4-6.419c.073-.4.146-.511.547-.584a39.183,39.183,0,0,0,11.853-4.267c.948-.511,1.86-1.094,2.772-1.641.365-.219.766-.474,1.131-.693a7.745,7.745,0,0,0,10.212-.547,7.826,7.826,0,0,0,.656-10.467l.109-.182c.146-.219.292-.438.438-.693A41.413,41.413,0,0,0,91.46,60.7a.952.952,0,0,1,.912-.912,7.628,7.628,0,0,0,5.8-10.139Zm-5.215-1.24a4,4,0,0,0-.948-.073,4.36,4.36,0,0,0-4.449,4.376,4.754,4.754,0,0,0,1.276,3.319,3.715,3.715,0,0,0,1.094.766,4.358,4.358,0,0,1-2.188-1.131,4.6,4.6,0,0,1-1.276-3.319,4.405,4.405,0,0,1,4.449-4.376A4.293,4.293,0,0,1,92.956,48.407Zm-10.43-17.8a11.98,11.98,0,0,1,.729,1.131,7.442,7.442,0,0,1-6.091-.511A8.806,8.806,0,0,0,82.525,30.609Zm-6.638-10.1a4.552,4.552,0,0,1,3.1-1.276H79.1a4.332,4.332,0,0,1,1.824.438,4.942,4.942,0,0,0-.729-.073h-.109a4.552,4.552,0,0,0-3.1,1.276,4.357,4.357,0,0,0-1.386,3.1,4.538,4.538,0,0,0,2.553,4.121A4.479,4.479,0,0,1,74.5,23.607,4.526,4.526,0,0,1,75.888,20.507Zm-10.394-3.72a25.4,25.4,0,0,0-6.054-1.641c-1.5,3.355-3.829,5.069-6.966,5.142a7.6,7.6,0,0,1-4.121-.985,9.444,9.444,0,0,0,2.3.255c3.136-.073,5.507-1.787,6.966-5.142A30.881,30.881,0,0,1,65.494,16.787ZM47.076,8.655a4.43,4.43,0,0,1,3.209-1.313h.073a4.613,4.613,0,0,1,2.006.438,3.7,3.7,0,0,0-.912-.073H51.38A4.43,4.43,0,0,0,48.17,9.019a4.288,4.288,0,0,0-1.2,3.136,4.344,4.344,0,0,0,2.407,4.012,4.286,4.286,0,0,1-3.5-4.376A4.345,4.345,0,0,1,47.076,8.655ZM21.693,19.231h.146a4.762,4.762,0,0,1,1.751.438,4.018,4.018,0,0,0-.656-.073h-.146a4.554,4.554,0,0,0-4.522,4.3,4.282,4.282,0,0,0,1.2,3.173,5.624,5.624,0,0,0,1.313.985,4.558,4.558,0,0,1-2.407-1.349,4.437,4.437,0,0,1,3.319-7.476ZM5.282,52.346a4.359,4.359,0,0,1,4.413-4.413h.036a4.318,4.318,0,0,1,2.042.474,3.975,3.975,0,0,0-.948-.109h-.036a4.486,4.486,0,0,0-2.006,8.461A4.325,4.325,0,0,1,5.282,52.346Zm6.893,7.513c3.574-1.568,5.361-4.048,5.325-7.4-.036-3.428-1.9-5.945-5.325-7.221a38.865,38.865,0,0,1,6.091-14.624c3.683,1.532,6.929.839,9.446-2.006,2.006-2.261,2.334-5.069.985-8.279a39.011,39.011,0,0,1,14.333-5.981,8.887,8.887,0,0,0,.511,1.021,38.6,38.6,0,0,0-13.02,5.689c1.349,3.209,1.021,6.018-.985,8.279-2.516,2.808-5.762,3.5-9.446,2.006A38.865,38.865,0,0,0,14,45.963a7.457,7.457,0,0,1,5.325,7.221c.036,3.355-1.751,5.835-5.325,7.4A38.02,38.02,0,0,0,19.25,73.826a6.623,6.623,0,0,0-1.094.4A38.417,38.417,0,0,1,12.174,59.858Zm4.96,21.116a4.158,4.158,0,0,1,1.349-3.027A4.584,4.584,0,0,1,21.73,76.6h.036a4.332,4.332,0,0,1,1.824.438,4.944,4.944,0,0,0-.729-.073h-.036a4.584,4.584,0,0,0-3.246,1.349,4.53,4.53,0,0,0-1.349,3.027A4.584,4.584,0,0,0,19.5,84.549a4.247,4.247,0,0,0,1.24.875,4.564,4.564,0,0,1-2.334-1.24A4.46,4.46,0,0,1,17.134,80.975Zm9.81-5.434a7.794,7.794,0,0,0-1.6-1.167,7.838,7.838,0,0,1,3.428,1.9c2.662,2.443,3.209,5.507,1.6,9.117a39.045,39.045,0,0,0,6.273,3.465,36.312,36.312,0,0,1-8.1-4.194C30.154,81.047,29.607,77.984,26.945,75.54ZM45.873,92.9a4.268,4.268,0,0,1,1.276-3.1,4.593,4.593,0,0,1,3.173-1.276h.036a4.5,4.5,0,0,1,2.006.438,3.849,3.849,0,0,0-.912-.073h-.036a4.593,4.593,0,0,0-3.173,1.276,4.268,4.268,0,0,0-1.276,3.1,4.477,4.477,0,0,0,2.444,4.121A4.4,4.4,0,0,1,45.873,92.9ZM57.8,90.566a8.5,8.5,0,0,0-3.5-4.34,7.4,7.4,0,0,1,4.851,4.048C58.71,90.384,58.273,90.457,57.8,90.566Zm16.7-9.555A4.614,4.614,0,0,1,79.1,76.6h0a4,4,0,0,1,1.86.438,5.442,5.442,0,0,0-.766-.073h0a4.64,4.64,0,0,0-4.6,4.413,4.39,4.39,0,0,0,2.516,4.012A4.372,4.372,0,0,1,74.5,81.011Z" transform="translate(-1.27 -2.577)"/><path class="c" d="M94.306,91.679c-2.334,2.48-2.772,5.47-1.386,8.9a38.04,38.04,0,0,1-14.333,5.945c-1.422-3.538-4.012-5.325-7.622-5.325h0c-3.173,0-5.434,1.641-7.294,5.325a37.964,37.964,0,0,1-14.3-5.908c1.6-3.574,1.058-6.638-1.6-9.118-2.48-2.261-5.434-2.7-8.789-1.313A38.249,38.249,0,0,1,33,75.851c3.574-1.568,5.361-4.048,5.325-7.4-.036-3.428-1.9-5.945-5.325-7.221a38.121,38.121,0,0,1,6.054-14.661c3.683,1.532,6.929.839,9.446-2.006,2.006-2.261,2.334-5.069.985-8.279A39.011,39.011,0,0,1,63.817,30.3c1.5,3.538,4.048,5.288,7.622,5.215,3.136-.073,5.507-1.787,6.966-5.142,3.465.255,11.525,3.574,14.479,5.945-1.422,3.574-.875,6.6,1.714,8.935,2.443,2.225,5.361,2.662,8.716,1.276A38.094,38.094,0,0,1,109.3,60.862c-3.683,1.641-5.4,4.085-5.325,7.476.109,3.392,1.9,5.762,5.325,7.148a38.19,38.19,0,0,1-5.945,14.333C99.74,88.506,96.713,89.126,94.306,91.679Z" transform="translate(-20.965 -19.263)"/><path class="a" d="M116.194,94.777c0,.219,0,.219-.255.255-.875.109-1.787.219-2.626.328-.474.073-.912.109-1.386.182a1.668,1.668,0,0,0-1.532,1.422,17.19,17.19,0,0,1-2.407,5.872,1.859,1.859,0,0,0,.109,2.516l2.225,3.027-1.933,1.933-.62-.474c-.766-.584-1.568-1.2-2.371-1.787a1.6,1.6,0,0,0-2.334-.109,17.365,17.365,0,0,1-5.726,2.407,1.737,1.737,0,0,0-1.641,1.787l-.073.511c-.146,1.058-.328,2.115-.4,3.173-.036.328-.073.328-.365.328-.328,0-.693-.036-1.058-.036a10.251,10.251,0,0,0-1.058.036c-.255,0-.292,0-.328-.328-.073-.729-.182-1.422-.255-2.152V113.6c-.073-.474-.146-.948-.182-1.459a1.978,1.978,0,0,0-1.678-1.824,17.219,17.219,0,0,1-5.689-2.334,1.84,1.84,0,0,0-2.443.109L79.1,110.423l-1.787-1.86,2.407-3.1a1.742,1.742,0,0,0,.109-2.48A16.4,16.4,0,0,1,77.5,97.44c-.328-1.422-.656-1.714-2.115-1.9l-.985-.109h-.109c-.766-.109-1.568-.182-2.334-.328a.763.763,0,0,1-.219-.146c-.036-.656-.036-1.313-.036-2.079v-.474l3.465-.474.219-.036c.219-.036.474-.073.693-.109a1.551,1.551,0,0,0,1.24-1.276,16.884,16.884,0,0,1,2.443-6.018,1.84,1.84,0,0,0-.109-2.443c-.511-.656-.985-1.313-1.5-1.933l-.729-.948,1.933-1.933.985.766c.62.474,1.276.985,1.933,1.5a1.742,1.742,0,0,0,2.48.109,17.983,17.983,0,0,1,5.58-2.407c1.167-.255,1.5-.656,1.678-1.823.219-1.422.365-2.626.511-3.756.036-.219.036-.219.219-.219.839.036,1.6,0,2.334,0,.182,0,.182,0,.219.219.073.656.146,1.276.255,1.933.073.474.146.985.182,1.5.182,1.459.547,1.86,1.969,2.225a17.993,17.993,0,0,1,5.325,2.225,1.94,1.94,0,0,0,2.7-.109l2.881-2.225,1.9,1.933-2.006,2.7c-.182.219-.328.474-.511.693a1.427,1.427,0,0,0-.073,1.787,18.325,18.325,0,0,1,2.662,6.273,1.709,1.709,0,0,0,1.568,1.386c.511.073,1.058.146,1.6.219.693.109,1.422.182,2.152.292.328.036.328.073.328.292A12.314,12.314,0,0,0,116.194,94.777Z" transform="translate(-45.551 -45.374)"/><path class="d" d="M122.62,129.9v-.365a6.7,6.7,0,0,1-4.814-2.006,6.807,6.807,0,0,1-2.006-4.887,6.89,6.89,0,0,1,6.82-6.747h.036a6.913,6.913,0,0,1,6.783,6.929,6.94,6.94,0,0,1-6.82,6.747v.328Z" transform="translate(-73.567 -73.644)"/><path class="e" d="M123.3,237.076a4.268,4.268,0,0,1,1.276-3.1,4.593,4.593,0,0,1,3.173-1.276h.036a4.375,4.375,0,0,1,3.173,1.276,4.514,4.514,0,0,1,1.313,3.246A4.351,4.351,0,0,1,131,240.359a4.469,4.469,0,0,1-3.173,1.313h-.036A4.441,4.441,0,0,1,123.3,237.076Z" transform="translate(-78.332 -147.848)"/><path class="f" d="M20.935,125.886a4.413,4.413,0,0,1-4.413,4.449h-.036A4.318,4.318,0,0,1,12,125.813a4.358,4.358,0,0,1,4.413-4.413h.036a4.364,4.364,0,0,1,4.486,4.486Z" transform="translate(-7.623 -77.139)"/><path class="g" d="M206.232,200h0a4.555,4.555,0,0,1,4.449,4.522,4.307,4.307,0,0,1-1.276,3.063,4.605,4.605,0,0,1-3.282,1.349h-.036a4.437,4.437,0,0,1-4.486-4.486A4.731,4.731,0,0,1,206.232,200Z" transform="translate(-128.076 -127.073)"/><path class="g" d="M52.219,50.359a4.624,4.624,0,0,1-3.282,1.24A4.427,4.427,0,0,1,45.8,50.176,4.437,4.437,0,0,1,49.119,42.7h.146a4.633,4.633,0,0,1,4.34,4.632A4.276,4.276,0,0,1,52.219,50.359Z" transform="translate(-28.33 -27.14)"/><path class="g" d="M201.8,46.976a4.672,4.672,0,0,1,1.386-3.1,4.552,4.552,0,0,1,3.1-1.276h.109a4.578,4.578,0,0,1,3.173,1.422,4.435,4.435,0,0,1-3.282,7.513h-.109A4.477,4.477,0,0,1,201.8,46.976Z" transform="translate(-128.202 -27.077)"/><path class="g" d="M49.019,208.9h0a4.64,4.64,0,0,1-3.246-1.313,4.315,4.315,0,0,1-1.276-3.209,4.158,4.158,0,0,1,1.349-3.027A4.584,4.584,0,0,1,49.092,200h.036a4.612,4.612,0,0,1,4.449,4.559,4.063,4.063,0,0,1-1.276,2.954A4.7,4.7,0,0,1,49.019,208.9Z" transform="translate(-28.267 -127.073)"/><path class="f" d="M243.535,125.922a4.541,4.541,0,0,1-7.659,3.173,4.6,4.6,0,0,1-1.276-3.319,4.405,4.405,0,0,1,4.449-4.376,4.316,4.316,0,0,1,3.173,1.276A4.577,4.577,0,0,1,243.535,125.922Z" transform="translate(-149.041 -77.139)"/><path class="e" d="M127.892,19.135h-.073a4.338,4.338,0,0,1-4.522-4.486,4.231,4.231,0,0,1,1.2-3.136,4.43,4.43,0,0,1,3.209-1.313h.073a4.323,4.323,0,0,1,3.1,1.24,4.789,4.789,0,0,1,1.349,3.282A4.366,4.366,0,0,1,127.892,19.135Z" transform="translate(-78.328 -6.493)"/><g transform="translate(0 0)"><path class="h" d="M96.171,45.647a7.6,7.6,0,0,0-5.507-4.778,1.115,1.115,0,0,1-1.058-1.094,32.609,32.609,0,0,0-2.845-8.716c-.766-1.568-1.641-3.1-2.516-4.7-.365-.656-.766-1.349-1.131-2.042a8.033,8.033,0,0,0,1.678-4.632,7.369,7.369,0,0,0-4.158-6.893,7.253,7.253,0,0,0-7.95.438c-.4.255-.584.365-1.021.073a41.98,41.98,0,0,0-14.916-6.09.823.823,0,0,1-.766-.766A7.769,7.769,0,0,0,51.532.752a7.537,7.537,0,0,0-6.565.073,7.945,7.945,0,0,0-4.231,5.507.926.926,0,0,1-.912.912,33.148,33.148,0,0,0-8.5,2.7c-1.6.8-3.173,1.641-4.814,2.516-.693.365-1.386.766-2.079,1.131-4.158-2.407-7.549-2.188-10.285.729a7.9,7.9,0,0,0-.511,10.321l-.036.073c-.073.109-.146.255-.219.365a41.8,41.8,0,0,0-6.309,14.88c-.109.584-.365.729-.912.839a7.781,7.781,0,0,0,.109,15.244h.036c.365.073.584.109.656.547a41.463,41.463,0,0,0,6.273,15.354.541.541,0,0,1,0,.8A7.768,7.768,0,0,0,14,82.7a7.634,7.634,0,0,0,9.956.766.572.572,0,0,1,.8,0A44.434,44.434,0,0,0,39.9,89.848c.474.109.656.255.766.729a7.662,7.662,0,0,0,7.622,6.163h.146a7.732,7.732,0,0,0,7.4-6.419c.073-.4.146-.511.547-.584a39.183,39.183,0,0,0,11.853-4.267c.948-.511,1.86-1.094,2.772-1.641.365-.219.766-.474,1.131-.693a7.745,7.745,0,0,0,10.212-.547,7.826,7.826,0,0,0,.656-10.467l.109-.182c.146-.219.292-.438.438-.693A41.413,41.413,0,0,0,89.46,56.7a.952.952,0,0,1,.912-.912,7.628,7.628,0,0,0,5.8-10.139ZM43.873,88.9a4.268,4.268,0,0,1,1.276-3.1,4.593,4.593,0,0,1,3.173-1.276h.036A4.375,4.375,0,0,1,51.532,85.8a4.514,4.514,0,0,1,1.313,3.246,4.351,4.351,0,0,1-1.276,3.136A4.469,4.469,0,0,1,48.4,93.5h-.036A4.441,4.441,0,0,1,43.873,88.9ZM12.217,48.419A4.413,4.413,0,0,1,7.8,52.868H7.767a4.318,4.318,0,0,1-4.486-4.522,4.359,4.359,0,0,1,4.413-4.413h.036a4.364,4.364,0,0,1,4.486,4.486ZM77.061,72.6h0A4.555,4.555,0,0,1,81.51,77.12a4.307,4.307,0,0,1-1.276,3.063,4.605,4.605,0,0,1-3.282,1.349h-.036a4.437,4.437,0,0,1-4.486-4.486A4.73,4.73,0,0,1,77.061,72.6Zm-5.543-.875c-2.334,2.48-2.772,5.47-1.386,8.9A38.04,38.04,0,0,1,55.8,86.566c-1.422-3.538-4.012-5.325-7.622-5.325h0c-3.173,0-5.434,1.641-7.294,5.325a37.964,37.964,0,0,1-14.3-5.908c1.6-3.574,1.058-6.638-1.6-9.117-2.48-2.261-5.434-2.7-8.789-1.313a38.249,38.249,0,0,1-5.981-14.333c3.574-1.568,5.361-4.048,5.325-7.4-.036-3.428-1.9-5.945-5.325-7.221a38.121,38.121,0,0,1,6.054-14.661c3.683,1.532,6.929.839,9.446-2.006,2.006-2.261,2.334-5.069.985-8.279a39.011,39.011,0,0,1,14.333-5.981c1.5,3.538,4.048,5.288,7.622,5.215,3.136-.073,5.507-1.787,6.966-5.142,3.465.255,11.525,3.574,14.479,5.945-1.422,3.574-.875,6.6,1.714,8.935,2.443,2.225,5.361,2.662,8.716,1.276a38.093,38.093,0,0,1,5.981,14.333c-3.683,1.641-5.4,4.085-5.325,7.476.109,3.392,1.9,5.762,5.325,7.148a38.19,38.19,0,0,1-5.945,14.333C76.951,68.55,73.924,69.17,71.517,71.723ZM22.793,22.89a4.624,4.624,0,0,1-3.282,1.24,4.427,4.427,0,0,1-3.136-1.422,4.437,4.437,0,0,1,3.319-7.476h.146a4.633,4.633,0,0,1,4.34,4.632A4.276,4.276,0,0,1,22.793,22.89ZM72.5,19.571a4.672,4.672,0,0,1,1.386-3.1,4.552,4.552,0,0,1,3.1-1.276H77.1a4.578,4.578,0,0,1,3.173,1.422,4.435,4.435,0,0,1-3.282,7.513h-.109A4.477,4.477,0,0,1,72.5,19.571ZM19.657,81.5h0a4.64,4.64,0,0,1-3.246-1.313,4.315,4.315,0,0,1-1.276-3.209,4.158,4.158,0,0,1,1.349-3.027A4.584,4.584,0,0,1,19.73,72.6h.036a4.612,4.612,0,0,1,4.449,4.559,4.063,4.063,0,0,1-1.276,2.954A4.705,4.705,0,0,1,19.657,81.5ZM93.4,48.455a4.541,4.541,0,0,1-7.659,3.173,4.6,4.6,0,0,1-1.276-3.319,4.405,4.405,0,0,1,4.449-4.376,4.316,4.316,0,0,1,3.173,1.276A4.577,4.577,0,0,1,93.4,48.455ZM48.468,12.313H48.4a4.338,4.338,0,0,1-4.522-4.486,4.231,4.231,0,0,1,1.2-3.136,4.43,4.43,0,0,1,3.209-1.313h.073a4.323,4.323,0,0,1,3.1,1.24A4.789,4.789,0,0,1,52.808,7.9,4.366,4.366,0,0,1,48.468,12.313Z" transform="translate(0.001 -0.036)"/><path class="h" d="M113.476,86.25c0-1.568-.511-2.115-2.079-2.3-1.167-.146-2.48-.255-3.72-.474a.579.579,0,0,1-.365-.292c-.365-.8-.693-1.641-1.058-2.48-.328-.8-.693-1.678-1.058-2.48-.109-.255-.109-.328.036-.511.729-.912,1.422-1.9,2.152-2.845l.328-.438a1.669,1.669,0,0,0-.146-2.443c-1.094-1.167-2.079-2.261-3.1-3.319-.985-1.021-1.568-1.094-2.662-.219l-.656.511c-.8.62-1.678,1.276-2.48,1.969-.182.146-.255.146-.547,0-.766-.365-1.6-.693-2.371-1.021-.8-.328-1.641-.693-2.48-1.058a.833.833,0,0,1-.292-.438c-.109-.729-.182-1.459-.292-2.188-.073-.62-.146-1.276-.255-1.9-.146-1.094-.693-1.532-1.824-1.532h-4.6c-1.459,0-1.969.474-2.115,1.933-.109,1.094-.255,2.407-.474,3.72a1.873,1.873,0,0,1-.146.365,20.83,20.83,0,0,0-5.288,2.261l-1.058-.8c-.839-.656-1.678-1.313-2.516-1.933a1.491,1.491,0,0,0-2.261.109L68.508,71.99a1.631,1.631,0,0,0-.219,2.589l.4.547C69.347,76,70,76.914,70.7,77.789c.146.182.146.255,0,.584-.656,1.5-1.386,3.136-2.006,4.814-.146.365-.219.4-.511.438-1.131.109-2.626.292-4.085.511a1.579,1.579,0,0,0-1.5,1.787v4.7c0,1.349.474,1.9,1.824,2.079l.729.073c.985.109,2.006.255,3.027.365.292.036.4.109.547.474.656,1.787,1.422,3.5,2.006,4.814.146.292.109.365-.036.547-.8,1.058-1.641,2.152-2.516,3.355a1.467,1.467,0,0,0,.182,2.188l3.5,3.5a1.529,1.529,0,0,0,2.407.146l.146-.109c1.021-.8,2.079-1.6,3.1-2.443.182-.146.255-.146.547-.036,1.824.8,3.319,1.459,4.814,2.042.255.109.292.182.328.511.146,1.349.328,2.735.511,4.121a1.508,1.508,0,0,0,1.714,1.459h4.741c1.349,0,1.9-.474,2.042-1.86l.036-.182c.146-1.167.255-2.371.438-3.574a1.287,1.287,0,0,1,.182-.438c1.386-.584,2.808-1.131,4.3-1.678l1.131-.438.8.62c.729.584,1.568,1.2,2.371,1.824a1.846,1.846,0,0,0,2.7-.182l3.392-3.392a1.535,1.535,0,0,0,.146-2.371l-.438-.584c-.62-.839-1.276-1.751-1.969-2.589-.182-.255-.182-.365,0-.729.656-1.422,1.349-2.991,1.933-4.632.146-.4.255-.511.656-.547,1.349-.146,2.7-.292,3.829-.438,1.2-.146,1.678-.693,1.678-1.933V87.673Zm-3.063,3.063c0,.219,0,.219-.255.255-.875.109-1.787.219-2.626.328-.474.073-.912.109-1.386.182a1.668,1.668,0,0,0-1.532,1.422,17.19,17.19,0,0,1-2.407,5.872,1.859,1.859,0,0,0,.109,2.516l2.225,3.027-1.933,1.933-.62-.474c-.766-.584-1.568-1.2-2.371-1.787a1.6,1.6,0,0,0-2.334-.109,17.365,17.365,0,0,1-5.726,2.407,1.737,1.737,0,0,0-1.641,1.787l-.073.511c-.146,1.058-.328,2.115-.4,3.173-.036.328-.073.328-.365.328-.328,0-.693-.036-1.058-.036a10.251,10.251,0,0,0-1.058.036c-.255,0-.292,0-.328-.328-.073-.729-.182-1.422-.255-2.152v-.073c-.073-.474-.146-.948-.182-1.459a1.978,1.978,0,0,0-1.678-1.823,17.22,17.22,0,0,1-5.689-2.334,1.84,1.84,0,0,0-2.444.109l-3.063,2.334-1.787-1.86,2.407-3.1a1.742,1.742,0,0,0,.109-2.48,16.4,16.4,0,0,1-2.334-5.543c-.328-1.422-.656-1.714-2.115-1.9l-.985-.109h-.109c-.766-.109-1.568-.182-2.334-.328a.763.763,0,0,1-.219-.146c-.036-.656-.036-1.313-.036-2.079v-.474l3.465-.474.219-.036c.219-.036.474-.073.693-.109a1.551,1.551,0,0,0,1.24-1.276,16.883,16.883,0,0,1,2.444-6.018,1.84,1.84,0,0,0-.109-2.443c-.511-.656-.985-1.313-1.5-1.933l-.729-.948,1.933-1.933.985.766c.62.474,1.276.985,1.933,1.5a1.742,1.742,0,0,0,2.48.109,17.983,17.983,0,0,1,5.58-2.407c1.167-.255,1.5-.656,1.678-1.823.219-1.422.365-2.626.511-3.756.036-.219.036-.219.219-.219.839.036,1.6,0,2.334,0,.182,0,.182,0,.219.219.073.656.146,1.276.255,1.933.073.474.146.985.182,1.5.182,1.459.547,1.86,1.969,2.225a17.994,17.994,0,0,1,5.325,2.225,1.94,1.94,0,0,0,2.7-.109l2.881-2.225,1.9,1.933-2.006,2.7c-.182.219-.328.474-.511.693a1.427,1.427,0,0,0-.073,1.787,18.325,18.325,0,0,1,2.662,6.273,1.709,1.709,0,0,0,1.568,1.386c.511.073,1.058.146,1.6.219.693.109,1.422.182,2.152.292.328.036.328.073.328.292A12.313,12.313,0,0,0,110.412,89.314Z" transform="translate(-39.769 -39.91)"/><path class="h" d="M122.311,108.481a9.689,9.689,0,0,0-6.893-2.881h-.036a9.82,9.82,0,0,0-9.883,9.519,10.276,10.276,0,0,0,2.845,7.33,9.67,9.67,0,0,0,6.966,2.881,9.976,9.976,0,0,0,9.883-9.7A9.853,9.853,0,0,0,122.311,108.481Zm-6.966,14.15v-.365a6.7,6.7,0,0,1-4.814-2.006,6.807,6.807,0,0,1-2.006-4.887,6.89,6.89,0,0,1,6.82-6.747h.036a6.913,6.913,0,0,1,6.783,6.929,6.94,6.94,0,0,1-6.82,6.747v.328Z" transform="translate(-67.022 -67.101)"/></g></g></svg>