<svg xmlns="http://www.w3.org/2000/svg" xmlns:xlink="http://www.w3.org/1999/xlink" viewBox="837 3221 224.044 228.522"><defs><style>.a{fill:#fff;}.b{fill:#f4f4f4;}.c{fill:#f7f8fb;}.d{fill:#ff7c5c;}.e,.f{fill:#0071ef;}.e{opacity:0.5;}.g{fill:#000078;}.h{filter:url(#a);}</style><filter id="a" x="837" y="3221" width="224.044" height="228.522" filterUnits="userSpaceOnUse"><feOffset dy="10" input="SourceAlpha"/><feGaussianBlur stdDeviation="5" result="b"/><feFlood flood-opacity="0.102"/><feComposite operator="in" in2="b"/><feComposite in="SourceGraphic"/></filter></defs><g class="h" transform="matrix(1, 0, 0, 1, 0, 0)"><rect class="a" width="194.044" height="198.522" rx="25" transform="translate(852 3226)"/></g><g transform="translate(903.975 3279)"><path class="b" d="M92.642,87.366c0-1.421-.659-2.045-2.08-2.062-1.092-.017-2.184,0-3.362,0V57.989h3.068c1.837,0,2.374-.537,2.374-2.34V48.318c0-1.872-.537-2.409-2.392-2.409q-10.009,0-20.018.017c-.607,0-.884-.1-1.023-.8-1.854-9.03-7.175-14.905-16.084-17.436-1.283-.364-2.617-.5-3.917-.745V22.113H65.38c1.664,0,2.288-.624,2.288-2.288V9.357c0-1.837-.5-2.357-2.34-2.357H48.1c-1.82,0-2.357.537-2.357,2.357V26.949c-10.9,1.906-17.384,8.163-19.6,18.943H5.5a5.228,5.228,0,0,0-.9.035,1.613,1.613,0,0,0-1.543,1.646q-.052,4.368,0,8.735a1.612,1.612,0,0,0,1.768,1.664c1.231.035,2.478.017,3.709.017.295,0,.572.035.867.052V85.3c-1.525,0-2.981-.017-4.437,0a1.707,1.707,0,0,0-1.924,1.785c-.017,2.825-.017,5.667,0,8.492a1.676,1.676,0,0,0,1.56,1.8,6.184,6.184,0,0,0,.988.052H90.632a1.846,1.846,0,0,0,2.01-2.08C92.66,92.687,92.66,90.036,92.642,87.366Zm-43.433-76.9H64.236V11.4H50.007v7.227h-.78C49.209,15.926,49.209,13.222,49.209,10.466ZM74.739,58.943c0-.745.191-.988.953-.971,2.392.052,4.784.017,7.175.017.26,0,.537.017.849.035v1.213c-2.305,0-4.61.035-6.915-.017-.763-.017-.953.225-.953.971q.026,12.531.017,25.061H74.808c-.017-.312-.035-.572-.035-.849C74.756,75.928,74.773,67.435,74.739,58.943Zm-3.414.381H63.508V85.252H62.416V58.076h8.908Zm-12.305-.087c-2.444.017-4.888,0-7.349.017a3.321,3.321,0,0,0-.52.069V85.235H50.059V58.059a3.32,3.32,0,0,1,.52-.069c2.582,0,5.165,0,7.747-.017.451,0,.711.069.711.624C59.019,58.821,59.019,59.029,59.019,59.237Zm-12.392,0c-2.444.017-4.9,0-7.349.017a2.9,2.9,0,0,0-.5.069V85.269H37.684V58.076c.191-.017.347-.069.5-.069,2.582,0,5.165,0,7.747-.017.468,0,.693.087.693.624Zm-12.461.069H26.4V85.252H25.309V58.041h8.874C34.165,58.457,34.165,58.873,34.165,59.307Zm-12.392-.017H14.026V85.252H12.934V58.041h8.856C21.773,58.457,21.773,58.873,21.773,59.289ZM47.268,30.432a17.943,17.943,0,0,1,13.8,5.667,17.944,17.944,0,0,0-13.016-4.888A18.183,18.183,0,0,0,30.7,45.84h-.9A18.124,18.124,0,0,1,47.268,30.432ZM6.487,54.558V49.376H89.176v1.248H7.6v3.934Zm0,34.212H89.176v.78H7.423v4.385H6.487C6.487,92.2,6.487,90.5,6.487,88.77Z" transform="translate(-2.48 -5.787)"/><g transform="translate(0.025 0)"><path class="c" d="M26.3,256.882h82.689V251.7H26.3C26.3,253.45,26.3,255.149,26.3,256.882Z" transform="translate(-21.746 -208.076)"/><path class="c" d="M429.078,328.676V301.448c-.312-.017-.572-.035-.849-.035-2.392,0-4.784.035-7.175-.017-.763-.017-.953.225-.953.971q.026,12.739.017,25.46c0,.26.017.537.035.849Z" transform="translate(-347.294 -249.159)"/><path class="c" d="M349.1,329.076h8.908V301.9H349.1Z" transform="translate(-288.6 -249.576)"/><path class="c" d="M277.617,328.663h8.874a1.373,1.373,0,0,0,.069-.295q0-13.181.017-26.344c0-.555-.26-.624-.711-.624-2.582.017-5.165,0-7.747.017a3.317,3.317,0,0,0-.52.069C277.617,310.551,277.617,319.581,277.617,328.663Z" transform="translate(-229.492 -249.163)"/><path class="c" d="M206.3,301.469v27.193h8.856a2.227,2.227,0,0,0,.069-.433q0-13.1.017-26.205c0-.537-.243-.624-.693-.624-2.582.017-5.165,0-7.747.017C206.647,301.417,206.491,301.452,206.3,301.469Z" transform="translate(-170.549 -249.163)"/><path class="c" d="M63.5,301.7v27.211h8.856V301.7Z" transform="translate(-52.499 -249.411)"/><path class="c" d="M134.9,328.911h8.874V301.7H134.9Z" transform="translate(-111.524 -249.411)"/><path class="d" d="M271.1,25.4v8.163h15.026V25.4Z" transform="translate(-224.118 -20.998)"/><path class="e" d="M25.5,481.482h82.689V476.3H25.5Z" transform="translate(-21.085 -393.75)"/><path class="f" d="M159.1,155.064h36.032a18.235,18.235,0,0,0-36.032,0Z" transform="translate(-131.53 -115.444)"/><path class="g" d="M84.2,78.3h3.362c1.421.017,2.08.641,2.08,2.062.017,2.669.017,5.321,0,7.99a1.846,1.846,0,0,1-2.01,2.08H2.586a6.293,6.293,0,0,1-.988-.052,1.674,1.674,0,0,1-1.56-1.8c-.017-2.825-.017-5.667,0-8.492A1.707,1.707,0,0,1,1.962,78.3c1.456-.017,2.912,0,4.437,0V51.041l-.867-.052c-1.231,0-2.478.017-3.709-.017A1.621,1.621,0,0,1,.055,49.308Q0,44.941.055,40.573A1.648,1.648,0,0,1,1.6,38.927a7.835,7.835,0,0,1,.9-.035H23.141c2.218-10.763,8.7-17.037,19.6-18.943V2.357C42.743.537,43.28,0,45.1,0H62.328c1.837,0,2.34.52,2.34,2.357V12.825c0,1.646-.624,2.27-2.288,2.288H46.209v4.836c1.3.243,2.652.381,3.917.745,8.891,2.53,14.212,8.406,16.084,17.436.139.693.416.8,1.023.8q10.009-.026,20.018-.017c1.854,0,2.392.537,2.392,2.409V48.65c0,1.8-.537,2.34-2.374,2.34H84.2ZM3.487,47.558H86.176V42.376H3.487Zm0,39.395H86.176V81.77H3.487ZM26.815,38.84H62.848a18.235,18.235,0,0,0-36.032,0Zm53.9,39.412V51.024c-.312-.017-.572-.035-.849-.035-2.392,0-4.784.035-7.175-.017-.763-.017-.953.225-.953.971q.026,12.739.017,25.46c0,.26.017.537.035.849Zm-21.3,0h8.908V51.076H59.416Zm-12.375-.017h8.874a1.374,1.374,0,0,0,.069-.295q0-13.181.017-26.344c0-.555-.26-.624-.711-.624-2.582.017-5.165,0-7.747.017a3.321,3.321,0,0,0-.52.069Q47.05,64.655,47.041,78.235ZM34.684,51.059V78.252H43.54a2.227,2.227,0,0,0,.069-.433q0-13.1.017-26.205c0-.537-.243-.624-.693-.624-2.582.017-5.165,0-7.747.017A2.475,2.475,0,0,0,34.684,51.059ZM9.934,51.041V78.252h8.856V51.041ZM22.292,78.252h8.874V51.041H22.292ZM46.209,3.466v8.163H61.236V3.466Z" transform="translate(-0.025 0)"/></g></g></svg>