<svg xmlns="http://www.w3.org/2000/svg" xmlns:xlink="http://www.w3.org/1999/xlink" viewBox="837 5189 224.044 228.522"><defs><style>.a,.c{fill:#fff;}.b{fill:#f4f4f4;}.b,.c,.f{opacity:0.5;}.d,.f,.h{fill:#0071ef;}.e{fill:#000078;}.g{fill:#ff7c5c;}.h{opacity:0.2;}.i{filter:url(#a);}</style><filter id="a" x="837" y="5189" width="224.044" height="228.522" filterUnits="userSpaceOnUse"><feOffset dy="10" input="SourceAlpha"/><feGaussianBlur stdDeviation="5" result="b"/><feFlood flood-opacity="0.11"/><feComposite operator="in" in2="b"/><feComposite in="SourceGraphic"/></filter></defs><g class="i" transform="matrix(1, 0, 0, 1, 0, 0)"><rect class="a" width="194.044" height="198.522" rx="25" transform="translate(852 5194)"/></g><g transform="translate(902 5254)"><path class="b" d="M97.676,11.527A7.087,7.087,0,0,0,90.313,4.1H11.362a8.656,8.656,0,0,0-2.842.517C5.55,5.779,4,8.2,4,11.721V79.305c0,1.97.355,2.325,2.357,2.325H95.351c2.034,0,2.357-.323,2.357-2.422v-47.6Q97.708,21.537,97.676,11.527Zm-90.608-.71a3.994,3.994,0,0,1,3.746-3.681c.387-.032.807-.032,1.195-.032h77.95A4.468,4.468,0,0,1,93.9,8.847a5.134,5.134,0,0,0-2.971-.775H12.977c-.387,0-.807,0-1.195.032a3.993,3.993,0,0,0-3.746,3.681C7.939,14.756,8,17.694,8,20.73H7.035C7.068,17.339,6.971,14.078,7.068,10.816Zm0,13.045H94.64v.646H8.036V78.53H7.068Z" transform="translate(-2.708 -2.776)"/><path class="c" d="M100.073,63.3H12.5v54.668h87.573Z" transform="translate(-8.464 -42.86)"/><path class="a" d="M67.077,94.5H35.4v17.114c1.292-1.679,2.422-3.165,3.584-4.65.452-.614.969-1.162,1.841-.9a1.706,1.706,0,0,1,1.195,1.679c.1,1.13.226,2.26.355,3.391.194,1.615.387,3.2.581,4.908a5.747,5.747,0,0,0,.678-.355c1.97-1.195,3.939-2.422,5.909-3.617,1.259-.775,1.776-.71,2.777.42.775.84,1.518,1.711,2.26,2.551.355.387.743.775,1.195,1.292.129-.517.194-.84.291-1.162.517-2.519,1.066-5.037,1.582-7.556.161-.775.517-1.421,1.356-1.55.84-.161,1.356.387,1.744,1.066.194.387.452.743.678,1.13.969,1.582,1.905,3.2,2.906,4.844a18.109,18.109,0,0,1,1.905-1.292,1.735,1.735,0,0,0,.9-1.808c-.032-3.584-.032-7.169-.032-10.753C67.077,97.7,67.077,96.115,67.077,94.5Z" transform="translate(-23.969 -63.985)"/><path class="d" d="M59.565,147.661c-.161.549-.258.872-.323,1.162l-1.356,6.394c-.161.775-.323,1.518-1.227,1.776-.936.258-1.421-.355-1.937-.936-1.324-1.453-2.648-2.906-3.939-4.424-.517-.581-.872-.581-1.518-.194-2.325,1.453-4.65,2.874-7.007,4.295a1.537,1.537,0,0,1-2.486-1.292c-.226-2.034-.452-4.069-.678-6.071a5.812,5.812,0,0,0-.226-.872c-1.324,1.711-2.519,3.261-3.681,4.844a1.9,1.9,0,0,0-.258,1.13c-.032,3.1.032,6.232-.032,9.332-.032.936.258,1.162,1.195,1.162q14.773-.048,29.514-.032h1.033v-13.11c-.678.484-1.259.872-1.808,1.292-1.389.969-2.1.807-3-.678C61.147,150.212,60.4,149.05,59.565,147.661Z" transform="translate(-23.626 -99.871)"/><path class="e" d="M46.854,77.562H2.357c-2,0-2.357-.323-2.357-2.325Q0,41.429,0,7.653C0,4.166,1.518,1.711,4.521.549A7.649,7.649,0,0,1,7.362.032Q46.838-.016,86.313,0a7.069,7.069,0,0,1,7.362,7.427c.032,6.684,0,13.4,0,20.085v47.6c0,2.067-.323,2.422-2.357,2.422Q69.086,77.579,46.854,77.562ZM90.64,19.794H3.068V74.463H90.64ZM3.068,16.63h87.6V7.621c0-3-1.679-4.618-4.682-4.618H8.04c-.387,0-.807,0-1.195.032A3.993,3.993,0,0,0,3.1,6.716C2.971,10.01,3.068,13.272,3.068,16.63Z"/><path class="e" d="M61.548,104.591V122.48c0,1.485-.42,1.905-1.905,1.905H25.705c-1.421,0-1.905-.484-1.905-1.937V86.8c0-1.55.549-2.1,2.26-2.1h33.13a5.211,5.211,0,0,1,1.582.226c.71.291.807.969.807,1.679C61.548,92.611,61.548,98.585,61.548,104.591ZM58.577,87.864H26.9v17.114c1.292-1.679,2.422-3.164,3.584-4.65.452-.614.969-1.162,1.841-.9A1.706,1.706,0,0,1,33.52,101.1c.1,1.13.226,2.26.355,3.391.194,1.615.387,3.2.581,4.908a5.748,5.748,0,0,0,.678-.355c1.97-1.195,3.939-2.422,5.909-3.617,1.259-.775,1.776-.71,2.777.42.775.84,1.518,1.711,2.26,2.551.355.387.743.775,1.195,1.292.129-.517.194-.84.291-1.162.517-2.519,1.066-5.037,1.582-7.556.161-.775.517-1.421,1.356-1.55.84-.161,1.356.387,1.744,1.066.194.387.452.743.678,1.13.969,1.582,1.905,3.2,2.906,4.844a18.113,18.113,0,0,1,1.905-1.292,1.735,1.735,0,0,0,.9-1.808c-.032-3.584-.032-7.169-.032-10.753C58.577,91.061,58.577,89.479,58.577,87.864ZM51.409,105.14c-.161.549-.258.872-.323,1.162L49.73,112.7c-.161.775-.323,1.518-1.227,1.776-.936.258-1.421-.355-1.937-.936-1.324-1.453-2.648-2.906-3.939-4.424-.517-.581-.872-.581-1.518-.194-2.325,1.453-4.65,2.874-7.007,4.295a1.537,1.537,0,0,1-2.486-1.292c-.226-2.034-.452-4.069-.678-6.071a5.811,5.811,0,0,0-.226-.872c-1.324,1.711-2.519,3.261-3.681,4.844a1.9,1.9,0,0,0-.258,1.13c-.032,3.1.032,6.232-.032,9.332-.032.936.258,1.162,1.195,1.162q14.773-.048,29.514-.032H58.48V108.3c-.678.484-1.259.872-1.808,1.292-1.389.969-2.1.807-3-.678C52.991,107.691,52.248,106.529,51.409,105.14Z" transform="translate(-16.115 -57.35)"/><path class="e" d="M177.384,84.3A13.9,13.9,0,1,1,163.5,98.056,13.967,13.967,0,0,1,177.384,84.3Zm0,3.035a10.866,10.866,0,0,0-.032,21.732,11.06,11.06,0,0,0,10.914-10.753A10.908,10.908,0,0,0,177.384,87.335Z" transform="translate(-110.703 -57.079)"/><path class="f" d="M172.545,198.4h14.369c.71,0,1.421.129,1.615.872a1.7,1.7,0,0,1-.161,1.453,2.612,2.612,0,0,1-1.679.678c-8.88.032-17.728.032-26.608,0-.614,0-1.195.032-1.808.032-1.13-.032-1.873-.646-1.873-1.55,0-.936.678-1.485,1.873-1.485Z" transform="translate(-105.897 -134.335)"/><path class="d" d="M216.826,185.073c-1.873,0-3.746.032-5.619-.032a2.8,2.8,0,0,1-1.615-.581,1.719,1.719,0,0,1-.226-1.453c.161-.743.872-.936,1.582-.936h7.621c1.421,0,2.874-.032,4.295,0a1.512,1.512,0,0,1,1.647,1.518,1.545,1.545,0,0,1-1.582,1.485,5.2,5.2,0,0,1-.71,0Z" transform="translate(-141.718 -123.268)"/><path class="e" d="M31.8,28.151a1.517,1.517,0,0,1-1.485,1.55A1.559,1.559,0,0,1,28.8,28.183a1.5,1.5,0,0,1,3-.032Z" transform="translate(-19.5 -18.076)"/><path class="e" d="M53.1,28.218a1.5,1.5,0,0,1-1.55,1.485,1.5,1.5,0,0,1,.065-3A1.489,1.489,0,0,1,53.1,28.218Z" transform="translate(-33.922 -18.078)"/><path class="e" d="M74.5,28.25a1.588,1.588,0,0,1-1.582,1.485A1.5,1.5,0,0,1,71.5,28.121,1.468,1.468,0,0,1,72.983,26.7,1.544,1.544,0,0,1,74.5,28.25Z" transform="translate(-48.41 -18.078)"/><path class="a" d="M183.749,93.7a10.866,10.866,0,0,0-.032,21.732,11.06,11.06,0,0,0,10.914-10.753A10.908,10.908,0,0,0,183.749,93.7Z" transform="translate(-117.069 -63.444)"/><path class="g" d="M197.874,114.577c-.129,2.2-.517,2.842-1.582,2.842-1,0-1.389-.646-1.582-2.712-.387-.032-.775-.065-1.162-.129a1.487,1.487,0,0,1,.129-2.971c1.033-.032,2.067,0,3.1-.032.581,0,1.227-.065,1.195-.872s-.646-.807-1.259-.807c-.581,0-1.13,0-1.711-.032a3.877,3.877,0,0,1-3.487-3.229,3.761,3.761,0,0,1,2.357-4.1,1.025,1.025,0,0,0,.84-1.195c-.032-1.292.517-1.937,1.518-1.937.969,0,1.485.646,1.518,1.937,0,.226.032.452.032.807.355.032.71.032,1.066.065a1.457,1.457,0,0,1,1.518,1.518,1.442,1.442,0,0,1-1.55,1.485q-1.55.048-3.1,0c-.581,0-1.13.1-1.162.807-.032.775.581.872,1.195.84h1.292a3.921,3.921,0,0,1,3.907,3.1,3.844,3.844,0,0,1-2.616,4.424A2.082,2.082,0,0,1,197.874,114.577Z" transform="translate(-129.644 -67.303)"/><path class="h" d="M12.427,25.927h87.6V16.918c0-3-1.679-4.618-4.682-4.618H17.4c-.387,0-.807,0-1.195.032a3.993,3.993,0,0,0-3.746,3.681C12.33,19.307,12.427,22.568,12.427,25.927Z" transform="translate(-8.391 -8.328)"/></g></svg>