<svg xmlns="http://www.w3.org/2000/svg" xmlns:xlink="http://www.w3.org/1999/xlink" viewBox="837 4799 224.044 228.522"><defs><style>.a,.c{fill:#fff;}.b{fill:#f4f4f4;}.c,.e{opacity:0.5;}.d,.e,.f{fill:#0071ef;}.f{opacity:0.2;}.g{fill:#000078;}.h{fill:#ff7c5c;}.i{filter:url(#a);}</style><filter id="a" x="837" y="4799" width="224.044" height="228.522" filterUnits="userSpaceOnUse"><feOffset dy="10" input="SourceAlpha"/><feGaussianBlur stdDeviation="5" result="b"/><feFlood flood-opacity="0.11"/><feComposite operator="in" in2="b"/><feComposite in="SourceGraphic"/></filter></defs><g class="i" transform="matrix(1, 0, 0, 1, 0, 0)"><rect class="a" width="194.044" height="198.522" rx="25" transform="translate(852 4804)"/></g><g transform="translate(919 4864.001)"><g transform="translate(0.327 0.653)"><path class="b" d="M23.679,172.267c-.065-3.986-2.516-6.959-6.371-7.221a71.512,71.512,0,0,0-9.9,0A6.81,6.81,0,0,0,1.07,172.2c0,2.777-.033,5.554,0,8.331a6.742,6.742,0,0,0,6.142,6.894,70.778,70.778,0,0,0,10.194.033,6.691,6.691,0,0,0,6.24-6.7c.065-1.5,0-3.006,0-4.509h.033C23.679,174.914,23.712,173.574,23.679,172.267Z" transform="translate(-1.054 -111.676)"/><path class="b" d="M7.045,105.86a77.259,77.259,0,0,0,10.292.033,6.708,6.708,0,0,0,6.306-6.73c.065-1.47,0-2.94,0-4.443h.033c0-1.34.033-2.712,0-4.051-.065-3.986-2.516-6.959-6.371-7.221a71.5,71.5,0,0,0-9.9,0A6.8,6.8,0,0,0,1.1,89.916c-.065,3.169-.065,6.306,0,9.475A6.659,6.659,0,0,0,7.045,105.86ZM7.176,90.5a.9.9,0,0,1,1.013-1.013H16.52a.929.929,0,0,1,1.046.98h-8.4a.9.9,0,0,0-1.013,1.013v8.4c-.686-.033-.98-.327-.98-1.046Q7.176,94.669,7.176,90.5Z" transform="translate(-1.05 -56.737)"/><path class="b" d="M7.47,24.61c3.267.131,6.567.131,9.834,0a6.816,6.816,0,0,0,6.338-6.338c.1-1.634.033-3.267.033-4.868h0c0-1.634.065-3.267-.033-4.868A6.9,6.9,0,0,0,16.978,2.1c-3.071-.065-6.175-.065-9.246,0A6.915,6.915,0,0,0,1.1,8.633c-.065,3.1-.065,6.24,0,9.377A6.786,6.786,0,0,0,7.47,24.61Zm.817-16.4h8.168c.784,0,1.111.327,1.111,1.078V9.32h-8.4a.9.9,0,0,0-1.013,1.013v8.233c-.686-.033-.98-.392-.98-1.111v-8.2C7.176,8.5,7.5,8.209,8.287,8.209Z" transform="translate(-1.05 -2.05)"/><path class="b" d="M109.166,160.649a2.705,2.705,0,0,0-3.1-.229,3.018,3.018,0,0,0-1.666,2.744c-.033,1.307,0,2.614,0,3.921a3.117,3.117,0,0,1-3.137,3.137c-1.7.033-3.4,0-5.1,0-.2,0-.392-.033-.751-.065.294-.327.457-.49.621-.686l3.5-3.5a3.067,3.067,0,1,0-4.313-4.345c-3.039,3.006-6.044,6.044-9.083,9.083-1.732,1.732-1.732,3.4.033,5.13,2.973,2.94,5.914,5.914,8.887,8.854a6.838,6.838,0,0,0,.915.784,3.028,3.028,0,0,0,3.823-4.607c-1.274-1.34-2.614-2.646-3.921-3.953-.163-.163-.294-.327-.555-.621h5.914a9.052,9.052,0,0,0,8.92-7.253,28.823,28.823,0,0,0,.163-6.5A2.955,2.955,0,0,0,109.166,160.649Z" transform="translate(-57.462 -108.422)"/><path class="b" d="M140.524,96.673a2.08,2.08,0,0,1-1.307-2.352c.065-.751.2-1.209.882-1.536a2.286,2.286,0,0,0,1.4-1.634c.261-1.209-1.274-3.757-2.483-3.986a3.594,3.594,0,0,0-1.438.131c-.327.1-.588.359-.915.49a1.24,1.24,0,0,1-.751.1,2.064,2.064,0,0,1-1.536-2.287c0-1.046-.425-1.634-1.47-1.732a31.779,31.779,0,0,0-3.529-.033,1.228,1.228,0,0,0-1.242,1.34c-.033.359.033.719-.033,1.046-.033.261-.131.588-.327.686a10.764,10.764,0,0,1-1.7.948.937.937,0,0,1-.719-.065c-.294-.131-.555-.327-.849-.49a2.066,2.066,0,0,0-2.842.686,18.417,18.417,0,0,0-1.013,1.732,1.977,1.977,0,0,0,.751,2.744c.98.523,1.7,1.078,1.274,2.156.065,1.209.065,1.209-.915,1.764a2.145,2.145,0,0,0-.947,3.267c.163.294.327.555.49.849.98,1.732,1.993,1.993,3.692.98a1.459,1.459,0,0,1,1.5-.033,2.432,2.432,0,0,1,1.7,2.581c0,1.5.882,2.156,2.385,2.156a3.533,3.533,0,0,1,.588,0,2.8,2.8,0,0,0,3.2-3.2,1.256,1.256,0,0,1,.163-.849,2.09,2.09,0,0,1,2.875-.457,2.112,2.112,0,0,0,3.039-.784c.294-.457.555-.947.817-1.438A1.958,1.958,0,0,0,140.524,96.673Zm-13.3-1.634a3.723,3.723,0,0,1,6.24-2.777,3.228,3.228,0,0,0-1.568-.327,3.744,3.744,0,0,0-3.692,3.757,3.669,3.669,0,0,0,1.176,2.712A3.73,3.73,0,0,1,127.226,95.039Z" transform="translate(-81.403 -57.09)"/><path class="b" d="M92.084,33.46h11.795a3.14,3.14,0,0,1,3.3,3.235c.033,1.078,0,2.156,0,3.235a3.058,3.058,0,1,0,6.11.033q.049-1.617,0-3.235a9.319,9.319,0,0,0-9.606-9.344H98.357c-2.058,0-4.117-.033-6.175.033a3.284,3.284,0,0,0-1.568.392,2.976,2.976,0,0,0-1.5,3.431A3.1,3.1,0,0,0,92.084,33.46Z" transform="translate(-60.277 -19.101)"/></g><path class="c" d="M147.092,114.248a3.725,3.725,0,1,0-3.692-3.692A3.688,3.688,0,0,0,147.092,114.248Z" transform="translate(-96.564 -71.921)"/><path class="c" d="M26.995,32.69h4.117c.686,0,1.078-.327,1.078-.98.033-2.81,0-5.62,0-8.4A.923.923,0,0,0,31.144,22.3H22.813A.9.9,0,0,0,21.8,23.313v8.331c0,.751.327,1.046,1.046,1.046Z" transform="translate(-14.694 -15.03)"/><path class="c" d="M26.995,113.69h4.117c.686,0,1.078-.327,1.078-.98.033-2.81,0-5.62,0-8.4a.923.923,0,0,0-1.046-1.013H22.813a.9.9,0,0,0-1.013,1.013v8.331c0,.751.327,1.046,1.046,1.046Z" transform="translate(-14.694 -69.566)"/><path class="d" d="M22.747,174.253c0,1.5.065,3.006,0,4.509a6.74,6.74,0,0,1-6.24,6.7,70.755,70.755,0,0,1-10.194-.033A6.742,6.742,0,0,1,.17,178.533c-.033-2.777,0-5.554,0-8.331,0-3.855,2.516-6.894,6.338-7.155a71.507,71.507,0,0,1,9.9,0c3.855.261,6.306,3.235,6.371,7.221,0,1.307-.033,2.646-.033,3.986Z" transform="translate(-0.121 -109.676)"/><path class="e" d="M22.676,92.818c0,1.47.065,2.973,0,4.443a6.755,6.755,0,0,1-6.306,6.73,77.29,77.29,0,0,1-10.292-.033A6.7,6.7,0,0,1,.1,97.458c-.065-3.169-.065-6.306,0-9.475A6.744,6.744,0,0,1,6.4,81.547a71.5,71.5,0,0,1,9.9,0c3.855.261,6.306,3.235,6.371,7.221.033,1.372,0,2.712,0,4.051Zm-11.3,5.13h4.117c.686,0,1.078-.327,1.078-.98.033-2.81,0-5.62,0-8.4a.923.923,0,0,0-1.046-1.013H7.189a.9.9,0,0,0-1.013,1.013V96.9c0,.751.327,1.046,1.046,1.046Z" transform="translate(-0.05 -54.804)"/><path class="f" d="M22.643,11.4c0,1.634.065,3.267-.033,4.868a6.79,6.79,0,0,1-6.338,6.338c-3.267.131-6.567.131-9.834,0A6.782,6.782,0,0,1,.1,16.01Q0,11.306.1,6.6A6.91,6.91,0,0,1,6.731.1C9.8.034,12.907.034,15.978.1A6.874,6.874,0,0,1,22.61,6.535c.1,1.6.033,3.235.033,4.868ZM11.4,6.209H7.287c-.784,0-1.078.294-1.078,1.078v8.2c0,.751.327,1.111,1.111,1.111h8.2a.973.973,0,0,0,1.111-1.111v-8.2c0-.751-.327-1.078-1.111-1.078Z" transform="translate(-0.05 -0.05)"/><path class="g" d="M94.471,168.229c.359.033.555.065.751.065,1.7,0,3.4.033,5.1,0a3.117,3.117,0,0,0,3.137-3.137c.033-1.307-.033-2.614,0-3.921a2.908,2.908,0,0,1,1.666-2.744,2.648,2.648,0,0,1,3.1.229,3.326,3.326,0,0,1,1.209,1.96,30.865,30.865,0,0,1-.163,6.5,9.046,9.046,0,0,1-8.92,7.253H94.438c.229.261.392.457.555.621,1.307,1.307,2.646,2.614,3.921,3.953a3.028,3.028,0,0,1-3.823,4.607,5.073,5.073,0,0,1-.915-.784c-2.973-2.941-5.914-5.914-8.887-8.854-1.732-1.732-1.764-3.4-.033-5.13,3.039-3.039,6.044-6.077,9.083-9.083a3.045,3.045,0,0,1,5.195,1.046,3.08,3.08,0,0,1-.882,3.3c-1.176,1.176-2.352,2.32-3.5,3.5A2.771,2.771,0,0,0,94.471,168.229Z" transform="translate(-56.555 -106.462)"/><path class="h" d="M121.637,92.788c.425-1.078-.294-1.634-1.274-2.156a1.977,1.977,0,0,1-.751-2.744,18.412,18.412,0,0,1,1.013-1.732,2.088,2.088,0,0,1,2.842-.686c.294.163.555.359.85.49a.937.937,0,0,0,.719.065,10.763,10.763,0,0,0,1.7-.948,1.05,1.05,0,0,0,.327-.686c.065-.327,0-.686.033-1.046a1.285,1.285,0,0,1,1.242-1.34,25.438,25.438,0,0,1,3.529.033c1.013.065,1.438.653,1.47,1.732a2.064,2.064,0,0,0,1.536,2.287,1.212,1.212,0,0,0,.751-.1c.327-.131.588-.392.915-.49a3.092,3.092,0,0,1,1.438-.131c1.209.229,2.744,2.81,2.483,3.986a2.237,2.237,0,0,1-1.4,1.634c-.686.327-.817.784-.882,1.536a2.136,2.136,0,0,0,1.307,2.352,2.024,2.024,0,0,1,.719,2.875c-.261.49-.523.98-.817,1.438a2.118,2.118,0,0,1-3.039.784,2.127,2.127,0,0,0-2.875.457,1.255,1.255,0,0,0-.163.849,2.813,2.813,0,0,1-3.2,3.2,3.535,3.535,0,0,0-.588,0c-1.5,0-2.385-.686-2.385-2.156a2.4,2.4,0,0,0-1.7-2.581,1.457,1.457,0,0,0-1.5.033c-1.7,1.013-2.712.751-3.692-.98-.163-.294-.327-.555-.49-.849-.784-1.4-.457-2.45.948-3.267C121.7,94,121.7,94,121.637,92.788Zm8.266,4.084a3.725,3.725,0,1,0-3.692-3.692A3.688,3.688,0,0,0,129.9,96.872Z" transform="translate(-80.355 -55.199)"/><path class="g" d="M97.493,25.37h5.326a9.34,9.34,0,0,1,9.606,9.344q.049,1.617,0,3.235a3.058,3.058,0,1,1-6.11-.033V34.682a3.14,3.14,0,0,0-3.3-3.235H91.22a3.02,3.02,0,0,1-2.941-2.254,2.9,2.9,0,0,1,1.5-3.431,4.266,4.266,0,0,1,1.568-.392C93.376,25.337,95.434,25.37,97.493,25.37Z" transform="translate(-59.38 -17.088)"/></g></svg>