<svg xmlns="http://www.w3.org/2000/svg" xmlns:xlink="http://www.w3.org/1999/xlink" viewBox="539 2818 224.044 228.522"><defs><style>.a{fill:#fff;}.b{fill:#f4f4f4;}.c{fill:#ff7c5c;}.d{fill:#000078;}.e,.f,.g{fill:#0071ef;}.e{opacity:0.2;}.f{opacity:0.5;}.h{filter:url(#a);}</style><filter id="a" x="539" y="2818" width="224.044" height="228.522" filterUnits="userSpaceOnUse"><feOffset dy="10" input="SourceAlpha"/><feGaussianBlur stdDeviation="5" result="b"/><feFlood flood-opacity="0.102"/><feComposite operator="in" in2="b"/><feComposite in="SourceGraphic"/></filter></defs><g class="h" transform="matrix(1, 0, 0, 1, 0, 0)"><rect class="a" width="194.044" height="198.522" rx="25" transform="translate(554 2823)"/></g><g transform="translate(614 2875.27)"><g transform="translate(0.366 1.829)"><path class="b" d="M71.412,107.711a8.587,8.587,0,0,0-7.335-6.347,8.369,8.369,0,0,0-8.03,5.524,6.883,6.883,0,0,0-.128,4.573,8.9,8.9,0,0,0,5.03,5.433c-8.762,19.353-17.487,38.633-26.249,57.986,1.207.549,2.36,1.079,3.329,1.518.567-.6.915-1.244,1.445-1.5,7.756-3.622,15.53-7.17,23.286-10.756a1.765,1.765,0,0,1,1.628,0c7.353,3.4,14.707,6.768,22.06,10.152,1.043.476,2.232.75,2.433,2.232,1.262-.585,2.4-1.1,3.6-1.646q-13.17-29.112-26.249-57.967C70.9,114.643,72.125,110.528,71.412,107.711Zm-11.89,1.573a3.771,3.771,0,0,1,4.079-4.024,3.906,3.906,0,0,1,3.311,1.5,4.4,4.4,0,0,0-2.579-.768,3.78,3.78,0,0,0-4.079,4.024A4.5,4.5,0,0,0,61,112.7,4.042,4.042,0,0,1,59.522,109.284Zm-3.969,29.011c1.573,1.134,3.073,2.2,4.683,3.366-3.036,2.177-5.981,4.28-8.927,6.384-.037-.055-.073-.091-.11-.146C52.644,144.734,54.09,141.569,55.553,138.295ZM41.34,169.7c2.067-4.573,4.043-8.908,6.036-13.353,3.823,1.756,7.591,3.475,11.524,5.286C53.047,164.324,47.321,166.958,41.34,169.7Zm44.523,0c-6-2.762-11.725-5.378-17.56-8.067,3.878-1.774,7.628-3.512,11.506-5.286C81.8,160.739,83.777,165.093,85.863,169.7Zm-9.274-16.188c-1.134.53-2.25,1.061-3.384,1.573-2.963,1.354-5.908,2.726-8.872,4.043a1.686,1.686,0,0,1-1.189.091q-6.119-2.744-12.2-5.579c-.11-.055-.183-.146-.348-.256,2.707-1.939,5.378-3.86,8.048-5.78,1.482-1.061,2.963-2.14,4.463-3.165a1.05,1.05,0,0,1,.933-.037c4.152,2.945,8.268,5.908,12.4,8.872C76.479,153.331,76.5,153.386,76.589,153.514ZM76,147.935c-.037.037-.091.073-.128.11-2.927-2.1-5.853-4.189-8.908-6.384,1.61-1.152,3.11-2.232,4.683-3.366C73.113,141.551,74.558,144.752,76,147.935Zm-6-13.28c-2.158,1.555-4.262,3.055-6.4,4.591-2.122-1.518-4.207-3.036-6.384-4.591,2.1-4.646,4.189-9.256,6.384-14.1C65.778,125.344,67.863,129.954,70,134.655Z" transform="translate(-28.716 -84.644)"/><path class="b" d="M12.049,59.151c.9-.86,1.793-1.719,2.744-2.616a30.8,30.8,0,0,1,0-43.846c-.951-.951-1.829-1.811-2.726-2.689C-1.817,23.518-.92,46.932,12.049,59.151Z" transform="translate(-1.985 -10)"/><path class="b" d="M313.618,57.034c.933.969,1.793,1.884,2.652,2.78,14.414-14.231,12.457-37.7.073-49.114-.915.86-1.811,1.719-2.744,2.6a30.781,30.781,0,0,1,.018,43.736Z" transform="translate(-256.599 -10.572)"/><path class="b" d="M276.573,79.39c.933.969,1.811,1.884,2.689,2.78,10.28-10.28,8.89-27.493-.165-35.871-.841.915-1.7,1.811-2.6,2.78a21.44,21.44,0,0,1,.073,30.31Z" transform="translate(-226.286 -39.66)"/><path class="b" d="M61.67,82.206c.915-.878,1.811-1.756,2.726-2.634a21.446,21.446,0,0,1,.037-30.346c-.878-.915-1.774-1.811-2.652-2.726C51.682,56.213,52.505,73.81,61.67,82.206Z" transform="translate(-44.893 -39.823)"/><path class="b" d="M107.985,104.986c.677-.713,1.372-1.445,2.049-2.177.165-.183.329-.366.476-.53a12.627,12.627,0,0,1-.091-17.871L107.765,81.7C101.2,87.974,102.022,99.827,107.985,104.986Z" transform="translate(-84.66 -68.585)"/><path class="b" d="M242.237,101.332l2.689,2.689c6.64-6.384,5.652-18.255-.055-23.121L242.2,83.516A12.548,12.548,0,0,1,242.237,101.332Z" transform="translate(-198.26 -67.931)"/></g><path class="c" d="M180.539,120.816a4.07,4.07,0,0,0-8.14-.091c-.018,2.561,1.463,4.116,3.933,4.152C178.984,124.913,180.521,123.431,180.539,120.816Z" transform="translate(-140.861 -95.353)"/><path class="d" d="M90.584,164.8c-1.207.549-2.341,1.061-3.6,1.646-.2-1.5-1.39-1.756-2.433-2.232-7.353-3.384-14.707-6.75-22.06-10.152a1.765,1.765,0,0,0-1.628,0c-7.756,3.585-15.548,7.134-23.286,10.756-.53.256-.9.9-1.445,1.5-.969-.439-2.122-.969-3.329-1.518,8.762-19.353,17.487-38.633,26.249-58a8.9,8.9,0,0,1-5.03-5.433,6.886,6.886,0,0,1,.128-4.573,8.369,8.369,0,0,1,8.03-5.524,8.563,8.563,0,0,1,7.335,6.347c.713,2.817-.512,6.933-5.158,9.2Q77.414,135.759,90.584,164.8ZM74.67,143.432c-.091-.128-.11-.183-.146-.219-4.134-2.963-8.25-5.945-12.4-8.872a1.05,1.05,0,0,0-.933.037c-1.518,1.024-2.982,2.1-4.463,3.165-2.671,1.921-5.341,3.841-8.048,5.78a2.737,2.737,0,0,0,.348.256c4.061,1.866,8.122,3.75,12.2,5.579a1.686,1.686,0,0,0,1.189-.091q4.445-2,8.872-4.043C72.4,144.475,73.518,143.963,74.67,143.432Zm-6.585-18.859c-2.14-4.7-4.225-9.311-6.4-14.1-2.2,4.847-4.28,9.457-6.384,14.1,2.177,1.573,4.28,3.073,6.384,4.591C63.823,127.628,65.909,126.128,68.085,124.573ZM39.422,159.621c5.981-2.744,11.689-5.378,17.56-8.067-3.933-1.811-7.7-3.53-11.524-5.286C43.464,150.694,41.489,155.029,39.422,159.621Zm44.523,0c-2.085-4.61-4.061-8.945-6.055-13.353-3.878,1.774-7.628,3.512-11.506,5.286C72.219,154.243,77.945,156.858,83.944,159.621Zm-18.2-60.327A4.07,4.07,0,0,0,57.6,99.2c-.018,2.561,1.463,4.116,3.933,4.152C64.189,103.391,65.726,101.909,65.744,99.293ZM49.281,137.835c.037.055.073.091.11.146,2.945-2.1,5.89-4.225,8.927-6.384-1.61-1.152-3.11-2.232-4.683-3.366C52.171,131.487,50.726,134.652,49.281,137.835Zm15.768-6.256c3.055,2.2,5.981,4.28,8.908,6.384.037-.037.091-.073.128-.11-1.445-3.183-2.89-6.384-4.372-9.64C68.14,129.347,66.659,130.426,65.049,131.579Z" transform="translate(-26.798 -74.563)"/><path class="e" d="M10.067,0c.878.878,1.774,1.756,2.726,2.689a30.708,30.708,0,0,0-9.164,21.9c0,8.542,3.238,15.8,9.164,21.95-.951.9-1.847,1.756-2.744,2.616C-2.92,36.932-3.817,13.518,10.067,0Z" transform="translate(0.015)"/><path class="e" d="M314.271,49.814c-.86-.9-1.719-1.793-2.652-2.78A30.781,30.781,0,0,0,311.6,3.3c.933-.9,1.829-1.738,2.744-2.6C326.709,12.133,328.685,35.583,314.271,49.814Z" transform="translate(-254.599 -0.572)"/><path class="f" d="M274.4,39.08c.9-.969,1.756-1.866,2.6-2.78,9.055,8.378,10.445,25.591.165,35.871-.878-.915-1.738-1.811-2.689-2.78a21.44,21.44,0,0,0-.073-30.31Z" transform="translate(-224.204 -29.66)"/><path class="f" d="M59.779,36.6c.878.915,1.774,1.811,2.652,2.726A21.446,21.446,0,0,0,62.4,69.672c-.9.878-1.811,1.756-2.726,2.634C50.505,63.892,49.682,46.295,59.779,36.6Z" transform="translate(-42.893 -29.905)"/><path class="g" d="M108.621,92.279c-.165.183-.311.366-.476.53-.7.732-1.372,1.463-2.049,2.177-5.963-5.158-6.786-17.012-.2-23.286.878.9,1.756,1.811,2.652,2.707A12.61,12.61,0,0,0,108.621,92.279Z" transform="translate(-82.753 -58.585)"/><path class="g" d="M240.2,73.516l2.671-2.616c5.707,4.866,6.695,16.737.055,23.121l-2.689-2.689A12.548,12.548,0,0,0,240.2,73.516Z" transform="translate(-196.26 -57.931)"/></g></svg>