<svg xmlns="http://www.w3.org/2000/svg" xmlns:xlink="http://www.w3.org/1999/xlink" viewBox="1135 3221 224.044 228.522"><defs><style>.a{fill:#fff;}.b{fill:#f4f4f4;}.c{fill:#f2f3f4;}.d{fill:#ff7c5c;}.e,.f,.g{fill:#0071ef;}.f{opacity:0.5;}.g,.i{opacity:0.2;}.h{fill:#000078;}.j{filter:url(#a);}</style><filter id="a" x="1135" y="3221" width="224.044" height="228.522" filterUnits="userSpaceOnUse"><feOffset dy="10" input="SourceAlpha"/><feGaussianBlur stdDeviation="5" result="b"/><feFlood flood-opacity="0.102"/><feComposite operator="in" in2="b"/><feComposite in="SourceGraphic"/></filter></defs><g class="j" transform="matrix(1, 0, 0, 1, 0, 0)"><rect class="a" width="194.044" height="198.522" rx="25" transform="translate(1150 3226)"/></g><g transform="translate(1211.1 3288.001)"><path class="b" d="M76.052,35.259a2.449,2.449,0,0,0-.858-1.978c-3.588-3.343-7.142-6.7-10.713-10.048a1.212,1.212,0,0,1-.438-1c.018-2.486.018-4.954,0-7.439a5.156,5.156,0,0,0-.123-1.383,4.371,4.371,0,0,0-4.586-3.4c-12.533,0-25.067.018-37.6-.018a4.576,4.576,0,0,0-4.8,4.8c.088,2.521.035,5.041,0,7.562a1.382,1.382,0,0,1-.385.875c-.665.683-1.383,1.313-2.083,1.978q-4.332,4.07-8.7,8.157A1.941,1.941,0,0,0,5,34.8c.018,2.486-.018,4.954.035,7.439A8.23,8.23,0,0,0,12,50.085a1.448,1.448,0,0,1,.508.158.34.34,0,0,1,.158.245h0c0,.018.018.053.018.07v.017a.105.105,0,0,0,.018.07v.228h0V77.3a5.193,5.193,0,0,0,.053.735,2.718,2.718,0,0,0,.07.368,4.5,4.5,0,0,0,4.656,3.5h45.88A4.74,4.74,0,0,0,66.441,81a4.6,4.6,0,0,0,.875-.875,3.3,3.3,0,0,0,.28-.4c.088-.158.175-.315.263-.49a5.363,5.363,0,0,0,.438-2.223c0-4.376-.018-8.735-.018-13.111V50.418a.105.105,0,0,1,.018-.07h0c0-.018.018-.053.018-.07h0c.018-.018.018-.035.035-.053v-.018l.053-.053a.62.62,0,0,1,.385-.123,8.15,8.15,0,0,0,5.2-2.818L74,47.2l.21-.263.018-.018.21-.263a.017.017,0,0,1,.018-.018,2.672,2.672,0,0,0,.193-.28h0c.07-.105.123-.193.193-.3h0a7.726,7.726,0,0,0,1.12-3.676C76.087,40.055,76,37.657,76.052,35.259ZM50.88,63.949v-6.7a4.117,4.117,0,0,0-.07-.7,1.7,1.7,0,0,0-.6-.98,2.063,2.063,0,0,0-.333-.193,2.5,2.5,0,0,0-.385-.14,2.969,2.969,0,0,0-.7-.07H32.272a4.3,4.3,0,0,0-.49.035,1.712,1.712,0,0,0-1.313.788,2.509,2.509,0,0,0-.3,1.278v10.7H16.4v-.63c0-5.654,0-11.291-.018-16.945h0a.54.54,0,0,1,.018-.175V50.19a.511.511,0,0,1,.035-.158c.053-.21.193-.35.49-.455a8.27,8.27,0,0,0,3.4-2.486,8.416,8.416,0,0,0,6.722,3.133A8.432,8.432,0,0,0,33.8,47.092a8.811,8.811,0,0,0,13.461.018,8.852,8.852,0,0,0,13.409.123c.893.665,1.768,1.33,2.661,2a.949.949,0,0,0,.315.175.969.969,0,0,1,.963.735,2.587,2.587,0,0,1,.07.665v.245c-.017,2.678-.017,5.356-.017,8.052v8.822H50.88C50.88,66.54,50.88,65.244,50.88,63.949ZM33.848,58.8H47.186v1.225H34.723v18.2h-.875ZM50.477,38.182a1.839,1.839,0,0,0-.035.228c0,1.505,0,3.011.035,4.5a7.219,7.219,0,0,0,.175,1.505,5.625,5.625,0,0,0,.6,1.4,4.646,4.646,0,0,1-2-2.8,5.452,5.452,0,0,1-.175-1.505c-.035-1.505-.018-3.011-.035-4.5a1.839,1.839,0,0,1,.035-.228H58.9v1.4ZM45.4,38.164H37.069v5.847a1.8,1.8,0,0,0,.088.42,5.2,5.2,0,0,0,.613,1.383,4.769,4.769,0,0,1-2.013-2.783,1.8,1.8,0,0,1-.088-.42V36.764H45.4v.98Q45.4,37.954,45.4,38.164Zm-13.479,0h-8.4a3.207,3.207,0,0,0-.035.368c.018,1.68.035,3.361.07,5.041a3.222,3.222,0,0,0,.088.718,4.616,4.616,0,0,0,.63,1.47,4.7,4.7,0,0,1-2.031-2.871,3.352,3.352,0,0,1-.088-.718c-.035-1.68-.053-3.361-.07-5.041a2.882,2.882,0,0,1,.035-.368h9.715c.035.07.07.105.07.14C31.922,37.324,31.922,37.744,31.922,38.164Zm-1.8,34.712H17.236v5.391c-.088-.018-.158-.018-.228-.035a.756.756,0,0,1-.455-.28,1.687,1.687,0,0,1-.193-.963V71.651H30.119Zm20.8,5.374V71.633H64.6c0,.105.018.193.018.3s.017.193.017.3v.648H51.79V78.3h-.7A.513.513,0,0,0,50.915,78.25ZM72.358,37.342v.84h-8.42v4.779a5.312,5.312,0,0,0,.735,2.818,4.708,4.708,0,0,1-2.136-4.219V36.782h9.785C72.341,36.992,72.358,37.167,72.358,37.342ZM20.6,14.656c0-.735.245-.98,1-.98H59.37c.665,0,.98.28.98.893v.508H22.977c-.735,0-.98.245-1,.98-.018,1.225,0,2.433,0,3.658V21.8h-1.4V18.314C20.6,17.106,20.6,15.881,20.6,14.656ZM12.615,31.968c2.171-2.031,4.324-4.061,6.494-6.074a1.55,1.55,0,0,1,.945-.368q20.454-.026,40.891-.018a1.359,1.359,0,0,1,1.015.4q3.387,3.2,6.809,6.372c.228.228.473.438.77.735h-.088c-2.031-1.908-4.079-3.8-6.092-5.707a1.359,1.359,0,0,0-1.015-.4c-13.636.018-27.255,0-40.891.018a1.55,1.55,0,0,0-.945.368c-2.048,1.891-4.1,3.816-6.127,5.724H11.477C11.914,32.615,12.264,32.283,12.615,31.968ZM9.131,43.854a5.173,5.173,0,0,1-.455-1.926c-.07-1.47-.053-2.958-.07-4.446v-.735h9.8c.018.193.035.35.035.525v.875H10.006v.735c.018,1.488-.018,2.958.07,4.446a5.173,5.173,0,0,0,.455,1.926,5.779,5.779,0,0,0,.315.56A4.7,4.7,0,0,1,9.131,43.854Z" transform="translate(-4.207 -8.25)"/><path class="c" d="M45.1,104.11h58.063c-.315-.3-.543-.525-.77-.735Q98.979,100.2,95.584,97a1.359,1.359,0,0,0-1.015-.4c-13.636.018-27.255,0-40.891.018a1.55,1.55,0,0,0-.945.368c-2.188,2.013-4.341,4.044-6.494,6.074C45.87,103.374,45.52,103.707,45.1,104.11Z" transform="translate(-37.288 -79.691)"/><path class="d" d="M97.1,37.122h39.771V29.893c0-.613-.333-.893-.98-.893H98.115c-.735,0-.98.245-1,.98-.018,1.225,0,2.433,0,3.658C97.1,34.794,97.1,35.949,97.1,37.122Z" transform="translate(-80.185 -23.924)"/><path class="c" d="M28.6,160.9v.735c.018,1.488-.018,2.958.07,4.446a5.173,5.173,0,0,0,.455,1.926A4.865,4.865,0,0,0,34.8,170.58a4.7,4.7,0,0,0,3.658-4.761c.018-1.453,0-2.923,0-4.376,0-.175-.035-.35-.035-.525C35.129,160.9,31.908,160.9,28.6,160.9Z" transform="translate(-23.676 -132.736)"/><path class="c" d="M105.735,160.735a3.208,3.208,0,0,0-.035.368c.018,1.68.035,3.361.07,5.041a3.222,3.222,0,0,0,.088.718,4.776,4.776,0,0,0,5.024,3.641,4.582,4.582,0,0,0,4.586-4.254c.14-1.8.053-3.606.07-5.409,0-.035-.035-.07-.07-.14C112.229,160.735,108.991,160.735,105.735,160.735Z" transform="translate(-87.28 -132.571)"/><path class="c" d="M269.455,161h-9.82a1.837,1.837,0,0,0-.035.228c0,1.505,0,3.011.035,4.5a7.218,7.218,0,0,0,.175,1.505,4.9,4.9,0,0,0,9.558-.63,23.713,23.713,0,0,0,.07-2.731C269.473,162.926,269.455,161.98,269.455,161Z" transform="translate(-214.24 -132.818)"/><path class="c" d="M336.7,161v4.779a4.9,4.9,0,0,0,9.785.543c.07-1.575.035-3.168.035-4.744,0-.175-.018-.35-.035-.56C343.247,161,340.026,161,336.7,161Z" transform="translate(-277.844 -132.818)"/><path class="c" d="M183.2,160.9v5.847a1.8,1.8,0,0,0,.088.42,4.772,4.772,0,0,0,5.164,3.518,4.648,4.648,0,0,0,4.464-4.6c.035-1.4.017-2.8.017-4.2v-.98Z" transform="translate(-151.214 -132.736)"/><path class="e" d="M83.741,365.8c-.21.017-.4.035-.6.035H71.278c-1.033,0-1.278-.263-1.278-1.3V359.2H83.759C83.741,361.423,83.741,363.576,83.741,365.8Z" transform="translate(-57.829 -296.324)"/><path class="f" d="M183.139,305.23H169.8V285.8h13.339Z" transform="translate(-140.16 -235.772)"/><path class="g" d="M281.024,364.614c0,.805-.315,1.138-1.085,1.138H267.528a1.84,1.84,0,0,1-.228-.035V359.1h13.689c.017.193.035.385.035.578Q281.05,362.146,281.024,364.614Z" transform="translate(-220.592 -296.241)"/><path class="h" d="M35.4,71.944H12.416a4.515,4.515,0,0,1-4.656-3.5,6.186,6.186,0,0,1-.14-1.505c0-8.682-.018-17.347,0-26.029,0-.56-.123-.735-.7-.805A8.277,8.277,0,0,1-.065,32.261c-.053-2.486-.018-4.954-.035-7.439a1.946,1.946,0,0,1,.77-1.453q4.359-4.07,8.717-8.175c.7-.648,1.418-1.278,2.083-1.978a1.382,1.382,0,0,0,.385-.875c.035-2.521.088-5.041,0-7.562A4.6,4.6,0,0,1,16.669,0C29.2.052,41.736.017,54.27.017a4.371,4.371,0,0,1,4.586,3.4A6.072,6.072,0,0,1,58.978,4.8c.018,2.486.018,4.954,0,7.439a1.212,1.212,0,0,0,.438,1c3.553,3.361,7.124,6.722,10.7,10.048a2.45,2.45,0,0,1,.858,1.978c-.053,2.4.035,4.8-.07,7.194A8.269,8.269,0,0,1,63.74,40.12c-.578.07-.508.368-.508.735v26.2a4.612,4.612,0,0,1-4.919,4.884ZM45.8,57.9H59.573v-.77c0-5.356-.017-10.73.018-16.087,0-.84-.018-1.523-1.05-1.645a.806.806,0,0,1-.315-.175c-.893-.665-1.768-1.33-2.661-2a8.84,8.84,0,0,1-13.409-.123,8.4,8.4,0,0,1-6.722,3.116A8.374,8.374,0,0,1,28.7,37.092a8.432,8.432,0,0,1-6.757,3.133,8.416,8.416,0,0,1-6.722-3.133,8.27,8.27,0,0,1-3.4,2.486.686.686,0,0,0-.525.788c.018,5.654.018,11.291.018,16.945v.63H25.089v-10.7a1.871,1.871,0,0,1,2.1-2.1H43.7a1.891,1.891,0,0,1,2.118,2.1v6.7C45.8,55.244,45.8,56.54,45.8,57.9ZM6.412,23.018H64.475c-.315-.3-.543-.525-.77-.735q-3.413-3.177-6.809-6.372a1.359,1.359,0,0,0-1.015-.4c-13.636.018-27.255,0-40.891.018a1.55,1.55,0,0,0-.945.368C11.856,17.907,9.7,19.937,7.55,21.968,7.182,22.283,6.832,22.615,6.412,23.018Zm9.1-11.221H55.285V4.568c0-.613-.333-.893-.98-.893H16.529c-.735,0-.98.245-1,.98-.018,1.225,0,2.433,0,3.658C15.514,9.469,15.514,10.625,15.514,11.8Zm13.251,37v19.43H42.1V48.8ZM25.037,61.651H11.278V66.99c0,1.05.245,1.3,1.278,1.3H24.424c.193,0,.385-.018.6-.035C25.037,66.027,25.037,63.874,25.037,61.651Zm20.8-.018V68.25a1.455,1.455,0,0,0,.228.035H58.471c.77,0,1.085-.333,1.085-1.138.017-1.645,0-3.291,0-4.936,0-.193-.018-.385-.035-.578ZM3.523,26.764V27.5c.018,1.488-.018,2.958.07,4.446a5.173,5.173,0,0,0,.455,1.926A4.865,4.865,0,0,0,9.72,36.444a4.7,4.7,0,0,0,3.658-4.761c.018-1.453,0-2.923,0-4.376,0-.175-.035-.35-.035-.525C10.053,26.764,6.832,26.764,3.523,26.764Zm13.531,0a3.207,3.207,0,0,0-.035.368c.018,1.68.035,3.361.07,5.041a3.222,3.222,0,0,0,.088.718A4.776,4.776,0,0,0,22.2,36.532a4.582,4.582,0,0,0,4.586-4.254c.14-1.8.053-3.606.07-5.409,0-.035-.035-.07-.07-.14C23.549,26.764,20.31,26.764,17.055,26.764Zm36.76.018h-9.82a1.839,1.839,0,0,0-.035.228c0,1.505,0,3.011.035,4.5a7.219,7.219,0,0,0,.175,1.505,4.9,4.9,0,0,0,9.558-.63,23.71,23.71,0,0,0,.07-2.731C53.832,28.707,53.814,27.762,53.814,26.782Zm3.641,0V31.56a4.9,4.9,0,0,0,9.785.543c.07-1.575.035-3.168.035-4.744,0-.175-.018-.35-.035-.56C64,26.782,60.781,26.782,57.455,26.782Zm-26.87-.018v5.847a1.8,1.8,0,0,0,.088.42,4.772,4.772,0,0,0,5.164,3.518,4.648,4.648,0,0,0,4.464-4.6c.035-1.4.018-2.8.018-4.2v-.98Z" transform="translate(0 0)"/><g transform="translate(7.392 33.083)"><g class="i" transform="translate(0 6.949)"><path class="e" d="M98.662,228.91a4.753,4.753,0,0,1-.508.018H96.229a7.823,7.823,0,0,1-1.435-.14,3.775,3.775,0,0,1,.07.928c-.035,5.356-.018,10.73-.018,16.087v.77H81.07v-10.66a1.876,1.876,0,0,0-2.118-2.1H62.445a1.871,1.871,0,0,0-2.1,2.1v10.7H46.568v-.63c0-5.654,0-11.291-.018-16.945a1.611,1.611,0,0,1,.035-.333,8.007,8.007,0,0,1-1.838.228H42.7c.158.123.21.315.21.648q-.026,13.023,0,26.029a6.106,6.106,0,0,0,.14,1.505,4.5,4.5,0,0,0,4.656,3.5H93.6a4.74,4.74,0,0,0,3.081-.91,4.682,4.682,0,0,0,1.838-3.974c-.018-8.735,0-17.47,0-26.2C98.54,229.26,98.5,229.05,98.662,228.91ZM60.345,256.918c-.21.018-.4.035-.6.035H47.881c-1.033,0-1.278-.263-1.278-1.3v-5.339H60.362C60.345,252.541,60.345,254.694,60.345,256.918Zm17.067-.018H64.073V237.47H77.412Zm17.452-1.085c0,.805-.315,1.138-1.085,1.138H81.368a1.836,1.836,0,0,1-.228-.035V250.3H94.829c.017.193.035.385.035.578Q94.89,253.347,94.864,255.815Z" transform="translate(-42.7 -228.7)"/></g><path class="e" d="M392.276,189A7.584,7.584,0,0,1,390,193.989,8.164,8.164,0,0,0,392.661,189Z" transform="translate(-329.206 -189)"/></g></g></svg>