<svg xmlns="http://www.w3.org/2000/svg" xmlns:xlink="http://www.w3.org/1999/xlink" viewBox="1433 2818 224.044 228.522"><defs><style>.a{fill:#fff;}.b{fill:#f4f4f4;}.c{fill:#f7f8fb;}.d,.e{fill:#0071ef;}.e{opacity:0.5;}.f{fill:#000078;}.g{fill:#ff7c5c;}.h{filter:url(#a);}</style><filter id="a" x="1433" y="2818" width="224.044" height="228.522" filterUnits="userSpaceOnUse"><feOffset dy="10" input="SourceAlpha"/><feGaussianBlur stdDeviation="5" result="b"/><feFlood flood-opacity="0.102"/><feComposite operator="in" in2="b"/><feComposite in="SourceGraphic"/></filter></defs><g class="h" transform="matrix(1, 0, 0, 1, 0, 0)"><rect class="a" width="194.044" height="198.522" rx="25" transform="translate(1448 2823)"/></g><g transform="translate(1499 2879.229)"><g transform="translate(1.174 1.667)"><g transform="translate(53.666 24.9)"><path class="b" d="M365.991,184.393c-.767-6.585-1.484-13.169-2.25-19.737a5.522,5.522,0,0,0-2.4-4.234,5.687,5.687,0,0,0-8.9,5.134c.067,1.234.217,2.467.333,3.7q.525,5.576,1.034,11.152a1.431,1.431,0,0,1-.183.917c-1.984,2.851-4,5.685-6,8.518a1.963,1.963,0,0,1-.417.317,1.009,1.009,0,0,1,0-.55c.767-2.417,1.567-4.834,2.317-7.252a5.273,5.273,0,0,0-.733-4.734,5.581,5.581,0,0,0-9.435.333c-3.017,5.118-6.118,10.185-9.119,15.32a5.814,5.814,0,0,0-.784,2.7c-.233,7.518-.383,15.02-.55,22.538a2.041,2.041,0,0,0,.05.283h20.738c.017-.133.05-.217.05-.3.15-3.217.3-6.435.417-9.652a2.182,2.182,0,0,1,.517-1.384c4.6-5.851,9.169-11.719,13.77-17.57A7.1,7.1,0,0,0,365.991,184.393Zm-17.037,9.752a.816.816,0,0,0,.617-.3c2.717-3.784,5.434-7.585,8.118-11.4a1.333,1.333,0,0,0,.167-.85q-.575-6.126-1.184-12.253c-.133-1.35-.267-2.7-.367-4.034a1.862,1.862,0,0,1,1.65-2.067,1.73,1.73,0,0,1,1.784,1.2,1.809,1.809,0,0,0-.95-.2,1.885,1.885,0,0,0-1.65,2.067c.1,1.35.233,2.7.367,4.034q.6,6.126,1.184,12.253a1.333,1.333,0,0,1-.167.85c-2.684,3.817-5.4,7.6-8.118,11.4a.817.817,0,0,1-.617.3c-2.317-.167-4.651-.35-7.018-.55.083-.283.15-.5.217-.717a.6.6,0,0,1,.067-.183C345.037,193.845,347,194.012,348.954,194.145Zm-16.07,20.288c.117-5.951.233-11.9.383-17.854a3.2,3.2,0,0,1,.433-1.517c2.917-4.934,5.885-9.852,8.835-14.77a1.782,1.782,0,0,1,2.2-.867,1.684,1.684,0,0,1,1.034,1.1l-.2-.1a1.782,1.782,0,0,0-2.2.867q-4.426,7.377-8.835,14.77a3.2,3.2,0,0,0-.433,1.517c-.15,5.785-.267,11.586-.383,17.387h-.784A5.274,5.274,0,0,1,332.884,214.433Z" transform="translate(-328.9 -159.366)"/></g><g transform="translate(0 24.806)"><path class="b" d="M43.666,198.962c-.15-5.668.25-4.484-2.667-9.3q-3.826-6.3-7.685-12.6a4.948,4.948,0,0,0-2.367-2,5.586,5.586,0,0,0-7.518,6.868c.717,2.334,1.484,4.668,2.217,6.985.067.2.1.417.15.633-.117.1-.233.183-.35.283a2.218,2.218,0,0,0-.217-.583c-1.984-2.834-3.967-5.651-5.935-8.485a1.249,1.249,0,0,1-.217-.767c.083-1.134.217-2.284.317-3.417.367-3.9.767-7.8,1.067-11.7a5.669,5.669,0,0,0-5.118-6.035,5.518,5.518,0,0,0-5.968,4.651c-.383,2.35-.583,4.718-.85,7.085-.5,4.334-.95,8.668-1.484,13a7.477,7.477,0,0,0,1.567,5.818q6.951,8.827,13.836,17.7a1.656,1.656,0,0,1,.35.867c.133,2.451.217,4.9.333,7.352.05,1,.1,1.984.167,2.984H44.066v-1.2C43.932,211.048,43.816,205.013,43.666,198.962ZM15.126,162.737a1.793,1.793,0,0,1,1.55,2.117c-.2,2.317-.433,4.651-.65,6.968-.3,3.084-.617,6.168-.884,9.269a1.488,1.488,0,0,0,.283.95c2.6,3.7,5.234,7.385,7.852,11.069a.942.942,0,0,0,.967.483q2.35-.2,4.7-.35l.45,1.45a4.029,4.029,0,0,1-.467.1c-2.117.15-4.234.3-6.351.467a.942.942,0,0,1-.967-.483c-2.617-3.7-5.251-7.368-7.852-11.069a1.666,1.666,0,0,1-.283-.95c.267-3.084.583-6.168.884-9.269.217-2.317.45-4.634.65-6.968a1.793,1.793,0,0,0-1.55-2.117,1.01,1.01,0,0,0-.317,0A1.717,1.717,0,0,1,15.126,162.737ZM40.115,214.3c-.267.017-.483.05-.7.05h-.984c-.117-5.434-.233-10.852-.317-16.287a4.936,4.936,0,0,0-.7-2.517c-2.8-4.668-5.6-9.369-8.385-14.053a4.577,4.577,0,0,0-.533-.733,1.644,1.644,0,0,0-1.25-.533,1.722,1.722,0,0,1,1-1.5,1.627,1.627,0,0,1,1.917.383,3.938,3.938,0,0,1,.533.733q4.2,7.026,8.385,14.053a4.737,4.737,0,0,1,.7,2.517c.1,5.735.217,11.486.35,17.22C40.115,213.815,40.115,214.032,40.115,214.3Z" transform="translate(-6.969 -158.804)"/></g><g transform="translate(26.244)"><path class="b" d="M202.723,29.171a19.162,19.162,0,1,0-19.087,19.154A19.127,19.127,0,0,0,202.723,29.171Zm-34.474,0A15.281,15.281,0,0,1,192.2,16.551a15.137,15.137,0,0,0-7-1.7,15.313,15.313,0,0,0-8.685,27.906A15.3,15.3,0,0,1,168.249,29.171Z" transform="translate(-164.398 -10)"/></g></g><path class="c" d="M33.426,212.538a4.031,4.031,0,0,1-.467.1c-2.117.15-4.234.3-6.351.467a.942.942,0,0,1-.967-.483c-2.617-3.7-5.251-7.368-7.852-11.069a1.666,1.666,0,0,1-.283-.95c.267-3.084.583-6.168.884-9.269.217-2.317.45-4.634.65-6.968a1.793,1.793,0,0,0-1.55-2.117A1.73,1.73,0,0,0,15.505,184c-.75,6.635-1.484,13.253-2.25,19.871a3.288,3.288,0,0,0,.733,2.584q7.3,9.252,14.553,18.554a1.96,1.96,0,0,1,.4,1c.133,2.384.233,4.751.317,7.135.017.583.217.733.784.733q5.876-.025,11.769-.017c.217,0,.45-.033.7-.05v-.683c-.117-5.735-.25-11.486-.35-17.22a4.936,4.936,0,0,0-.7-2.517c-2.8-4.668-5.6-9.369-8.385-14.053a4.578,4.578,0,0,0-.533-.734,1.657,1.657,0,0,0-1.917-.383,1.768,1.768,0,0,0-.984,1.85,6.924,6.924,0,0,0,.233,1.017c.667,2.134,1.334,4.268,2.017,6.4C32.392,209.188,32.909,210.838,33.426,212.538Z" transform="translate(-11.009 -151.859)"/><path class="c" d="M363.9,230.406c.117-2.567.2-5.068.367-7.552a2.788,2.788,0,0,1,.5-1.384q7.177-9.277,14.386-18.5a3.121,3.121,0,0,0,.75-2.384c-.75-6.718-1.467-13.436-2.217-20.171a1.8,1.8,0,0,0-1.9-1.734,1.886,1.886,0,0,0-1.65,2.067c.1,1.35.233,2.7.367,4.034q.6,6.126,1.184,12.253a1.333,1.333,0,0,1-.167.85c-2.684,3.817-5.4,7.6-8.118,11.4a.817.817,0,0,1-.617.3c-2.317-.167-4.651-.35-7.018-.55.083-.283.15-.5.217-.717,1.184-3.7,2.367-7.418,3.534-11.119a1.709,1.709,0,0,0-.967-2.3,1.782,1.782,0,0,0-2.2.867q-4.426,7.377-8.835,14.77a3.2,3.2,0,0,0-.433,1.517c-.15,5.951-.267,11.9-.383,17.854,0,.183.033.35.05.533C355.151,230.406,359.485,230.406,363.9,230.406Z" transform="translate(-292.225 -148.889)"/><path class="c" d="M221.089,44.47A15.295,15.295,0,1,0,205.8,59.723,15.307,15.307,0,0,0,221.089,44.47Z" transform="translate(-158.73 -24.249)"/><path class="d" d="M342.788,208.773H322.05a2.588,2.588,0,0,1-.05-.283c.167-7.518.317-15.02.55-22.538a6.107,6.107,0,0,1,.784-2.7c3-5.134,6.1-10.2,9.119-15.32a5.581,5.581,0,0,1,9.435-.333,5.323,5.323,0,0,1,.733,4.734c-.75,2.417-1.534,4.834-2.317,7.252a.768.768,0,0,0,0,.55,1.962,1.962,0,0,0,.417-.317q3.026-4.251,6-8.518a1.546,1.546,0,0,0,.183-.917q-.5-5.576-1.034-11.152c-.117-1.234-.267-2.467-.333-3.7a5.5,5.5,0,0,1,2.951-5.451,5.41,5.41,0,0,1,5.951.317,5.522,5.522,0,0,1,2.4,4.234c.767,6.585,1.484,13.169,2.25,19.737a7.159,7.159,0,0,1-1.55,5.484c-4.6,5.851-9.169,11.719-13.77,17.57a2.217,2.217,0,0,0-.517,1.384c-.117,3.217-.267,6.435-.417,9.652A3.043,3.043,0,0,1,342.788,208.773Zm-3.634-3.817c.117-2.567.2-5.068.367-7.552a2.787,2.787,0,0,1,.5-1.384q7.176-9.277,14.386-18.5a3.121,3.121,0,0,0,.75-2.384c-.75-6.718-1.467-13.436-2.217-20.171a1.8,1.8,0,0,0-1.9-1.734,1.885,1.885,0,0,0-1.65,2.067c.1,1.35.233,2.7.367,4.034q.6,6.126,1.184,12.253a1.333,1.333,0,0,1-.167.85c-2.684,3.817-5.4,7.6-8.118,11.4a.817.817,0,0,1-.617.3c-2.317-.167-4.651-.35-7.018-.55.083-.283.15-.5.217-.717,1.184-3.7,2.367-7.418,3.534-11.119a1.709,1.709,0,0,0-.967-2.3,1.782,1.782,0,0,0-2.2.867q-4.426,7.377-8.835,14.77a3.2,3.2,0,0,0-.433,1.517c-.15,5.951-.267,11.9-.383,17.854,0,.183.033.35.05.533C330.4,204.955,334.736,204.955,339.154,204.955Z" transform="translate(-268.31 -124.439)"/><path class="e" d="M37.028,208.2H16.257c-.05-1-.117-2-.167-2.984-.117-2.451-.2-4.9-.333-7.352a1.656,1.656,0,0,0-.35-.867c-4.6-5.9-9.185-11.819-13.836-17.7A7.349,7.349,0,0,1,0,173.475c.533-4.334.984-8.668,1.484-13,.267-2.367.467-4.734.85-7.085a5.518,5.518,0,0,1,5.968-4.651,5.661,5.661,0,0,1,5.118,6.035c-.3,3.9-.7,7.8-1.067,11.7-.1,1.134-.233,2.267-.317,3.417a1.249,1.249,0,0,0,.217.767c1.967,2.834,3.967,5.651,5.935,8.485a2.461,2.461,0,0,1,.217.583c.117-.1.233-.183.35-.283-.05-.217-.083-.417-.15-.633-.733-2.334-1.5-4.651-2.217-6.985a5.325,5.325,0,0,1,1.7-6,5.325,5.325,0,0,1,5.818-.867,4.874,4.874,0,0,1,2.367,2q3.851,6.276,7.685,12.6c2.917,4.8,2.534,3.617,2.667,9.3.15,6.035.267,12.086.4,18.137C37.045,207.382,37.028,207.749,37.028,208.2ZM24.009,182.927a4.025,4.025,0,0,1-.467.1c-2.117.15-4.234.3-6.351.467a.942.942,0,0,1-.967-.483c-2.617-3.7-5.251-7.368-7.852-11.069a1.666,1.666,0,0,1-.283-.95c.267-3.084.583-6.168.884-9.269.217-2.317.45-4.634.65-6.968a1.793,1.793,0,0,0-1.55-2.117,1.73,1.73,0,0,0-1.984,1.75c-.75,6.635-1.484,13.253-2.25,19.871a3.288,3.288,0,0,0,.733,2.584q7.3,9.252,14.553,18.554a1.96,1.96,0,0,1,.4,1c.133,2.384.233,4.751.317,7.135.017.583.217.733.783.733q5.876-.025,11.769-.017c.217,0,.45-.033.7-.05v-.683c-.117-5.735-.25-11.486-.35-17.22a4.936,4.936,0,0,0-.7-2.517c-2.8-4.668-5.6-9.369-8.385-14.053a4.576,4.576,0,0,0-.533-.733,1.657,1.657,0,0,0-1.917-.383,1.768,1.768,0,0,0-.984,1.85,6.925,6.925,0,0,0,.233,1.017c.667,2.134,1.334,4.268,2.017,6.4C22.976,179.576,23.492,181.227,24.009,182.927Z" transform="translate(0.075 -123.915)"/><path class="f" d="M195.722,19.171A19.162,19.162,0,1,1,176.518,0,19.2,19.2,0,0,1,195.722,19.171Zm-3.884.05a15.295,15.295,0,1,0-15.287,15.253A15.307,15.307,0,0,0,191.838,19.221Z" transform="translate(-131.146 0)"/><path class="g" d="M224.836,67.552V75.6h-3.851V67.586H213V63.768h7.918V55.8h3.9v7.935h7.968v3.817Z" transform="translate(-177.48 -46.498)"/></g></svg>