<svg xmlns="http://www.w3.org/2000/svg" xmlns:xlink="http://www.w3.org/1999/xlink" viewBox="539 4799 224.044 228.522"><defs><style>.a{fill:#fff;}.b{fill:#f4f4f4;}.c,.d{fill:#0071ef;}.d{opacity:0.2;}.e{fill:#ff7c5c;}.f{fill:#000078;}.g{filter:url(#a);}</style><filter id="a" x="539" y="4799" width="224.044" height="228.522" filterUnits="userSpaceOnUse"><feOffset dy="10" input="SourceAlpha"/><feGaussianBlur stdDeviation="5" result="b"/><feFlood flood-opacity="0.11"/><feComposite operator="in" in2="b"/><feComposite in="SourceGraphic"/></filter></defs><g class="g" transform="matrix(1, 0, 0, 1, 0, 0)"><rect class="a" width="194.044" height="198.522" rx="25" transform="translate(554 4804)"/></g><g transform="translate(603 4855.646)"><g transform="translate(1.084 1.518)"><path class="b" d="M96.211,161.537c-1.084-.031-2.138,0-3.284,0V103.7c0-2.138-.589-2.7-2.7-2.7H80.472c-2.169,0-2.7.527-2.7,2.7v57.811H69.908v-32.84c0-2.045-.62-2.7-2.633-2.7H57.3c-1.983,0-2.6.62-2.6,2.633v32.9H46.858V115.22c0-2.045-.589-2.633-2.664-2.664H34.434c-2.2,0-2.757.558-2.757,2.757v46.193H23.807v-25.25c0-1.952-.62-2.571-2.54-2.571H11.384c-2.231,0-2.757.558-2.757,2.726v25.126h-.9c-.9,0-1.8-.031-2.7.031A1.81,1.81,0,0,0,3.3,163.4a1.876,1.876,0,0,0,1.735,1.952c.341.031.682.031,1.022.031H95.622a5.313,5.313,0,0,0,1.394-.124A1.8,1.8,0,0,0,98.38,163.4,2.133,2.133,0,0,0,96.211,161.537ZM12.437,137.589h7.374v.867H13.3v23.019h-.867ZM35.518,116.46h7.343v.867H36.386v44.148h-.867C35.518,146.511,35.518,131.548,35.518,116.46ZM58.6,129.937h7.343v.867H59.467v30.7H58.6Zm23.05-25h7.374v.867H82.548v55.673h-.867C81.65,142.639,81.65,123.833,81.65,104.935Z" transform="translate(-3.297 -71.222)"/><path class="b" d="M27.523,52.941a7.64,7.64,0,0,0,7.869-6.785,7.867,7.867,0,0,0-1.549-5.639c4.121-3.47,8.179-6.909,12.269-10.348a7.775,7.775,0,0,0,10.967-1.549c3.005,1.89,5.948,3.718,8.923,5.546a.947.947,0,0,1,.527,1.3A7.667,7.667,0,1,0,80.1,32.958L93.575,19.481a7.7,7.7,0,1,0-3.036-2.7c-.031.062-.031.124-.062.155-4.4,4.368-8.8,8.768-13.2,13.105a1,1,0,0,1-.9.124,7.573,7.573,0,0,0-6.661.96.98.98,0,0,1-1.239,0c-2.881-1.828-5.763-3.656-8.675-5.422A2.115,2.115,0,0,1,58.6,23.726a7.3,7.3,0,0,0-4.957-6.878,7.111,7.111,0,0,0-7.9,1.642,7.333,7.333,0,0,0-1.983,8.086,1.068,1.068,0,0,1-.248.9Q37.422,32.586,31.3,37.667a1.348,1.348,0,0,1-.991.186A7.735,7.735,0,0,0,20.181,45.66,7.579,7.579,0,0,0,27.523,52.941ZM97.045,8.762a3.686,3.686,0,0,1,2.479.96,3.966,3.966,0,0,0-1.611-.372,3.817,3.817,0,0,0-3.9,3.749,3.9,3.9,0,0,0,1.3,2.943,3.854,3.854,0,0,1-2.169-3.532A3.8,3.8,0,0,1,97.045,8.762ZM73.933,33.732a3.827,3.827,0,0,1,2.509.96,3.615,3.615,0,0,0-1.611-.372,3.882,3.882,0,0,0-3.873,3.811,3.839,3.839,0,0,0,1.332,2.85,3.921,3.921,0,0,1-2.2-3.439A3.834,3.834,0,0,1,73.933,33.732ZM50.914,20.287a3.809,3.809,0,0,1,2.479.96,3.521,3.521,0,0,0-1.611-.372,3.8,3.8,0,0,0-2.571,6.692,3.9,3.9,0,0,1-2.2-3.594A3.825,3.825,0,0,1,50.914,20.287Zm-23.143,21.1a3.827,3.827,0,0,1,2.509.96,3.651,3.651,0,0,0-1.642-.372,3.842,3.842,0,0,0-3.811,3.78,3.9,3.9,0,0,0,1.27,2.974A3.8,3.8,0,0,1,23.96,45.2,3.869,3.869,0,0,1,27.771,41.385Z" transform="translate(-14.944 -4.884)"/></g><path class="c" d="M263.374,168.141V111.6H256v56.541Z" transform="translate(-176.625 -77.02)"/><path class="d" d="M107.1,148.7v45.016h7.343V148.7Z" transform="translate(-73.856 -102.626)"/><path class="d" d="M188.943,223.77V192.2H181.6v31.57Z" transform="translate(-125.275 -132.649)"/><path class="d" d="M32.6,240.887h7.374V217H32.6Z" transform="translate(-22.437 -149.766)"/><path class="e" d="M259.248,21.951a3.778,3.778,0,0,0,3.9-3.749,3.827,3.827,0,1,0-3.9,3.749Z" transform="translate(-176.279 -9.864)"/><path class="e" d="M36.042,127.214a3.843,3.843,0,0,0,3.842-3.749,3.955,3.955,0,0,0-3.873-3.966,3.842,3.842,0,0,0-3.811,3.78A3.752,3.752,0,0,0,36.042,127.214Z" transform="translate(-22.161 -82.472)"/><path class="e" d="M184.872,102.552a3.826,3.826,0,0,0,0-7.652,3.826,3.826,0,1,0,0,7.652Z" transform="translate(-124.86 -65.494)"/><path class="e" d="M110.5,51.5a3.825,3.825,0,0,0-3.9,3.687,3.883,3.883,0,0,0,3.811,3.966,3.956,3.956,0,0,0,3.873-3.749A3.862,3.862,0,0,0,110.5,51.5Z" transform="translate(-73.51 -35.539)"/><path class="f" d="M66.532,156.506H74.4V98.7c0-2.138.558-2.7,2.7-2.7h9.759c2.107,0,2.7.589,2.7,2.7v57.842c1.146,0,2.231-.031,3.284,0A1.912,1.912,0,0,1,94.88,158.4a1.782,1.782,0,0,1-1.363,1.859,5.2,5.2,0,0,1-1.394.124H2.555c-.341,0-.682,0-1.022-.031A1.857,1.857,0,0,1-.2,158.4a1.811,1.811,0,0,1,1.735-1.828c.9-.062,1.8-.031,2.7-.031h.9V131.412c0-2.2.558-2.726,2.757-2.726h9.883c1.952,0,2.54.62,2.54,2.571v25.25h7.869V110.313c0-2.2.558-2.757,2.757-2.757h9.759c2.076,0,2.664.589,2.664,2.664v46.286H51.2V123.6c0-2.014.62-2.633,2.6-2.633h9.976c2.014,0,2.633.651,2.633,2.7v31.663A3.622,3.622,0,0,1,66.532,156.506Zm19.146,0V99.966H78.3v56.541Zm-53.5-45.047v45.016h7.343V111.46ZM62.6,156.506v-31.57H55.254v31.57Zm-53.5-.031h7.374V132.589H9.092Z" transform="translate(0.203 -66.253)"/><path class="f" d="M87.37,11.886a7.67,7.67,0,1,1,3.036,2.7L76.929,28.058a7.552,7.552,0,0,1,.9,7.5A7.663,7.663,0,0,1,63.36,30.567c.217-.713.031-.96-.527-1.3-2.943-1.8-5.886-3.656-8.923-5.546a7.8,7.8,0,0,1-5.143,3.067,7.916,7.916,0,0,1-5.824-1.518c-4.09,3.439-8.148,6.878-12.269,10.348a7.867,7.867,0,0,1,1.549,5.639,7.655,7.655,0,0,1-15.243-.434,7.711,7.711,0,0,1,10.131-7.807,1.264,1.264,0,0,0,.991-.186q6.134-5.065,12.207-10.224a.978.978,0,0,0,.248-.9,7.4,7.4,0,0,1,1.983-8.086,7.111,7.111,0,0,1,7.9-1.642A7.257,7.257,0,0,1,55.4,18.856a2.115,2.115,0,0,0,1.208,1.983c2.912,1.766,5.794,3.594,8.675,5.422a.98.98,0,0,0,1.239,0,7.587,7.587,0,0,1,6.661-.96,1.245,1.245,0,0,0,.9-.124q6.646-6.553,13.229-13.105A.44.44,0,0,0,87.37,11.886Zm6.382-.4a3.778,3.778,0,0,0,3.9-3.749A3.827,3.827,0,0,0,90,7.579,3.778,3.778,0,0,0,93.752,11.483ZM24.664,44.168a3.843,3.843,0,0,0,3.842-3.749,3.955,3.955,0,0,0-3.873-3.966,3.842,3.842,0,0,0-3.811,3.78A3.787,3.787,0,0,0,24.664,44.168ZM70.8,36.454a3.826,3.826,0,0,0,0-7.652,3.826,3.826,0,1,0,0,7.652Zm-23.019-21.1a3.825,3.825,0,0,0-3.9,3.687,3.883,3.883,0,0,0,3.811,3.966,3.956,3.956,0,0,0,3.873-3.749A3.862,3.862,0,0,0,47.776,15.356Z" transform="translate(-11.651 0.016)"/></g></svg>