<svg xmlns="http://www.w3.org/2000/svg" xmlns:xlink="http://www.w3.org/1999/xlink" viewBox="1433 5189 224.044 228.522"><defs><style>.a{fill:#fff;}.b{fill:#f4f4f4;}.c,.d,.e{fill:#0071ef;}.c{opacity:0.5;}.e{opacity:0.2;}.f{fill:#ff7c5c;}.g{fill:#000078;}.h{filter:url(#a);}</style><filter id="a" x="1433" y="5189" width="224.044" height="228.522" filterUnits="userSpaceOnUse"><feOffset dy="10" input="SourceAlpha"/><feGaussianBlur stdDeviation="5" result="b"/><feFlood flood-opacity="0.11"/><feComposite operator="in" in2="b"/><feComposite in="SourceGraphic"/></filter></defs><g class="h" transform="matrix(1, 0, 0, 1, 0, 0)"><rect class="a" width="194.044" height="198.522" rx="25" transform="translate(1448 5194)"/></g><g transform="translate(1491.1 5254)"><path class="b" d="M108.316,61.232h-6.422c-.243,0-.513-.027-.809-.027V40.779H60.259V30.607H72.375c2.213,0,3.184-.971,3.184-3.184V8.1c0-2.1-.971-3.1-3.076-3.1H42.774c-2.051,0-3,.944-3,3V27.531c0,2.1.971,3.049,3.1,3.049H55.025v10.2H14.173V61.232h-.89c-2.186,0-4.371-.027-6.557,0A2.518,2.518,0,0,0,4,64.066V78.744c0,1.943.971,2.914,2.941,2.914H26.558c2,0,2.968-.971,2.968-2.968V64.227c0-2.024-.944-2.968-2.941-3H20.109c-.243,0-.513-.027-.756-.027V45.96h35.7v15.3h-.809c-2.186,0-4.371-.027-6.557,0a2.572,2.572,0,0,0-2.833,2.833V78.771a2.64,2.64,0,0,0,2.941,2.914H67.464A2.593,2.593,0,0,0,70.4,78.744V64.2c0-1.97-.944-2.941-2.914-2.941H60.259V45.96H95.931v15.3H88.645c-1.943.027-2.914.971-2.914,2.914V78.717c0,2,1,2.968,3,2.968h19.536c2.078,0,3.022-.944,3.022-3V64.227C111.257,62.177,110.34,61.259,108.316,61.232ZM24.372,66.386a4.817,4.817,0,0,1,.054.621v.459H9.936v9.066H9.585a3.445,3.445,0,0,1-.459-.054V66.386ZM44.825,24.644q.04-6.84,0-13.68c0-.648.189-.836.836-.836q11.94.04,23.88,0c.675,0,.863.189.89.809h-.081q-11.94.04-23.88,0c-.675,0-.863.189-.836.836q.04,6.84,0,13.68C45.014,25.453,44.825,25.264,44.825,24.644ZM65.278,66.386v1.079H50.842v9.012h-.809V66.386Zm25.607,0H106.1v1.079H91.694v9.012h-.809Z" transform="translate(-2.994 -3.651)"/><path class="c" d="M188.845,231.5H173.6v10.092h15.245Z" transform="translate(-126.831 -169.035)"/><path class="d" d="M325,241.592h15.218V231.5H325Z" transform="translate(-237.379 -169.035)"/><path class="e" d="M22.1,241.592a3.445,3.445,0,0,0,.459.054c4.749,0,9.5,0,14.247.027.567,0,.594-.27.594-.7v-8.85a4.817,4.817,0,0,0-.054-.621H22.1Z" transform="translate(-16.21 -169.035)"/><path class="f" d="M167.156,37.153h11.98c.648,0,.863-.162.863-.836-.027-4.533-.027-9.066,0-13.626,0-.675-.189-.89-.89-.89q-11.94.04-23.88,0c-.675,0-.863.189-.836.836q.04,6.84,0,13.68c0,.621.189.809.809.809C159.169,37.153,163.163,37.153,167.156,37.153Z" transform="translate(-112.805 -15.918)"/><path class="g" d="M50.952,56.232v-15.3h-35.7V56.178c.243,0,.513.027.756.027h6.476c2,0,2.941.971,2.941,3V73.663c0,2-.971,2.968-2.968,2.968H2.841C.871,76.631-.1,75.66-.1,73.717V59.039a2.505,2.505,0,0,1,2.752-2.806c2.186-.027,4.371,0,6.557,0h.89V35.779H50.952V25.58H38.809c-2.132,0-3.1-.944-3.1-3.049V3c0-2.051.944-3,3-3H68.356c2.1,0,3.076,1,3.076,3.1v19.32c0,2.186-.971,3.184-3.184,3.184H56.132V35.779H96.957V56.205c.324.027.567.027.809.027h6.422c2.024,0,2.968.944,2.968,2.968V73.663c0,2.051-.944,3-3.022,3H84.6c-2,0-3-1-3-2.968V59.147q0-2.874,2.914-2.914c2.159-.027,4.317,0,6.476,0H91.8v-15.3H56.132v15.3h7.231c1.97,0,2.914.971,2.914,2.941V73.717a2.593,2.593,0,0,1-2.941,2.941H43.666a2.64,2.64,0,0,1-2.941-2.914V59.066a2.549,2.549,0,0,1,2.833-2.833c2.186-.027,4.371,0,6.557,0Zm2.59-35.806h11.98c.648,0,.863-.162.863-.836-.027-4.533-.027-9.066,0-13.626,0-.675-.189-.89-.89-.89q-11.94.04-23.88,0c-.675,0-.863.189-.836.836q.04,6.84,0,13.68c0,.621.189.809.809.809C45.555,20.426,49.549,20.426,53.542,20.426Zm7.663,40.96H45.96V71.478H61.205ZM86.812,71.478H102.03V61.386H86.812Zm-81.731,0a3.445,3.445,0,0,0,.459.054c4.749,0,9.5,0,14.247.027.567,0,.594-.27.594-.7v-8.85a4.817,4.817,0,0,0-.054-.621H5.081C5.081,64.759,5.081,68.1,5.081,71.478Z" transform="translate(0 0)"/></g></svg>