<svg xmlns="http://www.w3.org/2000/svg" xmlns:xlink="http://www.w3.org/1999/xlink" viewBox="538 3852 224.044 228.522"><defs><style>.a{fill:#fff;}.b{fill:#f4f4f4;}.c,.d,.e{fill:#0071ef;}.c{opacity:0.2;}.e{opacity:0.5;}.f{fill:#f2f3f4;}.g{fill:#ff7c5c;}.h{fill:#000078;}.i{filter:url(#a);}</style><filter id="a" x="538" y="3852" width="224.044" height="228.522" filterUnits="userSpaceOnUse"><feOffset dy="10" input="SourceAlpha"/><feGaussianBlur stdDeviation="5" result="b"/><feFlood flood-opacity="0.129"/><feComposite operator="in" in2="b"/><feComposite in="SourceGraphic"/></filter></defs><g class="i" transform="matrix(1, 0, 0, 1, 0, 0)"><rect class="a" width="194.044" height="198.522" rx="25" transform="translate(553 3857)"/></g><g transform="translate(607 3906)"><path class="b" d="M89.6,71.654a6.619,6.619,0,0,0-4.24-6.085c-.5-.216-.575-.359-.575-.958,0-9.391-.024-18.015-.072-26.352a.889.889,0,0,1,.671-1.03,7.037,7.037,0,0,0-2.348-13.392,7.169,7.169,0,0,0-5.246,1.605l-4.576-2.635c-6.349-3.641-12.889-7.4-19.333-11.068-.383-.216-.431-.335-.359-.815a6.95,6.95,0,0,0-2.348-6.253A7.025,7.025,0,0,0,44.586,3.21c-3.641,1.078-5.51,4.312-4.935,8.5l-4.5,2.611C28.918,17.944,22.5,21.681,16.173,25.37c-.192.12-.192.12-.5-.12-.048-.048-.1-.072-.144-.12a6.788,6.788,0,0,0-7.5-.838,6.729,6.729,0,0,0-3.953,6.564,6.613,6.613,0,0,0,4.216,6.229c.527.24.6.383.6.934,0,9.08.024,18.015.072,26.592,0,.671-.12.862-.695,1.126A6.8,6.8,0,0,0,4.075,71.99a6.672,6.672,0,0,0,3.57,6.42,6.861,6.861,0,0,0,8.313-.886h.024c.264.144.527.287.767.431,2.012,1.15,4.025,2.3,6.037,3.474,5.151,2.971,10.493,6.037,15.763,9.032a1.981,1.981,0,0,0,.311.168c1.15.647,1.653.982,1.27,2.06a1.059,1.059,0,0,0,0,.671c0,.024.024.072.024.1a7.077,7.077,0,0,0,7.019,6.253c.264,0,.527-.024.791-.048a6.894,6.894,0,0,0,6.181-7.69c-.072-.719.1-.934.695-1.27,6.756-3.9,14.11-8.169,22.447-13.032.527-.311.695-.311,1.126,0A7.007,7.007,0,0,0,89.6,71.654ZM82.413,27.91h.048a2.846,2.846,0,0,1,2.779,2.084,2.838,2.838,0,0,0-2.3-1.126h-.048a2.93,2.93,0,0,0-2.971,2.923,2.507,2.507,0,0,0,.12.862,3.07,3.07,0,0,1-.6-1.821A2.929,2.929,0,0,1,82.413,27.91ZM42.477,53.783c0,.144.024.287.024.431.048.719.1,1.413.168,2.108A25.141,25.141,0,0,0,45.376,65.9a6.725,6.725,0,0,0,.862,1.222,4.231,4.231,0,0,1-1.821-1.94A24.606,24.606,0,0,1,41.711,55.6c-.072-.671-.12-1.366-.168-2.108,0-.144-.024-.287-.024-.431H51.988c-.024.24-.024.479-.048.719ZM39.794,37.66c-.072.216-.144.407-.216.623A16.2,16.2,0,0,0,32.152,48.8H31.1c.407-4.743,4.432-10.038,8.984-11.978C39.986,37.109,39.89,37.4,39.794,37.66Zm7.93-1.461c-1.03-.024-1.845.719-2.42,2.2a68.567,68.567,0,0,0-2.372,7.4,15.944,15.944,0,0,0-.383,2.947v.12H41.543c.024-.287.048-.575.048-.838a16.218,16.218,0,0,1,.383-2.947,72.159,72.159,0,0,1,2.372-7.4c.575-1.485,1.389-2.228,2.42-2.2a1.9,1.9,0,0,1,1.509.815A1.887,1.887,0,0,0,47.724,36.2ZM37.4,53.088c.024.24.024.479.048.719H31.96a15.594,15.594,0,0,0,5.821,10.733A15.858,15.858,0,0,1,31,53.088Zm7.522,18.255v.407a21.353,21.353,0,0,1-4.24-1.318A21.093,21.093,0,0,0,44.921,71.343Zm12.05-22.519h-.886A34.441,34.441,0,0,0,53.306,36.75,12.6,12.6,0,0,1,56.9,38.834a11.539,11.539,0,0,0-2.635-1.366A33.184,33.184,0,0,1,56.971,48.824Zm-.862,4.24H62.7c.024.24.024.479.024.719H57.067a36.354,36.354,0,0,1-2.18,11.427,9.773,9.773,0,0,1-1.605.767A34.43,34.43,0,0,0,56.109,53.064Zm6.923-13.727a20.673,20.673,0,0,0-8.073-6.4,20.119,20.119,0,0,1,8.984,5.893ZM52.515,15.62l.647.359a1.49,1.49,0,0,0-.527.407,3.462,3.462,0,0,1-1.653.91c-.359.1-.455.144-.455.815.024,3.066.024,6.181.024,9.175v4.288c-.623-.12-1.246-.216-1.893-.287a3.538,3.538,0,0,1-.024-.5V26.568c0-3.019,0-6.109-.024-9.175,0-.671.1-.719.455-.815a3.462,3.462,0,0,0,1.653-.91C51.246,15.093,51.581,15.093,52.515,15.62ZM46.526,7.067a3.019,3.019,0,0,1,2.9,2.156,3.029,3.029,0,0,0-2.42-1.2A2.871,2.871,0,0,0,44.083,11a3.222,3.222,0,0,0,.12.838,2.947,2.947,0,0,1-.6-1.8A2.857,2.857,0,0,1,46.526,7.067ZM18.545,28.724c7.642-4.408,15.26-8.84,22.639-13.152a1.307,1.307,0,0,1,.6-.24c.168,0,.264.1.431.264a2.669,2.669,0,0,0,.934.671c-.024,0-.024.024-.048.024-7.4,4.336-15.021,8.768-22.639,13.152-.527.287-.575.431-.455.934a3.492,3.492,0,0,1,.024,1.318,4.283,4.283,0,0,0-.024.767,1.118,1.118,0,0,0,.24.647c3.354,1.988,6.684,3.9,10.206,5.917l.335.192c-.072.1-.144.168-.216.264l-2.06-1.174c-3.522-2.036-6.852-3.953-10.206-5.917a1.577,1.577,0,0,1-.24-.647,4.166,4.166,0,0,1,.024-.767,4.066,4.066,0,0,0-.024-1.318C17.946,29.155,18.018,29.012,18.545,28.724Zm-10.4,1.964a2.9,2.9,0,0,1,2.923-2.971h.024a2.989,2.989,0,0,1,2.875,2.156,3.017,3.017,0,0,0-2.4-1.2h-.024a2.936,2.936,0,0,0-2.084.862,2.97,2.97,0,0,0-.838,2.108,3.012,3.012,0,0,0,.12.791A2.86,2.86,0,0,1,8.148,30.689Zm2.995,38.5h.024a3.147,3.147,0,0,1,2.875,2.252,3.081,3.081,0,0,0-2.4-1.294h-.024a3.136,3.136,0,0,0-3.042,3.09A2.7,2.7,0,0,0,8.7,74a3.005,3.005,0,0,1-.6-1.725A3.136,3.136,0,0,1,11.142,69.187Zm4.288-2.611c-.719-.383-1.389-.719-2.036-1.1a.8.8,0,0,1-.311-.335c-.024-8.121-.024-16.362-.024-24.316V37.588l3.019-1.7,1.581.91-2.683,1.509v3.234c0,7.954,0,16.195.024,24.316a.8.8,0,0,0,.311.335c.311.192.623.359.958.551l-.24.144C15.814,66.791,15.622,66.671,15.43,66.576Zm2.707,7.474V70.409l12.194-7.546c.335.455.671.862,1.006,1.27l-11.308,7v3.641L42.238,87.514a3.506,3.506,0,0,1-.311.216ZM47.149,89.718H47.2A2.9,2.9,0,0,1,50,91.8a2.85,2.85,0,0,0-2.324-1.126h-.048A3,3,0,0,0,44.634,93.6a3.036,3.036,0,0,0,.1.815,2.808,2.808,0,0,1-.575-1.773A3.013,3.013,0,0,1,47.149,89.718Zm4.408-2.539a9.5,9.5,0,0,0-1.893-1.15l-.575-.287v-14.4a20.228,20.228,0,0,0,14.35-8.624l1.7,1.006a20.337,20.337,0,0,1-14.134,8.337v14.4l.575.287c.359.192.719.359,1.054.551A.743.743,0,0,1,51.557,87.178ZM77.909,66.5c-3.617-2.108-7.307-4.288-10.876-6.4l-1.653-.982a20.789,20.789,0,0,0-.287-16.291l12.266-6.828,1.605.886-11.954,6.66A20.791,20.791,0,0,1,67.3,59.844l1.653.982c3.09,1.821,6.253,3.689,9.391,5.534-.048.024-.072.048-.12.072A.827.827,0,0,1,77.909,66.5Zm2.611,3.378a3.008,3.008,0,0,1,2.06-.862h.048a2.96,2.96,0,0,1,2.8,2.156,2.915,2.915,0,0,0-2.324-1.2H83.06A3.008,3.008,0,0,0,81,70.84a3.053,3.053,0,0,0-.934,2.084,2.317,2.317,0,0,0,.12.815,2.982,2.982,0,0,1-.6-1.773A3.149,3.149,0,0,1,80.521,69.882Z" transform="translate(-3.109 -2.211)"/><path class="c" d="M209.5,225.113a33.972,33.972,0,0,0,2.827-12.913h6.588c.168,1.845-.695,4.36-2.372,6.852A16.468,16.468,0,0,1,209.5,225.113Z" transform="translate(-159.327 -161.347)"/><path class="d" d="M170.869,212.124c-.216,4.192-.791,8.529-3.066,12.362-.479.815-1.27,1.8-2.156,1.8h-.024c-.767,0-1.581-.743-2.324-2.06a24.605,24.605,0,0,1-2.707-9.583c-.072-.671-.12-1.366-.168-2.108,0-.144-.024-.287-.024-.431h10.469Z" transform="translate(-121.99 -161.271)"/><path class="d" d="M170.662,152.19H160.6c.024-.288.048-.575.048-.838a16.219,16.219,0,0,1,.383-2.947A72.154,72.154,0,0,1,163.4,141c.575-1.485,1.389-2.228,2.42-2.2,1.1.024,1.7.934,2.42,2.228,1.773,3.234,2.4,6.684,2.779,11.14A2.068,2.068,0,0,1,170.662,152.19Z" transform="translate(-122.142 -105.53)"/><path class="c" d="M212.379,156.174A34.44,34.44,0,0,0,209.6,144.1c4.192,1.461,8.7,6.516,9.3,12.074Z" transform="translate(-159.403 -109.562)"/><path class="e" d="M125.808,144.4c-.1.287-.192.575-.287.839-.5,1.533-1.054,3.09-1.437,4.7-.383,1.581-.575,3.138-.815,4.791-.072.551-.144,1.1-.24,1.653H116.8C117.255,151.635,121.256,146.34,125.808,144.4Z" transform="translate(-88.835 -109.79)"/><path class="e" d="M122.972,212.3a34.267,34.267,0,0,0,2.755,12.721A15.647,15.647,0,0,1,116.6,212.3Z" transform="translate(-88.683 -161.423)"/><path class="f" d="M262.9,147.928l12.266-6.828,3.258,1.821v27.287c-.144.072-.287.168-.455.24-.671.359-1.318.719-1.964,1.054a1.1,1.1,0,0,1-.311.1c-3.617-2.108-7.307-4.288-10.876-6.4l-1.653-.982A20.788,20.788,0,0,0,262.9,147.928Z" transform="translate(-199.934 -107.28)"/><path class="f" d="M220.831,71.217a.9.9,0,0,1-.12.335c-3.474,1.964-7.043,3.953-10.493,5.869l-1.8,1.006A20.369,20.369,0,0,0,194.048,70.4a3.54,3.54,0,0,1-.024-.5V65.683c0-3.019,0-6.109-.024-9.175,0-.671.1-.719.455-.815a3.462,3.462,0,0,0,1.653-.91c.527-.575.862-.6,1.8-.048,5.558,3.234,11.212,6.468,16.7,9.607,1.845,1.054,3.665,2.108,5.51,3.138.287.168.551.311.767.455v.719C220.879,69.54,220.879,70.378,220.831,71.217Z" transform="translate(-147.54 -41.302)"/><path class="f" d="M92.9,57.751c-.048,3.282-.024,6.468-.024,9.87v3.258a20.383,20.383,0,0,0-13.943,8.169l-2.06-1.174c-3.522-2.036-6.852-3.953-10.206-5.917a1.577,1.577,0,0,1-.24-.647,4.167,4.167,0,0,1,.024-.767,4.066,4.066,0,0,0-.024-1.318c-.12-.5-.072-.647.455-.934,7.642-4.408,15.26-8.84,22.639-13.152a1.307,1.307,0,0,1,.6-.24c.168,0,.264.1.431.264a2.569,2.569,0,0,0,1.342.791C92.78,56.05,92.9,56.433,92.9,57.751Z" transform="translate(-50.488 -41.731)"/><path class="f" d="M66.8,260.646,78.994,253.1a20.208,20.208,0,0,0,14.566,8.481v2.875l.024,1.8c.024,3.066.048,6.2.1,9.319,0,.5-.048.6-.455.791a11.436,11.436,0,0,0-2.012,1.2c-.192.12-.359.24-.551.383L66.848,264.264v-3.617Z" transform="translate(-50.813 -192.449)"/><path class="f" d="M195.924,261.124a20.228,20.228,0,0,0,14.35-8.624L212,253.506c3.426,2.012,7,4.121,10.445,6.181a1.259,1.259,0,0,1,.072.479,4.471,4.471,0,0,1-.1.767,3.222,3.222,0,0,0,0,1.653c.287.839.048,1.078-.958,1.653-7.043,4.049-14.206,8.217-21.944,12.745-.551.311-.719.311-1.15-.072a9.5,9.5,0,0,0-1.893-1.15l-.575-.288v-14.35Z" transform="translate(-148.985 -191.993)"/><path class="f" d="M45.6,145.335V142.1l3.019-1.7,12.433,7.163a20.719,20.719,0,0,0-.144,16.219l-12.338,7.642c-.216-.1-.407-.216-.6-.311-.719-.383-1.389-.719-2.036-1.1a.8.8,0,0,1-.311-.335C45.6,161.53,45.6,153.313,45.6,145.335Z" transform="translate(-34.692 -106.748)"/><path class="g" d="M316.7,111.023a2.945,2.945,0,0,1,2.971-2.923h.048a2.947,2.947,0,1,1-.1,5.893,2.959,2.959,0,0,1-2.084-.886A2.835,2.835,0,0,1,316.7,111.023Z" transform="translate(-240.845 -82.186)"/><path class="g" d="M318.306,280.662a3.008,3.008,0,0,1,2.06-.862h.048a2.986,2.986,0,0,1,2.923,3.019,2.95,2.95,0,0,1-2.995,2.923,2.981,2.981,0,0,1-2.108-.91,2.894,2.894,0,0,1-.839-2.084A3.012,3.012,0,0,1,318.306,280.662Z" transform="translate(-241.374 -212.752)"/><path class="g" d="M172.079,26.207A2.947,2.947,0,0,1,167,24.171a2.886,2.886,0,0,1,2.923-2.971,2.95,2.95,0,0,1,2.995,2.923A2.729,2.729,0,0,1,172.079,26.207Z" transform="translate(-127.008 -16.104)"/><path class="g" d="M172.547,366.2h.048a2.982,2.982,0,0,1,2.06,5.079,2.815,2.815,0,0,1-2.108.815,2.947,2.947,0,1,1,0-5.893Z" transform="translate(-128.986 -278.454)"/><path class="g" d="M21.942,280.5h.024a3.12,3.12,0,0,1,2.995,2.947,3.068,3.068,0,0,1-3.066,3.138h0A3.093,3.093,0,0,1,18.9,283.59a3.136,3.136,0,0,1,3.042-3.09Z" transform="translate(-14.388 -213.285)"/><path class="g" d="M24.255,112.407a2.956,2.956,0,1,1-2.132-5.007h.024a3,3,0,0,1,2.995,2.923A2.943,2.943,0,0,1,24.255,112.407Z" transform="translate(-14.616 -81.654)"/><path class="h" d="M85.6,68.654a6.619,6.619,0,0,0-4.24-6.085c-.5-.216-.575-.359-.575-.958,0-9.391-.024-18.015-.072-26.352a.889.889,0,0,1,.671-1.03,7.037,7.037,0,0,0-2.348-13.392,7.169,7.169,0,0,0-5.247,1.605l-4.576-2.635c-6.349-3.641-12.889-7.4-19.333-11.068-.383-.216-.431-.335-.359-.815a6.95,6.95,0,0,0-2.348-6.253A7.025,7.025,0,0,0,40.586.21c-3.641,1.078-5.51,4.312-4.935,8.5l-4.5,2.611C24.918,14.944,18.5,18.681,12.173,22.37c-.192.12-.192.12-.5-.12-.048-.048-.1-.072-.144-.12a6.788,6.788,0,0,0-7.5-.838A6.729,6.729,0,0,0,.075,27.856a6.613,6.613,0,0,0,4.216,6.229c.527.24.6.383.6.934,0,9.08.024,18.015.072,26.592,0,.671-.12.862-.695,1.126A6.8,6.8,0,0,0,.075,68.99a6.672,6.672,0,0,0,3.57,6.42,6.861,6.861,0,0,0,8.313-.886h.024c.264.144.527.287.767.431,2.012,1.15,4.025,2.3,6.037,3.474,5.151,2.971,10.493,6.037,15.763,9.032a1.982,1.982,0,0,0,.311.168c1.15.647,1.653.982,1.27,2.06a1.059,1.059,0,0,0,0,.671c0,.024.024.072.024.1a7.077,7.077,0,0,0,7.019,6.253c.264,0,.527-.024.791-.048a6.894,6.894,0,0,0,6.181-7.69c-.072-.719.1-.934.695-1.27,6.756-3.9,14.11-8.169,22.447-13.032.527-.311.695-.311,1.126,0A7.007,7.007,0,0,0,85.6,68.654ZM75.443,27.808a2.945,2.945,0,0,1,2.971-2.923h.048a2.947,2.947,0,1,1-.1,5.893,2.959,2.959,0,0,1-2.084-.886A2.835,2.835,0,0,1,75.443,27.808Zm1.078,39.073a3.008,3.008,0,0,1,2.06-.862h.048a2.986,2.986,0,0,1,2.923,3.019,2.95,2.95,0,0,1-2.995,2.923,2.981,2.981,0,0,1-2.108-.91,2.894,2.894,0,0,1-.838-2.084A3.012,3.012,0,0,1,76.521,66.882Zm-15.4-27.023,12.266-6.828,3.258,1.821V62.138c-.144.072-.287.168-.455.24-.671.359-1.318.719-1.964,1.054a1.1,1.1,0,0,1-.311.1c-3.617-2.108-7.307-4.288-10.876-6.4l-1.653-.982A20.788,20.788,0,0,0,61.116,39.859ZM49.282,62.977a33.972,33.972,0,0,0,2.827-12.913H58.7c.168,1.845-.695,4.36-2.372,6.852A16.468,16.468,0,0,1,49.282,62.977ZM47.988,50.064c-.216,4.192-.791,8.529-3.066,12.362-.479.815-1.27,1.8-2.156,1.8h-.024c-.767,0-1.581-.743-2.324-2.06a24.606,24.606,0,0,1-2.707-9.583c-.072-.671-.12-1.366-.168-2.108,0-.144-.024-.287-.024-.431H47.988Zm-.359-4.192H37.567c.024-.287.048-.575.048-.838A16.219,16.219,0,0,1,38,42.086a72.158,72.158,0,0,1,2.372-7.4c.575-1.485,1.389-2.228,2.42-2.2,1.1.024,1.7.934,2.42,2.228,1.773,3.234,2.4,6.684,2.779,11.14A2.069,2.069,0,0,1,47.629,45.872Zm4.456-.048A34.44,34.44,0,0,0,49.306,33.75c4.192,1.461,8.7,6.516,9.3,12.074Zm-16-12c-.1.287-.192.575-.287.838-.5,1.533-1.054,3.09-1.437,4.7-.383,1.581-.575,3.138-.815,4.791-.072.551-.144,1.1-.24,1.653H27.074C27.529,41.056,31.53,35.762,36.082,33.821ZM33.4,50.088a34.267,34.267,0,0,0,2.755,12.721,15.647,15.647,0,0,1-9.127-12.721H33.4ZM71.442,29.126a.9.9,0,0,1-.12.335c-3.474,1.964-7.043,3.953-10.493,5.869l-1.8,1.006a20.369,20.369,0,0,0-14.374-8.025,3.538,3.538,0,0,1-.024-.5V23.592c0-3.019,0-6.109-.024-9.175,0-.671.1-.719.455-.815a3.462,3.462,0,0,0,1.653-.91c.527-.575.862-.6,1.8-.048,5.558,3.234,11.212,6.468,16.7,9.607,1.845,1.054,3.665,2.108,5.51,3.138.287.168.551.311.767.455v.719C71.49,27.449,71.49,28.287,71.442,29.126ZM44.658,9.074a2.947,2.947,0,0,1-5.079-2.036A2.886,2.886,0,0,1,42.5,4.067,2.95,2.95,0,0,1,45.5,6.99,2.729,2.729,0,0,1,44.658,9.074Zm-4.1,6.157c-.048,3.282-.024,6.468-.024,9.87v3.258a20.383,20.383,0,0,0-13.943,8.169l-2.06-1.174c-3.522-2.036-6.852-3.953-10.206-5.917a1.577,1.577,0,0,1-.24-.647,4.166,4.166,0,0,1,.024-.767,4.066,4.066,0,0,0-.024-1.318c-.12-.5-.072-.647.455-.934,7.642-4.408,15.26-8.84,22.639-13.152a1.307,1.307,0,0,1,.6-.24c.168,0,.264.1.431.264a2.568,2.568,0,0,0,1.342.791C40.442,13.53,40.562,13.913,40.562,15.231ZM14.137,67.409l12.194-7.546A20.208,20.208,0,0,0,40.9,68.343v2.875l.024,1.8c.024,3.066.048,6.2.1,9.319,0,.5-.048.6-.455.791a11.436,11.436,0,0,0-2.012,1.2c-.192.12-.359.24-.551.383L14.185,71.026V67.409ZM43.149,86.718H43.2a2.982,2.982,0,0,1,2.06,5.079,2.815,2.815,0,0,1-2.108.815,2.947,2.947,0,1,1,0-5.893Zm1.94-18.375a20.228,20.228,0,0,0,14.35-8.624l1.725,1.006c3.426,2.012,7,4.121,10.445,6.181a1.259,1.259,0,0,1,.072.479,4.469,4.469,0,0,1-.1.767,3.222,3.222,0,0,0,0,1.653c.287.838.048,1.078-.958,1.653C63.584,75.506,56.421,79.674,48.683,84.2c-.551.311-.719.311-1.15-.072a9.5,9.5,0,0,0-1.893-1.15l-.575-.287V68.343ZM9.059,37.8V34.564l3.019-1.7,12.433,7.163a20.719,20.719,0,0,0-.144,16.219L12.029,63.887c-.216-.1-.407-.216-.6-.311-.719-.383-1.389-.719-2.036-1.1a.8.8,0,0,1-.311-.335C9.059,53.993,9.059,45.776,9.059,37.8ZM7.142,66.187h.024a3.12,3.12,0,0,1,2.995,2.947,3.068,3.068,0,0,1-3.066,3.138h0A3.093,3.093,0,0,1,4.1,69.277a3.136,3.136,0,0,1,3.042-3.09ZM9.226,29.725a2.956,2.956,0,1,1-2.132-5.007h.024a3,3,0,0,1,2.995,2.923A2.943,2.943,0,0,1,9.226,29.725Z" transform="translate(-0.067 0.07)"/></g></svg>