<svg xmlns="http://www.w3.org/2000/svg" xmlns:xlink="http://www.w3.org/1999/xlink" viewBox="1433 3852 224.044 228.522"><defs><style>.a{fill:#fff;}.b{fill:#f4f4f4;}.c{fill:#f2f3f4;}.d,.e,.g{fill:#0071ef;}.d{opacity:0.5;}.e{opacity:0.2;}.f{fill:#000078;}.h{fill:#ff7c5c;}.i{filter:url(#a);}</style><filter id="a" x="1433" y="3852" width="224.044" height="228.522" filterUnits="userSpaceOnUse"><feOffset dy="10" input="SourceAlpha"/><feGaussianBlur stdDeviation="5" result="b"/><feFlood flood-opacity="0.129"/><feComposite operator="in" in2="b"/><feComposite in="SourceGraphic"/></filter></defs><g class="i" transform="matrix(1, 0, 0, 1, 0, 0)"><rect class="a" width="194.044" height="198.522" rx="25" transform="translate(1448 3857)"/></g><g transform="translate(1497 3907)"><path class="b" d="M97.579,41.931A12.883,12.883,0,0,0,86.492,31.12a1.508,1.508,0,0,1-1.358-1.031c-2.665-6.134-7.366-9.4-14.029-9.855-.553-.025-.679-.251-.83-.729A19.046,19.046,0,0,0,49.811,6.13,18.724,18.724,0,0,0,35.053,16.513a.764.764,0,0,1-.93.478,18.373,18.373,0,0,0-3.52-.1A12.629,12.629,0,0,0,20.6,23.6a12.405,12.405,0,0,0-1.508,4.877c-.1.025-.151.05-.176.05a1.7,1.7,0,0,1-.352-.05,11.877,11.877,0,0,0-11.515,3.8c-3.9,4.249-4.852,9.3-3.319,14.758,1.584,5.632,6.436,10.157,13.174,9.931,2.64-.075,5.3-.025,7.945-.025h2.715V92.917a6.836,6.836,0,0,0,7.014,7.09q15.839.038,31.678-.025a7.332,7.332,0,0,0,2.941-.6,6.68,6.68,0,0,0,4.073-6.562V56.965h.855c3.444,0,6.863.025,10.308,0a14.082,14.082,0,0,0,2.891-.277A12.912,12.912,0,0,0,97.579,41.931Zm-5.506-4.676a10.017,10.017,0,0,0-5.606-1.684,1.581,1.581,0,0,1-1.86-1.358,1.6,1.6,0,0,1-.05-.176h.151A10.075,10.075,0,0,1,92.073,37.255Zm-16.794-13.1A13.165,13.165,0,0,1,79.7,27.123a14.222,14.222,0,0,0-2.665-1.458,13.361,13.361,0,0,0-5.782-.88,1.516,1.516,0,0,1-1.735-1.307c-.025-.075-.025-.126-.05-.2H69.5A13.361,13.361,0,0,1,75.279,24.156ZM70.15,40.6H31.408V87.159h-.754V39.593h39.5ZM6.669,46.18C5.337,41.327,6.317,37,10.113,33.559A8.53,8.53,0,0,1,19.189,31.9c.226.075.427.176.654.277a1.555,1.555,0,0,0,2.288-1.634A9.546,9.546,0,0,1,25.1,22.723a9.716,9.716,0,0,1,9.654-2.464c1.458.377,1.936.176,2.514-1.232A16.057,16.057,0,0,1,54.713,9.273a15.836,15.836,0,0,1,8.573,4.4,15.717,15.717,0,0,0-6.813-2.891,16.041,16.041,0,0,0-17.448,9.755c-.578,1.408-1.056,1.609-2.514,1.232a9.731,9.731,0,0,0-9.654,2.464,9.576,9.576,0,0,0-2.967,7.819A1.555,1.555,0,0,1,21.6,33.684c-.226-.075-.427-.2-.654-.277a8.53,8.53,0,0,0-9.076,1.659C8.052,38.486,7.1,42.836,8.429,47.688a11.2,11.2,0,0,0,2.388,4.5A10.164,10.164,0,0,1,6.669,46.18ZM30.7,32.779a3.6,3.6,0,0,1,3.369-2.941c.3-.025.6-.025.93-.025H66.1a3.786,3.786,0,0,1,3.645,2.011,4.242,4.242,0,0,0-2.891-1.006h-31.1c-.3,0-.6,0-.93.025a3.6,3.6,0,0,0-3.369,2.941,19.151,19.151,0,0,0-.05,2.69h-.729A30.141,30.141,0,0,1,30.7,32.779Zm.025,61.143a29.289,29.289,0,0,1-.025-3.645H70.175c0,.327,0,.679.025,1.006H31.483a29.289,29.289,0,0,0,.025,3.645,2.9,2.9,0,0,0,.277.905A3,3,0,0,1,30.729,93.922Zm42.89-40.05a2.884,2.884,0,0,1-.352-.05V34.137a7.606,7.606,0,0,0-1.559-4.877,7.044,7.044,0,0,1,3.319,6.386v18.2C74.575,53.873,74.1,53.873,73.619,53.873Z" transform="translate(-2.277 -4.489)"/><path class="c" d="M113,137.7v47.567h39.5V137.7Z" transform="translate(-84.599 -103.099)"/><path class="d" d="M152.325,339.3H112.854a29.288,29.288,0,0,0,.025,3.645,3.823,3.823,0,0,0,4,3.017c9.352-.05,18.7-.025,28.057-.025,1.282,0,2.564.025,3.847,0a3.642,3.642,0,0,0,3.52-3.117A32.729,32.729,0,0,0,152.325,339.3Z" transform="translate(-84.452 -254.015)"/><path class="c" d="M152.45,105.387v-2.615a3.777,3.777,0,0,0-4.073-4.073h-31.1c-.3,0-.6,0-.93.025a3.6,3.6,0,0,0-3.369,2.942,30.14,30.14,0,0,0-.025,3.7Q132.639,105.4,152.45,105.387Z" transform="translate(-84.527 -73.904)"/><path class="e" d="M86.431,62.942a2.344,2.344,0,0,0,.352.05c3.872,0,7.769.075,11.64-.025a9.887,9.887,0,0,0-.578-19.761,1.581,1.581,0,0,1-1.86-1.358c-.05-.176-.1-.352-.176-.553a12.543,12.543,0,0,0-7.391-8.02,13.361,13.361,0,0,0-5.782-.88A1.516,1.516,0,0,1,80.9,31.088l-.151-.679A15.977,15.977,0,0,0,50.4,28.122c-.578,1.408-1.056,1.609-2.514,1.232a9.731,9.731,0,0,0-9.654,2.464,9.576,9.576,0,0,0-2.967,7.819,1.555,1.555,0,0,1-2.288,1.634c-.226-.075-.427-.2-.654-.277a8.53,8.53,0,0,0-9.076,1.659c-3.821,3.419-4.777,7.769-3.444,12.621a9.993,9.993,0,0,0,10.182,7.693H40.7V43.03a8.515,8.515,0,0,1,.2-1.961A6.873,6.873,0,0,1,47.89,35.84H79.014c4.5,0,7.417,2.916,7.417,7.417V62.087C86.431,62.364,86.431,62.64,86.431,62.942Z" transform="translate(-14.41 -13.608)"/><path class="f" d="M24.561,51.015H21.846c-2.64,0-5.3-.075-7.945.025-6.738.226-11.565-4.3-13.174-9.931C-.806,35.654.149,30.625,4.046,26.377a11.877,11.877,0,0,1,11.515-3.8,1.7,1.7,0,0,0,.352.05.64.64,0,0,0,.176-.05A11.634,11.634,0,0,1,17.6,17.7,12.629,12.629,0,0,1,27.6,10.99a18.315,18.315,0,0,1,3.52.1.8.8,0,0,0,.93-.478A18.724,18.724,0,0,1,46.811.23,19.063,19.063,0,0,1,67.276,13.6c.126.453.277.679.83.729,6.662.453,11.364,3.721,14.029,9.855a1.508,1.508,0,0,0,1.358,1.031,12.953,12.953,0,0,1,.83,25.543,15.867,15.867,0,0,1-2.891.277c-3.444.025-6.863,0-10.308,0h-.855V86.891a6.68,6.68,0,0,1-4.073,6.562,7.421,7.421,0,0,1-2.941.6q-15.839.075-31.678.025a6.822,6.822,0,0,1-7.014-7.09V51.97C24.561,51.694,24.561,51.417,24.561,51.015ZM70.293,47.9a2.343,2.343,0,0,0,.352.05c3.872,0,7.769.075,11.64-.025a9.887,9.887,0,0,0-.578-19.761,1.581,1.581,0,0,1-1.86-1.358c-.05-.176-.1-.352-.176-.553a12.543,12.543,0,0,0-7.391-8.02,13.361,13.361,0,0,0-5.782-.88,1.516,1.516,0,0,1-1.735-1.307l-.151-.679a15.977,15.977,0,0,0-30.345-2.288c-.578,1.408-1.056,1.609-2.514,1.232A9.731,9.731,0,0,0,22.1,16.773a9.576,9.576,0,0,0-2.967,7.819,1.555,1.555,0,0,1-2.288,1.634c-.226-.075-.427-.2-.654-.277a8.53,8.53,0,0,0-9.076,1.659c-3.821,3.419-4.777,7.769-3.444,12.621a9.993,9.993,0,0,0,10.182,7.693h10.71V27.986a8.515,8.515,0,0,1,.2-1.961A6.873,6.873,0,0,1,31.752,20.8H62.876c4.5,0,7.417,2.916,7.417,7.417V47.9ZM27.679,33.667V81.234h39.5V33.667ZM67.15,84.352H27.679A29.289,29.289,0,0,0,27.7,88a3.823,3.823,0,0,0,4,3.017c9.352-.05,18.7-.025,28.057-.025,1.282,0,2.564.025,3.847,0a3.642,3.642,0,0,0,3.52-3.117A32.729,32.729,0,0,0,67.15,84.352Zm.05-53.8V27.935a3.777,3.777,0,0,0-4.073-4.073h-31.1c-.3,0-.6,0-.93.025a3.6,3.6,0,0,0-3.369,2.941,30.141,30.141,0,0,0-.025,3.7Q47.389,30.563,67.2,30.55Z" transform="translate(-0.032 -0.072)"/><path class="g" d="M198.669,253.668H192.71c-1.257,0-1.81-.553-1.81-1.835v-5.1c0-1.207.528-1.785,1.71-1.785,4.1-.025,8.2-.025,12.269,0a1.485,1.485,0,0,1,1.659,1.684c.025,1.81.025,3.6,0,5.405a1.506,1.506,0,0,1-1.684,1.659C202.792,253.668,200.73,253.668,198.669,253.668Zm4.777-3.117v-2.539h-9.453v2.539Z" transform="translate(-142.914 -183.367)"/><path class="h" d="M122.8,183.084a6.122,6.122,0,1,1,6.109,6.16A6.143,6.143,0,0,1,122.8,183.084Zm6.134-3.017a3.066,3.066,0,0,0-3.092,2.967,3.1,3.1,0,0,0,3.067,3.168A3.135,3.135,0,0,0,132,183.134,3.063,3.063,0,0,0,128.934,180.067Z" transform="translate(-91.934 -132.519)"/><path class="e" d="M195.722,176.881h6.688a2.585,2.585,0,0,1,.98.151,1.423,1.423,0,0,1,.93,1.458,1.448,1.448,0,0,1-1.056,1.383,2.652,2.652,0,0,1-.779.1H189.059c-1.006,0-1.634-.427-1.785-1.182a1.52,1.52,0,0,1,1.634-1.886C191.171,176.856,193.459,176.881,195.722,176.881Z" transform="translate(-140.168 -132.425)"/><path class="d" d="M195.815,202.634H189a1.569,1.569,0,0,1-1.71-1.182,1.525,1.525,0,0,1,1.584-1.886c1.056-.025,2.137,0,3.193,0,3.444,0,6.914,0,10.358.025a2.407,2.407,0,0,1,1.257.327,1.312,1.312,0,0,1,.553,1.609,1.517,1.517,0,0,1-1.559,1.106c-2.036.025-4.073,0-6.109,0Z" transform="translate(-140.186 -149.403)"/><path class="e" d="M195.621,222.167h6.537a5.257,5.257,0,0,1,.629.025,1.524,1.524,0,0,1-.075,3.042c-.7.05-1.408.025-2.137.025H188.858a1.551,1.551,0,0,1-1.76-1.609c.025-.905.679-1.458,1.735-1.483C191.121,222.142,193.383,222.167,195.621,222.167Z" transform="translate(-140.067 -166.322)"/><path class="e" d="M129.714,247.867h-5.179c-1.081,0-1.735-.578-1.735-1.534,0-.93.629-1.534,1.735-1.534h10.408c1.106,0,1.81.654,1.785,1.559s-.7,1.483-1.785,1.508C133.234,247.892,131.474,247.867,129.714,247.867Z" transform="translate(-91.935 -183.273)"/><path class="e" d="M129.889,270.586h-5.254a1.526,1.526,0,0,1-1.735-1.534,1.479,1.479,0,0,1,1.684-1.508c3.52-.025,7.065-.025,10.584,0a1.53,1.53,0,1,1-.025,3.042Z" transform="translate(-92.01 -200.285)"/><path class="f" d="M165.593,342.4H171.7a1.507,1.507,0,0,1,1.534,1.131,1.444,1.444,0,0,1-.654,1.659,2.378,2.378,0,0,1-1.006.251q-6,.038-11.992,0a1.492,1.492,0,0,1-1.684-1.508c0-.955.654-1.534,1.735-1.534Z" transform="translate(-118.21 -256.335)"/><path class="f" d="M165.618,105.142H159.66c-1.106,0-1.76-.553-1.76-1.508,0-.93.629-1.508,1.735-1.534h11.917c1.081,0,1.735.6,1.71,1.534a1.508,1.508,0,0,1-1.71,1.483C169.591,105.142,167.6,105.142,165.618,105.142Z" transform="translate(-118.21 -76.449)"/><path class="f" d="M128.735,104.52a1.81,1.81,0,1,1,1.81-1.785A1.814,1.814,0,0,1,128.735,104.52Z" transform="translate(-95.004 -75.551)"/></g></svg>