<svg xmlns="http://www.w3.org/2000/svg" xmlns:xlink="http://www.w3.org/1999/xlink" viewBox="1135 5189 224.044 228.522"><defs><style>.a,.c{fill:#fff;}.b{fill:#f4f4f4;}.c{opacity:0.5;}.d,.f{fill:#0071ef;}.e{fill:#ff7c5c;}.f{opacity:0.2;}.g{fill:#000078;}.h{filter:url(#a);}</style><filter id="a" x="1135" y="5189" width="224.044" height="228.522" filterUnits="userSpaceOnUse"><feOffset dy="10" input="SourceAlpha"/><feGaussianBlur stdDeviation="5" result="b"/><feFlood flood-opacity="0.11"/><feComposite operator="in" in2="b"/><feComposite in="SourceGraphic"/></filter></defs><g class="h" transform="matrix(1, 0, 0, 1, 0, 0)"><rect class="a" width="194.044" height="198.522" rx="25" transform="translate(1150 5194)"/></g><g transform="translate(1206.025 5252.025)"><path class="b" d="M82.277,35.619c-2.872,0-5.743-.028-8.643.028-.853.028-1.308-.142-1.507-1.052a12.658,12.658,0,0,0-.91-2.445c-.341-.825-1.137-1.734-.967-2.445.171-.768,1.194-1.365,1.848-2.019,1.848-1.848,3.725-3.7,5.516-5.487L65.246,9.917,57.8,17.366c-2.047-.853-4.009-1.649-6.113-2.53V4.2H34.34V7.557c-.711-.938-1.251-1.933-1.848-2.872a1.19,1.19,0,0,0-.654-.54c-1.621-.085-3.27-.057-5-.057V15.717a1.527,1.527,0,0,1-.2.967c-1.365,1.308-2.758,2.587-4.179,3.9C21.12,19.328,19.84,18.191,18.618,17a1.936,1.936,0,0,1-.54-1.279c-.057-3.1-.028-6.2-.028-9.3v-2.3c-1.592,0-3.1.028-4.578-.028a1.185,1.185,0,0,0-1.223.739C9.235,10,6.25,15.205,3.236,20.408a1.286,1.286,0,0,0,0,1.45c2.616,4.464,5.175,8.984,7.79,13.448a5.056,5.056,0,0,1,.711,2.644q-.043,10.235-.028,20.442c0,5.345-.057,10.69.028,16.036a10.321,10.321,0,0,0,6.937,9.638,10.656,10.656,0,0,0,14.1-7.534c.227-.967.313-1.962.455-2.957.881,0,1.194.426,1.166,1.336-.057,2.275-.028,4.578-.028,6.852v2.872H51.712c0-3.383,0-6.71.028-10.008,0-.284.2-.768.426-.853,1.848-.8,3.753-1.535,5.8-2.331l7.364,7.364c4.066-4.037,8.16-8.075,12.283-12.169-2.474-2.474-4.976-5-7.449-7.449.711-1.82,1.478-3.554,2.1-5.345a.964.964,0,0,1,1.137-.768c2.957.028,5.942,0,8.9,0h1.024V35.591C82.959,35.619,82.618,35.619,82.277,35.619Zm-11.4,4.72c2.5,0,5,0,7.506.028a.837.837,0,0,1,.256.085V41.5H72.3c-1.706,0-1.99,0-2.3-1.137A8.28,8.28,0,0,1,70.875,40.339ZM58.593,23.507q3.412-3.54,6.738-6.994l1.279,1.279c-2.161,2.246-4.378,4.521-6.625,6.852a28.482,28.482,0,0,0-11.6-4.8v-.853A28.541,28.541,0,0,1,58.593,23.507ZM43.069,31.724c-3.81.256-7.193,1.393-8.729,5.4a3.346,3.346,0,0,0-.284,1.137c-.028,5.459-.028,10.946,0,16.405a.707.707,0,0,0,.028.227c-.171-.142-.313-.256-.483-.4a1.412,1.412,0,0,1-.4-.938c-.028-5.459-.028-10.946,0-16.405a3.346,3.346,0,0,1,.284-1.137c1.535-4.009,4.947-5.146,8.729-5.4a13.571,13.571,0,0,1,12.226,6.028A13.545,13.545,0,0,0,43.069,31.724ZM39.145,12.675c.114-1.223.028-2.5.028-3.81h7.819V10H40.6c0,1.308.085,2.559-.028,3.81a8.439,8.439,0,0,0,1.734,6.4,2.943,2.943,0,0,1,0,4.123,12.592,12.592,0,0,0-1,1.592c-.711.057-1.45.142-2.189.256a27.17,27.17,0,0,1,1.763-3.014,2.892,2.892,0,0,0,0-4.123A8.086,8.086,0,0,1,39.145,12.675Zm-8.1,6.283a2.062,2.062,0,0,0,.512-1.194c.057-1.649.028-3.3.227-5,.227.426.483.825.711,1.251.114.171.2.341.313.512-.057,1.194-.057,2.36-.085,3.526a2.062,2.062,0,0,1-.512,1.194c-1.763,1.677-3.526,3.3-5.288,4.947-1.109,1.024-2.218,2.076-3.355,3.1-.227-.227-.483-.455-.711-.682,1-.91,1.962-1.82,2.928-2.729C27.545,22.256,29.308,20.636,31.042,18.958ZM14.978,32.776c-2.1-3.7-4.236-7.364-6.312-11.06a1.308,1.308,0,0,1-.057-1.08c1.478-2.644,2.985-5.26,4.492-7.876.057,0,.114.028.2.028v1.9c-1.194,2.076-2.388,4.151-3.554,6.227A1.308,1.308,0,0,0,9.8,22c2.076,3.7,4.236,7.364,6.312,11.06a1.772,1.772,0,0,0,.256.341h-.284A1.114,1.114,0,0,1,14.978,32.776Zm1.507,41.4c-.028-5.6,0-11.2-.028-16.775V38.207H28.37c.028.313.057.6.057.853H17.31V58.251c0,5.6-.028,11.2.028,16.775a5.9,5.9,0,0,0,1.308,3.7A5.834,5.834,0,0,1,16.485,74.173ZM33.8,68.657c-.256-.085-.6-.426-.6-.654-.028-2.559-.028-5.118-.028-7.819A18.682,18.682,0,0,0,48.244,62.26a17.626,17.626,0,0,0,9.041-5.885A18.5,18.5,0,0,0,59.1,35.022a19.33,19.33,0,0,0-3.7-4.549,18.666,18.666,0,0,1,3.3,27.039A17.742,17.742,0,0,1,49.665,63.4,18.794,18.794,0,0,1,34.6,61.322c0,2.616,0,5.118.028,7.591C34.34,68.828,34.056,68.742,33.8,68.657Zm5.374,2.36c.455.142.938.284,1.422.426v8.53H39.174ZM59.9,66.582c.057-.057.142-.085.2-.142,1.848,1.9,3.668,3.81,5.459,5.658l-.171.171C63.6,70.42,61.749,68.515,59.9,66.582Z" transform="translate(-2.174 -2.941)"/><path class="c" d="M132.887,111.614c0-8.53-6.738-14.9-14.728-14.386-3.81.256-7.193,1.393-8.729,5.4a3.346,3.346,0,0,0-.284,1.137c-.028,5.459-.028,10.946,0,16.405a1.412,1.412,0,0,0,.4.938c4.435,3.98,9.525,4.919,14.955,2.616A13.146,13.146,0,0,0,132.887,111.614Z" transform="translate(-78.117 -69.581)"/><path class="d" d="M50.282,123.1v19.191c0,5.6-.028,11.2.028,16.775a5.9,5.9,0,0,0,6.113,5.885c3.327-.057,5.829-2.758,5.857-6.4v-34.6c0-.284-.028-.54-.057-.853Z" transform="translate(-35.999 -88.118)"/><path class="e" d="M28.162,31.628c-.057,0-.114-.028-.2-.028-1.507,2.616-3.014,5.231-4.492,7.876a1.308,1.308,0,0,0,.057,1.08c2.076,3.7,4.236,7.364,6.312,11.06a1.091,1.091,0,0,0,1.109.625c4.208-.028,8.444-.028,12.652,0a1.148,1.148,0,0,0,1.166-.711q3.113-5.5,6.312-10.946a1.067,1.067,0,0,0,0-1.251c-1.279-2.161-2.5-4.322-3.753-6.482-.227-.426-.483-.825-.711-1.251-.2,1.706-.171,3.355-.227,5a2.062,2.062,0,0,1-.512,1.194c-1.706,1.677-3.469,3.3-5.231,4.947-1.109,1.024-2.218,2.076-3.355,3.1-2.957-2.758-5.829-5.43-8.7-8.132a1.674,1.674,0,0,1-.426-1.052C28.134,34.983,28.162,33.306,28.162,31.628Z" transform="translate(-16.75 -22.633)"/><path class="f" d="M141.874,40.888c2.36-2.331,4.634-4.606,6.909-6.852-1.791-1.791-3.611-3.582-5.544-5.516q-3.327,3.454-6.738,6.994a28.482,28.482,0,0,0-11.6-4.8V20.9h-7.819c0,1.308.085,2.559-.028,3.81a8.439,8.439,0,0,0,1.734,6.4,2.943,2.943,0,0,1,0,4.123,27.169,27.169,0,0,0-1.763,3.014c8.387-1.45,15.979,1.933,19.988,8.814a18.408,18.408,0,0,1-1.82,21.352,17.742,17.742,0,0,1-9.041,5.885,18.794,18.794,0,0,1-15.069-2.076c0,2.7-.028,5.26.028,7.819,0,.227.341.569.6.654,1.734.569,3.5,1.08,5.374,1.649v9.667h7.876V82.2a29.316,29.316,0,0,0,11.629-4.833c2.3,2.36,4.549,4.691,6.71,6.937l5.573-5.487c-2.275-2.275-4.578-4.549-6.8-6.767,1.024-1.962,2.1-3.725,2.9-5.63s1.279-3.952,1.962-6.056h9.61v-7.9c-.114-.028-.171-.085-.256-.085-2.5,0-5,0-7.506-.028-2.019,0-2.047,0-2.5-1.933A28.041,28.041,0,0,0,141.874,40.888Z" transform="translate(-79.512 -14.976)"/><path class="g" d="M67.166,55.111l7.449,7.449c-4.123,4.094-8.188,8.132-12.283,12.169l-7.364-7.364c-2.047.825-3.952,1.535-5.8,2.331-.227.085-.426.569-.426.853-.028,3.327-.028,6.625-.028,10.008H31.371V77.686c0-2.275-.028-4.578.028-6.852.028-.91-.284-1.336-1.166-1.336-.142,1-.227,1.99-.455,2.957a10.656,10.656,0,0,1-14.1,7.534,10.283,10.283,0,0,1-6.937-9.638c-.114-5.345-.028-10.69-.028-16.036,0-6.824-.028-13.647.028-20.442a5.056,5.056,0,0,0-.711-2.644C5.384,26.765,2.825,22.244.21,17.752a1.238,1.238,0,0,1,0-1.45Q4.73,8.54,9.166.721a1.185,1.185,0,0,1,1.223-.739c1.478.057,2.985.028,4.578.028v2.3c0,3.1-.028,6.2.028,9.3a2.157,2.157,0,0,0,.54,1.279c1.223,1.223,2.5,2.36,3.838,3.582,1.422-1.308,2.843-2.587,4.179-3.9a1.486,1.486,0,0,0,.2-.967V-.018c1.763,0,3.412-.028,5.061.028.227,0,.512.284.654.54.6.938,1.137,1.933,1.848,2.872V.067H48.657V10.7c2.1.853,4.066,1.677,6.113,2.53l7.449-7.449L74.587,18.065c-1.791,1.791-3.639,3.639-5.516,5.487-.654.654-1.677,1.251-1.848,2.019-.171.711.626,1.621.967,2.445a13.392,13.392,0,0,1,.91,2.445c.2.91.654,1.08,1.507,1.052,2.872-.057,5.743-.028,8.643-.028h1.08V48.97H79.307c-2.957,0-5.942.028-8.9,0a.986.986,0,0,0-1.137.768C68.645,51.557,67.877,53.32,67.166,55.111ZM60.94,24.775c2.36-2.331,4.634-4.606,6.909-6.852-1.791-1.791-3.611-3.582-5.544-5.516q-3.327,3.454-6.738,6.994a28.482,28.482,0,0,0-11.6-4.8V4.787H36.147c0,1.308.085,2.559-.028,3.81a8.439,8.439,0,0,0,1.734,6.4,2.943,2.943,0,0,1,0,4.123,27.17,27.17,0,0,0-1.763,3.014c8.387-1.45,15.979,1.933,19.988,8.814A18.408,18.408,0,0,1,54.258,52.3a17.742,17.742,0,0,1-9.041,5.885,18.794,18.794,0,0,1-15.069-2.076c0,2.7-.028,5.26.028,7.819,0,.227.341.569.6.654,1.734.569,3.5,1.08,5.374,1.649V75.9h7.876V66.086a29.316,29.316,0,0,0,11.629-4.833c2.3,2.36,4.549,4.691,6.71,6.937L67.934,62.7c-2.275-2.275-4.578-4.549-6.8-6.767,1.024-1.962,2.1-3.725,2.9-5.63S65.318,46.354,66,44.25h9.61v-7.9c-.114-.028-.171-.085-.256-.085-2.5,0-5,0-7.506-.028-2.019,0-2.047,0-2.5-1.933A28.041,28.041,0,0,0,60.94,24.775ZM53.917,40.9c0-8.53-6.738-14.9-14.728-14.386-3.81.256-7.193,1.393-8.729,5.4a3.346,3.346,0,0,0-.284,1.137c-.028,5.459-.028,10.946,0,16.405a1.412,1.412,0,0,0,.4.938c4.435,3.98,9.525,4.919,14.955,2.616A13.146,13.146,0,0,0,53.917,40.9ZM13.43,34.129V53.32c0,5.6-.028,11.2.028,16.775a5.9,5.9,0,0,0,6.113,5.885c3.327-.057,5.829-2.758,5.857-6.4v-34.6c0-.284-.028-.54-.057-.853ZM10.274,8.711c-.057,0-.114-.028-.2-.028C8.569,11.3,7.062,13.914,5.583,16.558a1.308,1.308,0,0,0,.057,1.08C7.716,21.334,9.876,25,11.952,28.7a1.091,1.091,0,0,0,1.109.625c4.208-.028,8.444-.028,12.652,0a1.148,1.148,0,0,0,1.166-.711q3.113-5.5,6.312-10.946a1.067,1.067,0,0,0,0-1.251c-1.279-2.161-2.5-4.322-3.753-6.482-.227-.426-.483-.825-.711-1.251-.2,1.706-.171,3.355-.227,5a2.062,2.062,0,0,1-.512,1.194c-1.706,1.677-3.469,3.3-5.231,4.947-1.109,1.024-2.218,2.076-3.355,3.1-2.957-2.758-5.829-5.43-8.7-8.132a1.674,1.674,0,0,1-.426-1.052C10.246,12.066,10.274,10.388,10.274,8.711Z" transform="translate(0 0)"/><path class="a" d="M65.77,169.478H62.5V141.7h3.27Z" transform="translate(-44.748 -101.43)"/></g></svg>