<svg xmlns="http://www.w3.org/2000/svg" xmlns:xlink="http://www.w3.org/1999/xlink" viewBox="1132 4232 224.044 228.522"><defs><style>.a{fill:#fff;}.b{fill:#f4f4f4;}.c,.e{fill:#0071ef;}.c{opacity:0.5;}.d{fill:#000078;}.f{fill:#ff7c5c;}.g{filter:url(#a);}</style><filter id="a" x="1132" y="4232" width="224.044" height="228.522" filterUnits="userSpaceOnUse"><feOffset dy="10" input="SourceAlpha"/><feGaussianBlur stdDeviation="5" result="b"/><feFlood flood-opacity="0.129"/><feComposite operator="in" in2="b"/><feComposite in="SourceGraphic"/></filter></defs><g class="g" transform="matrix(1, 0, 0, 1, 0, 0)"><rect class="a" width="194.044" height="198.522" rx="25" transform="translate(1147 4237)"/></g><g transform="translate(1196 4293)"><g transform="translate(0.232 0.721)"><path class="b" d="M82.98,78.476a.924.924,0,0,1-.618-.979c.026-2.318,0-4.611.026-6.93a1.334,1.334,0,0,1,.361-.85A3.313,3.313,0,0,0,82.8,65a3.267,3.267,0,0,0-4.637.077c-.155.155-.361.386-.541.386-1.649.026-3.323.026-5,.026V54.055c1.494,0,2.937.026,4.354,0a1.654,1.654,0,0,1,1.288.515,3.064,3.064,0,0,0,3.194.773,3.227,3.227,0,0,0,2.293-2.885,3.194,3.194,0,0,0-1.881-3.169,3.354,3.354,0,0,0-3.71.644,1.173,1.173,0,0,1-.67.412c-1.623.026-3.22.026-4.92.026V38.959c1.674,0,3.323,0,4.946.026a.954.954,0,0,1,.541.335,3.261,3.261,0,1,0-.026-4.431.954.954,0,0,1-.541.335c-1.649.026-3.272.026-5,.026V29.2H66.931c0-1.906-.052-3.684.026-5.487a1.1,1.1,0,0,1,1.185-1.056c2.293,0,4.585.026,6.852,0a.783.783,0,0,1,.8.541,5.049,5.049,0,0,0,5.564,2.628,5.215,5.215,0,0,0,4.1-4.946,5.147,5.147,0,0,0-3.89-5.023,5.045,5.045,0,0,0-5.77,2.6.784.784,0,0,1-.824.515c-2.267-.026-4.534,0-6.775-.026a1.456,1.456,0,0,1-.85-.335,3.262,3.262,0,1,0-4.611,4.611.954.954,0,0,1,.335.541c.026,1.8.026,3.581.026,5.384H51.68V24.327a1.578,1.578,0,0,1,.489-1.288,3.18,3.18,0,0,0-.026-4.508,3.24,3.24,0,0,0-4.457-.18,3.128,3.128,0,0,0-.386,4.431,2.7,2.7,0,0,1,.7,2.138c-.026,1.211,0,2.422,0,3.632a5.452,5.452,0,0,1-.052.618H36.61c0-1.855,0-3.632.026-5.436a1.012,1.012,0,0,1,.335-.567A3.259,3.259,0,0,0,37,18.479a1.752,1.752,0,0,1-.386-.927c-.052-1.133.026-2.267-.026-3.4a1.489,1.489,0,0,1,.85-1.623,4.916,4.916,0,0,0,2.19-5.667,5.1,5.1,0,0,0-9.892-.026,5.043,5.043,0,0,0,2.422,5.719,1.146,1.146,0,0,1,.7,1.185c-.052,1.211.026,2.422-.026,3.632a1.678,1.678,0,0,1-.412.979,3.148,3.148,0,0,0-.335,4.2,3.2,3.2,0,0,1,.773,2.5c-.026.721,0,1.443,0,2.164v1.906H26.125v6.028c-1.571,0-3.066.026-4.56-.026a1.589,1.589,0,0,1-.979-.412,3.344,3.344,0,0,0-4.663,0,1.728,1.728,0,0,1-1.03.412c-3.169.026-6.311.026-9.48.026H4.641a1.1,1.1,0,0,0-.077.258c0,1.778-.026,3.555,0,5.307a.894.894,0,0,1-.593.979,4.93,4.93,0,0,0-2.7,5.436,5.231,5.231,0,0,0,4.869,4.2,5.144,5.144,0,0,0,2.55-9.686c-.206-.1-.489-.309-.489-.489-.052-.747-.026-1.52-.026-2.318,2.473,0,4.843,0,7.213.026a1.128,1.128,0,0,1,.67.386,3.237,3.237,0,0,0,4.688,0,1.089,1.089,0,0,1,.618-.386c1.623-.026,3.272-.026,4.92-.026V50.242h-.747c-1.365,0-2.731.026-4.1-.026a1.188,1.188,0,0,1-.7-.386A3.27,3.27,0,1,0,16.1,54.441a3.361,3.361,0,0,0,4.714-.1c.155-.155.361-.361.541-.361,1.623-.026,3.272-.026,4.92-.026V65.415c-1.52,0-3.014.026-4.508-.026a1.833,1.833,0,0,1-1.056-.438,3.137,3.137,0,0,0-4.148-.335,3.313,3.313,0,0,1-2.653.8q-1.082-.039-2.164,0a.9.9,0,0,1-.979-.618,5.228,5.228,0,0,0-6.414-2.37A5,5,0,0,0,1.292,68.3a5.042,5.042,0,0,0,4.354,3.916A5.122,5.122,0,0,0,10.8,69.563.87.87,0,0,1,11.725,69c1.159.052,2.318,0,3.478.026a1.334,1.334,0,0,1,.85.361,3.255,3.255,0,0,0,4.74,0c.155-.155.361-.361.541-.361,1.623-.026,3.272-.026,5-.026v5.9h6.621v5.255c0,.618-.386.876-1,.876-2.731,0-5.436-.026-8.166,0a.817.817,0,0,1-.85-.567,5.015,5.015,0,0,0-5.719-2.576,5.118,5.118,0,0,0-.026,9.944,5.025,5.025,0,0,0,5.719-2.55.814.814,0,0,1,.8-.541c2.576.026,5.126,0,7.7.026a1.012,1.012,0,0,1,.721.386,3.238,3.238,0,0,0,4.792.67,3.289,3.289,0,0,0,.155-4.843c-.155-.155-.361-.361-.361-.541-.026-1.778-.026-3.581-.026-5.41H48.074c0,1.829,0,3.632-.026,5.41,0,.18-.206.386-.361.541a3.259,3.259,0,0,0-.026,4.689,3.253,3.253,0,1,0,4.508-4.689c-.129-.129-.335-.309-.335-.489-.026-1.8-.026-3.632-.026-5.487H63.2c0,1.829,0,3.632-.026,5.41,0,.18-.206.386-.361.541a3.271,3.271,0,1,0,4.482.026c-.155-.155-.361-.361-.361-.541-.026-1.8-.026-3.632-.026-5.436,3.761-.721,4.843-1.829,5.667-5.822a.492.492,0,0,1,.206-.077c1.443,0,2.885-.026,4.328-.026a1.407,1.407,0,0,1,1.468,1.468c0,2.009-.052,4.019.026,6,.026.979-.1,1.752-1.133,2.087a1.253,1.253,0,0,0-.361.283A5.155,5.155,0,0,0,81,87.93a5.239,5.239,0,0,0,4.457-4.019A4.941,4.941,0,0,0,82.98,78.476ZM80.3,19.2a1.614,1.614,0,0,1,1.443.927,1.459,1.459,0,0,0-2.112,1.34,1.3,1.3,0,0,0,.155.618,1.632,1.632,0,0,1-.927-1.391A1.485,1.485,0,0,1,80.3,19.2ZM4.718,46.095A1.6,1.6,0,0,1,6.29,44.6a1.587,1.587,0,0,1,1.314.9,1.384,1.384,0,0,0-.541-.129,1.58,1.58,0,0,0-1.571,1.494,1.294,1.294,0,0,0,.155.618A1.615,1.615,0,0,1,4.718,46.095Zm0,20.969A1.607,1.607,0,0,1,6.212,65.57a1.622,1.622,0,0,1,1.417.927,1.4,1.4,0,0,0-.644-.155,1.607,1.607,0,0,0-1.494,1.494,1.3,1.3,0,0,0,.155.618A1.555,1.555,0,0,1,4.718,67.064ZM16.877,82.7a1.5,1.5,0,0,1,1.52-1.494,1.545,1.545,0,0,1,1.34.9,1.4,1.4,0,0,0-.567-.129,1.5,1.5,0,0,0-1.52,1.494,1.528,1.528,0,0,0,.129.592A1.43,1.43,0,0,1,16.877,82.7Zm17.9-75.969a1.508,1.508,0,0,1,1.365.9,1.528,1.528,0,0,0-.592-.129A1.233,1.233,0,0,0,34.266,8.9c0,.1.026.206.026.283-.593-.026-.747-.309-.8-1.056A1.259,1.259,0,0,1,34.781,6.732Zm-4.74,26.044H68.683v.515H30.556V71.186a3.871,3.871,0,0,1-.515-.052C30.041,58.331,30.041,45.579,30.041,32.776ZM78.858,82.727a1.539,1.539,0,0,1,1.52-1.52,1.555,1.555,0,0,1,1.391.927,1.3,1.3,0,0,0-.618-.155,1.557,1.557,0,0,0-1.52,1.52,1.4,1.4,0,0,0,.129.567A1.459,1.459,0,0,1,78.858,82.727Z" transform="translate(-1.15 -2.995)"/><path class="b" d="M335.126,173.5a5.139,5.139,0,0,0-.026,10.279,5.139,5.139,0,1,0,.026-10.279Zm-.052,6.646a1.479,1.479,0,0,1-1.468-1.443,1.449,1.449,0,0,1,1.468-1.52,1.48,1.48,0,0,1,1.52,1.468A1.5,1.5,0,0,1,335.074,180.146Z" transform="translate(-245.285 -129.576)"/></g><path class="a" d="M114.3,155.958c.258.026.489.052.721.052h35.447c1.752,0,2.5-.747,2.5-2.473V117.6H114.326C114.3,130.4,114.3,143.155,114.3,155.958Z" transform="translate(-84.92 -87.355)"/><g transform="translate(4.314 4.457)"><path class="c" d="M18.587,167.538a1.525,1.525,0,0,0,1.52-1.443,1.508,1.508,0,1,0-1.52,1.443Z" transform="translate(-17.066 -126.629)"/><path class="c" d="M20.038,247.392a1.557,1.557,0,0,0-1.546-1.494A1.607,1.607,0,0,0,17,247.392a1.52,1.52,0,1,0,3.04,0Z" transform="translate(-16.997 -187.06)"/><path class="c" d="M307.914,67.292a1.618,1.618,0,0,0-1.571-1.494,1.5,1.5,0,0,0-1.443,1.494,1.507,1.507,0,1,0,3.014,0Z" transform="translate(-230.734 -53.355)"/><path class="c" d="M65.692,309.512a1.455,1.455,0,0,0,1.494-1.52,1.543,1.543,0,0,0-1.468-1.494,1.5,1.5,0,0,0-1.52,1.494A1.47,1.47,0,0,0,65.692,309.512Z" transform="translate(-52.038 -232.048)"/><path class="c" d="M307.74,308.043a1.521,1.521,0,0,0-3.04.077,1.52,1.52,0,0,0,3.04-.077Z" transform="translate(-230.585 -232.125)"/><path class="c" d="M129.978,17.5a1.233,1.233,0,0,0-1.288,1.391c.052.927.283,1.108,1.314,1.056a.833.833,0,0,1,.438.077c.567.258.8-.077.953-.541A1.494,1.494,0,0,0,129.978,17.5Z" transform="translate(-99.914 -17.498)"/></g><path class="d" d="M71.647,47.442c1.674,0,3.3.026,4.92-.026a1.173,1.173,0,0,0,.67-.412,3.309,3.309,0,0,1,3.71-.644,3.246,3.246,0,0,1-.412,6.054,3.014,3.014,0,0,1-3.194-.773,1.654,1.654,0,0,0-1.288-.515c-1.443.026-2.859,0-4.354,0V62.564c1.674,0,3.349,0,5-.026.18,0,.386-.232.541-.386a3.262,3.262,0,1,1,4.585,4.637,1.334,1.334,0,0,0-.361.85c-.026,2.318,0,4.637-.026,6.93a.988.988,0,0,0,.618.979,5.053,5.053,0,0,1,2.5,5.564,5.1,5.1,0,0,1-9.738.824,5.132,5.132,0,0,1,1.391-5.822,1.734,1.734,0,0,1,.361-.283c1.03-.335,1.159-1.108,1.133-2.087-.077-2.009-.026-4.019-.026-6a1.393,1.393,0,0,0-1.468-1.468c-1.443,0-2.885,0-4.328.026-.077,0-.129.052-.206.077-.824,3.967-1.906,5.1-5.667,5.822,0,1.8,0,3.607.026,5.436,0,.18.206.386.361.541a3.252,3.252,0,1,1-4.482-.026c.155-.155.361-.361.361-.541.026-1.8.026-3.581.026-5.41H50.909c0,1.855,0,3.658.026,5.487,0,.155.206.335.335.489a3.252,3.252,0,1,1-4.482,0c.155-.155.361-.361.361-.541.026-1.777.026-3.581.026-5.41H35.788c0,1.829,0,3.607.026,5.41,0,.18.206.386.361.541a3.254,3.254,0,1,1-4.946,4.173,1.012,1.012,0,0,0-.721-.386c-2.576-.026-5.126,0-7.7-.026a.783.783,0,0,0-.8.541,5.021,5.021,0,0,1-5.719,2.55,5.118,5.118,0,0,1,.026-9.944,5.015,5.015,0,0,1,5.719,2.576.857.857,0,0,0,.85.567c2.731-.026,5.436-.026,8.166,0,.593,0,1-.258,1-.876.026-1.726,0-3.426,0-5.255H25.432V66.2c-1.726,0-3.375,0-5,.026-.18,0-.386.206-.541.361a3.255,3.255,0,0,1-4.74,0,1.334,1.334,0,0,0-.85-.361c-1.159-.052-2.318,0-3.478-.026a.853.853,0,0,0-.927.567,5.062,5.062,0,0,1-5.152,2.653A5.106,5.106,0,0,1,.392,65.5a5,5,0,0,1,3.066-5.874A5.228,5.228,0,0,1,9.872,62a.913.913,0,0,0,.979.618,20.213,20.213,0,0,1,2.164,0,3.313,3.313,0,0,0,2.653-.8,3.109,3.109,0,0,1,4.148.335,1.766,1.766,0,0,0,1.056.438c1.494.052,2.963.026,4.508.026V51.152c-1.649,0-3.3,0-4.92.026-.18,0-.386.206-.541.361a3.271,3.271,0,1,1-4.766-4.482,3.258,3.258,0,0,1,4.688-.026,1.188,1.188,0,0,0,.7.386c1.365.026,2.731.026,4.1.026h.747V36.03c-1.649,0-3.272-.026-4.92.026-.206,0-.438.232-.618.386a3.281,3.281,0,0,1-4.688,0,1.206,1.206,0,0,0-.67-.386c-2.37-.026-4.714-.026-7.213-.026,0,.8-.026,1.546.026,2.318,0,.18.283.361.489.489a5.144,5.144,0,0,1-2.55,9.686,5.231,5.231,0,0,1-4.869-4.2,4.979,4.979,0,0,1,2.7-5.436.867.867,0,0,0,.593-.979c-.026-1.778,0-3.555,0-5.307a1.1,1.1,0,0,1,.077-.258h.773c3.169,0,6.311.026,9.48-.026a1.667,1.667,0,0,0,1.03-.412,3.344,3.344,0,0,1,4.663,0,1.589,1.589,0,0,0,.979.412c1.494.052,2.963.026,4.56.026V26.318h6.724V24.412c0-.721-.026-1.443,0-2.164a3.144,3.144,0,0,0-.773-2.5,3.119,3.119,0,0,1,.335-4.2,1.751,1.751,0,0,0,.412-.979c.052-1.211,0-2.422.026-3.632a1.114,1.114,0,0,0-.7-1.185,5.043,5.043,0,0,1-2.422-5.719A5.221,5.221,0,0,1,33.675.2a5.157,5.157,0,0,1,5.049,3.761,4.929,4.929,0,0,1-2.19,5.667,1.428,1.428,0,0,0-.85,1.623c.052,1.133-.026,2.267.026,3.4a1.426,1.426,0,0,0,.386.927,3.259,3.259,0,0,1-.026,4.688.935.935,0,0,0-.335.567c-.026,1.8-.026,3.581-.026,5.436H47.045a5,5,0,0,0,.052-.618c0-1.211-.026-2.422,0-3.632a2.7,2.7,0,0,0-.7-2.138,3.153,3.153,0,0,1,.386-4.431,3.24,3.24,0,0,1,4.457.18,3.18,3.18,0,0,1,.026,4.508,1.631,1.631,0,0,0-.489,1.288c.026,1.6,0,3.169,0,4.817H62.192c0-1.8,0-3.607-.026-5.384a.954.954,0,0,0-.335-.541A3.262,3.262,0,1,1,66.443,15.7a1.306,1.306,0,0,0,.85.335c2.267.026,4.534,0,6.775.026a.8.8,0,0,0,.824-.515,5.045,5.045,0,0,1,5.77-2.6,5.109,5.109,0,0,1-.206,9.969,5.047,5.047,0,0,1-5.539-2.679.783.783,0,0,0-.8-.541c-2.293.026-4.585.026-6.852,0a1.1,1.1,0,0,0-1.185,1.056c-.077,1.778-.026,3.581-.026,5.487h5.564v6.054c1.726,0,3.349,0,5-.026.18,0,.386-.206.541-.335a3.272,3.272,0,1,1,.026,4.431.954.954,0,0,0-.541-.335C75,36,73.373,36,71.7,36,71.647,39.842,71.647,43.6,71.647,47.442ZM29.115,68.283c.258.026.489.052.721.052H65.284c1.752,0,2.5-.747,2.5-2.473V29.924H29.141C29.115,42.728,29.115,55.479,29.115,68.283ZM5.312,44.789a1.525,1.525,0,0,0,1.52-1.443,1.578,1.578,0,0,0-1.443-1.6,1.52,1.52,0,1,0-.077,3.04Zm1.52,19.424a1.557,1.557,0,0,0-1.546-1.494,1.607,1.607,0,0,0-1.494,1.494,1.58,1.58,0,0,0,1.52,1.546A1.58,1.58,0,0,0,6.832,64.212Zm74.14-46.4A1.618,1.618,0,0,0,79.4,16.323a1.5,1.5,0,0,0-1.443,1.494,1.507,1.507,0,1,0,3.014,0ZM17.446,81.343a1.455,1.455,0,0,0,1.494-1.52,1.543,1.543,0,0,0-1.468-1.494,1.5,1.5,0,0,0-1.52,1.494A1.47,1.47,0,0,0,17.446,81.343Zm63.5-1.546a1.521,1.521,0,0,0-3.04.077,1.52,1.52,0,0,0,3.04-.077ZM33.855,3.88a1.233,1.233,0,0,0-1.288,1.391c.052.927.283,1.108,1.314,1.056a.833.833,0,0,1,.438.077c.567.258.8-.077.953-.541A1.494,1.494,0,0,0,33.855,3.88Z" transform="translate(-0.25 -0.195)"/><path class="e" d="M339.152,175.7A5.258,5.258,0,0,1,334,180.878a5.139,5.139,0,1,1,5.152-5.178ZM334,174.232a1.463,1.463,0,0,0-1.468,1.52A1.479,1.479,0,0,0,334,177.194a1.517,1.517,0,0,0,1.52-1.494A1.48,1.48,0,0,0,334,174.232Z" transform="translate(-244.236 -126.701)"/><path class="a" d="M169.2,171.4v10.871h10.845V171.4Z" transform="translate(-125.677 -127.296)"/><path class="f" d="M152.2,173.458V155.4h18.11v18.058Zm3.607-14.452v10.871h10.845V159.007Z" transform="translate(-113.056 -115.418)"/></g></svg>