<svg xmlns="http://www.w3.org/2000/svg" xmlns:xlink="http://www.w3.org/1999/xlink" viewBox="1135 3852 224.044 228.522"><defs><style>.a{fill:#fff;}.b{fill:#f4f4f4;}.c,.e,.h{fill:#0071ef;}.c{opacity:0.5;}.d{fill:#f2f3f4;}.e{opacity:0.2;}.f{fill:#ff7c5c;}.g{fill:#000078;}.i{filter:url(#a);}</style><filter id="a" x="1135" y="3852" width="224.044" height="228.522" filterUnits="userSpaceOnUse"><feOffset dy="10" input="SourceAlpha"/><feGaussianBlur stdDeviation="5" result="b"/><feFlood flood-opacity="0.129"/><feComposite operator="in" in2="b"/><feComposite in="SourceGraphic"/></filter></defs><g class="i" transform="matrix(1, 0, 0, 1, 0, 0)"><rect class="a" width="194.044" height="198.522" rx="25" transform="translate(1150 3857)"/></g><g transform="translate(1199 3910)"><path class="b" d="M97.419,56.986v-41.4a14.4,14.4,0,0,0-.306-3.178A10.72,10.72,0,0,0,86.285,4H14.091a14.039,14.039,0,0,0-2.213.188A10.715,10.715,0,0,0,3,14.993c-.047,17.089-.024,34.2-.024,51.291a10.708,10.708,0,0,0,3.7,8.356,11.066,11.066,0,0,0,7.65,2.707h22.48c.024.165.047.235.024.259-.942,3.06-1.86,6.1-2.825,9.133a.734.734,0,0,1-.588.353c-.894.047-1.789,0-2.683.024a2.006,2.006,0,0,0-2.166,1.954,1.983,1.983,0,0,0,2.189,2H69.643a2.015,2.015,0,0,0,2.213-2,1.992,1.992,0,0,0-2.166-1.954q-1.342-.035-2.683,0a.574.574,0,0,1-.659-.518c-.541-1.86-1.13-3.7-1.695-5.532-.377-1.2-.73-2.4-1.153-3.743H85.344c.683,0,1.389-.024,2.071-.071a10.727,10.727,0,0,0,9.933-9.981C97.49,63.859,97.419,60.423,97.419,56.986ZM6.888,15.181a7.14,7.14,0,0,1,7.368-7.3c14.571.071,29.141.024,43.712.024H86.073a7.285,7.285,0,0,1,3.86.871,7.853,7.853,0,0,1,1.742,1.365c-.118-.071-.259-.165-.377-.235a7.621,7.621,0,0,0-3.86-.871H59.333c-14.571,0-29.141.047-43.712-.024a7.14,7.14,0,0,0-7.368,7.3C8.348,29.681,8.3,43.028,8.3,56.4H6.935V55.48C6.935,42.039,6.982,28.622,6.888,15.181ZM7.336,68.85a5,5,0,0,1-.353-1.506c-.047-2.307-.024-4.59-.024-6.968H93.323c.047.047.094.094.094.118v.777H8.513c0,2.377-.024,4.661.024,6.968a5,5,0,0,0,.353,1.506,6.5,6.5,0,0,0,2.189,3.06A6.492,6.492,0,0,1,7.336,68.85Zm31.872,14.5c.541-1.789,1.13-3.578,1.648-5.39.118-.447.33-.565.777-.565,5.72.024,11.44,0,17.16.024.235,0,.612.165.659.353a5.113,5.113,0,0,1,.165.565c-5.7-.024-11.393,0-17.089-.024a.674.674,0,0,0-.777.565c-.518,1.813-1.106,3.6-1.648,5.39-.282.942-.588,1.883-.871,2.848H38.054C38.454,85.8,38.831,84.574,39.207,83.35Z" transform="translate(-2.264 -3.058)"/><g transform="translate(0)"><path class="c" d="M152.8,325.3h24.316c-.989-3.154-1.93-6.238-2.919-9.321-.047-.165-.424-.353-.659-.353-5.72-.024-11.44,0-17.16-.024a.674.674,0,0,0-.777.565c-.518,1.812-1.106,3.6-1.648,5.39C153.577,322.779,153.2,324,152.8,325.3Z" transform="translate(-116.822 -241.311)"/><path class="d" d="M22.347,69.813H108.9V28.761c0-.306,0-.588-.024-.894a6.754,6.754,0,0,0-3.531-5.673,7.621,7.621,0,0,0-3.86-.871H73.379c-14.571,0-29.141.047-43.712-.024A7.14,7.14,0,0,0,22.3,28.6c.094,13.441.047,26.858.047,40.3Q22.347,69.319,22.347,69.813Z" transform="translate(-17.04 -16.286)"/><path class="e" d="M23.681,243.3c0,2.377-.024,4.661.024,6.968a5,5,0,0,0,.353,1.507,6.92,6.92,0,0,0,6.873,4.567h72.053c3.813,0,6.873-2.542,7.156-6.144.188-2.236.024-4.5.024-6.756,0-.047-.071-.071-.094-.118Q66.887,243.288,23.681,243.3Z" transform="translate(-18.092 -186.03)"/><g transform="translate(56.027 19.854)"><g transform="translate(0 4.626)"><path class="d" d="M246.83,120.736c0-3.248,0-6.379-.024-9.486a1.2,1.2,0,0,0-.353-.683c-2.024-2.048-4.049-4.072-6.073-6.1-.141-.141-.33-.282-.541-.471a10.9,10.9,0,0,0,6.991,16.736Z" transform="translate(-237.973 -104)"/></g><g transform="translate(12.747 5.097)"><path class="d" d="M292.213,122.242a10.73,10.73,0,0,0,7.909-6.473,10.587,10.587,0,0,0-.706-9.769c-2.4,2.142-4.708,4.213-6.991,6.285a1.268,1.268,0,0,0-.282.8q-.035,4.272,0,8.545C292.143,121.795,292.19,121.959,292.213,122.242Z" transform="translate(-292.125 -106)"/></g><path class="f" d="M271.023,86.524c-3.978-3.131-9.98-2.566-12.523-.33,2.024,2,4.025,4,6.1,6.073C266.715,90.385,268.857,88.478,271.023,86.524Z" transform="translate(-253.668 -84.346)"/></g><path class="g" d="M60.461,73.347c.424,1.342.777,2.542,1.153,3.743.565,1.836,1.153,3.672,1.695,5.532.118.377.282.518.659.518q1.342-.035,2.683,0a1.988,1.988,0,1,1-.047,3.955H27.718a1.983,1.983,0,0,1-2.189-2,2.019,2.019,0,0,1,2.166-1.954c.894-.024,1.789.024,2.683-.024a.734.734,0,0,0,.588-.353c.965-3.037,1.907-6.1,2.825-9.133.024-.047,0-.094-.024-.259H11.288a11.066,11.066,0,0,1-7.65-2.707,10.846,10.846,0,0,1-3.672-8.38q0-25.634,0-51.291A10.671,10.671,0,0,1,8.864.212,11.74,11.74,0,0,1,11.076,0H83.27A10.72,10.72,0,0,1,94.1,8.4a14.4,14.4,0,0,1,.306,3.178q.035,20.691,0,41.4c0,3.437.071,6.9-.071,10.334A10.727,10.727,0,0,1,84.4,73.3c-.683.047-1.389.071-2.071.071H61.591C61.261,73.347,60.955,73.347,60.461,73.347ZM3.921,52.4H90.473V11.346c0-.306,0-.588-.024-.894a6.754,6.754,0,0,0-3.531-5.673,7.621,7.621,0,0,0-3.86-.871H54.953c-14.571,0-29.141.047-43.712-.024a7.14,7.14,0,0,0-7.368,7.3c.094,13.441.047,26.858.047,40.3Q3.921,51.9,3.921,52.4Zm.024,3.978c0,2.377-.024,4.661.024,6.968a5,5,0,0,0,.353,1.506,6.92,6.92,0,0,0,6.873,4.567H83.247c3.813,0,6.873-2.542,7.156-6.144.188-2.236.024-4.5.024-6.756,0-.047-.071-.071-.094-.118Q47.185,56.364,3.944,56.376ZM35.039,83.092H59.355c-.989-3.154-1.93-6.238-2.919-9.321-.047-.165-.424-.353-.659-.353-5.72-.024-11.44,0-17.16-.024a.674.674,0,0,0-.777.565c-.518,1.813-1.106,3.6-1.648,5.39C35.816,80.574,35.439,81.8,35.039,83.092Z" transform="translate(0.044)"/><path class="g" d="M243.966,79.175A14.737,14.737,0,1,1,228.83,64.393,14.645,14.645,0,0,1,243.966,79.175ZM227.276,89.768c0-3.248,0-6.379-.024-9.486a1.2,1.2,0,0,0-.353-.683c-2.024-2.048-4.049-4.072-6.073-6.1-.141-.141-.33-.282-.541-.471a10.9,10.9,0,0,0,6.991,16.736Zm4,0a10.73,10.73,0,0,0,7.909-6.473,10.587,10.587,0,0,0-.706-9.769c-2.4,2.142-4.708,4.213-6.991,6.285a1.268,1.268,0,0,0-.282.8q-.035,4.272,0,8.545C231.207,89.3,231.255,89.462,231.278,89.768ZM235.8,70.583c-3.978-3.131-9.98-2.566-12.523-.33,2.024,2,4.025,4,6.1,6.073C231.49,74.444,233.632,72.537,235.8,70.583Z" transform="translate(-163.993 -49.234)"/><path class="h" d="M133.1,98.331v10.851a2.159,2.159,0,0,1-.683,1.812,1.885,1.885,0,0,1-2.024.33,1.934,1.934,0,0,1-1.224-1.648,2.014,2.014,0,0,1,0-.377V87.315a1.973,1.973,0,0,1,2.8-1.977,2.012,2.012,0,0,1,1.13,2c-.024,3.319,0,6.638,0,9.957Z" transform="translate(-98.743 -65.094)"/><path class="e" d="M170.924,113.125v-9.133a2,2,0,0,1,1.318-1.954,1.891,1.891,0,0,1,2.236.73,2.6,2.6,0,0,1,.377,1.318c.024,6.026.024,12.028,0,18.054a1.978,1.978,0,0,1-1.954,2.166,2.008,2.008,0,0,1-2-2.189C170.924,119.1,170.924,116.114,170.924,113.125Z" transform="translate(-130.662 -77.934)"/><path class="e" d="M49.627,120.516v8.239a1.943,1.943,0,0,1-1.483,1.883A1.9,1.9,0,0,1,46,129.7a2.347,2.347,0,0,1-.259-1.059c-.024-5.437-.024-10.9,0-16.336a1.873,1.873,0,0,1,1.93-2,1.9,1.9,0,0,1,1.977,2.024C49.65,115.078,49.627,117.785,49.627,120.516Z" transform="translate(-34.951 -84.337)"/><path class="c" d="M91.407,142.7v5.061a1.963,1.963,0,1,1-3.907.024V137.517a1.959,1.959,0,1,1,3.907-.024C91.431,139.212,91.407,140.954,91.407,142.7Z" transform="translate(-66.893 -103.527)"/><path class="g" d="M339.076,255a1.9,1.9,0,0,1,1.954,1.977,1.991,1.991,0,0,1-1.977,1.907,2.046,2.046,0,0,1-1.954-1.954A1.906,1.906,0,0,1,339.076,255Z" transform="translate(-257.738 -194.976)"/></g></g></svg>