<svg xmlns="http://www.w3.org/2000/svg" xmlns:xlink="http://www.w3.org/1999/xlink" viewBox="1135 4799 224.044 228.522"><defs><style>.a,.c{fill:#fff;}.b{fill:#f4f4f4;}.b,.c,.h{opacity:0.5;}.d,.e,.h{fill:#0071ef;}.e{opacity:0.2;}.f{fill:#ff7c5c;}.g{fill:#000078;}.i{filter:url(#a);}</style><filter id="a" x="1135" y="4799" width="224.044" height="228.522" filterUnits="userSpaceOnUse"><feOffset dy="10" input="SourceAlpha"/><feGaussianBlur stdDeviation="5" result="b"/><feFlood flood-opacity="0.11"/><feComposite operator="in" in2="b"/><feComposite in="SourceGraphic"/></filter></defs><g class="i" transform="matrix(1, 0, 0, 1, 0, 0)"><rect class="a" width="194.044" height="198.522" rx="25" transform="translate(1150 4804)"/></g><g transform="translate(1204 4860.287)"><g transform="translate(0.68 0.68)"><path class="b" d="M63.641,2H3.836A1.828,1.828,0,0,0,2,3.836V84.789a1.828,1.828,0,0,0,1.836,1.836H63.641a1.828,1.828,0,0,0,1.836-1.836V3.836A1.828,1.828,0,0,0,63.641,2ZM5.536,5.5H61.975v.68H6.556v6.29H5.536C5.536,10.16,5.536,7.848,5.536,5.5ZM5.5,16.11H61.941v1.02H6.862V69.013H5.5Q5.5,42.544,5.5,16.11Zm0,56.473H61.941v.68H6.522v9.86H5.5C5.5,79.587,5.5,76.119,5.5,72.583Z" transform="translate(-2 -2)"/><path class="b" d="M220.278,108.969V78.132a1.87,1.87,0,0,0-.408-1.088c-.714-.918-1.462-1.8-2.21-2.686-1.768-2.108-3.536-4.216-5.3-6.358a.577.577,0,0,0-.2.2c-2.516,2.992-5.032,6.018-7.514,9.01a1.5,1.5,0,0,0-.238.884v52.087h15.878v-.816Q220.278,119.169,220.278,108.969ZM216.708,86.5H208.65v26.112h-.68V86.156h8.738ZM207.97,78.88a.453.453,0,0,1,.2-.306c1.326-1.6,2.686-3.23,4.012-4.828.068-.068.136-.1.2-.17.272.306.51.612.782.918-1.326,1.6-2.652,3.2-3.978,4.76-.068.1-.2.2-.2.306v2.992h-1.02Q207.919,80.716,207.97,78.88Zm0,37.264h8.772v.68H208.99v9.86h-1.02Z" transform="translate(-135.585 -45.56)"/></g><path class="c" d="M223.638,146.752V120.3H214.9v26.452Z" transform="translate(-141.835 -79.399)"/><path class="c" d="M70.739,97.4V44.5H14.3V97.4Z" transform="translate(-9.438 -29.37)"/><path class="d" d="M13.3,220.14H69.739V209.6H13.3C13.3,213.136,13.3,216.6,13.3,220.14Z" transform="translate(-8.778 -138.337)"/><path class="e" d="M69.739,12.3H13.3v6.97H69.739Z" transform="translate(-8.778 -8.118)"/><path class="e" d="M215.9,209.6v10.54h8.772V209.6Z" transform="translate(-142.495 -138.337)"/><path class="f" d="M224.706,93.31V89.842a.957.957,0,0,0-.2-.51c-1.394-1.7-2.788-3.366-4.182-5.032a.9.9,0,0,1-.2.17c-1.326,1.6-2.686,3.23-4.012,4.828-.068.1-.2.2-.2.306v3.672C218.858,93.31,221.714,93.31,224.706,93.31Z" transform="translate(-142.495 -55.638)"/><path class="g" d="M63.477,1.836V82.789a1.828,1.828,0,0,1-1.836,1.836H1.836A1.828,1.828,0,0,1,0,82.789V1.836A1.828,1.828,0,0,1,1.836,0H61.641A1.828,1.828,0,0,1,63.477,1.836ZM59.941,67.013V14.11H3.5v52.9ZM3.5,81.123H59.941V70.583H3.5C3.5,74.119,3.5,77.587,3.5,81.123ZM59.941,3.5H3.5v6.97H59.941Z"/><path class="g" d="M210.356,66.1c1.768,2.142,3.536,4.25,5.3,6.358.748.884,1.5,1.768,2.21,2.686a1.87,1.87,0,0,1,.408,1.088c.034,10.268,0,20.57,0,30.838v21.216H202.4V76.2a1.57,1.57,0,0,1,.238-.884c2.482-3.026,5-6.018,7.514-9.01Zm4.352,44.539V84.188H205.97v26.452Zm-8.738,3.57v10.54h8.772v-10.54Zm8.806-33.592V77.15a.957.957,0,0,0-.2-.51c-1.394-1.7-2.788-3.366-4.182-5.032a.9.9,0,0,1-.2.17c-1.326,1.6-2.686,3.23-4.012,4.828-.068.1-.2.2-.2.306v3.672C208.928,80.618,211.784,80.618,214.776,80.618Z" transform="translate(-133.585 -43.626)"/><path class="e" d="M34.908,69.374H20.9V57.1H34.908Zm-10.54-3.536h7v-5.2h-7Z" transform="translate(-13.794 -37.686)"/><path class="e" d="M72.6,69.374V57.1H86.676V69.374Zm3.536-3.536h7v-5.2h-7Z" transform="translate(-47.916 -37.686)"/><path class="e" d="M138.742,57.1V69.374H124.7V57.1ZM128.2,65.838h7v-5.2h-7Z" transform="translate(-82.302 -37.686)"/><path class="h" d="M20.8,103.8H34.842v12.274H20.8Zm10.472,8.772v-5.236H24.3v5.236Z" transform="translate(-13.728 -68.508)"/><path class="d" d="M72.6,116.14V103.9H86.642v12.24Zm3.57-8.738v5.236h6.97V107.4Z" transform="translate(-47.916 -68.574)"/><path class="a" d="M67.5,221.434V218H85.044v3.434Z" transform="translate(-44.55 -143.881)"/><path class="g" d="M67.5,19.034V15.6H78.006v3.434Z" transform="translate(-44.55 -10.296)"/><path class="g" d="M109,19.034V15.6h3.434v3.434Z" transform="translate(-71.94 -10.296)"/><path class="c" d="M38.07,119.436V114.2H31.1v5.236Z" transform="translate(-20.526 -75.372)"/><path class="c" d="M38.07,72.436V67.2H31.1v5.236Z" transform="translate(-20.526 -44.352)"/><path class="c" d="M90.07,72.436V67.2H83.1v5.236Z" transform="translate(-54.846 -44.352)"/><path class="c" d="M90.07,119.436V114.2H83.1v5.236Z" transform="translate(-54.846 -75.372)"/><path class="c" d="M142.07,72.436V67.2H135.1v5.236Z" transform="translate(-89.166 -44.352)"/></g></svg>