<svg xmlns="http://www.w3.org/2000/svg" xmlns:xlink="http://www.w3.org/1999/xlink" viewBox="834 4232 224.044 228.522"><defs><style>.a{fill:#fff;}.b{fill:#f4f4f4;}.c,.d{fill:#0071ef;}.c{opacity:0.2;}.d{opacity:0.5;}.e{fill:#f2f3f4;}.f{fill:#000078;}.g{fill:#ff7c5c;}.h{filter:url(#a);}</style><filter id="a" x="834" y="4232" width="224.044" height="228.522" filterUnits="userSpaceOnUse"><feOffset dy="10" input="SourceAlpha"/><feGaussianBlur stdDeviation="5" result="b"/><feFlood flood-opacity="0.129"/><feComposite operator="in" in2="b"/><feComposite in="SourceGraphic"/></filter></defs><g class="h" transform="matrix(1, 0, 0, 1, 0, 0)"><rect class="a" width="194.044" height="198.522" rx="25" transform="translate(849 4237)"/></g><g transform="translate(895 4281)"><g transform="translate(0.859 1.146)"><path class="b" d="M115.6,180.3c1.059-1.059,1.088-1.889.029-2.949q-8.975-8.975-17.95-17.978c-1.031-1.031-1.861-1.031-2.863,0-2.577,2.576-5.182,5.124-7.729,7.758a18.33,18.33,0,0,1-4.151,3.264c-1.718.973-3.378,2.033-5.1,3.035a2.4,2.4,0,0,1-1.174.315c-1.8.029-3.607.029-5.382,0a7.055,7.055,0,0,1-1.889-.315q-3.435-1.245-6.871-2.576a3.442,3.442,0,0,1-1.145-.744q-4.595-4.552-9.132-9.1a1.689,1.689,0,0,0-2.72-.029c-5.5,5.5-10.993,10.964-16.461,16.461a1.715,1.715,0,0,0,.029,2.777c1.975,1.975,3.893,4.008,5.926,5.9a59.967,59.967,0,0,1,7.558,8.817.692.692,0,0,1,0,1,4.976,4.976,0,0,0,.487,6.67c5.1,5.1,10.191,10.22,15.316,15.316a4.981,4.981,0,0,0,7.214-.029c.458-.458.916-.973,1.374-1.489,1.718,1.718,3.321,3.349,4.924,4.924a5.009,5.009,0,0,0,6.5.487,5.508,5.508,0,0,0,2.347-4.037c3.035-.6,4.495-2.09,5.067-5.067.315-.057.6-.115.887-.172a5.359,5.359,0,0,0,4.008-4.151c.115-.544.286-.773.859-.859a5.241,5.241,0,0,0,4.008-6.813,1.3,1.3,0,0,1,.143-1.288c1.918-2.891,3.807-5.783,5.726-8.674a8.726,8.726,0,0,1,1.231-1.489C109.619,186.254,112.625,183.277,115.6,180.3Z" transform="translate(-23.965 -114.342)"/><path class="b" d="M342.4,222.935c1.116.143,2.147.258,3.321.4.086-1.2.2-2.29.286-3.464-1.174-.057-2.233-.115-3.349-.172C342.572,220.845,342.486,221.847,342.4,222.935Z" transform="translate(-245.238 -157.95)"/><path class="b" d="M320.9,287.934c.973.573,1.889,1.117,2.891,1.718.573-1.059,1.116-2.033,1.66-3.063-1.031-.515-2-1-3.006-1.489C321.9,286.045,321.415,286.961,320.9,287.934Z" transform="translate(-229.893 -204.627)"/><path class="b" d="M312.861,111.066c.973-.63,1.861-1.2,2.806-1.832-.687-.973-1.317-1.889-1.975-2.834-.945.687-1.8,1.345-2.691,2C311.658,109.32,312.26,110.179,312.861,111.066Z" transform="translate(-222.827 -77.085)"/><path class="b" d="M340,176.022c1.145-.172,2.176-.344,3.321-.515-.229-1.174-.429-2.233-.658-3.407-1.145.258-2.147.487-3.264.744C339.6,173.9,339.8,174.906,340,176.022Z" transform="translate(-243.097 -123.977)"/><path class="b" d="M343.172,199.435h3.321c-.057-1.145-.115-2.233-.143-3.435-1.2.115-2.233.2-3.349.286C343.029,197.4,343.115,198.462,343.172,199.435Z" transform="translate(-245.666 -141.035)"/><path class="b" d="M256.1,352.932c.544,1,1.031,1.947,1.574,2.949,1.031-.6,1.975-1.145,3.006-1.746-.63-1-1.2-1.918-1.775-2.834C257.9,351.873,257.016,352.388,256.1,352.932Z" transform="translate(-183.643 -251.876)"/><path class="b" d="M338.3,245.378l3.235.83c.258-1.174.515-2.233.773-3.378-1.145-.229-2.2-.429-3.292-.63C338.758,243.288,338.529,244.318,338.3,245.378Z" transform="translate(-242.311 -174.009)"/><path class="b" d="M308,307.205c.887.716,1.746,1.374,2.634,2.09.687-.945,1.374-1.832,2.061-2.806-.973-.658-1.861-1.288-2.777-1.889C309.26,305.516,308.658,306.346,308,307.205Z" transform="translate(-220.686 -218.545)"/><path class="b" d="M284.024,74.1c-.945-.773-1.775-1.46-2.691-2.2-.716.916-1.374,1.775-2.033,2.662.887.716,1.66,1.374,2.491,2.061C282.535,75.765,283.251,74.963,284.024,74.1Z" transform="translate(-200.202 -52.462)"/><path class="b" d="M331,267.235c1.031.429,2.033.83,3.092,1.288.4-1.088.8-2.147,1.231-3.264l-3.178-1.059C331.744,265.259,331.372,266.2,331,267.235Z" transform="translate(-237.101 -189.711)"/><path class="b" d="M333.859,153.066c1.088-.344,2.118-.658,3.206-.973-.372-1.117-.744-2.147-1.116-3.292-1.088.429-2.09.8-3.149,1.2C333.172,151.062,333.516,152.035,333.859,153.066Z" transform="translate(-238.386 -107.347)"/><path class="b" d="M235.4,363.131c.4,1.059.773,2.09,1.145,3.149,1.088-.429,2.118-.859,3.206-1.317-.487-1.088-.916-2.061-1.374-3.063C237.347,362.329,236.4,362.73,235.4,363.131Z" transform="translate(-168.869 -259.441)"/><path class="b" d="M324.76,131.295c1.031-.487,2-.916,3.035-1.4-.544-1.059-1.059-2.061-1.575-3.092-1.031.573-1.975,1.088-2.92,1.632C323.787,129.405,324.273,130.321,324.76,131.295Z" transform="translate(-231.606 -91.645)"/><path class="b" d="M275.3,340c.658.916,1.288,1.775,1.975,2.72.945-.744,1.832-1.431,2.748-2.147-.773-.916-1.46-1.718-2.147-2.577C276.96,338.716,276.159,339.346,275.3,340Z" transform="translate(-197.347 -242.383)"/><path class="b" d="M292.8,325.076c.773.83,1.517,1.6,2.262,2.347.859-.83,1.66-1.574,2.519-2.376-.887-.83-1.689-1.546-2.347-2.147C294.4,323.644,293.6,324.36,292.8,325.076Z" transform="translate(-209.837 -231.606)"/><path class="b" d="M6.449,219.2c-1.145.057-2.2.115-3.349.2.086,1.174.172,2.262.286,3.435,1.174-.143,2.233-.258,3.349-.4C6.621,221.347,6.535,220.316,6.449,219.2Z" transform="translate(-3.071 -157.593)"/><path class="b" d="M35.695,108c-.887-.658-1.746-1.317-2.691-2-.658.973-1.317,1.861-2,2.834,1,.658,1.918,1.231,2.834,1.832C34.493,109.722,35.094,108.891,35.695,108Z" transform="translate(-22.984 -76.8)"/><path class="b" d="M85.6,353.934c1.031.6,1.975,1.145,3.006,1.746.544-1.031,1.059-1.975,1.575-2.949-.945-.544-1.861-1.088-2.806-1.632C86.774,352.045,86.2,352.961,85.6,353.934Z" transform="translate(-61.954 -251.733)"/><path class="b" d="M9.122,172.344c-1.116-.258-2.147-.487-3.264-.744-.229,1.174-.429,2.262-.658,3.407,1.174.2,2.2.344,3.292.515C8.693,174.463,8.893,173.461,9.122,172.344Z" transform="translate(-4.57 -123.62)"/><path class="b" d="M9.092,241.8c-1.145.2-2.2.4-3.292.63.258,1.174.515,2.233.773,3.378,1.116-.286,2.147-.544,3.235-.83C9.579,243.89,9.35,242.859,9.092,241.8Z" transform="translate(-4.998 -173.723)"/><path class="b" d="M15.078,263.7c-1.088.372-2.09.716-3.178,1.059.429,1.116.8,2.176,1.231,3.264,1.088-.458,2.09-.887,3.092-1.288C15.822,265.675,15.45,264.7,15.078,263.7Z" transform="translate(-9.352 -189.354)"/><path class="b" d="M24.206,284.7c-1,.487-1.975.973-3.006,1.489.573,1.031,1.088,2.033,1.66,3.063,1.031-.6,1.947-1.145,2.891-1.689C25.208,286.561,24.721,285.645,24.206,284.7Z" transform="translate(-15.99 -204.342)"/><path class="b" d="M14.866,149.5c-1.059-.4-2.061-.773-3.149-1.2-.4,1.145-.744,2.176-1.116,3.292,1.088.344,2.118.658,3.206.973C14.178,151.506,14.522,150.533,14.866,149.5Z" transform="translate(-8.424 -106.99)"/><path class="b" d="M48.5,324.4c.8.83,1.575,1.632,2.147,2.262.887-.744,1.746-1.46,2.605-2.176-.83-.83-1.575-1.546-2.319-2.29C50.132,322.916,49.33,323.631,48.5,324.4Z" transform="translate(-35.474 -231.107)"/><path class="b" d="M36.177,304.2c-.916.63-1.8,1.231-2.777,1.889.716.945,1.374,1.861,2.061,2.806.916-.716,1.746-1.374,2.634-2.09C37.437,305.918,36.835,305.087,36.177,304.2Z" transform="translate(-24.697 -218.26)"/><path class="b" d="M23.895,127.932c-.973-.544-1.918-1.059-2.92-1.632-.544,1.059-1.031,2.033-1.575,3.092,1.059.487,2,.945,3.035,1.431C22.921,129.821,23.379,128.905,23.895,127.932Z" transform="translate(-14.705 -91.288)"/><path class="b" d="M107.1,364.792c1.116.458,2.147.859,3.206,1.288.4-1.088.773-2.09,1.145-3.149-1-.4-1.975-.8-3.006-1.231C107.987,362.759,107.558,363.733,107.1,364.792Z" transform="translate(-77.299 -259.299)"/><path class="b" d="M67.524,74.162c-.687-.887-1.345-1.746-2.033-2.662-.916.744-1.775,1.431-2.691,2.2.744.859,1.46,1.66,2.2,2.519C65.892,75.508,66.665,74.849,67.524,74.162Z" transform="translate(-45.681 -52.176)"/><path class="b" d="M66,340.277c.945.744,1.832,1.431,2.748,2.118.687-.945,1.317-1.832,1.975-2.72-.887-.687-1.689-1.317-2.548-1.975C67.431,338.559,66.744,339.389,66,340.277Z" transform="translate(-47.965 -242.169)"/><path class="b" d="M6.521,195.886c-1.145-.086-2.2-.2-3.349-.286-.057,1.174-.115,2.29-.172,3.464H6.321C6.378,198.033,6.464,197.031,6.521,195.886Z" transform="translate(-3 -140.749)"/><path class="b" d="M50.28,90.262c-.8-.859-1.546-1.632-2.29-2.462-.744.8-1.517,1.632-2.29,2.462.859.744,1.66,1.431,2.548,2.2C48.992,91.665,49.708,90.892,50.28,90.262Z" transform="translate(-33.476 -63.81)"/><path class="b" d="M301.166,90.691c-.83-.887-1.575-1.689-2.29-2.491-.83.8-1.574,1.546-2.376,2.347.716.773,1.431,1.546,2.147,2.347C299.506,92.122,300.307,91.435,301.166,90.691Z" transform="translate(-212.478 -64.095)"/><path class="b" d="M105.756,30.223a6.691,6.691,0,0,1,2.491,3.292c.029.115.143.229.172.344a6.054,6.054,0,0,1,.057,1c-.086.544-.229,1.088-.344,1.6-.229,3.578,3.092,6.813,6.613,6.155a5.516,5.516,0,0,1,3.722.4,1.458,1.458,0,0,0,.487.2c.544.086.773.429,1.031.887a5.765,5.765,0,0,0,9.7.973,6.949,6.949,0,0,1,3.349-2.548.1.1,0,0,0,.057-.029,4.935,4.935,0,0,1,1.431-.086,5.824,5.824,0,0,0,7.615-6.1,6.747,6.747,0,0,1,.544-4.266c.086-.143.086-.344.172-.487A2.1,2.1,0,0,1,143.4,31a5.724,5.724,0,0,0,3.378-5.382,5.766,5.766,0,0,0-3.407-5.382c-.143-.086-.372-.172-.4-.315-.458-1.46-1.46-2.691-.973-4.523a5.686,5.686,0,0,0-6.327-6.756,5.756,5.756,0,0,1-3.865-.4,4.939,4.939,0,0,1-.687-.286,2.363,2.363,0,0,1-.687-.6A5.827,5.827,0,0,0,125.109,4a5.734,5.734,0,0,0-5.267,3.178c-.143.258-.286.573-.544.687-.859.429-1.746.773-2.634,1.116a1.554,1.554,0,0,1-.8-.057,5.777,5.777,0,0,0-5.955,1.346,5.841,5.841,0,0,0-1.546,6.1A2.267,2.267,0,0,1,108.3,17.6a10.474,10.474,0,0,1-.83,1.947,2.17,2.17,0,0,1-.744.859A5.783,5.783,0,0,0,105.756,30.223Zm5.811,7.873a2.632,2.632,0,0,1,.229-2.977,1.157,1.157,0,0,0,.086-1.4c-.687-1.431-1.26-2.92-1.832-4.38a1.04,1.04,0,0,1,.83.8c.573,1.489,1.145,3.006,1.861,4.437a1.157,1.157,0,0,1-.086,1.4,2.587,2.587,0,0,0-.229,2.977.6.6,0,0,0,.115.172A3.365,3.365,0,0,1,111.568,38.1Zm10.821,3.664c0-.057-.029-.115-.029-.172a1.127,1.127,0,0,1,.887,1.031,2.6,2.6,0,0,0,.372,1.059A2.755,2.755,0,0,1,122.389,41.76ZM143.23,24.183a3.336,3.336,0,0,0-1.26-.515,1.124,1.124,0,0,1-.945-.887h0c.029,0,.057.029.086.029A3.105,3.105,0,0,1,143.23,24.183ZM132.924,12.245a1.416,1.416,0,0,0,1.746-.057,2.537,2.537,0,0,1,2.977-.086,3.215,3.215,0,0,1,.945.916c-.029-.029-.057-.057-.086-.057a2.492,2.492,0,0,0-2.977.086,1.379,1.379,0,0,1-1.746.057,26.134,26.134,0,0,0-3.807-1.6c-.658-.2-1.059-.429-1.26-1a1.655,1.655,0,0,0,.4.143A27.533,27.533,0,0,1,132.924,12.245ZM106.987,24.268a3.17,3.17,0,0,1,2.147-1.4,1.283,1.283,0,0,0,.8-.63c.716-1.775,1.374-3.607,2.061-5.411.057.029.143.029.2.057-.172-.258-.315-.515-.487-.744a2.765,2.765,0,0,1,.258-3.55,2.726,2.726,0,0,1,3.407-.429,1.676,1.676,0,0,0,2.061,0,26.333,26.333,0,0,1,3.836-1.575,1.366,1.366,0,0,0,1.116-1.231,2.657,2.657,0,0,1,2.777-2.262,2.749,2.749,0,0,1,2.262,1.288,2.775,2.775,0,0,0-1.4-.429,2.657,2.657,0,0,0-2.777,2.262,1.366,1.366,0,0,1-1.116,1.231,26.334,26.334,0,0,0-3.836,1.575,1.718,1.718,0,0,1-2.061,0,2.7,2.7,0,0,0-3.407.429A2.761,2.761,0,0,0,112.57,17c.172.258.315.515.487.744-.057-.029-.143-.029-.2-.057-.687,1.8-1.345,3.607-2.061,5.411a1.283,1.283,0,0,1-.8.63,3.17,3.17,0,0,0-2.147,1.4,2.685,2.685,0,0,0-.029,2.777A2.636,2.636,0,0,1,106.987,24.268Z" transform="translate(-74.695 -4)"/></g><path class="a" d="M124.112,235.47c-.859.859-1.632,1.6-2.433,2.4,1.346,1.345,2.748,2.72,4.122,4.094a1.893,1.893,0,1,1-2.634,2.72c-1.4-1.374-2.777-2.748-4.094-4.094L116.7,242.97c1.317,1.288,2.691,2.662,4.065,4.065a1.73,1.73,0,0,1,.172,2.576,1.75,1.75,0,0,1-2.777.143c-1.4-1.374-2.748-2.777-4.065-4.094-.8.8-1.546,1.575-2.376,2.4.973.973,2.061,2.033,3.12,3.12l.945.945a1.893,1.893,0,1,1-2.691,2.662c-1.632-1.6-3.264-3.235-4.867-4.867a1.129,1.129,0,0,1-.258-.8,5.319,5.319,0,0,0-4.437-5.869c-.458-.086-.6-.229-.658-.658a5.319,5.319,0,0,0-4.38-4.409c-.229-.057-.573-.286-.6-.487a5.344,5.344,0,0,0-4.523-4.552l-.429-.086a5.4,5.4,0,0,0-8.531-3.979c-1-1.317-1.975-2.634-3.006-3.979.172-.2.344-.372.487-.544q7-7,13.97-14a.932.932,0,0,1,1.2-.258c1.746.716,3.521,1.345,5.411,2.061-.916.8-1.746,1.546-2.576,2.29l-5.411,4.724a6.015,6.015,0,0,0-1.546,6.728,5.941,5.941,0,0,0,5.64,3.722,6.252,6.252,0,0,0,3.75-1.4,14.548,14.548,0,0,0,1.46-1.174,13.868,13.868,0,0,1,7.186-3.807,23.537,23.537,0,0,1,4.495-.143c.172,0,.344.2.515.344,2.977,2.462,5.983,4.867,8.875,7.415,2.176,1.947,4.18,4.065,6.212,6.155a1.677,1.677,0,0,1-.172,2.548,1.7,1.7,0,0,1-2.519.057C126.889,238.333,125.487,236.873,124.112,235.47Z" transform="translate(-58.097 -150.016)"/><path class="c" d="M173.142,221.233c-1.746,2.634-3.521,5.353-5.353,8.13-.2-.172-.344-.315-.487-.458-4.323-4.666-9.39-8.474-14.228-12.539a2.665,2.665,0,0,0-1.489-.515c-1.489-.057-2.977-.086-4.466,0a12.972,12.972,0,0,0-2.033.458,16.079,16.079,0,0,0-7.586,4.122,16.6,16.6,0,0,1-1.775,1.4,2.587,2.587,0,0,1-3.578-.372,2.54,2.54,0,0,1,.315-3.636q4.809-4.251,9.648-8.445a1.436,1.436,0,0,1,.916-.258c1.632-.029,3.292.029,4.924-.029a4.1,4.1,0,0,0,1.832-.515c2.29-1.317,4.523-2.691,6.7-3.979C162.035,210.154,167.56,215.65,173.142,221.233Z" transform="translate(-93.872 -146.027)"/><path class="d" d="M252.575,186.474l-7.5,7.5L229.1,178l7.5-7.5C241.925,175.8,247.279,181.15,252.575,186.474Z" transform="translate(-163.514 -121.689)"/><path class="d" d="M61.428,176.4l7.5,7.5L54.7,198.128l-7.5-7.5Z" transform="translate(-33.688 -125.9)"/><path class="c" d="M108.119,307.7c-.859-.887-1.689-1.746-2.519-2.577,1.059-1.088,2.09-2.262,3.206-3.321a1.884,1.884,0,0,1,2.519,2.72C110.324,305.614,109.207,306.616,108.119,307.7Z" transform="translate(-75.369 -215.121)"/><path class="c" d="M125.776,325.435c-.887-.887-1.718-1.746-2.576-2.634,1-1,2-2.09,3.092-3.092a1.709,1.709,0,0,1,2.519.172,1.651,1.651,0,0,1,.115,2.491C127.895,323.4,126.836,324.376,125.776,325.435Z" transform="translate(-87.931 -227.843)"/><path class="c" d="M91.982,290.368c-.515-.544-.973-1-1.4-1.46a1.628,1.628,0,0,1-.029-2.376,25.726,25.726,0,0,1,1.975-1.975,1.729,1.729,0,0,1,2.576.172,1.669,1.669,0,0,1,.057,2.491C94.129,288.249,93.07,289.251,91.982,290.368Z" transform="translate(-64.27 -202.738)"/><path class="c" d="M140.3,340.534c1.145-1.145,2.118-2.176,3.149-3.149a1.887,1.887,0,0,1,2.662,2.662q-.9.988-1.889,1.889a1.728,1.728,0,0,1-2.462,0C141.273,341.479,140.815,341.021,140.3,340.534Z" transform="translate(-100.135 -240.423)"/><path class="e" d="M119.984,23.832c-.057-.029-.143-.029-.2-.057-.687,1.8-1.345,3.607-2.061,5.411a1.283,1.283,0,0,1-.8.63,3.17,3.17,0,0,0-2.147,1.4c-1.031,1.8-.057,3.722,2.147,4.18a1.034,1.034,0,0,1,.887.83c.573,1.489,1.145,3.006,1.861,4.437a1.157,1.157,0,0,1-.086,1.4,2.587,2.587,0,0,0-.229,2.977,2.74,2.74,0,0,0,4.094.887,1.246,1.246,0,0,1,1.489-.057,39.881,39.881,0,0,0,4.294,1.775,1.156,1.156,0,0,1,.945,1.059,2.651,2.651,0,0,0,2.72,2.319c1.546,0,2.462-.83,2.834-2.576a.852.852,0,0,1,.687-.744c1.546-.6,3.092-1.2,4.58-1.889a1.117,1.117,0,0,1,1.288.057,2.756,2.756,0,0,0,3.722-.229,2.79,2.79,0,0,0,.172-3.722c-.344-.458-.229-.773-.029-1.231.658-1.46,1.317-2.92,1.861-4.437a1.153,1.153,0,0,1,1-.916,2.633,2.633,0,0,0,2.09-1.431c.916-1.775-.029-3.664-2.176-4.151a1.124,1.124,0,0,1-.945-.887c-.573-1.517-1.231-3.035-1.918-4.495a1,1,0,0,1,0-1.088,5.167,5.167,0,0,0,.658-1.66,2.462,2.462,0,0,0-1.288-2.548,2.492,2.492,0,0,0-2.977.086,1.379,1.379,0,0,1-1.746.057,26.136,26.136,0,0,0-3.807-1.6c-.773-.258-1.2-.515-1.346-1.374a2.689,2.689,0,0,0-2.576-2.147A2.657,2.657,0,0,0,130.2,16.36a1.367,1.367,0,0,1-1.116,1.231,26.334,26.334,0,0,0-3.836,1.575,1.718,1.718,0,0,1-2.061,0,2.7,2.7,0,0,0-3.407.429,2.761,2.761,0,0,0-.258,3.55C119.669,23.316,119.812,23.574,119.984,23.832Z" transform="translate(-81.623 -10.061)"/><path class="f" d="M86.782,208.806c-.573,2.977-2.033,4.437-5.067,5.067a5.471,5.471,0,0,1-2.347,4.036,5.006,5.006,0,0,1-6.5-.487L67.945,212.5c-.487.515-.916,1.031-1.374,1.489a5.005,5.005,0,0,1-7.214.029q-7.687-7.644-15.316-15.316a4.976,4.976,0,0,1-.487-6.67.692.692,0,0,0,0-1A58.521,58.521,0,0,0,36,182.211c-2.033-1.918-3.951-3.922-5.926-5.9a1.7,1.7,0,0,1-.029-2.777c5.5-5.5,10.964-10.993,16.461-16.461a1.689,1.689,0,0,1,2.72.029c3.035,3.035,6.069,6.1,9.132,9.1a3.758,3.758,0,0,0,1.145.744c2.29.887,4.552,1.746,6.871,2.577a6.082,6.082,0,0,0,1.889.315c1.8.029,3.607.029,5.382,0a2.4,2.4,0,0,0,1.174-.315c1.718-1,3.378-2.061,5.1-3.035a18.33,18.33,0,0,0,4.151-3.264c2.548-2.605,5.153-5.182,7.729-7.758,1.031-1.031,1.861-1.031,2.863,0q8.975,8.975,17.95,17.978c1.059,1.059,1.031,1.861-.029,2.949-2.977,2.977-5.983,5.955-8.96,8.96a9.992,9.992,0,0,0-1.231,1.489c-1.918,2.891-3.807,5.783-5.726,8.674a1.3,1.3,0,0,0-.143,1.288,5.241,5.241,0,0,1-4.008,6.813c-.573.115-.716.315-.859.859a5.279,5.279,0,0,1-4.008,4.151Q87.255,208.721,86.782,208.806ZM86.1,195.58c1.4,1.4,2.777,2.863,4.208,4.266a1.7,1.7,0,0,0,2.519-.057,1.677,1.677,0,0,0,.172-2.548c-2.033-2.09-4.037-4.237-6.212-6.155-2.863-2.576-5.9-4.953-8.875-7.415-.172-.143-.344-.344-.515-.344a29.255,29.255,0,0,0-4.495.143,13.76,13.76,0,0,0-7.186,3.807,18.706,18.706,0,0,1-1.46,1.174,6.185,6.185,0,0,1-3.75,1.4,5.941,5.941,0,0,1-5.64-3.722,6.063,6.063,0,0,1,1.546-6.728c1.775-1.6,3.607-3.149,5.411-4.724.83-.744,1.66-1.46,2.576-2.29-1.861-.716-3.636-1.346-5.411-2.061a.965.965,0,0,0-1.2.258q-6.957,7-13.97,14c-.172.172-.315.344-.487.544,1,1.346,2,2.662,3.006,3.979a5.388,5.388,0,0,1,8.531,3.979l.429.086a5.375,5.375,0,0,1,4.523,4.552.816.816,0,0,0,.6.487,5.319,5.319,0,0,1,4.38,4.409c.086.429.2.6.658.658a5.319,5.319,0,0,1,4.437,5.869,1.129,1.129,0,0,0,.258.8c1.6,1.632,3.235,3.264,4.867,4.867a1.746,1.746,0,0,0,2.691.029,1.727,1.727,0,0,0,0-2.691l-.945-.945c-1.088-1.088-2.176-2.147-3.12-3.12.83-.83,1.575-1.6,2.376-2.4,1.317,1.346,2.691,2.72,4.065,4.094a1.748,1.748,0,0,0,2.777-.143,1.709,1.709,0,0,0-.172-2.576c-1.374-1.4-2.748-2.748-4.065-4.065L81,200.619c1.317,1.346,2.691,2.72,4.094,4.094a1.746,1.746,0,0,0,2.691-.029,1.728,1.728,0,0,0-.057-2.691c-1.374-1.4-2.777-2.748-4.122-4.094C84.464,197.184,85.237,196.439,86.1,195.58ZM99.35,185.332,82.689,168.67c-2.176,1.288-4.409,2.691-6.7,3.979a4.1,4.1,0,0,1-1.832.515c-1.632.057-3.292,0-4.924.029a1.388,1.388,0,0,0-.916.258q-4.852,4.208-9.648,8.445a2.585,2.585,0,0,0,3.264,4.008,16.6,16.6,0,0,0,1.775-1.4,16.058,16.058,0,0,1,7.586-4.122,10.386,10.386,0,0,1,2.033-.458c1.489-.086,2.977-.057,4.466,0a2.665,2.665,0,0,1,1.489.515c4.838,4.065,9.905,7.873,14.228,12.539.143.143.286.258.487.458C95.829,190.685,97.6,187.994,99.35,185.332Zm9.791-10.421L93.166,158.937l-7.5,7.5,15.974,15.974C104.131,179.95,106.65,177.4,109.141,174.911ZM47.82,160.626l-14.2,14.2,7.5,7.5L55.349,168.1C52.859,165.636,50.311,163.117,47.82,160.626Zm5.01,42.083c1.088-1.088,2.2-2.09,3.206-3.149a1.884,1.884,0,0,0-2.519-2.72c-1.145,1.059-2.176,2.233-3.206,3.321C51.141,200.962,51.971,201.821,52.83,202.709Zm5.1,5.01c1.059-1.031,2.118-2.033,3.12-3.063a1.651,1.651,0,0,0-.115-2.491,1.73,1.73,0,0,0-2.519-.172c-1.088,1-2.09,2.09-3.092,3.092C56.179,205.944,57.038,206.831,57.926,207.719Zm-10.134-9.962c1.088-1.088,2.147-2.118,3.149-3.149a1.669,1.669,0,0,0-.057-2.491,1.706,1.706,0,0,0-2.576-.172q-1.031.945-1.975,1.975a1.627,1.627,0,0,0,.029,2.376C46.79,196.754,47.276,197.212,47.792,197.756Zm12.453,12.482q.773.73,1.46,1.374a1.7,1.7,0,0,0,2.462,0q.988-.9,1.889-1.889a1.745,1.745,0,0,0-.086-2.576,1.7,1.7,0,0,0-2.576-.086C62.363,208.062,61.361,209.093,60.245,210.238Z" transform="translate(-20.939 -110.412)"/><path class="d" d="M342.821,219.336c-1.174-.143-2.233-.258-3.321-.4.086-1.088.172-2.09.258-3.235,1.116.057,2.176.115,3.349.172C342.993,217.046,342.907,218.133,342.821,219.336Z" transform="translate(-242.309 -153.949)"/><path class="d" d="M320.791,285.58c-1-.6-1.918-1.145-2.891-1.718.515-.973,1.031-1.889,1.546-2.863,1,.515,1.947.973,3.006,1.489C321.879,283.548,321.364,284.493,320.791,285.58Z" transform="translate(-226.893 -200.556)"/><path class="d" d="M308,104.4c.887-.658,1.746-1.317,2.691-2,.658.945,1.288,1.861,1.975,2.834-.945.6-1.861,1.2-2.806,1.832C309.26,106.179,308.658,105.32,308,104.4Z" transform="translate(-219.827 -73.085)"/><path class="d" d="M337,172.022c-.2-1.088-.4-2.118-.6-3.178,1.088-.258,2.118-.487,3.264-.744.229,1.145.429,2.233.658,3.407C339.177,171.678,338.146,171.822,337,172.022Z" transform="translate(-240.096 -119.976)"/><path class="d" d="M343.178,192.1c.057,1.2.114,2.262.143,3.435H340c-.057-1-.115-2.033-.2-3.149C340.945,192.272,342,192.186,343.178,192.1Z" transform="translate(-242.523 -137.106)"/><path class="d" d="M257.68,350.134c-1.031.6-1.975,1.145-3.006,1.746-.544-1-1.031-1.947-1.575-2.949.916-.544,1.8-1.059,2.805-1.632C256.478,348.216,257.051,349.132,257.68,350.134Z" transform="translate(-180.643 -247.875)"/><path class="d" d="M338.535,242.208l-3.235-.83c.229-1.059.458-2.061.687-3.178,1.116.2,2.176.4,3.292.63C339.022,239.975,338.793,241.063,338.535,242.208Z" transform="translate(-239.311 -170.008)"/><path class="d" d="M309.695,302.489c-.716.945-1.374,1.861-2.061,2.805-.887-.716-1.746-1.374-2.634-2.09.63-.859,1.26-1.689,1.918-2.605C307.834,301.23,308.722,301.831,309.695,302.489Z" transform="translate(-217.686 -214.545)"/><path class="d" d="M281.024,70.1c-.773.887-1.489,1.66-2.233,2.519-.83-.687-1.632-1.345-2.491-2.061.687-.887,1.317-1.746,2.033-2.662C279.22,68.616,280.079,69.331,281.024,70.1Z" transform="translate(-197.202 -48.461)"/><path class="d" d="M331.092,264.523c-1.088-.458-2.061-.859-3.092-1.288.372-1,.744-1.975,1.145-3.035l3.178,1.059C331.893,262.376,331.493,263.406,331.092,264.523Z" transform="translate(-234.101 -185.71)"/><path class="d" d="M332.949,144.8c.372,1.145.744,2.147,1.116,3.292-1.088.344-2.118.658-3.206.973-.344-1.031-.687-2-1.059-3.063C330.859,145.6,331.861,145.229,332.949,144.8Z" transform="translate(-235.386 -103.347)"/><path class="d" d="M236.851,361.035c-1.116.458-2.147.859-3.206,1.317-.4-1.059-.744-2.09-1.145-3.149,1-.4,1.947-.8,2.977-1.2C235.907,359,236.365,359.975,236.851,361.035Z" transform="translate(-165.941 -255.512)"/><path class="d" d="M321.76,127.223c-.487-.973-.973-1.889-1.46-2.891.945-.515,1.889-1.059,2.92-1.632.515,1.031,1.031,2.033,1.575,3.092C323.764,126.307,322.791,126.765,321.76,127.223Z" transform="translate(-228.606 -87.573)"/><path class="d" d="M272.3,336.075c.859-.658,1.66-1.288,2.548-1.975.716.83,1.4,1.66,2.147,2.576-.916.716-1.8,1.4-2.748,2.147C273.588,337.85,272.958,336.991,272.3,336.075Z" transform="translate(-194.347 -238.454)"/><path class="d" d="M292.233,318.9c.63.573,1.431,1.317,2.347,2.147-.859.8-1.66,1.575-2.519,2.376l-2.262-2.348C290.6,320.36,291.4,319.644,292.233,318.9Z" transform="translate(-206.837 -227.606)"/><g transform="translate(0 19.324)"><path class="c" d="M.286,218.836C.2,217.662.115,216.574,0,215.4c1.145-.057,2.2-.115,3.349-.2.086,1.088.172,2.147.258,3.235C2.519,218.578,1.46,218.693.286,218.836Z" transform="translate(0 -172.917)"/><path class="c" d="M28.1,104.834c.687-.973,1.317-1.889,2-2.834.916.687,1.775,1.345,2.691,2-.6.887-1.2,1.718-1.861,2.662C29.989,106.065,29.1,105.493,28.1,104.834Z" transform="translate(-20.056 -92.123)"/><path class="c" d="M85.606,351.68c-1.031-.6-1.975-1.145-3.006-1.746.6-.973,1.174-1.889,1.775-2.834.945.544,1.861,1.088,2.806,1.632C86.665,349.705,86.15,350.65,85.606,351.68Z" transform="translate(-58.954 -267.057)"/><path class="c" d="M6.122,168.344c-.229,1.116-.429,2.118-.63,3.178-1.088-.172-2.118-.344-3.292-.515.229-1.145.429-2.233.658-3.407C3.975,167.858,4.977,168.087,6.122,168.344Z" transform="translate(-1.57 -138.944)"/><path class="c" d="M6.808,240.878l-3.235.83c-.258-1.145-.515-2.2-.773-3.378,1.116-.2,2.176-.4,3.292-.63C6.35,238.788,6.579,239.818,6.808,240.878Z" transform="translate(-1.998 -188.976)"/><path class="c" d="M8.9,260.759c1.088-.372,2.09-.687,3.178-1.059.372,1,.744,1.947,1.145,3.006-1,.429-2,.83-3.092,1.288C9.73,262.935,9.329,261.876,8.9,260.759Z" transform="translate(-6.352 -204.678)"/><path class="c" d="M18.2,282.189c1.031-.515,2-.973,3.006-1.489.515.945,1,1.861,1.546,2.834-.945.544-1.861,1.088-2.891,1.689C19.288,284.193,18.744,283.219,18.2,282.189Z" transform="translate(-12.99 -219.666)"/><path class="c" d="M10.806,148.566c-1.088-.344-2.118-.63-3.206-.973.372-1.088.744-2.147,1.116-3.292,1.059.4,2.061.8,3.149,1.2C11.522,146.533,11.178,147.506,10.806,148.566Z" transform="translate(-5.424 -122.314)"/><path class="c" d="M45.5,320.4c.83-.773,1.632-1.489,2.433-2.2.773.744,1.489,1.489,2.319,2.29-.859.716-1.718,1.4-2.605,2.176C47.075,322.036,46.3,321.234,45.5,320.4Z" transform="translate(-32.474 -246.43)"/><path class="c" d="M30.5,302.089c.945-.658,1.832-1.26,2.777-1.889.658.887,1.26,1.718,1.918,2.605-.887.687-1.718,1.374-2.634,2.09C31.846,303.95,31.187,303.063,30.5,302.089Z" transform="translate(-21.769 -233.583)"/><path class="c" d="M19.335,126.823,16.3,125.392c.544-1.059,1.031-2.033,1.575-3.092,1,.573,1.947,1.088,2.92,1.632C20.308,124.905,19.85,125.821,19.335,126.823Z" transform="translate(-11.634 -106.612)"/><path class="c" d="M108.451,359c-.372,1.059-.744,2.033-1.145,3.149-1.059-.429-2.09-.83-3.206-1.288.458-1.031.887-2.033,1.374-3.063C106.476,358.2,107.449,358.6,108.451,359Z" transform="translate(-74.299 -274.694)"/><path class="c" d="M62,72.224c-.744-.859-1.46-1.66-2.2-2.519.916-.744,1.775-1.46,2.691-2.2.687.916,1.346,1.775,2.033,2.662C63.665,70.849,62.892,71.508,62,72.224Z" transform="translate(-42.681 -67.5)"/><path class="c" d="M63,336.276c.744-.887,1.431-1.718,2.147-2.576.859.658,1.66,1.288,2.548,1.975-.63.887-1.26,1.746-1.975,2.72C64.832,337.708,63.945,337.021,63,336.276Z" transform="translate(-44.965 -257.493)"/><path class="c" d="M3.521,191.815c-.057,1.145-.143,2.147-.2,3.149H0c.057-1.174.115-2.262.172-3.464C1.317,191.615,2.376,191.729,3.521,191.815Z" transform="translate(0 -156.002)"/><path class="c" d="M45.248,88.466c-.887-.744-1.689-1.46-2.548-2.2.773-.859,1.546-1.66,2.29-2.462.773.8,1.489,1.6,2.29,2.462C46.708,86.892,45.992,87.665,45.248,88.466Z" transform="translate(-30.476 -79.134)"/></g><path class="d" d="M295.8,84.2c.716.773,1.489,1.6,2.29,2.491-.859.744-1.689,1.46-2.548,2.2-.744-.8-1.431-1.575-2.147-2.347C294.23,85.746,294.975,85,295.8,84.2Z" transform="translate(-209.406 -60.095)"/><path class="f" d="M104.956,32.463c.115-.544.258-1.059.344-1.6a2.916,2.916,0,0,0-.057-1c0-.115-.115-.229-.172-.344a6.649,6.649,0,0,0-2.491-3.292,5.8,5.8,0,0,1,.973-9.819,1.991,1.991,0,0,0,.744-.859,16.561,16.561,0,0,0,.83-1.947,2.255,2.255,0,0,0,.057-1.231,5.813,5.813,0,0,1,1.546-6.1,5.777,5.777,0,0,1,5.955-1.346,1.554,1.554,0,0,0,.8.057c.887-.344,1.775-.687,2.634-1.116a1.664,1.664,0,0,0,.544-.687A5.637,5.637,0,0,1,121.932,0a5.778,5.778,0,0,1,5.3,3.321,1.749,1.749,0,0,0,.687.6,6.992,6.992,0,0,0,.687.286,5.756,5.756,0,0,0,3.865.4,5.712,5.712,0,0,1,6.384,6.756c-.487,1.832.515,3.063.973,4.523.029.143.258.229.4.315a5.766,5.766,0,0,1,3.407,5.382,5.7,5.7,0,0,1-3.378,5.382,1.735,1.735,0,0,0-.544.573,3.3,3.3,0,0,0-.172.487,6.583,6.583,0,0,0-.544,4.266,5.824,5.824,0,0,1-7.615,6.1,4.935,4.935,0,0,0-1.431.086.1.1,0,0,0-.057.029,6.78,6.78,0,0,0-3.349,2.548,5.751,5.751,0,0,1-9.7-.973,1.356,1.356,0,0,0-1.031-.887,1.458,1.458,0,0,1-.487-.2,5.353,5.353,0,0,0-3.722-.4C108.048,39.276,104.756,36.041,104.956,32.463Zm4.122-19.553c-.057-.029-.143-.029-.2-.057-.687,1.8-1.345,3.607-2.061,5.411a1.283,1.283,0,0,1-.8.63,3.17,3.17,0,0,0-2.147,1.4c-1.031,1.8-.057,3.722,2.147,4.18a1.034,1.034,0,0,1,.887.83c.573,1.489,1.145,3.006,1.861,4.437a1.157,1.157,0,0,1-.086,1.4,2.587,2.587,0,0,0-.229,2.977,2.74,2.74,0,0,0,4.094.887,1.246,1.246,0,0,1,1.489-.057,39.881,39.881,0,0,0,4.294,1.775,1.156,1.156,0,0,1,.945,1.059,2.651,2.651,0,0,0,2.72,2.319c1.546,0,2.462-.83,2.834-2.576a.852.852,0,0,1,.687-.744c1.546-.6,3.092-1.2,4.58-1.889a1.117,1.117,0,0,1,1.288.057,2.756,2.756,0,0,0,3.722-.229A2.79,2.79,0,0,0,135.273,31c-.344-.458-.229-.773-.029-1.231.658-1.46,1.317-2.92,1.861-4.437a1.153,1.153,0,0,1,1-.916,2.633,2.633,0,0,0,2.09-1.431c.916-1.775-.029-3.664-2.176-4.151a1.124,1.124,0,0,1-.945-.887c-.573-1.517-1.231-3.035-1.918-4.495a1,1,0,0,1,0-1.088,5.167,5.167,0,0,0,.658-1.66,2.462,2.462,0,0,0-1.288-2.548,2.492,2.492,0,0,0-2.977.086A1.379,1.379,0,0,1,129.8,8.3,26.135,26.135,0,0,0,126,6.7c-.773-.258-1.2-.515-1.345-1.374a2.689,2.689,0,0,0-2.576-2.147A2.657,2.657,0,0,0,119.3,5.438a1.366,1.366,0,0,1-1.116,1.231,26.333,26.333,0,0,0-3.836,1.575,1.718,1.718,0,0,1-2.061,0,2.7,2.7,0,0,0-3.407.429,2.762,2.762,0,0,0-.258,3.55C108.764,12.394,108.907,12.652,109.078,12.91Z" transform="translate(-71.576 0.002)"/><path class="g" d="M150.506,60.183a10.292,10.292,0,1,1,10.277-10.22A10.294,10.294,0,0,1,150.506,60.183Zm-.029-3.149a7.143,7.143,0,1,0-7.157-7.214A7.16,7.16,0,0,0,150.477,57.034Z" transform="translate(-100.064 -28.263)"/><path class="a" d="M158.257,64.885a7.143,7.143,0,1,0-7.157-7.214A7.16,7.16,0,0,0,158.257,64.885Z" transform="translate(-107.844 -36.114)"/></g></svg>