<svg xmlns="http://www.w3.org/2000/svg" xmlns:xlink="http://www.w3.org/1999/xlink" viewBox="837 3852 224.044 228.522"><defs><style>.a{fill:#fff;}.b{fill:#f4f4f4;}.c{fill:#f2f3f4;}.d{fill:#ff7c5c;}.e{fill:#000078;}.f,.g,.h{fill:#0071ef;}.f{opacity:0.5;}.h{opacity:0.2;}.i{filter:url(#a);}</style><filter id="a" x="837" y="3852" width="224.044" height="228.522" filterUnits="userSpaceOnUse"><feOffset dy="10" input="SourceAlpha"/><feGaussianBlur stdDeviation="5" result="b"/><feFlood flood-opacity="0.129"/><feComposite operator="in" in2="b"/><feComposite in="SourceGraphic"/></filter></defs><g class="i" transform="matrix(1, 0, 0, 1, 0, 0)"><rect class="a" width="194.044" height="198.522" rx="25" transform="translate(852 3857)"/></g><g transform="translate(903 3908)"><path class="b" d="M94.081,58.309c0-2.43-.344-2.921-2.6-3.829a38.1,38.1,0,0,1-12.812-8,2.556,2.556,0,0,1-.859-2.037c.049-3.559,0-7.118.025-10.677a7.521,7.521,0,0,0-1.276-4.86,23.907,23.907,0,0,0,1.2-4.786c.147-3.952.074-7.928.049-11.9a7,7,0,0,0-1.62-4.639C74.544,5.589,72.36,5,69.856,5q-29.931.037-59.887.025c-.368,0-.736,0-1.1.025a6.938,6.938,0,0,0-6.9,7.363c-.025,3.559.025,7.118,0,10.677a7.979,7.979,0,0,0,1.6,5.449c-1.424,1.694-1.62,3.682-1.6,5.768.049,3.313.025,6.627,0,9.94a7.559,7.559,0,0,0,1.3,4.835,24.9,24.9,0,0,0-1.227,4.663c-.172,4-.123,8.026-.049,12.026.074,4.344,2.994,7.118,7.363,7.118H51.841a2,2,0,0,1,.1.417c0,.785.049,1.546,0,2.332C51.62,80.3,53.412,84.056,56.652,87.3A43.689,43.689,0,0,0,71.5,96.622a3.761,3.761,0,0,0,2.479.147c6.087-2.356,11.683-5.5,16.174-10.333a14.283,14.283,0,0,0,3.952-10.357C94.007,70.164,94.081,64.249,94.081,58.309ZM60.456,67.857H57.928v3.608h-.736v-4.59H59.72c2.258,0,4.492.025,6.75,0a2.509,2.509,0,0,0,2.675-2.553,2.47,2.47,0,0,0-.2-.957,2.532,2.532,0,0,1-1.743,4.492ZM9.5,10.105c4.86-.025,9.719,0,14.6,0H69.733c1.964,0,2.675.295,2.9,1.62a7.467,7.467,0,0,0-1.669-.147H10.73c-1.767,0-2.381.638-2.381,2.356V24.856a5.926,5.926,0,0,0,.074.982c-.982-.27-1.3-.957-1.3-2.454V12.461C7.1,10.743,7.736,10.105,9.5,10.105ZM7.1,33.594c0-1.89.589-2.479,2.5-2.479H70.175c1.571,0,2.258.417,2.479,1.62a4.485,4.485,0,0,0-1.252-.147H10.828c-1.939,0-2.5.565-2.5,2.479V45.743A6.028,6.028,0,0,0,8.4,46.749c-.982-.27-1.3-.957-1.3-2.479Q7.1,38.932,7.1,33.594Zm0,31.318V54.48C7.1,52.64,7.736,52,9.5,52H58.664c.2,0,.393.025.589.025l.074.295c-.859.368-1.718.761-2.577,1.129H10.706c-1.767,0-2.405.638-2.405,2.479V66.36a9.813,9.813,0,0,0,.074,1.3C7.368,67.39,7.1,66.654,7.1,64.911Zm49.971-4.565c-.172-1.055.245-1.546,1.252-1.988a40.473,40.473,0,0,0,12.64-8.3c.663-.663,1.374-1.276,2.184-2.037a37.165,37.165,0,0,0,9.3,7.633c1.792,1.031,3.657,1.964,5.547,2.847.589.27.884.54.957,1.1-.074-.049-.147-.074-.221-.123-1.89-.884-3.755-1.816-5.547-2.847a36.311,36.311,0,0,1-9.3-7.633c-.81.761-1.5,1.374-2.184,2.037a40.908,40.908,0,0,1-12.64,8.3c-1.006.442-1.4.933-1.252,1.988a2.818,2.818,0,0,1,.025.466h-.761A7.11,7.11,0,0,0,57.069,60.346Zm.074,16.223h3.019c1.792-.025,2.945-1.055,2.945-2.577a2.861,2.861,0,0,0-.172-.933,2.364,2.364,0,0,1,.908,1.914c.025,1.522-1.154,2.553-2.945,2.577-1.006.025-2.013,0-3.019,0a7.325,7.325,0,0,0,1.252,4.762A7.549,7.549,0,0,1,57.142,76.57Z" transform="translate(-1.434 -3.773)"/><path class="c" d="M58.717,42.58H88.636c2.528,0,2.97-.442,2.97-3.019V29.743c0-2.577-.466-3.043-2.994-3.043H28.381c-1.767,0-2.381.638-2.381,2.356V39.978c0,2.037.565,2.577,2.651,2.577Q43.708,42.592,58.717,42.58Z" transform="translate(-19.6 -20.147)"/><path class="c" d="M91.532,122.9a1.815,1.815,0,0,0,.074-.442c0-2.528.025-5.081,0-7.609-.025-1.841-.638-2.454-2.528-2.454H28.5c-1.939,0-2.5.565-2.5,2.479v10.677c0,2.062.565,2.6,2.626,2.6,18.236,0,36.472-.025,54.684.049a5.249,5.249,0,0,0,4.565-2.111C88.906,124.819,89.691,123.2,91.532,122.9Z" transform="translate(-19.6 -84.813)"/><path class="c" d="M78.329,197.919l-.074-.295c-.2,0-.393-.025-.589-.025H28.505c-1.767,0-2.405.638-2.405,2.479V210.51c0,2.43.515,2.921,2.97,2.921H70.942v-9.695c0-2.307.344-2.749,2.479-3.657C75.065,199.392,76.685,198.655,78.329,197.919Z" transform="translate(-19.676 -149.101)"/><path class="d" d="M243.584,179.4c-.81.761-1.5,1.374-2.184,2.037a40.908,40.908,0,0,1-12.64,8.3c-1.006.442-1.4.933-1.252,1.988a9.453,9.453,0,0,1,0,1.448h1.448c2.651,0,5.326-.025,7.977.025a2.519,2.519,0,1,1-.049,5.031c-2.258.025-4.492,0-6.75,0h-2.528v4.59c1.08,0,2.062-.025,3.019,0,1.767.049,2.847,1.006,2.872,2.528s-1.154,2.553-2.945,2.577c-1.006.025-2.013,0-3.019,0a7.7,7.7,0,0,0,2.086,5.891c3.608,4.172,8.32,6.774,13.254,9.032a1.489,1.489,0,0,0,1.031,0,41.252,41.252,0,0,0,11.855-7.486c2.013-1.939,3.583-4.123,3.583-7.118q-.037-8.468.025-16.935a1.356,1.356,0,0,0-.982-1.424c-1.89-.884-3.755-1.816-5.547-2.847A36.932,36.932,0,0,1,243.584,179.4Z" transform="translate(-171.628 -135.368)"/><path class="e" d="M74.557,23.93a7.67,7.67,0,0,1,1.276,4.86c-.025,3.559.025,7.118-.025,10.677a2.637,2.637,0,0,0,.859,2.037,37.859,37.859,0,0,0,12.812,8c2.258.908,2.6,1.4,2.6,3.829,0,5.94-.074,11.855.025,17.794a14.244,14.244,0,0,1-3.952,10.357c-4.492,4.835-10.087,7.977-16.174,10.333a3.762,3.762,0,0,1-2.479-.147,43.317,43.317,0,0,1-14.849-9.327c-3.215-3.215-5.031-6.995-4.712-11.658.049-.761,0-1.546,0-2.332a2,2,0,0,0-.1-.417H7.356c-4.369,0-7.29-2.773-7.363-7.118-.074-4-.123-8.026.049-12.026A21.254,21.254,0,0,1,1.269,44.13a7.711,7.711,0,0,1-1.3-4.835c.025-3.313.049-6.627,0-9.94-.025-2.111.172-4.1,1.6-5.817a8.241,8.241,0,0,1-1.6-5.449c.025-3.559,0-7.118,0-10.677.025-4.3,2.626-7.069,6.9-7.363C7.233.025,7.6.025,7.969.025Q37.9.025,67.856,0c2.5,0,4.663.589,6.332,2.577a7.131,7.131,0,0,1,1.62,4.639c.025,3.976.1,7.928-.049,11.9A25.448,25.448,0,0,1,74.557,23.93ZM37.815,20.96H67.733c2.528,0,2.97-.442,2.97-3.019V8.124c0-2.577-.466-3.043-2.994-3.043H7.478c-1.767,0-2.381.638-2.381,2.356V18.359c0,2.037.565,2.577,2.651,2.577Q22.806,20.973,37.815,20.96ZM71.145,43.05c-.81.761-1.5,1.374-2.184,2.037a40.907,40.907,0,0,1-12.64,8.3c-1.006.442-1.4.933-1.252,1.988a9.452,9.452,0,0,1,0,1.448h1.448c2.651,0,5.326-.025,7.977.025a2.519,2.519,0,1,1-.049,5.031c-2.258.025-4.492,0-6.75,0H55.167v4.59c1.08,0,2.062-.025,3.019,0,1.767.049,2.847,1.006,2.872,2.528S59.9,71.545,58.112,71.57c-1.006.025-2.013,0-3.019,0A7.7,7.7,0,0,0,57.18,77.46c3.608,4.172,8.32,6.774,13.254,9.032a1.489,1.489,0,0,0,1.031,0,41.251,41.251,0,0,0,11.855-7.486c2.013-1.939,3.583-4.123,3.583-7.118q-.037-8.468.025-16.935a1.356,1.356,0,0,0-.982-1.424c-1.89-.884-3.755-1.816-5.547-2.847A36.932,36.932,0,0,1,71.145,43.05Zm-.515-6.43a1.814,1.814,0,0,0,.074-.442c0-2.528.025-5.081,0-7.609-.025-1.841-.638-2.454-2.528-2.454H7.6c-1.939,0-2.5.565-2.5,2.479V39.27c0,2.062.565,2.6,2.626,2.6,18.236,0,36.472-.025,54.684.049a5.249,5.249,0,0,0,4.565-2.111C68,38.534,68.789,36.914,70.63,36.619ZM57.351,47.345l-.074-.295c-.2,0-.393-.025-.589-.025H7.527c-1.767,0-2.405.638-2.405,2.479V59.936c0,2.43.515,2.921,2.97,2.921H49.964V53.162c0-2.307.344-2.749,2.479-3.657C54.087,48.818,55.707,48.081,57.351,47.345Z" transform="translate(0.075 0)"/><path class="f" d="M42.781,47.527c-1.841,0-2.921-.687-3.166-2.037a2.3,2.3,0,0,1,1.006-2.577,4.266,4.266,0,0,1,4.2-.123,2.287,2.287,0,0,1,1.252,2.454C45.922,46.742,44.818,47.527,42.781,47.527Z" transform="translate(-29.828 -31.917)"/><path class="f" d="M84.176,47.818c-1.939,0-3.117-.884-3.191-2.43-.1-1.792,1.3-2.773,3.8-2.7a2.6,2.6,0,0,1,2.749,2.872C87.367,47.057,86.237,47.818,84.176,47.818Z" transform="translate(-61.086 -32.208)"/><path class="f" d="M125.81,47.826a9.545,9.545,0,0,1-1.669-.319,2.308,2.308,0,0,1-1.546-2.258c-.049-1.62,1.08-2.626,2.97-2.651,2.307-.025,3.534.859,3.534,2.553C129.1,46.82,127.921,47.753,125.81,47.826Z" transform="translate(-92.486 -32.143)"/><path class="g" d="M84.283,133.005c-2.43,0-3.755-1.374-3.142-3.289.393-1.252,1.325-1.816,3.093-1.816,1.841,0,2.847.564,3.24,1.816C88.038,131.582,86.664,133.005,84.283,133.005Z" transform="translate(-61.095 -96.508)"/><path class="g" d="M42.888,132.864a8.368,8.368,0,0,1-1.767-.368,2.294,2.294,0,0,1-1.424-2.233A2.172,2.172,0,0,1,41.047,128a4.335,4.335,0,0,1,4.2.245,2.3,2.3,0,0,1,.884,2.6C45.808,132.226,44.851,132.766,42.888,132.864Z" transform="translate(-29.935 -96.27)"/><path class="g" d="M125.8,132.931c-2.184,0-3.313-.957-3.215-2.724s1.571-2.626,4.074-2.356a2.512,2.512,0,0,1,2.405,2.921C128.865,132.268,127.859,132.931,125.8,132.931Z" transform="translate(-92.473 -96.434)"/><path class="h" d="M84.3,213.422c2.626-.27,3.583,1.669,3.289,3.068-.319,1.448-1.448,2.086-3.559,2.013-1.644-.049-2.7-.834-2.921-2.209a2.529,2.529,0,0,1,2.184-2.872A6.737,6.737,0,0,1,84.3,213.422Z" transform="translate(-61.158 -161.021)"/><path class="h" d="M43.046,213.4c2.111,0,3.289.933,3.24,2.6-.049,1.571-1.2,2.479-3.117,2.5-2.184.025-3.338-.81-3.387-2.454C39.684,214.308,40.813,213.4,43.046,213.4Z" transform="translate(-29.995 -161.023)"/><path class="h" d="M125.889,213.4c2.16,0,3.313.982,3.215,2.724-.123,1.669-1.3,2.43-3.583,2.381-1.841-.049-2.9-1.006-2.921-2.577C122.6,214.259,123.7,213.4,125.889,213.4Z" transform="translate(-92.491 -161.023)"/><path class="c" d="M58.717,42.58H88.636c2.528,0,2.97-.442,2.97-3.019V29.743c0-2.577-.466-3.043-2.994-3.043H28.381c-1.767,0-2.381.638-2.381,2.356V39.978c0,2.037.565,2.577,2.651,2.577Q43.708,42.592,58.717,42.58Z" transform="translate(-19.6 -20.147)"/><path class="c" d="M91.532,122.9a1.815,1.815,0,0,0,.074-.442c0-2.528.025-5.081,0-7.609-.025-1.841-.638-2.454-2.528-2.454H28.5c-1.939,0-2.5.565-2.5,2.479v10.677c0,2.062.565,2.6,2.626,2.6,18.236,0,36.472-.025,54.684.049a5.249,5.249,0,0,0,4.565-2.111C88.906,124.819,89.691,123.2,91.532,122.9Z" transform="translate(-19.6 -84.813)"/><path class="c" d="M78.329,197.919l-.074-.295c-.2,0-.393-.025-.589-.025H28.505c-1.767,0-2.405.638-2.405,2.479V210.51c0,2.43.515,2.921,2.97,2.921H70.942v-9.695c0-2.307.344-2.749,2.479-3.657C75.065,199.392,76.685,198.655,78.329,197.919Z" transform="translate(-19.676 -149.101)"/><path class="d" d="M243.584,179.4c-.81.761-1.5,1.374-2.184,2.037a40.908,40.908,0,0,1-12.64,8.3c-1.006.442-1.4.933-1.252,1.988a9.453,9.453,0,0,1,0,1.448h1.448c2.651,0,5.326-.025,7.977.025a2.519,2.519,0,1,1-.049,5.031c-2.258.025-4.492,0-6.75,0h-2.528v4.59c1.08,0,2.062-.025,3.019,0,1.767.049,2.847,1.006,2.872,2.528s-1.154,2.553-2.945,2.577c-1.006.025-2.013,0-3.019,0a7.7,7.7,0,0,0,2.086,5.891c3.608,4.172,8.32,6.774,13.254,9.032a1.489,1.489,0,0,0,1.031,0,41.252,41.252,0,0,0,11.855-7.486c2.013-1.939,3.583-4.123,3.583-7.118q-.037-8.468.025-16.935a1.356,1.356,0,0,0-.982-1.424c-1.89-.884-3.755-1.816-5.547-2.847A36.932,36.932,0,0,1,243.584,179.4Z" transform="translate(-171.628 -135.368)"/><path class="e" d="M74.557,23.93a7.67,7.67,0,0,1,1.276,4.86c-.025,3.559.025,7.118-.025,10.677a2.637,2.637,0,0,0,.859,2.037,37.859,37.859,0,0,0,12.812,8c2.258.908,2.6,1.4,2.6,3.829,0,5.94-.074,11.855.025,17.794a14.244,14.244,0,0,1-3.952,10.357c-4.492,4.835-10.087,7.977-16.174,10.333a3.762,3.762,0,0,1-2.479-.147,43.317,43.317,0,0,1-14.849-9.327c-3.215-3.215-5.031-6.995-4.712-11.658.049-.761,0-1.546,0-2.332a2,2,0,0,0-.1-.417H7.356c-4.369,0-7.29-2.773-7.363-7.118-.074-4-.123-8.026.049-12.026A21.254,21.254,0,0,1,1.269,44.13a7.711,7.711,0,0,1-1.3-4.835c.025-3.313.049-6.627,0-9.94-.025-2.111.172-4.1,1.6-5.817a8.241,8.241,0,0,1-1.6-5.449c.025-3.559,0-7.118,0-10.677.025-4.3,2.626-7.069,6.9-7.363C7.233.025,7.6.025,7.969.025Q37.9.025,67.856,0c2.5,0,4.663.589,6.332,2.577a7.131,7.131,0,0,1,1.62,4.639c.025,3.976.1,7.928-.049,11.9A25.448,25.448,0,0,1,74.557,23.93ZM37.815,20.96H67.733c2.528,0,2.97-.442,2.97-3.019V8.124c0-2.577-.466-3.043-2.994-3.043H7.478c-1.767,0-2.381.638-2.381,2.356V18.359c0,2.037.565,2.577,2.651,2.577Q22.806,20.973,37.815,20.96ZM71.145,43.05c-.81.761-1.5,1.374-2.184,2.037a40.907,40.907,0,0,1-12.64,8.3c-1.006.442-1.4.933-1.252,1.988a9.452,9.452,0,0,1,0,1.448h1.448c2.651,0,5.326-.025,7.977.025a2.519,2.519,0,1,1-.049,5.031c-2.258.025-4.492,0-6.75,0H55.167v4.59c1.08,0,2.062-.025,3.019,0,1.767.049,2.847,1.006,2.872,2.528S59.9,71.545,58.112,71.57c-1.006.025-2.013,0-3.019,0A7.7,7.7,0,0,0,57.18,77.46c3.608,4.172,8.32,6.774,13.254,9.032a1.489,1.489,0,0,0,1.031,0,41.251,41.251,0,0,0,11.855-7.486c2.013-1.939,3.583-4.123,3.583-7.118q-.037-8.468.025-16.935a1.356,1.356,0,0,0-.982-1.424c-1.89-.884-3.755-1.816-5.547-2.847A36.932,36.932,0,0,1,71.145,43.05Zm-.515-6.43a1.814,1.814,0,0,0,.074-.442c0-2.528.025-5.081,0-7.609-.025-1.841-.638-2.454-2.528-2.454H7.6c-1.939,0-2.5.565-2.5,2.479V39.27c0,2.062.565,2.6,2.626,2.6,18.236,0,36.472-.025,54.684.049a5.249,5.249,0,0,0,4.565-2.111C68,38.534,68.789,36.914,70.63,36.619ZM57.351,47.345l-.074-.295c-.2,0-.393-.025-.589-.025H7.527c-1.767,0-2.405.638-2.405,2.479V59.936c0,2.43.515,2.921,2.97,2.921H49.964V53.162c0-2.307.344-2.749,2.479-3.657C54.087,48.818,55.707,48.081,57.351,47.345Z" transform="translate(0.075 0)"/><path class="f" d="M42.781,47.527c-1.841,0-2.921-.687-3.166-2.037a2.3,2.3,0,0,1,1.006-2.577,4.266,4.266,0,0,1,4.2-.123,2.287,2.287,0,0,1,1.252,2.454C45.922,46.742,44.818,47.527,42.781,47.527Z" transform="translate(-29.828 -31.917)"/><path class="f" d="M84.176,47.818c-1.939,0-3.117-.884-3.191-2.43-.1-1.792,1.3-2.773,3.8-2.7a2.6,2.6,0,0,1,2.749,2.872C87.367,47.057,86.237,47.818,84.176,47.818Z" transform="translate(-61.086 -32.208)"/><path class="f" d="M125.81,47.826a9.545,9.545,0,0,1-1.669-.319,2.308,2.308,0,0,1-1.546-2.258c-.049-1.62,1.08-2.626,2.97-2.651,2.307-.025,3.534.859,3.534,2.553C129.1,46.82,127.921,47.753,125.81,47.826Z" transform="translate(-92.486 -32.143)"/><path class="g" d="M84.283,133.005c-2.43,0-3.755-1.374-3.142-3.289.393-1.252,1.325-1.816,3.093-1.816,1.841,0,2.847.564,3.24,1.816C88.038,131.582,86.664,133.005,84.283,133.005Z" transform="translate(-61.095 -96.508)"/><path class="g" d="M42.888,132.864a8.368,8.368,0,0,1-1.767-.368,2.294,2.294,0,0,1-1.424-2.233A2.172,2.172,0,0,1,41.047,128a4.335,4.335,0,0,1,4.2.245,2.3,2.3,0,0,1,.884,2.6C45.808,132.226,44.851,132.766,42.888,132.864Z" transform="translate(-29.935 -96.27)"/><path class="g" d="M125.8,132.931c-2.184,0-3.313-.957-3.215-2.724s1.571-2.626,4.074-2.356a2.512,2.512,0,0,1,2.405,2.921C128.865,132.268,127.859,132.931,125.8,132.931Z" transform="translate(-92.473 -96.434)"/><path class="h" d="M84.3,213.422c2.626-.27,3.583,1.669,3.289,3.068-.319,1.448-1.448,2.086-3.559,2.013-1.644-.049-2.7-.834-2.921-2.209a2.529,2.529,0,0,1,2.184-2.872A6.737,6.737,0,0,1,84.3,213.422Z" transform="translate(-61.158 -161.021)"/><path class="h" d="M43.046,213.4c2.111,0,3.289.933,3.24,2.6-.049,1.571-1.2,2.479-3.117,2.5-2.184.025-3.338-.81-3.387-2.454C39.684,214.308,40.813,213.4,43.046,213.4Z" transform="translate(-29.995 -161.023)"/><path class="h" d="M125.889,213.4c2.16,0,3.313.982,3.215,2.724-.123,1.669-1.3,2.43-3.583,2.381-1.841-.049-2.9-1.006-2.921-2.577C122.6,214.259,123.7,213.4,125.889,213.4Z" transform="translate(-92.491 -161.023)"/></g></svg>