<svg xmlns="http://www.w3.org/2000/svg" xmlns:xlink="http://www.w3.org/1999/xlink" viewBox="837 2818 224.044 228.522"><defs><style>.a{fill:#fff;}.b{opacity:0.2;}.c{fill:#a0a0a0;}.d{fill:#f7f8fb;}.e{fill:#000078;}.f,.h{fill:#0071ef;}.f{opacity:0.5;}.g{fill:#ff7c5c;}.i{filter:url(#a);}</style><filter id="a" x="837" y="2818" width="224.044" height="228.522" filterUnits="userSpaceOnUse"><feOffset dy="10" input="SourceAlpha"/><feGaussianBlur stdDeviation="5" result="b"/><feFlood flood-opacity="0.102"/><feComposite operator="in" in2="b"/><feComposite in="SourceGraphic"/></filter></defs><g class="i" transform="matrix(1, 0, 0, 1, 0, 0)"><rect class="a" width="194.044" height="198.522" rx="25" transform="translate(852 2823)"/></g><g transform="translate(904 2875.27)"><g transform="translate(0.756 0.926)"><g class="b" transform="translate(1.512 76.242)"><path class="c" d="M87.935,408.5H19.066v4.591H12v12.262H95.02V413.072H87.935Zm2.815,8.842v3.779H16.232V417.38h7.085v-4.61H83.684v4.572Z" transform="translate(-12 -408.5)"/></g><g class="b"><path class="c" d="M89.193,36.192Q68.448,20.746,47.7,5.281a.97.97,0,0,0-1.4-.019Q27.882,19.065,9.4,32.791C7.647,34.076,5.908,35.4,4,36.815H89.968C89.628,36.551,89.42,36.362,89.193,36.192ZM76.912,32.6h-.359Q62.751,22.286,48.911,11.97,35.024,22.314,21.212,32.6H17.056c-.019-.038-.057-.094-.076-.132Q31.973,21.275,47.022,10.08,62.014,21.275,76.988,32.432A.671.671,0,0,0,76.912,32.6Z" transform="translate(-4 -4.974)"/></g><g class="b" transform="translate(12.149 36.905)"><path class="c" d="M83.736,234.612V200.3H68.3v34.312ZM72.551,204.57h6.915v25.79H72.551Z" transform="translate(-68.3 -200.3)"/></g><g class="b" transform="translate(58.458 36.924)"><path class="c" d="M328.78,234.693V200.4H313.4v34.293Zm-11.129-30.079h6.877v25.828h-6.877Z" transform="translate(-313.4 -200.4)"/></g><g class="b" transform="translate(36.799 37.018)"><path class="c" d="M207.52,234.21v-4.194c.113-.019.208-.057.3-.076a9.152,9.152,0,0,0,2.966-1.153A6.786,6.786,0,0,0,211.2,217.6a20.538,20.538,0,0,0-4.024-2.135,13.584,13.584,0,0,1-3.174-1.719,3.422,3.422,0,0,1-1.153-1.436,3.344,3.344,0,0,1,2.324-4.553,8.088,8.088,0,0,1,4.686.208c.737.227,1.455.567,2.173.869.321-.831.642-1.719.982-2.588-.038-.038-.057-.057-.076-.057a2.062,2.062,0,0,0-.208-.113,10.7,10.7,0,0,0-4.686-1.247c-.246-.019-.321-.094-.321-.34.019-1.1,0-2.173,0-3.269a1.729,1.729,0,0,0-.019-.321h-2.494v.34c0,1.134-.019,2.286,0,3.42,0,.265-.094.359-.34.4a8.445,8.445,0,0,0-1.19.3,6.305,6.305,0,0,0-4.572,5.479,5.593,5.593,0,0,0,1.115,4.194,7.727,7.727,0,0,0,2.607,2.135c1.209.624,2.456,1.134,3.684,1.7a8.322,8.322,0,0,1,2.872,1.946,3.824,3.824,0,0,1,.151,4.875,4.838,4.838,0,0,1-3.647,1.663,9.979,9.979,0,0,1-4.44-.812c-.6-.265-1.19-.567-1.795-.869-.283.775-.548,1.568-.85,2.362a.34.34,0,0,0,.17.491,10.522,10.522,0,0,0,3.722,1.36c.718.132,1.455.189,2.229.283v4.024C205.839,234.21,206.67,234.21,207.52,234.21Z" transform="translate(-198.766 -200.9)"/></g></g><path class="d" d="M138.632,59.522l.057-.17Q123.724,48.185,108.742,37,93.692,48.223,78.7,59.389c.019.038.057.094.076.132Z" transform="translate(-63.83 -30.023)"/><path class="e" d="M15.066,403.5H83.935v4.572H91.02v12.281H8V408.091h7.066Zm64.618,4.251H19.318v4.61H12.232V416.1H86.75v-3.779H79.684Z" transform="translate(-6.488 -327.277)"/><path class="e" d="M0,31.9c1.908-1.417,3.647-2.721,5.4-4.024Q23.854,14.1,42.323.362a.97.97,0,0,1,1.4.019Q64.438,15.856,85.212,31.292c.227.17.435.34.775.624C57.287,31.9,28.757,31.9,0,31.9Zm72.912-4.213.057-.17Q58,16.347,43.022,5.161,27.973,16.385,12.98,27.551c.019.038.057.094.076.132Z" transform="translate(0 -0.074)"/><path class="f" d="M79.736,195.3v34.312H64.3V195.3Zm-4.27,4.27H68.551v25.79h6.915Z" transform="translate(-52.151 -158.414)"/><path class="f" d="M309.4,195.3h15.38v34.293H309.4Zm4.251,4.232V225.36h6.877V199.532Z" transform="translate(-250.942 -158.414)"/><path class="g" d="M208.855,73.006a5.678,5.678,0,1,1-5.668-5.706A5.693,5.693,0,0,1,208.855,73.006Zm-4.251,0a1.408,1.408,0,0,0-1.36-1.436,1.454,1.454,0,0,0-1.474,1.36,1.418,1.418,0,1,0,2.834.076Z" transform="translate(-160.184 -54.598)"/><path class="h" d="M209.244,201.428c-.34.888-.661,1.757-.982,2.588-.737-.3-1.436-.642-2.173-.869a8.088,8.088,0,0,0-4.686-.208,3.343,3.343,0,0,0-2.324,4.553,3.423,3.423,0,0,0,1.153,1.436,14.321,14.321,0,0,0,3.174,1.719,20.538,20.538,0,0,1,4.024,2.135,6.8,6.8,0,0,1-.416,11.185,8.512,8.512,0,0,1-2.966,1.153,2.356,2.356,0,0,0-.3.076v4.194H201.2v-4.024c-.775-.094-1.512-.151-2.229-.283a10.657,10.657,0,0,1-3.722-1.36c-.208-.132-.283-.246-.17-.491.3-.794.586-1.587.85-2.362.6.3,1.19.6,1.795.869a9.979,9.979,0,0,0,4.44.812,4.774,4.774,0,0,0,3.647-1.663,3.824,3.824,0,0,0-.151-4.875,8.692,8.692,0,0,0-2.872-1.946c-1.228-.567-2.494-1.077-3.684-1.7a7.647,7.647,0,0,1-2.607-2.135,5.593,5.593,0,0,1-1.115-4.194,6.305,6.305,0,0,1,4.572-5.479,8.446,8.446,0,0,1,1.19-.3c.246-.057.34-.132.34-.4-.019-1.134,0-2.286,0-3.42v-.34h2.494c0,.113.019.208.019.321v3.269c0,.246.057.321.321.34A10.7,10.7,0,0,1,209,201.277c.076.038.132.076.208.113C209.188,201.39,209.188,201.39,209.244,201.428Z" transform="translate(-158.174 -159.063)"/></g></svg>