<svg xmlns="http://www.w3.org/2000/svg" xmlns:xlink="http://www.w3.org/1999/xlink" viewBox="1135 2818 224.044 228.522"><defs><style>.a{fill:#fff;}.b{fill:#f4f4f4;}.c{fill:#f7f8fb;}.d{fill:#000078;}.e{fill:#0071ef;}.f{opacity:0.5;}.g{fill:#ff7c5c;}.h{filter:url(#a);}</style><filter id="a" x="1135" y="2818" width="224.044" height="228.522" filterUnits="userSpaceOnUse"><feOffset dy="10" input="SourceAlpha"/><feGaussianBlur stdDeviation="5" result="b"/><feFlood flood-opacity="0.102"/><feComposite operator="in" in2="b"/><feComposite in="SourceGraphic"/></filter></defs><g class="h" transform="matrix(1, 0, 0, 1, 0, 0)"><rect class="a" width="194.044" height="198.522" rx="25" transform="translate(1150 2823)"/></g><g transform="translate(1213 2872)"><g transform="translate(0.797 0.997)"><path class="b" d="M66.715,22.506A32.976,32.976,0,0,0,31.251,5.642C18.413,8.213,9.741,16.008,5.455,28.786A29.151,29.151,0,0,0,4,38.175c0,1.037.459,1.694,1.216,1.754a2.484,2.484,0,0,0,1.435-.558c.08-.04.14-.1.219-.14a4.816,4.816,0,0,0,.718-.538,3.985,3.985,0,0,1,1-.638,10.431,10.431,0,0,1,5.083-.439c1.475.2,3.01.419,3.967,1.794a1.5,1.5,0,0,0,1.3.6,1.694,1.694,0,0,0,1.376-.877,5.837,5.837,0,0,1,2.651-2.372,23.692,23.692,0,0,1,8.054-2.293c1.2-.159,2.392-.259,3.648-.359.419-.04.857-.06,1.3-.1v9.948a1.643,1.643,0,0,0,1.635,1.694h.02a1.532,1.532,0,0,0,1.136-.439,1.853,1.853,0,0,0,.5-1.356V34.049h.319c.758.1,1.535.159,2.293.239a52.143,52.143,0,0,1,5.263.718c3.13.678,6.1,1.535,7.934,4.346a1.63,1.63,0,0,0,1.475.738,1.442,1.442,0,0,0,1.216-.837,2.5,2.5,0,0,1,1.834-1.3,11.124,11.124,0,0,1,4.884-.359c1.5.2,3.03.419,3.987,1.794a1.593,1.593,0,0,0,1.615.439c.478-.2.7-.957.7-1.415A34.2,34.2,0,0,0,66.715,22.506ZM7.588,35.085c.738-10.645,8.672-20.912,18.938-24.7-.638.718-1.236,1.475-1.814,2.233-8.193,4.426-14.273,13-15.33,21.988C8.8,34.746,8.186,34.906,7.588,35.085Zm12.918-.837a41.511,41.511,0,0,1,1.176-7.575A33.192,33.192,0,0,1,27.1,14.413a17.037,17.037,0,0,1,5.024-4.685,10.408,10.408,0,0,1,5.343-1.515A10.151,10.151,0,0,1,41.856,9.23a10.17,10.17,0,0,0-2.671-.379,10.461,10.461,0,0,0-5.343,1.515,16.8,16.8,0,0,0-5.024,4.685A33.671,33.671,0,0,0,23.4,27.311a43.739,43.739,0,0,0-1.057,6A17.489,17.489,0,0,0,20.506,34.248Zm31.956-1c.658.219,1.276.459,1.894.718,0,.06.02.14.02.2A21.11,21.11,0,0,0,52.462,33.251Zm5.083,1.974A50.231,50.231,0,0,0,54.774,21.55a32.43,32.43,0,0,0-6.4-11.1c.618.239,1.216.478,1.814.758a32.4,32.4,0,0,1,6.3,10.984A49.618,49.618,0,0,1,59.16,34.766,16.335,16.335,0,0,0,57.545,35.225Z" transform="translate(-4 -5.004)"/><g transform="translate(10.402 48.646)"><path class="b" d="M62.4,256.258a22.466,22.466,0,0,0-6.22,15.549,23.005,23.005,0,0,0,6.9,16.745,22.732,22.732,0,0,0,16.068,6.579c.279,0,.538,0,.817-.02a22.855,22.855,0,0,0,22.307-23,23.17,23.17,0,0,0-7.157-16.725,23.118,23.118,0,0,0-32.713.877Zm16.805-3.927h0a19.736,19.736,0,1,1,.02,39.471h-.02a19.47,19.47,0,0,1-13.915-5.741,19.7,19.7,0,0,1-5.761-14.054,19.237,19.237,0,0,1,5.6-13.775A19.661,19.661,0,0,1,79.208,252.331Z" transform="translate(-56.18 -249.027)"/></g><g transform="translate(31.672 42.952)"><path class="b" d="M163.122,223.622c0,.02.02.04.04.06l.12.239h2.851l.159-3.329-.458-.04c-1.555-.12-2.253-.179-2.671.259-.379.4-.319,1-.159,2.173l.06.439A.472.472,0,0,0,163.122,223.622Z" transform="translate(-162.879 -220.465)"/></g><g transform="translate(38.016 95.846)"><path class="b" d="M194.7,486.617l.618,3.11,3.289-.837-.837-3.09Z" transform="translate(-194.7 -485.8)"/></g><g transform="translate(31.637 97.002)"><path class="b" d="M162.879,491.6l-.179,3.229h3.469l-.179-3.07Z" transform="translate(-162.7 -491.6)"/></g><g transform="translate(4.864 66.462)"><path class="b" d="M28.4,341.928l3.07.14.4-3.07-3.11-.6Z" transform="translate(-28.4 -338.4)"/></g><g transform="translate(49.08 89.666)"><path class="b" d="M250.2,456.853l2.093,2.492,2.352-2.213-2.213-2.332Z" transform="translate(-250.2 -454.8)"/></g><g transform="translate(24.958 43.477)"><path class="b" d="M132.529,223.1l-3.329.817.857,3.19,2.891-.877Z" transform="translate(-129.2 -223.1)"/></g><g transform="translate(43.897 93.354)"><path class="b" d="M224.2,474.735l1.475,2.95,2.91-1.714-1.694-2.671Z" transform="translate(-224.2 -473.3)"/></g><g transform="translate(13.356 49.198)"><path class="b" d="M71,254.033l2.233,2.352,2.213-2.093L73.372,251.8Z" transform="translate(-71 -251.8)"/></g><g transform="translate(58.529 66.602)"><path class="b" d="M297.6,339.738l.379,3.09,3.15-.4-.4-3.329Z" transform="translate(-297.6 -339.1)"/></g><g transform="translate(43.757 45.59)"><path class="b" d="M224.935,233.7l-1.435,2.851,2.711,1.455,1.655-2.691Z" transform="translate(-223.5 -233.7)"/></g><g transform="translate(4.804 73.26)"><path class="b" d="M31.429,372.5l-3.329.179.419,3.369,3.15-.638Z" transform="translate(-28.1 -372.5)"/></g><g transform="translate(6.14 59.983)"><path class="b" d="M34.8,309.01l3.11,1.037,1.017-2.911L36.036,305.9Z" transform="translate(-34.8 -305.9)"/></g><g transform="translate(58.409 73.1)"><path class="b" d="M297,374.81l3.13.4.379-3.329-3.11-.179Z" transform="translate(-297 -371.7)"/></g><g transform="translate(24.939 95.866)"><path class="b" d="M129.1,488.97l3.329.857.618-3.13-2.91-.8Z" transform="translate(-129.1 -485.9)"/></g><g transform="translate(56.615 59.983)"><path class="b" d="M292.146,308.99l-1.236-3.09L288,307.136l1.1,2.911Z" transform="translate(-288 -305.9)"/></g><g transform="translate(49.1 49.198)"><path class="b" d="M250.3,254.312l2.233,1.974,2.312-2.173-2.512-2.312Z" transform="translate(-250.3 -251.8)"/></g><g transform="translate(18.779 45.51)"><path class="b" d="M101.11,233.3l-2.91,1.694,1.5,2.711,2.691-1.435Z" transform="translate(-98.2 -233.3)"/></g><g transform="translate(13.257 89.706)"><path class="b" d="M70.5,457.213l2.512,2.253,2.013-2.472L72.773,455Z" transform="translate(-70.5 -455)"/></g><g transform="translate(6.12 79.141)"><path class="b" d="M37.75,402l-3.05,1.037,1.256,3.09,2.871-1.236Z" transform="translate(-34.7 -402)"/></g><g transform="translate(56.655 79.141)"><path class="b" d="M288.2,404.911l2.871,1.236,1.216-3.13L289.237,402Z" transform="translate(-288.2 -402)"/></g><g transform="translate(18.639 93.514)"><path class="b" d="M97.5,476.751l2.93,1.635,1.415-2.831L99.135,474.1Z" transform="translate(-97.5 -474.1)"/></g><g transform="translate(8.951 84.762)"><path class="b" d="M51.611,430.2,48.9,431.855l1.914,2.731,2.492-1.894Z" transform="translate(-48.9 -430.2)"/></g><g transform="translate(53.366 54.122)"><path class="b" d="M271.7,278.374l1.714,2.512,2.671-1.694-1.874-2.691Z" transform="translate(-271.7 -276.5)"/></g><g transform="translate(37.996 43.497)"><path class="b" d="M195.238,223.2l-.638,3.11,2.95.777.817-3.05Z" transform="translate(-194.6 -223.2)"/></g><g transform="translate(53.366 84.902)"><path class="b" d="M271.7,433.412l2.512,1.874,1.854-2.731-2.711-1.655Z" transform="translate(-271.7 -430.9)"/></g><g transform="translate(9.15 54.122)"><path class="b" d="M49.9,279.231l2.691,1.635,1.675-2.492L51.754,276.5Z" transform="translate(-49.9 -276.5)"/></g><g transform="translate(26.438 56.551)"><path class="b" d="M143.258,305.314a6.174,6.174,0,0,1,3.309.917,2.6,2.6,0,0,1,1.2,1.974,2.691,2.691,0,0,1-.837,2.193,4.9,4.9,0,0,1-4.665.8,3.44,3.44,0,0,1-2.392-2.811l-.06-.359h-.9a10.466,10.466,0,0,0-1.376.04,1.148,1.148,0,0,0-.618.4.847.847,0,0,0-.219.6,6.249,6.249,0,0,0,3.887,5.143,3.513,3.513,0,0,0,.777.239,2.01,2.01,0,0,1,.758.279,2.2,2.2,0,0,1,.06,1.116c-.02.219-.04.458-.04.678v.817c-.02.478-.02.8.219,1.037.259.259.618.259,1.376.259h.638a1.136,1.136,0,0,0,.817-.279,1.088,1.088,0,0,0,.259-.837c-.02-.279,0-.578,0-.877a8.224,8.224,0,0,0-.04-1.4c-.06-.558.02-.718.738-.9a6.384,6.384,0,0,0,4.406-3.768,5.852,5.852,0,0,0-.518-5.343,7.187,7.187,0,0,0-5.8-3.249,8.719,8.719,0,0,1-2.93-.758,2.669,2.669,0,0,1-1.535-2.053,2.79,2.79,0,0,1,1.2-2.492,4.1,4.1,0,0,1,3.708-.738,4.729,4.729,0,0,1,3.09,3.03l.1.279h3.01v-.439c-.06-3.05-1.714-4.9-5.482-6.16v-3.947h-1.017a10.04,10.04,0,0,1-1.116-.02,1.036,1.036,0,0,0-.817.239,1.186,1.186,0,0,0-.279.877c.02.758.02,1.515,0,2.253v.558c-.2.08-.4.159-.6.219a15.818,15.818,0,0,0-1.774.758,5.756,5.756,0,0,0-3.09,6A6.652,6.652,0,0,0,143.258,305.314Z" transform="translate(-136.624 -288.685)"/></g></g><path class="c" d="M92.656,37.76A33.192,33.192,0,0,1,98.079,25.5a17.037,17.037,0,0,1,5.024-4.685,10.408,10.408,0,0,1,5.343-1.515,10.775,10.775,0,0,1,6.479,2.273,22.2,22.2,0,0,1,6.9,9.13,43.22,43.22,0,0,1,3.528,14.533c-8.931-4.964-26.633-4.226-33.849.08A41.46,41.46,0,0,1,92.656,37.76Z" transform="translate(-73.26 -15.453)"/><path class="c" d="M250.118,55.14a15.53,15.53,0,0,0-9.748.14A50.231,50.231,0,0,0,237.6,41.6a32.43,32.43,0,0,0-6.4-11.1A30.341,30.341,0,0,1,250.118,55.14Z" transform="translate(-185.111 -24.421)"/><path class="c" d="M45.538,30.3c-5.4,6.14-8.273,13.895-9.23,24.8a15.566,15.566,0,0,0-9.708-.12C27.338,44.354,35.272,34.088,45.538,30.3Z" transform="translate(-21.297 -24.261)"/><g transform="translate(0 0)"><g transform="translate(0 0)"><path class="d" d="M62.715,17.506A32.976,32.976,0,0,0,27.251.642C14.413,3.213,5.741,11.008,1.455,23.786A29.151,29.151,0,0,0,0,33.175c0,1.037.459,1.694,1.216,1.754a2.484,2.484,0,0,0,1.435-.558c.08-.04.14-.1.219-.14a4.816,4.816,0,0,0,.718-.538,3.985,3.985,0,0,1,1-.638,10.431,10.431,0,0,1,5.083-.439c1.475.2,3.01.419,3.967,1.794a1.5,1.5,0,0,0,1.3.6,1.694,1.694,0,0,0,1.376-.877,5.837,5.837,0,0,1,2.651-2.372,23.692,23.692,0,0,1,8.054-2.293c1.2-.159,2.392-.259,3.648-.359.419-.04.857-.06,1.3-.1v9.948a1.643,1.643,0,0,0,1.635,1.694h.02a1.532,1.532,0,0,0,1.136-.439,1.853,1.853,0,0,0,.5-1.356V29.049h.319c.758.1,1.535.159,2.293.239a52.144,52.144,0,0,1,5.263.718c3.13.678,6.1,1.535,7.934,4.346a1.63,1.63,0,0,0,1.475.738,1.442,1.442,0,0,0,1.216-.837,2.5,2.5,0,0,1,1.834-1.3,11.124,11.124,0,0,1,4.884-.359c1.5.2,3.03.419,3.987,1.794a1.593,1.593,0,0,0,1.615.439c.478-.2.7-.957.7-1.415A34.2,34.2,0,0,0,62.715,17.506ZM17.682,21.673A33.192,33.192,0,0,1,23.1,9.413a17.037,17.037,0,0,1,5.024-4.685,10.408,10.408,0,0,1,5.343-1.515A10.775,10.775,0,0,1,39.95,5.486a22.2,22.2,0,0,1,6.9,9.13,43.22,43.22,0,0,1,3.528,14.533c-8.931-4.964-26.633-4.226-33.849.08A41.2,41.2,0,0,1,17.682,21.673Zm45.611,8.413a15.53,15.53,0,0,0-9.748.14A50.232,50.232,0,0,0,50.774,16.55a32.43,32.43,0,0,0-6.4-11.1A30.341,30.341,0,0,1,63.293,30.085ZM22.526,5.406c-5.4,6.14-8.273,13.895-9.23,24.8a15.566,15.566,0,0,0-9.708-.12C4.326,19.46,12.26,9.194,22.526,5.406Z" transform="translate(0 -0.004)"/><g transform="translate(10.402 48.646)"><path class="e" d="M58.4,251.258a22.466,22.466,0,0,0-6.22,15.549,23.005,23.005,0,0,0,6.9,16.745,22.732,22.732,0,0,0,16.068,6.579c.279,0,.538,0,.817-.02a22.855,22.855,0,0,0,22.307-23,23.17,23.17,0,0,0-7.157-16.725,23.118,23.118,0,0,0-32.713.877Zm-2.91,15.769a19.237,19.237,0,0,1,5.6-13.775,19.712,19.712,0,0,1,14.094-5.921h.02a19.736,19.736,0,1,1,0,39.471h-.02a19.67,19.67,0,0,1-19.7-19.775Z" transform="translate(-52.18 -244.027)"/></g><g class="f" transform="translate(31.672 42.952)"><path class="e" d="M159.122,218.622c0,.02.02.04.04.06l.12.239h2.851l.159-3.329-.458-.04c-1.555-.12-2.253-.179-2.671.259-.379.4-.319,1-.159,2.173l.06.439A.472.472,0,0,0,159.122,218.622Z" transform="translate(-158.879 -215.465)"/></g><g class="f" transform="translate(38.016 95.846)"><path class="e" d="M190.7,481.617l.618,3.11,3.289-.837-.837-3.09Z" transform="translate(-190.7 -480.8)"/></g><g class="f" transform="translate(31.637 97.002)"><path class="e" d="M158.879,486.6l-.179,3.229h3.469l-.179-3.07Z" transform="translate(-158.7 -486.6)"/></g><g class="f" transform="translate(4.864 66.462)"><path class="e" d="M24.4,336.928l3.07.14.4-3.07-3.11-.6Z" transform="translate(-24.4 -333.4)"/></g><g class="f" transform="translate(49.08 89.666)"><path class="e" d="M246.2,451.853l2.093,2.492,2.352-2.213-2.213-2.332Z" transform="translate(-246.2 -449.8)"/></g><g class="f" transform="translate(24.958 43.477)"><path class="e" d="M128.529,218.1l-3.329.817.857,3.19,2.891-.877Z" transform="translate(-125.2 -218.1)"/></g><g class="f" transform="translate(43.897 93.354)"><path class="e" d="M220.2,469.735l1.475,2.95,2.91-1.714-1.694-2.671Z" transform="translate(-220.2 -468.3)"/></g><g class="f" transform="translate(13.356 49.198)"><path class="e" d="M67,249.033l2.233,2.352,2.213-2.093L69.372,246.8Z" transform="translate(-67 -246.8)"/></g><g class="f" transform="translate(58.529 66.602)"><path class="e" d="M293.6,334.738l.379,3.09,3.15-.4-.4-3.329Z" transform="translate(-293.6 -334.1)"/></g><g class="f" transform="translate(43.757 45.59)"><path class="e" d="M220.935,228.7l-1.435,2.851,2.711,1.455,1.655-2.691Z" transform="translate(-219.5 -228.7)"/></g><g class="f" transform="translate(4.804 73.26)"><path class="e" d="M27.429,367.5l-3.329.179.419,3.369,3.15-.638Z" transform="translate(-24.1 -367.5)"/></g><g class="f" transform="translate(6.14 59.983)"><path class="e" d="M30.8,304.01l3.11,1.037,1.017-2.91L32.036,300.9Z" transform="translate(-30.8 -300.9)"/></g><g class="f" transform="translate(58.409 73.1)"><path class="e" d="M293,369.81l3.13.4.379-3.329-3.11-.179Z" transform="translate(-293 -366.7)"/></g><g class="f" transform="translate(24.939 95.866)"><path class="e" d="M125.1,483.97l3.329.857.618-3.13-2.91-.8Z" transform="translate(-125.1 -480.9)"/></g><g class="f" transform="translate(56.615 59.983)"><path class="e" d="M288.146,303.99l-1.236-3.09L284,302.136l1.1,2.91Z" transform="translate(-284 -300.9)"/></g><g class="f" transform="translate(49.1 49.198)"><path class="e" d="M246.3,249.312l2.233,1.974,2.312-2.173-2.512-2.312Z" transform="translate(-246.3 -246.8)"/></g><g class="f" transform="translate(18.779 45.51)"><path class="e" d="M97.11,228.3l-2.91,1.694,1.5,2.711,2.691-1.435Z" transform="translate(-94.2 -228.3)"/></g><g class="f" transform="translate(13.257 89.706)"><path class="e" d="M66.5,452.213l2.512,2.253,2.013-2.472L68.773,450Z" transform="translate(-66.5 -450)"/></g><g class="f" transform="translate(6.12 79.141)"><path class="e" d="M33.75,397l-3.05,1.037,1.256,3.09,2.871-1.236Z" transform="translate(-30.7 -397)"/></g><g class="f" transform="translate(56.655 79.141)"><path class="e" d="M284.2,399.91l2.871,1.236,1.216-3.13L285.237,397Z" transform="translate(-284.2 -397)"/></g><g class="f" transform="translate(18.639 93.514)"><path class="e" d="M93.5,471.751l2.93,1.635,1.415-2.831L95.135,469.1Z" transform="translate(-93.5 -469.1)"/></g><g class="f" transform="translate(8.951 84.762)"><path class="e" d="M47.611,425.2,44.9,426.855l1.914,2.731,2.492-1.894Z" transform="translate(-44.9 -425.2)"/></g><g class="f" transform="translate(53.366 54.122)"><path class="e" d="M267.7,273.374l1.714,2.512,2.671-1.694-1.874-2.691Z" transform="translate(-267.7 -271.5)"/></g><g class="f" transform="translate(37.996 43.497)"><path class="e" d="M191.238,218.2l-.638,3.11,2.95.777.817-3.05Z" transform="translate(-190.6 -218.2)"/></g><g class="f" transform="translate(53.366 84.902)"><path class="e" d="M267.7,428.412l2.512,1.874,1.854-2.731-2.711-1.655Z" transform="translate(-267.7 -425.9)"/></g><g class="f" transform="translate(9.15 54.122)"><path class="e" d="M45.9,274.231l2.691,1.635,1.675-2.492L47.754,271.5Z" transform="translate(-45.9 -271.5)"/></g><g transform="translate(26.438 56.551)"><path class="g" d="M139.258,300.314a6.173,6.173,0,0,1,3.309.917,2.6,2.6,0,0,1,1.2,1.974,2.691,2.691,0,0,1-.837,2.193,4.9,4.9,0,0,1-4.665.8,3.44,3.44,0,0,1-2.392-2.811l-.06-.359h-.9a10.477,10.477,0,0,0-1.376.04,1.149,1.149,0,0,0-.618.4.847.847,0,0,0-.219.6,6.249,6.249,0,0,0,3.887,5.143,3.509,3.509,0,0,0,.777.239,2.012,2.012,0,0,1,.758.279,2.2,2.2,0,0,1,.06,1.116c-.02.219-.04.459-.04.678v.817c-.02.478-.02.8.219,1.037.259.259.618.259,1.375.259h.638a1.136,1.136,0,0,0,.817-.279,1.088,1.088,0,0,0,.259-.837c-.02-.279,0-.578,0-.877a8.221,8.221,0,0,0-.04-1.4c-.06-.558.02-.718.738-.9a6.385,6.385,0,0,0,4.406-3.768,5.852,5.852,0,0,0-.518-5.343,7.187,7.187,0,0,0-5.8-3.249,8.718,8.718,0,0,1-2.93-.758,2.669,2.669,0,0,1-1.535-2.053,2.79,2.79,0,0,1,1.2-2.492,4.1,4.1,0,0,1,3.708-.738,4.728,4.728,0,0,1,3.09,3.03l.1.279h3.01v-.439c-.06-3.05-1.714-4.9-5.482-6.16v-3.947h-1.017a10.033,10.033,0,0,1-1.116-.02,1.036,1.036,0,0,0-.817.239,1.186,1.186,0,0,0-.279.877c.02.758.02,1.515,0,2.253v.558c-.2.08-.4.159-.6.219a15.81,15.81,0,0,0-1.774.758,5.757,5.757,0,0,0-3.09,6A6.652,6.652,0,0,0,139.258,300.314Z" transform="translate(-132.624 -283.685)"/></g></g></g></g></svg>