<svg xmlns="http://www.w3.org/2000/svg" xmlns:xlink="http://www.w3.org/1999/xlink" viewBox="538 4232 224.044 228.522"><defs><style>.a{fill:#fff;}.b{fill:#f4f4f4;}.c{fill:#ff7c5c;}.d{fill:#f2f3f4;}.e,.g,.h{fill:#0071ef;}.e{opacity:0.5;}.f{fill:#000078;}.g{opacity:0.2;}.i{filter:url(#a);}</style><filter id="a" x="538" y="4232" width="224.044" height="228.522" filterUnits="userSpaceOnUse"><feOffset dy="10" input="SourceAlpha"/><feGaussianBlur stdDeviation="5" result="b"/><feFlood flood-opacity="0.129"/><feComposite operator="in" in2="b"/><feComposite in="SourceGraphic"/></filter></defs><g class="i" transform="matrix(1, 0, 0, 1, 0, 0)"><rect class="a" width="194.044" height="198.522" rx="25" transform="translate(553 4237)"/></g><g transform="translate(605 4291)"><path class="b" d="M92.937,37.855a6.685,6.685,0,0,0-.916-3.538,6.5,6.5,0,0,0-6.033-3.258H52.236v-.865c0-6.262.025-12.524-.025-18.76A6.531,6.531,0,0,0,45.72,5.044q-17.563-.038-35.152,0a6.51,6.51,0,0,0-2.673.611A6.462,6.462,0,0,0,4,11.942V86.956a7.153,7.153,0,0,0,.025.738A6.738,6.738,0,0,0,5.858,92a6.938,6.938,0,0,0,5.193,2.011H86.294a6.585,6.585,0,0,0,6.644-6.72Q92.976,62.546,92.937,37.855ZM8.455,87.414a5.3,5.3,0,0,1,0-.636V12.095a2.3,2.3,0,0,1,2.6-2.622H45.236a2.282,2.282,0,0,1,2.571,2.545H13.6A2.3,2.3,0,0,0,11,14.64V89.527a6.24,6.24,0,0,1-.687-.051A2.113,2.113,0,0,1,8.455,87.414ZM18,88.865V77.207a2.287,2.287,0,0,1,2.6-2.571h5.193v1.018H21.614a2.287,2.287,0,0,0-2.6,2.571V89.5H18ZM30.294,74.636h5.447A2.175,2.175,0,0,1,37.8,75.884a2.328,2.328,0,0,0-1.044-.229H31.313V89.5H30.294Zm12.4,14.178c0-4.047.025-8.069-.025-12.116a6.5,6.5,0,0,0-.789-3.131,6.428,6.428,0,0,1,3.335,5.676c.025,3.411.025,6.847.025,10.258H42.691Zm9.6.713V35.488h.738c10.971,0,21.916.025,32.887-.025a2.584,2.584,0,0,1,2.622,2.545h-.076c-10.971.051-21.916.025-32.887.025h-.738V89.527H52.287Z" transform="translate(-2.982 -3.752)"/><path class="c" d="M58.925,292.265h7.764V277.4H61.5a2.287,2.287,0,0,0-2.6,2.571v11.658A5.322,5.322,0,0,1,58.925,292.265Z" transform="translate(-43.907 -206.796)"/><path class="c" d="M114.913,292.365a1.68,1.68,0,0,0,.025-.356V279.74a2.208,2.208,0,0,0-2.291-2.24H107.2v14.865Z" transform="translate(-79.913 -206.87)"/><path class="d" d="M66.827,107.529c0-.2.025-.407.025-.585v-76.9A2.282,2.282,0,0,0,64.282,27.5H30.1a2.3,2.3,0,0,0-2.6,2.622v75.32a2.093,2.093,0,0,0,1.833,2.062c1.145.1,2.291.025,3.487.025v-.713c0-3.895.051-7.764,0-11.658a6.671,6.671,0,0,1,6.924-6.949c5.04.076,10.08.025,15.12.025a7.5,7.5,0,0,1,2.011.229,6.429,6.429,0,0,1,4.836,6.262c.025,4.047,0,8.069.025,12.116v.687Z" transform="translate(-20.5 -20.506)"/><path class="e" d="M199.7,183.665h33.625a2.311,2.311,0,0,0,2.622-2.622V164.727q0-16.227.025-32.48a2.592,2.592,0,0,0-2.622-2.647c-10.971.051-21.916.025-32.887.025h-.738C199.7,147.673,199.7,165.618,199.7,183.665Z" transform="translate(-148.868 -96.617)"/><path class="f" d="M48.236,26.058H81.988a6.5,6.5,0,0,1,6.033,3.258,6.928,6.928,0,0,1,.916,3.538q0,24.7,0,49.432a6.554,6.554,0,0,1-6.644,6.72H7.051A6.806,6.806,0,0,1,1.858,87a6.484,6.484,0,0,1-1.833-4.3A7.153,7.153,0,0,1,0,81.956V6.942A6.462,6.462,0,0,1,3.895.655,6.51,6.51,0,0,1,6.567.044q17.6-.038,35.152,0a6.531,6.531,0,0,1,6.491,6.389c.076,6.262.025,12.524.025,18.76ZM43.781,84.5c0-.2.025-.407.025-.585V7.019a2.282,2.282,0,0,0-2.571-2.545H7.051a2.3,2.3,0,0,0-2.6,2.622v75.32a2.093,2.093,0,0,0,1.833,2.062c1.145.1,2.291.025,3.487.025v-.713c0-3.895.051-7.764,0-11.658A6.671,6.671,0,0,1,16.7,65.182c5.04.076,10.08.025,15.12.025a7.5,7.5,0,0,1,2.011.229A6.429,6.429,0,0,1,38.665,71.7c.025,4.047,0,8.069.025,12.116V84.5Zm4.505.025H81.912a2.311,2.311,0,0,0,2.622-2.622V65.589q0-16.227.025-32.48a2.592,2.592,0,0,0-2.622-2.647c-10.971.051-21.916.025-32.887.025h-.738C48.287,48.535,48.287,66.48,48.287,84.527ZM14,84.476h7.764V69.611H16.571a2.287,2.287,0,0,0-2.6,2.571V83.84A5.32,5.32,0,0,1,14,84.476Zm19.982.025a1.681,1.681,0,0,0,.025-.356V71.876a2.208,2.208,0,0,0-2.291-2.24H26.269V84.5Z" transform="translate(0 -0.025)"/><path class="e" d="M52.031,42H64.249a2.215,2.215,0,1,1-.025,4.429H39.838a2.215,2.215,0,1,1,0-4.429Z" transform="translate(-28.028 -31.316)"/><path class="g" d="M51.908,177.5H39.868a2.17,2.17,0,0,1-2.24-2.876,2.043,2.043,0,0,1,1.884-1.553,2.754,2.754,0,0,1,.458,0H64c1.5,0,2.393.789,2.418,2.113a2.06,2.06,0,0,1-2.24,2.316Z" transform="translate(-27.981 -129.012)"/><path class="h" d="M51.956,85.7H64.022a2.134,2.134,0,0,1,2.265,1.349,2.193,2.193,0,0,1-2.113,3.08c-.967.025-1.935,0-2.9,0H39.662A2.131,2.131,0,0,1,37.5,87.838,2.052,2.052,0,0,1,39.713,85.7Z" transform="translate(-27.953 -63.892)"/><path class="e" d="M51.949,133.755H40.113a4.924,4.924,0,0,1-1.069-.076,2.085,2.085,0,0,1-1.553-2.24,2.063,2.063,0,0,1,1.705-2.062,4.143,4.143,0,0,1,.789-.076H63.938c1.858,0,2.876,1.3,2.367,2.978a1.932,1.932,0,0,1-1.68,1.425,4.657,4.657,0,0,1-.84.051Z" transform="translate(-27.946 -96.394)"/><path class="a" d="M230.258,151.055h-9.469a5.324,5.324,0,0,1-.636-.025c-.967-.127-1.553-.967-1.553-2.215s.585-2.062,1.553-2.189a4.7,4.7,0,0,1,.585-.025H239.8a4.313,4.313,0,0,1,.56.025,2,2,0,0,1,1.629,2.24,1.934,1.934,0,0,1-1.629,2.164,3.414,3.414,0,0,1-.509.025Z" transform="translate(-162.957 -109.29)"/><path class="h" d="M230.324,194.729h-9.851c-1.273,0-1.985-1.018-1.833-2.571a1.916,1.916,0,0,1,1.273-1.782,3.159,3.159,0,0,1,.687-.076h19.422c1.4,0,2.164,1.095,1.935,2.724a1.766,1.766,0,0,1-1.655,1.705c-1.3.025-2.571,0-3.869,0Z" transform="translate(-162.972 -141.867)"/><path class="a" d="M230.33,234h9.749c1.349,0,2.087,1.12,1.858,2.749a1.823,1.823,0,0,1-1.527,1.68H220.479c-1.324,0-2.036-1.044-1.858-2.647A1.785,1.785,0,0,1,220.4,234h9.927Z" transform="translate(-162.952 -174.443)"/></g></svg>