<svg xmlns="http://www.w3.org/2000/svg" xmlns:xlink="http://www.w3.org/1999/xlink" viewBox="1433 3221 224.044 228.522"><defs><style>.a{fill:#fff;}.b{fill:#f4f4f4;}.c{fill:#f2f3f4;}.d,.e,.f{fill:#0071ef;}.d{opacity:0.2;}.e{opacity:0.5;}.g{fill:#000078;}.h{fill:#ff7c5c;}.i{filter:url(#a);}</style><filter id="a" x="1433" y="3221" width="224.044" height="228.522" filterUnits="userSpaceOnUse"><feOffset dy="10" input="SourceAlpha"/><feGaussianBlur stdDeviation="5" result="b"/><feFlood flood-opacity="0.102"/><feComposite operator="in" in2="b"/><feComposite in="SourceGraphic"/></filter></defs><g class="i" transform="matrix(1, 0, 0, 1, 0, 0)"><rect class="a" width="194.044" height="198.522" rx="25" transform="translate(1448 3226)"/></g><g transform="translate(1509.044 3288)"><g transform="translate(0.812 1.5)"><g transform="translate(0.01)"><path class="b" d="M4.814,52.457A6.121,6.121,0,0,0,10.469,55.5c9.854-.021,19.73,0,29.584,0H69.573a9.329,9.329,0,0,0,1.735-.129,5.941,5.941,0,0,0,4.82-6.084q.032-17.962,0-35.925a7.065,7.065,0,0,0-.364-2.314A5.941,5.941,0,0,0,69.744,7H9.848a5.99,5.99,0,0,0-5.827,5.977Q3.989,31.2,4,49.394A5.914,5.914,0,0,0,4.814,52.457ZM8.07,49.822a7.259,7.259,0,0,1-.043-.964V29.086H14a1.987,1.987,0,0,0,2.185-1.971,2.637,2.637,0,0,0-.043-.428,1.9,1.9,0,0,1,1.542,1.928A1.975,1.975,0,0,1,15.5,30.586H9.527V50.358a7.259,7.259,0,0,0,.043.964.129.129,0,0,0,.021.086A1.865,1.865,0,0,1,8.07,49.822ZM19.167,21.1a2,2,0,0,0,2.228-2.335c0-.043-.021-.086-.021-.129a1.889,1.889,0,0,1,1.521,1.628A2,2,0,0,1,20.666,22.6H9.57V25.1H8.07V21.1h11.1ZM8.049,12.87A1.877,1.877,0,0,1,9.87,11.049a5.613,5.613,0,0,1,.6-.021H69.658c.214,0,.45,0,.664.021a1.893,1.893,0,0,1,1.735,1.542c-.086-.021-.15-.021-.236-.043-.214-.021-.45-.021-.664-.021H11.969a5.613,5.613,0,0,0-.6.021,1.847,1.847,0,0,0-1.821,1.821c-.043.9-.021,1.8-.021,2.7h-1.5V15.89C8.027,14.883,8.006,13.876,8.049,12.87Z" transform="translate(-4 -7)"/></g><g transform="translate(0 56.149)"><path class="b" d="M76.114,275.514a8.418,8.418,0,0,0-.364-2.314,5.973,5.973,0,0,0-5.955-4.049c-4.349,0-8.7.021-13.046-.021-1.949-.021-3.835.129-5.355,1.585a6.691,6.691,0,0,0-4.8-1.585c-4.5.021-8.976.021-13.474,0a6.394,6.394,0,0,0-4.456,1.564,6.6,6.6,0,0,0-4.884-1.564c-1.714.043-3.428,0-5.141,0-2.956,0-5.912-.064-8.869.043a5.973,5.973,0,0,0-5.805,6.105c-.021,2.506,0,4.991,0,7.5a2.119,2.119,0,0,0,2.378,2.378H73.736a2.119,2.119,0,0,0,2.378-2.378C76.136,280.355,76.157,277.934,76.114,275.514ZM7.992,280.526v-5.077a2.01,2.01,0,0,1,2.292-2.249H24.4a1.966,1.966,0,0,1,2.206,1.521,2.469,2.469,0,0,0-1.564-.45H10.927a2.028,2.028,0,0,0-2.292,2.249v4.563h-.6C8.014,280.869,7.992,280.7,7.992,280.526Zm22.729-1.757c0-1.157-.021-2.292,0-3.449a1.961,1.961,0,0,1,2.164-2.121H47.3a1.9,1.9,0,0,1,2.035,1.521,2.4,2.4,0,0,0-1.392-.45H33.527a1.971,1.971,0,0,0-2.164,2.121c-.021,1.135,0,2.292,0,3.449v1.242h-.643Zm22.707,1.692c0-1.757-.021-3.492,0-5.248a1.949,1.949,0,0,1,1.992-1.992q7.358-.032,14.717,0a1.862,1.862,0,0,1,1.907,1.5,2.088,2.088,0,0,0-1.264-.428q-7.358-.032-14.717,0a1.924,1.924,0,0,0-1.992,1.992c-.021,1.607-.021,3.192,0,4.8H53.45C53.45,280.848,53.428,280.655,53.428,280.462Z" transform="translate(-3.956 -269.111)"/></g></g><path class="c" d="M25.78,43.859V63.631a7.259,7.259,0,0,0,.043.964A1.855,1.855,0,0,0,27.58,66.2c.257.021.514.021.793.021h59.3A1.946,1.946,0,0,0,89.875,64.1V28.413c0-.257,0-.514-.021-.793a1.9,1.9,0,0,0-1.778-1.8c-.214-.021-.45-.021-.664-.021H28.222a5.613,5.613,0,0,0-.6.021A1.847,1.847,0,0,0,25.8,27.642c-.043,1.007-.021,2.014-.021,3.02v1.178H36.62a5.46,5.46,0,0,1,.835.043,1.889,1.889,0,0,1,1.671,1.649A2,2,0,0,1,36.9,35.868H25.8v4.006h5.955a2,2,0,1,1-.021,3.984H25.78Z" transform="translate(-20.288 -20.273)"/><path class="d" d="M233.887,294h18.637c0-2.057.043-4.07-.021-6.084a1.836,1.836,0,0,0-1.928-1.778q-7.358-.032-14.717,0a1.924,1.924,0,0,0-1.992,1.992c-.021,1.757,0,3.492,0,5.248C233.865,293.6,233.887,293.789,233.887,294Z" transform="translate(-183.794 -224.831)"/><path class="e" d="M127.865,294.162h18.616a1.97,1.97,0,0,0,.064-.193c0-1.907.043-3.813-.021-5.72a1.9,1.9,0,0,0-2.078-1.949H130.029a1.971,1.971,0,0,0-2.164,2.121c-.021,1.135,0,2.292,0,3.449Z" transform="translate(-100.501 -224.969)"/><path class="f" d="M40.424,294.083c.021-.214.043-.386.043-.557v-5.077a2.01,2.01,0,0,0-2.292-2.249H24.057a2.027,2.027,0,0,0-2.292,2.249c-.021,1.692,0,3.385,0,5.077,0,.171.021.343.043.557Z" transform="translate(-17.13 -224.89)"/><path class="g" d="M36.018,48.478H6.435A6.1,6.1,0,0,1,.779,45.436a5.785,5.785,0,0,1-.814-3.042c0-12.146-.021-24.271,0-36.417A6.023,6.023,0,0,1,5.813,0h59.9A5.994,5.994,0,0,1,71.75,4.027a7.681,7.681,0,0,1,.364,2.314q.032,17.962,0,35.925a5.957,5.957,0,0,1-4.82,6.084,7.8,7.8,0,0,1-1.735.129ZM3.992,22.086V41.858a7.259,7.259,0,0,0,.043.964,1.855,1.855,0,0,0,1.757,1.607c.257.021.514.021.793.021h59.3a1.946,1.946,0,0,0,2.206-2.121V6.641c0-.257,0-.514-.021-.793a1.9,1.9,0,0,0-1.778-1.8c-.214-.021-.45-.021-.664-.021H6.435a5.613,5.613,0,0,0-.6.021A1.847,1.847,0,0,0,4.014,5.87c-.043,1.007-.021,2.014-.021,3.02v1.178H14.832a5.46,5.46,0,0,1,.835.043,1.889,1.889,0,0,1,1.671,1.649A2,2,0,0,1,15.11,14.1H4.014V18.1H9.969a2,2,0,1,1-.021,3.984H3.992Z" transform="translate(0)"/><path class="g" d="M24.943,263.919a6.3,6.3,0,0,1,4.456-1.564c4.5.021,8.976.021,13.474,0a6.6,6.6,0,0,1,4.8,1.585c1.521-1.435,3.385-1.607,5.355-1.585,4.349.043,8.7,0,13.046.021a5.922,5.922,0,0,1,5.955,4.049,8.418,8.418,0,0,1,.364,2.314c.043,2.421.021,4.82.021,7.241a2.119,2.119,0,0,1-2.378,2.378H2.643a2.1,2.1,0,0,1-2.378-2.378c0-2.506-.021-4.991,0-7.5A5.918,5.918,0,0,1,6.092,262.4c2.956-.107,5.912-.021,8.869-.043,1.714,0,3.428.021,5.141,0A6.5,6.5,0,0,1,24.943,263.919Zm24.742,10.325H68.323c0-2.057.043-4.07-.021-6.084a1.836,1.836,0,0,0-1.928-1.778q-7.358-.032-14.717,0a1.924,1.924,0,0,0-1.992,1.992c-.021,1.757,0,3.492,0,5.248C49.664,273.837,49.685,274.03,49.685,274.244Zm-22.729.021H45.572a1.97,1.97,0,0,0,.064-.193c0-1.907.043-3.813-.021-5.72a1.9,1.9,0,0,0-2.078-1.949H29.12a1.971,1.971,0,0,0-2.164,2.121c-.021,1.135,0,2.292,0,3.449Zm-4.07,0c.021-.214.043-.386.043-.557v-5.077a2.01,2.01,0,0,0-2.292-2.249H6.52a2.028,2.028,0,0,0-2.292,2.249c-.021,1.692,0,3.385,0,5.077,0,.171.021.343.043.557Z" transform="translate(-0.236 -206.144)"/><path class="a" d="M124.731,57.492A11.943,11.943,0,1,0,136.577,69.7,11.977,11.977,0,0,0,124.731,57.492Z" transform="translate(-88.584 -45.174)"/><path class="f" d="M94,54.673a15.949,15.949,0,1,1,15.959,16A15.949,15.949,0,0,1,94,54.673Zm16.045-11.868a11.943,11.943,0,1,0,11.846,12.211A11.977,11.977,0,0,0,110.045,42.806Z" transform="translate(-73.898 -30.488)"/><path class="h" d="M148.417,82.966V77.053a2.007,2.007,0,0,1,1.028-2.014,2.116,2.116,0,0,1,2.356.3c2.7,1.971,5.4,3.92,8.1,5.891a2.036,2.036,0,0,1,.021,3.556q-4.081,2.988-8.162,5.934a2.048,2.048,0,0,1-2.314.3,2.007,2.007,0,0,1-1.05-2.014C148.438,86.993,148.417,84.979,148.417,82.966Zm7.155.064c-1.071-.771-2.057-1.5-3.085-2.249v4.456C153.537,84.508,154.5,83.8,155.572,83.03Z" transform="translate(-116.64 -58.78)"/></g></svg>