<svg xmlns="http://www.w3.org/2000/svg" xmlns:xlink="http://www.w3.org/1999/xlink" viewBox="4229 1366 363.232 381.56">
  <defs>
    <style>
      .cls-1, .cls-3 {
        fill: #fff;
      }

      .cls-2 {
        fill: #f4f4f4;
      }

      .cls-2, .cls-3, .cls-8 {
        opacity: 0.5;
      }

      .cls-4, .cls-5, .cls-8 {
        fill: #0071ef;
      }

      .cls-5 {
        opacity: 0.2;
      }

      .cls-6 {
        fill: #ff7c5c;
      }

      .cls-7 {
        fill: #000078;
      }

      .cls-9 {
        filter: url(#Rectangle_34);
      }
    </style>
    <filter id="Rectangle_34" x="4229" y="1366" width="363.232" height="381.56" filterUnits="userSpaceOnUse">
      <feOffset dy="30" input="SourceAlpha"/>
      <feGaussianBlur stdDeviation="10" result="blur"/>
      <feFlood flood-color="#b1b1b1" flood-opacity="0.161"/>
      <feComposite operator="in" in2="blur"/>
      <feComposite in="SourceGraphic"/>
    </filter>
  </defs>
  <g id="Group_201" data-name="Group 201" transform="translate(3980)">
    <g class="cls-9" transform="matrix(1, 0, 0, 1, -3980, 0)">
      <rect id="Rectangle_34-2" data-name="Rectangle 34" class="cls-1" width="303.232" height="321.56" rx="10" transform="translate(4259 1366)"/>
    </g>
    <g id="Group_190" data-name="Group 190" transform="translate(381 1451.293)">
      <g id="Group_143" data-name="Group 143" transform="translate(0.792 0.792)">
        <path id="Path_366" data-name="Path 366" class="cls-2" d="M73.75,2H4.137A2.128,2.128,0,0,0,2,4.137V98.365A2.128,2.128,0,0,0,4.137,100.5H73.75a2.128,2.128,0,0,0,2.137-2.137V4.137A2.128,2.128,0,0,0,73.75,2ZM6.116,6.076H71.81v.791H7.3v7.321H6.116C6.116,11.5,6.116,8.807,6.116,6.076Zm-.04,12.347H71.771v1.187H7.659V80H6.076Q6.076,49.193,6.076,18.424Zm0,65.734H71.771v.792H7.263V96.426H6.076C6.076,92.31,6.076,88.274,6.076,84.158Z" transform="translate(-2 -2)"/>
        <path id="Path_367" data-name="Path 367" class="cls-2" d="M222.882,115.688V79.793a2.177,2.177,0,0,0-.475-1.266c-.831-1.069-1.7-2.1-2.572-3.126-2.058-2.454-4.116-4.907-6.174-7.4a.672.672,0,0,0-.237.237c-2.929,3.483-5.857,7-8.746,10.487a1.744,1.744,0,0,0-.277,1.029v60.629h18.482v-.95Q222.882,127.56,222.882,115.688Zm-4.155-26.159h-9.379v30.394h-.792V89.133h10.171Zm-10.171-8.865a.527.527,0,0,1,.237-.356c1.543-1.86,3.126-3.76,4.67-5.62.079-.079.158-.119.237-.2.317.356.594.712.91,1.069-1.543,1.86-3.087,3.72-4.63,5.54-.079.119-.237.237-.237.356v3.483h-1.187Q208.5,82.8,208.555,80.664Zm0,43.374h10.21v.792h-9.023v11.477h-1.187Z" transform="translate(-124.3 -41.88)"/>
      </g>
      <path id="Path_368" data-name="Path 368" class="cls-3" d="M225.071,151.089V120.3H214.9v30.789Z" transform="translate(-129.853 -72.691)"/>
      <path id="Path_369" data-name="Path 369" class="cls-3" d="M79.995,106.079V44.5H14.3v61.579Z" transform="translate(-8.641 -26.889)"/>
      <path id="Path_370" data-name="Path 370" class="cls-4" d="M13.3,221.868H78.995V209.6H13.3C13.3,213.716,13.3,217.752,13.3,221.868Z" transform="translate(-8.037 -126.651)"/>
      <path id="Path_371" data-name="Path 371" class="cls-5" d="M78.995,12.3H13.3v8.113H78.995Z" transform="translate(-8.037 -7.432)"/>
      <path id="Path_372" data-name="Path 372" class="cls-5" d="M215.9,209.6v12.268h10.21V209.6Z" transform="translate(-130.457 -126.651)"/>
      <path id="Path_373" data-name="Path 373" class="cls-6" d="M226.15,94.787V90.751a1.114,1.114,0,0,0-.237-.594c-1.623-1.979-3.245-3.918-4.868-5.857a1.049,1.049,0,0,1-.237.2c-1.543,1.86-3.126,3.76-4.67,5.62-.079.119-.237.237-.237.356v4.274C219.343,94.787,222.667,94.787,226.15,94.787Z" transform="translate(-130.457 -50.938)"/>
      <path id="Path_374" data-name="Path 374" class="cls-7" d="M73.887,2.137V96.365A2.128,2.128,0,0,1,71.75,98.5H2.137A2.128,2.128,0,0,1,0,96.365V2.137A2.128,2.128,0,0,1,2.137,0H71.75A2.128,2.128,0,0,1,73.887,2.137ZM69.771,78V16.424H4.076V78ZM4.076,94.426H69.771V82.158H4.076C4.076,86.274,4.076,90.31,4.076,94.426ZM69.771,4.076H4.076v8.113H69.771Z"/>
      <path id="Path_375" data-name="Path 375" class="cls-7" d="M211.661,66.1c2.058,2.493,4.116,4.947,6.174,7.4.871,1.029,1.741,2.058,2.572,3.126a2.177,2.177,0,0,1,.475,1.266c.04,11.952,0,23.943,0,35.895v24.695H202.4V77.854a1.828,1.828,0,0,1,.277-1.029c2.889-3.522,5.818-7,8.746-10.487Zm5.066,51.843V87.154H206.555v30.789ZM206.555,122.1v12.268h10.21V122.1ZM216.805,83V78.962a1.114,1.114,0,0,0-.237-.594c-1.623-1.979-3.245-3.918-4.868-5.857a1.049,1.049,0,0,1-.237.2c-1.543,1.86-3.126,3.76-4.67,5.62-.079.119-.237.237-.237.356v4.274C210,83,213.323,83,216.805,83Z" transform="translate(-122.3 -39.941)"/>
      <path id="Path_376" data-name="Path 376" class="cls-5" d="M37.2,71.387H20.9V57.1H37.2ZM24.937,67.271h8.152V61.216H24.937Z" transform="translate(-12.629 -34.503)"/>
      <path id="Path_377" data-name="Path 377" class="cls-5" d="M72.6,71.387V57.1H88.984V71.387Zm4.116-4.116h8.152V61.216H76.716Z" transform="translate(-43.868 -34.503)"/>
      <path id="Path_378" data-name="Path 378" class="cls-5" d="M141.045,57.1V71.387H124.7V57.1ZM128.776,67.271h8.152V61.216h-8.152Z" transform="translate(-75.35 -34.503)"/>
      <path id="Path_379" data-name="Path 379" class="cls-8" d="M20.8,103.8H37.145v14.287H20.8Zm12.189,10.21v-6.095H24.876v6.095Z" transform="translate(-12.568 -62.721)"/>
      <path id="Path_380" data-name="Path 380" class="cls-4" d="M72.6,118.147V103.9H88.945v14.247Zm4.155-10.171v6.095h8.113v-6.095Z" transform="translate(-43.868 -62.782)"/>
      <path id="Path_381" data-name="Path 381" class="cls-1" d="M67.5,222v-4H87.921v4Z" transform="translate(-40.787 -131.726)"/>
      <path id="Path_382" data-name="Path 382" class="cls-7" d="M67.5,19.6v-4H79.729v4Z" transform="translate(-40.787 -9.426)"/>
      <path id="Path_383" data-name="Path 383" class="cls-7" d="M109,19.6v-4h4v4Z" transform="translate(-65.863 -9.426)"/>
      <path id="Path_384" data-name="Path 384" class="cls-3" d="M39.213,120.295V114.2H31.1v6.095Z" transform="translate(-18.792 -69.005)"/>
      <path id="Path_385" data-name="Path 385" class="cls-3" d="M39.213,73.295V67.2H31.1v6.095Z" transform="translate(-18.792 -40.606)"/>
      <path id="Path_386" data-name="Path 386" class="cls-3" d="M91.213,73.295V67.2H83.1v6.095Z" transform="translate(-50.213 -40.606)"/>
      <path id="Path_387" data-name="Path 387" class="cls-3" d="M91.213,120.295V114.2H83.1v6.095Z" transform="translate(-50.213 -69.005)"/>
      <path id="Path_388" data-name="Path 388" class="cls-3" d="M143.213,73.295V67.2H135.1v6.095Z" transform="translate(-81.634 -40.606)"/>
    </g>
    <g id="Group_304" data-name="Group 304" transform="translate(319 1606)">
      <path id="Path_935" data-name="Path 935" d="M29.2.5a.265.265,0,0,1,.3-.3h4.1a4.012,4.012,0,0,1,4,4,4.1,4.1,0,0,1-4,4.1H31v4.2a.319.319,0,0,1-.3.3H29.5a.319.319,0,0,1-.3-.3V.5Zm4.4,5.9a2.326,2.326,0,0,0,2.3-2.3,2.242,2.242,0,0,0-2.3-2.2H31.1V6.4h2.5Z"/>
      <path id="Path_936" data-name="Path 936" d="M38.9,5.9a.319.319,0,0,1,.3-.3h.5a.319.319,0,0,1,.3.3l.2.6a2.48,2.48,0,0,1,2.1-1c.7,0,1.5.2,1.3.7l-.4.9a.4.4,0,0,1-.4.2.6.6,0,0,0-.6-.3,2.052,2.052,0,0,0-1.6.9v4.6c0,.3-.2.3-.5.3h-.9a.319.319,0,0,1-.3-.3Z"/>
      <path id="Path_937" data-name="Path 937" d="M48,5.4a3.7,3.7,0,0,1,3.6,3.8,3.605,3.605,0,1,1-7.2,0A3.7,3.7,0,0,1,48,5.4Zm0,6a2.15,2.15,0,0,0,2-2.3A2.094,2.094,0,0,0,48,7a2.12,2.12,0,0,0-2,2.2A2.12,2.12,0,0,0,48,11.4Z"/>
      <path id="Path_938" data-name="Path 938" d="M56.5,5.4a3.307,3.307,0,0,1,1.7.4V.5a.319.319,0,0,1,.3-.3h1a.319.319,0,0,1,.3.3V12.4a.319.319,0,0,1-.3.3H59a.265.265,0,0,1-.3-.3l-.1-.4a3.342,3.342,0,0,1-2.3,1,3.6,3.6,0,0,1-3.4-3.8A3.7,3.7,0,0,1,56.5,5.4Zm0,6a1.934,1.934,0,0,0,1.7-1.1V7.4A3.078,3.078,0,0,0,56.6,7a2.135,2.135,0,0,0-2.1,2.2A2.12,2.12,0,0,0,56.5,11.4Z"/>
      <path id="Path_939" data-name="Path 939" d="M62.2,5.9a.319.319,0,0,1,.3-.3h1a.319.319,0,0,1,.3.3V9.6c0,1.2.6,1.8,1.5,1.8a2,2,0,0,0,1.8-1.2V5.9c0-.3.1-.3.4-.3h.9a.319.319,0,0,1,.3.3v6.5a.319.319,0,0,1-.3.3H68a.265.265,0,0,1-.3-.3l-.3-.4A3.515,3.515,0,0,1,65,13c-2.2,0-2.9-1.5-2.9-3.4V5.9Z"/>
      <path id="Path_940" data-name="Path 940" d="M74.4,5.4A3.317,3.317,0,0,1,77,6.7c.1.2.1.4-.1.5l-.6.5c-.2.2-.3.1-.5-.1A2.026,2.026,0,0,0,74.4,7a2.135,2.135,0,0,0-2.1,2.2,2.135,2.135,0,0,0,2.1,2.2,2.482,2.482,0,0,0,1.7-.8c.2-.2.3-.2.5,0l.5.4c.2.1.3.3.1.5A3.2,3.2,0,0,1,74.4,13a3.8,3.8,0,0,1-3.8-3.8A3.864,3.864,0,0,1,74.4,5.4Z"/>
      <path id="Path_941" data-name="Path 941" d="M79.4,7.1h-.8a.319.319,0,0,1-.3-.3V5.9a.265.265,0,0,1,.3-.3h.8v-2a.319.319,0,0,1,.3-.3h1a.319.319,0,0,1,.3.3v2h1.8a.265.265,0,0,1,.3.3v.8a.265.265,0,0,1-.3.3H81v3.6c0,.6.2.7.6.7a2.9,2.9,0,0,0,1.1-.3c.2-.1.3,0,.4.2l.3.8c.1.2,0,.3-.2.4a5.729,5.729,0,0,1-2.1.5c-1.4,0-1.8-.9-1.8-2.1V7.1Z"/>
      <path id="Path_942" data-name="Path 942" d="M91.1.3a.451.451,0,0,1,.3-.3h.3c.1,0,.3.1.3.2l3.8,9.2h.1L99.6.2c0-.1.2-.2.3-.2h.3a.319.319,0,0,1,.3.3l2.2,12.1c.1.3-.1.4-.3.4h-1.2a.265.265,0,0,1-.3-.3l-1.3-8h-.1l-3.2,8.3c0,.1-.1.2-.3.2h-.3c-.1,0-.3-.1-.3-.2L92.1,4.5H92l-1.3,8a.451.451,0,0,1-.3.3H89.2c-.3,0-.4-.2-.3-.4Z"/>
      <path id="Path_943" data-name="Path 943" d="M107.7,5.4a3.7,3.7,0,0,1,3.6,3.8,3.605,3.605,0,1,1-7.2,0A3.633,3.633,0,0,1,107.7,5.4Zm0,6a2.15,2.15,0,0,0,2-2.3,2.009,2.009,0,1,0-4,0A2.031,2.031,0,0,0,107.7,11.4Z"/>
      <path id="Path_944" data-name="Path 944" d="M116.1,5.4a3.307,3.307,0,0,1,1.7.4V.5a.319.319,0,0,1,.3-.3h1a.319.319,0,0,1,.3.3V12.4a.319.319,0,0,1-.3.3h-.5a.265.265,0,0,1-.3-.3l-.1-.5a3.342,3.342,0,0,1-2.3,1,3.6,3.6,0,0,1-3.4-3.8A3.739,3.739,0,0,1,116.1,5.4Zm.1,6a1.934,1.934,0,0,0,1.7-1.1V7.4a3.078,3.078,0,0,0-1.6-.4,2.135,2.135,0,0,0-2.1,2.2A2.12,2.12,0,0,0,116.2,11.4Z"/>
      <path id="Path_945" data-name="Path 945" d="M125,5.4a3.206,3.206,0,0,1,3.3,3.3v.5a.319.319,0,0,1-.3.3h-4.9a2.082,2.082,0,0,0,2.1,1.9,3.773,3.773,0,0,0,1.6-.5c.2-.1.3-.2.5,0l.5.7a.33.33,0,0,1,0,.5,3.947,3.947,0,0,1-2.7.9,3.573,3.573,0,0,1-3.6-3.8A3.441,3.441,0,0,1,125,5.4Zm1.6,3a1.735,1.735,0,0,0-1.7-1.6,1.759,1.759,0,0,0-1.8,1.6Z"/>
      <path id="Path_946" data-name="Path 946" d="M130,5.9a.319.319,0,0,1,.3-.3h.5a.319.319,0,0,1,.3.3l.2.6a2.48,2.48,0,0,1,2.1-1c.7,0,1.5.2,1.3.7l-.4.9a.4.4,0,0,1-.4.2c-.1-.1-.4-.1-.6-.1a2.052,2.052,0,0,0-1.6.9v4.6c0,.3-.2.3-.5.3h-.9a.319.319,0,0,1-.3-.3V5.9Z"/>
      <path id="Path_947" data-name="Path 947" d="M136.1,5.9a.319.319,0,0,1,.3-.3h.5c.1,0,.3.1.3.2l.2.6a3.885,3.885,0,0,1,2.5-1c2.2,0,3,1.5,3,3.4v3.6a.319.319,0,0,1-.3.3h-1a.319.319,0,0,1-.3-.3V8.8c0-1.2-.6-1.8-1.5-1.8a2.353,2.353,0,0,0-2,1.1v4.4c0,.2-.1.3-.4.3h-.9a.319.319,0,0,1-.3-.3V5.9Z"/>
      <path id="Path_948" data-name="Path 948" d="M145,1.6a1.1,1.1,0,0,1,1-1.1,1.11,1.11,0,0,1,1.1,1.1,1.028,1.028,0,0,1-1.1,1A1,1,0,0,1,145,1.6Zm.2,4.3a.319.319,0,0,1,.3-.3h1a.319.319,0,0,1,.3.3v6.5a.319.319,0,0,1-.3.3h-1a.319.319,0,0,1-.3-.3Z"/>
      <path id="Path_949" data-name="Path 949" d="M148.7,12.3l3.1-5.1h-2.6a.319.319,0,0,1-.3-.3v-1a.265.265,0,0,1,.3-.3h4.6c.3,0,.5.3.3.5l-3,5.2h2.4a.265.265,0,0,1,.3.3v.8a.265.265,0,0,1-.3.3H149a.319.319,0,0,1-.3-.3Z"/>
      <path id="Path_950" data-name="Path 950" d="M158.2,8.2a4.883,4.883,0,0,1,1.4.2c0-1.1-.2-1.6-1.1-1.6a8.475,8.475,0,0,0-2,.3c-.2.1-.3-.1-.4-.3l-.1-.7a.3.3,0,0,1,.2-.4,6.59,6.59,0,0,1,2.5-.4c2.3,0,2.5,1.4,2.5,3.2v3.8a.319.319,0,0,1-.3.3h-.5c-.2,0-.2-.1-.3-.3l-.2-.5a3.017,3.017,0,0,1-2.2.9,2.181,2.181,0,0,1-2.3-2.4C155.3,9.2,156.4,8.2,158.2,8.2Zm-.2,3.5a1.987,1.987,0,0,0,1.6-.9V9.6a2.352,2.352,0,0,0-1.3-.3c-.9,0-1.5.5-1.5,1.2A1.216,1.216,0,0,0,158,11.7Z"/>
      <path id="Path_951" data-name="Path 951" d="M163.9,7.1h-.8a.319.319,0,0,1-.3-.3V5.9a.265.265,0,0,1,.3-.3h.8v-2a.319.319,0,0,1,.3-.3h1a.319.319,0,0,1,.3.3v2h1.8a.265.265,0,0,1,.3.3v.8a.265.265,0,0,1-.3.3h-1.8v3.6c0,.6.2.7.6.7a2.9,2.9,0,0,0,1.1-.3c.2-.1.3,0,.4.2l.4.8c.1.2,0,.3-.2.4a5.729,5.729,0,0,1-2.1.5c-1.4,0-1.8-.9-1.8-2.1Z"/>
      <path id="Path_952" data-name="Path 952" d="M169.5,1.6a1.1,1.1,0,0,1,1-1.1,1.11,1.11,0,0,1,1.1,1.1,1.028,1.028,0,0,1-1.1,1A.945.945,0,0,1,169.5,1.6Zm.2,4.3a.319.319,0,0,1,.3-.3h1a.319.319,0,0,1,.3.3v6.5a.319.319,0,0,1-.3.3h-1a.319.319,0,0,1-.3-.3Z"/>
      <path id="Path_953" data-name="Path 953" d="M176.8,5.4a3.7,3.7,0,0,1,3.6,3.8,3.605,3.605,0,1,1-7.2,0A3.7,3.7,0,0,1,176.8,5.4Zm0,6a2.15,2.15,0,0,0,2-2.3,2.009,2.009,0,1,0-4,0A2.15,2.15,0,0,0,176.8,11.4Z"/>
      <path id="Path_954" data-name="Path 954" d="M182.3,5.9a.319.319,0,0,1,.3-.3h.5c.1,0,.3.1.3.2l.2.6a3.885,3.885,0,0,1,2.5-1c2.2,0,3,1.5,3,3.4v3.6a.319.319,0,0,1-.3.3h-1a.319.319,0,0,1-.3-.3V8.8c0-1.2-.6-1.8-1.5-1.8a2.353,2.353,0,0,0-2,1.1v4.4c0,.2-.1.3-.4.3h-.9a.319.319,0,0,1-.3-.3V5.9Z"/>
      <path id="Path_955" data-name="Path 955" d="M192.4,10.5c.7,0,1.5.5,1.5,2a4.72,4.72,0,0,1-1.8,3.6c-.2.1-.3.1-.4,0l-.3-.3c-.1-.1-.1-.3.1-.5a3.252,3.252,0,0,0,1.3-2.4,1.217,1.217,0,0,1-1.7-1.1C191,11,191.6,10.5,192.4,10.5Z"/>
      <path id="Path_956" data-name="Path 956" d="M0,22.1a.265.265,0,0,1,.3-.3H4.4a6.3,6.3,0,1,1,0,12.6H.3c-.2,0-.3-.2-.3-.4ZM4.2,32.7a4.6,4.6,0,0,0,0-9.2H1.8v9.2Z"/>
      <path id="Path_957" data-name="Path 957" d="M15.6,27a3.206,3.206,0,0,1,3.3,3.3v.5a.319.319,0,0,1-.3.3H13.7A2.082,2.082,0,0,0,15.8,33a3.773,3.773,0,0,0,1.6-.5c.2-.1.3-.2.5,0l.5.7a.33.33,0,0,1,0,.5,3.947,3.947,0,0,1-2.7.9,3.573,3.573,0,0,1-3.6-3.8A3.5,3.5,0,0,1,15.6,27Zm1.7,3a1.735,1.735,0,0,0-1.7-1.6A1.759,1.759,0,0,0,13.8,30Z"/>
      <path id="Path_958" data-name="Path 958" d="M19.7,27.6c-.1-.2,0-.4.3-.4h1c.2,0,.3.1.3.2l1.9,4.2h0l1.9-4.2c.1-.2.3-.2.5-.2h.8c.3,0,.4.2.3.4l-3.2,6.8c0,.1-.1.2-.3.2h-.1c-.2,0-.3-.1-.3-.2Z"/>
      <path id="Path_959" data-name="Path 959" d="M31.2,27a3.206,3.206,0,0,1,3.3,3.3v.5a.319.319,0,0,1-.3.3H29.3A2.082,2.082,0,0,0,31.4,33a3.773,3.773,0,0,0,1.6-.5c.2-.1.3-.2.5,0l.5.7a.33.33,0,0,1,0,.5,3.947,3.947,0,0,1-2.7.9,3.573,3.573,0,0,1-3.6-3.8A3.5,3.5,0,0,1,31.2,27Zm1.7,3a1.735,1.735,0,0,0-1.7-1.6A1.759,1.759,0,0,0,29.4,30Z"/>
      <path id="Path_960" data-name="Path 960" d="M36.3,22.1a.319.319,0,0,1,.3-.3h1a.319.319,0,0,1,.3.3V34a.319.319,0,0,1-.3.3h-1a.319.319,0,0,1-.3-.3Z"/>
      <path id="Path_961" data-name="Path 961" d="M43.4,27a3.806,3.806,0,1,1-3.6,3.8A3.7,3.7,0,0,1,43.4,27Zm0,6a2.15,2.15,0,0,0,2-2.3,2.009,2.009,0,1,0-4,0A2.15,2.15,0,0,0,43.4,33Z"/>
      <path id="Path_962" data-name="Path 962" d="M50.6,39.4c0,.2-.1.3-.4.3h-1a.319.319,0,0,1-.3-.3V27.5a.319.319,0,0,1,.3-.3h.5c.1,0,.2.1.3.2l.2.5a3.177,3.177,0,0,1,2.2-.9,3.538,3.538,0,0,1,3.4,3.8,3.615,3.615,0,0,1-3.5,3.8,3.884,3.884,0,0,1-1.8-.5v5.3ZM52.1,33a2.135,2.135,0,0,0,2.1-2.2,1.987,1.987,0,0,0-3.7-1.2v2.9A3.041,3.041,0,0,0,52.1,33Z"/>
      <path id="Path_963" data-name="Path 963" d="M57.7,27.5a.319.319,0,0,1,.3-.3h.5c.2,0,.3.1.3.2l.2.6a3.323,3.323,0,0,1,2.4-1,2.561,2.561,0,0,1,2.3,1.2A4.144,4.144,0,0,1,66.3,27c2.2,0,3,1.5,3,3.4V34a.265.265,0,0,1-.3.3H68a.319.319,0,0,1-.3-.3V30.3c0-1.1-.5-1.8-1.5-1.8a2.967,2.967,0,0,0-1.9.9c0,.2.1.5.1.9V34a.319.319,0,0,1-.3.3h-1a.319.319,0,0,1-.3-.3V30.3q0-1.8-1.5-1.8a1.954,1.954,0,0,0-1.8,1.1V34a.319.319,0,0,1-.3.3h-1a.319.319,0,0,1-.3-.3V27.5Z"/>
      <path id="Path_964" data-name="Path 964" d="M74.6,27a3.206,3.206,0,0,1,3.3,3.3v.5a.319.319,0,0,1-.3.3H72.7A2.082,2.082,0,0,0,74.8,33a3.773,3.773,0,0,0,1.6-.5c.2-.1.3-.2.5,0l.5.7a.33.33,0,0,1,0,.5,3.947,3.947,0,0,1-2.7.9,3.573,3.573,0,0,1-3.6-3.8A3.5,3.5,0,0,1,74.6,27Zm1.7,3a1.735,1.735,0,0,0-1.7-1.6A1.759,1.759,0,0,0,72.8,30Z"/>
      <path id="Path_965" data-name="Path 965" d="M79.7,27.5a.319.319,0,0,1,.3-.3h.5c.1,0,.3.1.3.2l.2.6a3.885,3.885,0,0,1,2.5-1c2.2,0,3,1.5,3,3.4V34a.319.319,0,0,1-.3.3h-1a.319.319,0,0,1-.3-.3V30.3c0-1.2-.6-1.8-1.5-1.8a2.353,2.353,0,0,0-2,1.1V34c0,.2-.1.3-.4.3H80a.319.319,0,0,1-.3-.3Z"/>
      <path id="Path_966" data-name="Path 966" d="M89.2,28.7h-.8a.319.319,0,0,1-.3-.3v-.8a.265.265,0,0,1,.3-.3h.8v-2a.319.319,0,0,1,.3-.3h1a.319.319,0,0,1,.3.3v2h1.8a.265.265,0,0,1,.3.3v.8a.265.265,0,0,1-.3.3H90.8v3.6c0,.6.2.7.6.7a2.9,2.9,0,0,0,1.1-.3c.2-.1.3,0,.4.2l.3.8c.1.2,0,.3-.2.4a5.729,5.729,0,0,1-2.1.5c-1.4,0-1.8-.9-1.8-2.1V28.7Z"/>
      <path id="Path_967" data-name="Path 967" d="M101.3,29.8a4.883,4.883,0,0,1,1.4.2c0-1.1-.2-1.6-1.1-1.6a8.475,8.475,0,0,0-2,.3c-.2.1-.3-.1-.4-.3l-.1-.7a.3.3,0,0,1,.2-.4,6.59,6.59,0,0,1,2.5-.4c2.3,0,2.5,1.4,2.5,3.2V34a.319.319,0,0,1-.3.3h-.5c-.2,0-.2-.1-.3-.3l-.2-.5a3.017,3.017,0,0,1-2.2.9A2.181,2.181,0,0,1,98.5,32C98.4,30.8,99.5,29.8,101.3,29.8Zm-.2,3.5a1.987,1.987,0,0,0,1.6-.9V31.2a2.352,2.352,0,0,0-1.3-.3c-.9,0-1.5.5-1.5,1.2A1.216,1.216,0,0,0,101.1,33.3Z"/>
      <path id="Path_968" data-name="Path 968" d="M106.6,27.5a.319.319,0,0,1,.3-.3h.5c.1,0,.3.1.3.2l.2.6a3.885,3.885,0,0,1,2.5-1c2.2,0,3,1.5,3,3.4V34a.319.319,0,0,1-.3.3h-1a.319.319,0,0,1-.3-.3V30.3c0-1.2-.6-1.8-1.5-1.8a2.353,2.353,0,0,0-2,1.1V34c0,.2-.1.3-.4.3H107a.319.319,0,0,1-.3-.3V27.5Z"/>
      <path id="Path_969" data-name="Path 969" d="M118.7,27a3.307,3.307,0,0,1,1.7.4V22.1a.319.319,0,0,1,.3-.3h1a.319.319,0,0,1,.3.3V34a.319.319,0,0,1-.3.3h-.5a.265.265,0,0,1-.3-.3l-.1-.5a3.342,3.342,0,0,1-2.3,1,3.6,3.6,0,0,1-3.4-3.8A3.739,3.739,0,0,1,118.7,27Zm.1,6a1.934,1.934,0,0,0,1.7-1.1V29a3.078,3.078,0,0,0-1.6-.4,2.206,2.206,0,0,0-.1,4.4Z"/>
      <path id="Path_970" data-name="Path 970" d="M130.4,21.9a.451.451,0,0,1,.3-.3h.3c.1,0,.3.1.3.2l3.8,9.2h.1l3.7-9.2c0-.1.2-.2.3-.2h.3a.319.319,0,0,1,.3.3L142,34c.1.3-.1.4-.3.4h-1.2a.265.265,0,0,1-.3-.3l-1.3-8h-.1l-3.2,8.3c0,.1-.1.2-.3.2H135c-.1,0-.3-.1-.3-.2l-3.3-8.3h-.1l-1.3,8a.451.451,0,0,1-.3.3h-1.2c-.3,0-.4-.2-.3-.4Z"/>
      <path id="Path_971" data-name="Path 971" d="M146.3,29.8a4.883,4.883,0,0,1,1.4.2c0-1.1-.2-1.6-1.1-1.6a8.475,8.475,0,0,0-2,.3c-.2.1-.3-.1-.4-.3l-.1-.7a.3.3,0,0,1,.2-.4,6.59,6.59,0,0,1,2.5-.4c2.3,0,2.5,1.4,2.5,3.2V34a.319.319,0,0,1-.3.3h-.5c-.2,0-.2-.1-.3-.3l-.2-.5a3.017,3.017,0,0,1-2.2.9,2.181,2.181,0,0,1-2.3-2.4C143.5,30.8,144.5,29.8,146.3,29.8Zm-.2,3.5a1.987,1.987,0,0,0,1.6-.9V31.2a2.352,2.352,0,0,0-1.3-.3c-.9,0-1.5.5-1.5,1.2A1.287,1.287,0,0,0,146.1,33.3Z"/>
      <path id="Path_972" data-name="Path 972" d="M151.4,23.2a1.1,1.1,0,0,1,1-1.1,1.11,1.11,0,0,1,1.1,1.1,1.028,1.028,0,0,1-1.1,1A.945.945,0,0,1,151.4,23.2Zm.2,4.3a.319.319,0,0,1,.3-.3h1a.319.319,0,0,1,.3.3V34a.319.319,0,0,1-.3.3h-1a.319.319,0,0,1-.3-.3Z"/>
      <path id="Path_973" data-name="Path 973" d="M155.6,27.5a.319.319,0,0,1,.3-.3h.5c.1,0,.3.1.3.2l.3.6a3.885,3.885,0,0,1,2.5-1c2.2,0,3,1.5,3,3.4V34a.319.319,0,0,1-.3.3h-1a.319.319,0,0,1-.3-.3V30.3c0-1.2-.6-1.8-1.5-1.8a2.353,2.353,0,0,0-2,1.1V34c0,.2-.1.3-.4.3h-1a.319.319,0,0,1-.3-.3V27.5Z"/>
      <path id="Path_974" data-name="Path 974" d="M165.2,28.7h-.8a.319.319,0,0,1-.3-.3v-.8a.265.265,0,0,1,.3-.3h.8v-2a.319.319,0,0,1,.3-.3h1a.319.319,0,0,1,.3.3v2h1.8a.265.265,0,0,1,.3.3v.8a.265.265,0,0,1-.3.3h-1.8v3.6c0,.6.2.7.6.7a2.9,2.9,0,0,0,1.1-.3c.2-.1.3,0,.4.2l.3.8c.1.2,0,.3-.2.4a5.729,5.729,0,0,1-2.1.5c-1.4,0-1.8-.9-1.8-2.1V28.7Z"/>
      <path id="Path_975" data-name="Path 975" d="M174,27a3.206,3.206,0,0,1,3.3,3.3v.5a.319.319,0,0,1-.3.3h-4.9a2.082,2.082,0,0,0,2.1,1.9,3.773,3.773,0,0,0,1.6-.5c.2-.1.3-.2.5,0l.5.7a.33.33,0,0,1,0,.5,3.947,3.947,0,0,1-2.7.9,3.573,3.573,0,0,1-3.6-3.8A3.5,3.5,0,0,1,174,27Zm1.7,3a1.735,1.735,0,0,0-1.7-1.6,1.759,1.759,0,0,0-1.8,1.6Z"/>
      <path id="Path_976" data-name="Path 976" d="M179.1,27.5a.319.319,0,0,1,.3-.3h.5c.1,0,.3.1.3.2l.2.6a3.885,3.885,0,0,1,2.5-1c2.2,0,3,1.5,3,3.4V34a.319.319,0,0,1-.3.3h-1a.319.319,0,0,1-.3-.3V30.3c0-1.2-.6-1.8-1.5-1.8a2.353,2.353,0,0,0-2,1.1V34c0,.2-.1.3-.4.3h-.9a.319.319,0,0,1-.3-.3V27.5Z"/>
      <path id="Path_977" data-name="Path 977" d="M190.6,29.8a4.883,4.883,0,0,1,1.4.2c0-1.1-.2-1.6-1.1-1.6a8.475,8.475,0,0,0-2,.3c-.2.1-.3-.1-.4-.3l-.1-.7a.3.3,0,0,1,.2-.4,6.59,6.59,0,0,1,2.5-.4c2.3,0,2.5,1.4,2.5,3.2V34a.319.319,0,0,1-.3.3h-.5c-.2,0-.2-.1-.3-.3l-.2-.5a3.017,3.017,0,0,1-2.2.9,2.181,2.181,0,0,1-2.3-2.4C187.7,30.8,188.7,29.8,190.6,29.8Zm-.2,3.5a1.987,1.987,0,0,0,1.6-.9V31.2a2.352,2.352,0,0,0-1.3-.3c-.9,0-1.5.5-1.5,1.2A1.216,1.216,0,0,0,190.4,33.3Z"/>
      <path id="Path_978" data-name="Path 978" d="M195.8,27.5a.319.319,0,0,1,.3-.3h.5c.1,0,.3.1.3.2l.2.6a3.885,3.885,0,0,1,2.5-1c2.2,0,3,1.5,3,3.4V34a.319.319,0,0,1-.3.3h-1a.319.319,0,0,1-.3-.3V30.3c0-1.2-.6-1.8-1.5-1.8a2.353,2.353,0,0,0-2,1.1V34c0,.2-.1.3-.4.3h-.9a.319.319,0,0,1-.3-.3V27.5Z"/>
      <path id="Path_979" data-name="Path 979" d="M208.2,27a3.317,3.317,0,0,1,2.6,1.3c.1.2.1.4-.1.5l-.6.5c-.2.2-.3.1-.5-.1a1.75,1.75,0,0,0-1.4-.7,2.2,2.2,0,0,0,0,4.4,2.482,2.482,0,0,0,1.7-.8c.2-.2.3-.2.5,0l.5.4c.2.1.3.3.1.5a3.2,3.2,0,0,1-2.8,1.5,3.8,3.8,0,0,1-3.8-3.8A3.846,3.846,0,0,1,208.2,27Z"/>
      <path id="Path_980" data-name="Path 980" d="M215.9,27a3.206,3.206,0,0,1,3.3,3.3v.5a.319.319,0,0,1-.3.3H214a2.082,2.082,0,0,0,2.1,1.9,3.773,3.773,0,0,0,1.6-.5c.2-.1.3-.2.5,0l.5.7a.33.33,0,0,1,0,.5,3.947,3.947,0,0,1-2.7.9,3.573,3.573,0,0,1-3.6-3.8A3.441,3.441,0,0,1,215.9,27Zm1.6,3a1.735,1.735,0,0,0-1.7-1.6A1.759,1.759,0,0,0,214,30Z"/>
    </g>
  </g>
</svg>
