<svg xmlns="http://www.w3.org/2000/svg" xmlns:xlink="http://www.w3.org/1999/xlink" viewBox="2239 2230 363.232 381.56">
  <defs>
    <style>
      .cls-1 {
        fill: #fff;
      }

      .cls-2 {
        fill: #f4f4f4;
      }

      .cls-3 {
        fill: #f7f8fb;
      }

      .cls-4 {
        fill: #000078;
      }

      .cls-5 {
        fill: #ff7c5c;
      }

      .cls-6, .cls-7, .cls-8 {
        fill: #0071ef;
      }

      .cls-6 {
        opacity: 0.5;
      }

      .cls-7 {
        opacity: 0.2;
      }

      .cls-9 {
        filter: url(#Rectangle_34);
      }
    </style>
    <filter id="Rectangle_34" x="2239" y="2230" width="363.232" height="381.56" filterUnits="userSpaceOnUse">
      <feOffset dy="30" input="SourceAlpha"/>
      <feGaussianBlur stdDeviation="10" result="blur"/>
      <feFlood flood-color="#b1b1b1" flood-opacity="0.161"/>
      <feComposite operator="in" in2="blur"/>
      <feComposite in="SourceGraphic"/>
    </filter>
  </defs>
  <g id="Group_197" data-name="Group 197" transform="translate(1990)">
    <g class="cls-9" transform="matrix(1, 0, 0, 1, -1990, 0)">
      <rect id="Rectangle_34-2" data-name="Rectangle 34" class="cls-1" width="303.232" height="321.56" rx="10" transform="translate(2269 2230)"/>
    </g>
    <g id="Group_184" data-name="Group 184" transform="translate(371.1 2308.1)">
      <g id="Group_183" data-name="Group 183" transform="translate(1.9 1.852)">
        <g id="Group_182" data-name="Group 182">
          <g id="Group_179" data-name="Group 179" transform="translate(0.049 42.105)">
            <g id="Group_178" data-name="Group 178">
              <path id="Path_450" data-name="Path 450" class="cls-2" d="M120.023,129.134a31.659,31.659,0,0,0-11.807-20.443A30.205,30.205,0,0,0,91.579,102.1c-.732-.049-.781-.146-.781-.829.049-2,.049-4.05.049-6.05V93.81c0-2.488-1.122-3.61-3.659-3.61H7.808c-2.439,0-3.61,1.122-3.708,3.562v25.614c0,3.123,1.122,4.245,4.293,4.245H58.3l-1.61,8.1H8.54c-3.415,0-4.44,1.025-4.44,4.44v24.053c0,2.293.2,3.659.976,4.44s2.1.976,4.391.976h34.3c13.71,0,27.615,0,41.325-.049a54.379,54.379,0,0,0,8.294-.585,30.162,30.162,0,0,0,18.491-9.9C118.706,147.625,121.438,138.892,120.023,129.134ZM90.945,108.252a24.55,24.55,0,0,1,18.2,10.441,24.725,24.725,0,0,0-16.247-8,25.588,25.588,0,0,0-23.37,40.056,25.266,25.266,0,0,1-6.489-18,25.661,25.661,0,0,1,8.587-18.2A25.373,25.373,0,0,1,90.945,108.252Zm-22.3,50.79a32.542,32.542,0,0,1-6-7.026,32.655,32.655,0,0,0,6.733,7.026ZM10.54,117.522V96.835a.844.844,0,0,1,.049-.342.592.592,0,0,1,.244-.049H83.187a8.343,8.343,0,0,1,1.269.049,7.967,7.967,0,0,1,.049,1.22v.2h-72.7c-.2,0-.244,0-.244.049a.844.844,0,0,0-.049.342v19.223H10.54Zm0,21.272c0-.439.049-.537.049-.488a1.166,1.166,0,0,1,.439-.049H57.134l.293,1.464H12a1.166,1.166,0,0,0-.439.049s-.049.049-.049.488c.049,3.562.049,7.221,0,10.734v8.05H10.54v-9.514C10.54,146.015,10.54,142.4,10.54,138.794Z" transform="translate(-4.1 -90.2)"/>
            </g>
          </g>
          <g id="Group_181" data-name="Group 181">
            <g id="Group_180" data-name="Group 180">
              <path id="Path_451" data-name="Path 451" class="cls-2" d="M8.1,37.857H86.649c2.83,0,4.1-1.317,4.1-4.2V8.34c0-3.464-.976-4.44-4.44-4.44l-48.74.049H8.05C5.171,3.949,4,5.071,4,8V33.857C4,36.686,5.22,37.857,8.1,37.857Zm2.391-26.834a1.166,1.166,0,0,1,.049-.439,1.732,1.732,0,0,1,.488-.049H84.307v.976H12a2.213,2.213,0,0,0-.488.049,1.166,1.166,0,0,0-.049.439c.049,6.928.049,13.271,0,19.369h-.39a1.95,1.95,0,0,1-.537-.049h0a1.35,1.35,0,0,1-.049-.488C10.489,24.587,10.489,18.146,10.489,11.023Z" transform="translate(-4 -3.9)"/>
            </g>
          </g>
        </g>
      </g>
      <path id="Path_452" data-name="Path 452" class="cls-3" d="M15.249,15.988a1.166,1.166,0,0,1,.049-.439,1.732,1.732,0,0,1,.488-.049H89.067V36.284c-.244,0-.488.049-.781.049h-72.5a1.95,1.95,0,0,1-.537-.049h0A1.35,1.35,0,0,1,15.2,35.8C15.249,29.551,15.249,23.111,15.249,15.988Z" transform="translate(-7.835 -7.989)"/>
      <path id="Path_453" data-name="Path 453" class="cls-3" d="M15.3,102.39a.844.844,0,0,1,.049-.342.592.592,0,0,1,.244-.049H87.947a8.345,8.345,0,0,1,1.269.049,7.967,7.967,0,0,1,.049,1.22V106a6.317,6.317,0,0,1-.1,1.659,4.751,4.751,0,0,1-1.561.39c-8.782,1.61-15.905,6.44-21.126,14.3a1.49,1.49,0,0,1-.976.634c-15.466.049-31.225.049-46.447.049H15.69a.83.83,0,0,1-.342-.049v-4.245C15.3,113.319,15.3,107.855,15.3,102.39Z" transform="translate(-7.886 -52.286)"/>
      <path id="Path_454" data-name="Path 454" class="cls-3" d="M15.3,188.237c0-.439.049-.537.049-.488a1.167,1.167,0,0,1,.439-.049H61.894a31.836,31.836,0,0,0,12.295,20.784H15.3V188.237Z" transform="translate(-7.886 -96.174)"/>
      <path id="Path_455" data-name="Path 455" class="cls-3" d="M124.883,152.582a25.661,25.661,0,0,1,8.587-18.2,25.372,25.372,0,0,1,19.321-6.294c13.271,1.122,23.077,12.2,22.833,25.81A25.224,25.224,0,0,1,150.3,178.977h-.2a25.261,25.261,0,0,1-25.224-26.4Z" transform="translate(-63.996 -65.593)"/>
      <path id="Path_456" data-name="Path 456" class="cls-4" d="M.925,160.65c.781.781,2.1.976,4.391.976h34.3c13.71,0,27.615,0,41.325-.049a54.376,54.376,0,0,0,8.294-.585,30.161,30.161,0,0,0,18.491-9.9c6.83-7.562,9.563-16.344,8.1-26.053a31.659,31.659,0,0,0-11.807-20.443A30.205,30.205,0,0,0,87.379,98c-.732-.049-.781-.146-.781-.829.049-2,.049-4.05.049-6.05V89.71c0-2.488-1.122-3.61-3.659-3.61H3.608C1.169,86.1,0,87.222-.1,89.662v25.614c0,3.123,1.122,4.245,4.293,4.245H54.1l-1.61,8.1H4.34c-3.415,0-4.44,1.025-4.44,4.44v24.053c.049,2.391.244,3.757,1.025,4.537M6.438,92.784a.844.844,0,0,1,.049-.342.592.592,0,0,1,.244-.049H79.085a8.345,8.345,0,0,1,1.269.049,7.967,7.967,0,0,1,.049,1.22v2.732a6.317,6.317,0,0,1-.1,1.659,4.752,4.752,0,0,1-1.561.39c-8.782,1.61-15.905,6.44-21.126,14.3a1.49,1.49,0,0,1-.976.634c-15.466.049-31.225.049-46.447.049H6.828a.83.83,0,0,1-.342-.049v-4.245C6.438,103.713,6.438,98.249,6.438,92.784Zm52.5,35.909a25.661,25.661,0,0,1,8.587-18.2A25.372,25.372,0,0,1,86.842,104.2c13.271,1.122,23.077,12.2,22.833,25.81a25.224,25.224,0,0,1-25.322,25.078h-.2a25.261,25.261,0,0,1-25.224-26.4Zm-52.5,6.05c0-.439.049-.537.049-.488a1.166,1.166,0,0,1,.439-.049H53.032A31.836,31.836,0,0,0,65.326,154.99H6.438V134.743Z" transform="translate(0 -44.144)"/>
      <path id="Path_457" data-name="Path 457" class="cls-4" d="M4.1,33.857H82.649c2.83,0,4.1-1.317,4.1-4.2V4.34c0-3.464-.976-4.44-4.44-4.44l-48.74.049H4.05C1.171-.051,0,1.071,0,4V29.857C0,32.686,1.22,33.857,4.1,33.857ZM6.489,7.023a1.166,1.166,0,0,1,.049-.439,1.732,1.732,0,0,1,.488-.049H80.307V27.32c-.244,0-.488.049-.781.049H7.026a1.95,1.95,0,0,1-.537-.049h0a1.35,1.35,0,0,1-.049-.488C6.489,20.587,6.489,14.146,6.489,7.023Z" transform="translate(-0.051)"/>
      <path id="Path_458" data-name="Path 458" class="cls-5" d="M135.617,160.762l1.9,3.366c1.512,2.683,3.122,5.464,4.684,8.2a3.822,3.822,0,0,0,2.537,1.952,1.66,1.66,0,0,0,.488.049,3.038,3.038,0,0,0,1.952-.732l23.419-19.76a3.41,3.41,0,0,0,1.317-2.342,3.226,3.226,0,0,0-5.367-2.586c-.878.732-1.805,1.464-2.683,2.2-.439.342-.829.683-1.269,1.073l-16.491,13.807a3.639,3.639,0,0,1-.342-.585c-.537-.927-1.073-1.854-1.61-2.732-1.073-1.9-2.244-3.9-3.366-5.806a3.119,3.119,0,0,0-4.293-1.22,3.231,3.231,0,0,0-1.366,4.342C135.275,160.274,135.47,160.518,135.617,160.762Z" transform="translate(-69.071 -75.871)"/>
      <path id="Path_459" data-name="Path 459" class="cls-6" d="M28.722,120.309c.927,0,1.9.049,2.83.049H43.017a3.18,3.18,0,0,0,3.415-3.22,3.115,3.115,0,0,0-3.318-3.171c-4.684-.049-9.66-.049-14.588.049a3.853,3.853,0,0,0-2.83,1.61,3.061,3.061,0,0,0-.146,3.025A3.889,3.889,0,0,0,28.722,120.309Z" transform="translate(-12.966 -58.398)"/>
      <path id="Path_460" data-name="Path 460" class="cls-7" d="M28.91,206.053H42.962a3.718,3.718,0,0,0,2.732-1.025,2.765,2.765,0,0,0,.829-2.2c0-1.854-1.415-3.123-3.513-3.171-4.781-.049-9.563-.049-14.2,0a3.637,3.637,0,0,0-2.683,1.073,3.169,3.169,0,0,0-.829,2.293C25.4,204.15,25.934,206.053,28.91,206.053Z" transform="translate(-13.008 -102.281)"/>
      <path id="Path_461" data-name="Path 461" class="cls-8" d="M28.859,34.391c2.244,0,4.537.049,6.83.049,2.391,0,4.83,0,7.318-.049a3.529,3.529,0,0,0,2.683-1.025,2.87,2.87,0,0,0,.829-2.244c-.049-1.952-1.366-3.074-3.659-3.123H28.907c-2.147.049-3.464,1.122-3.513,3.074a2.977,2.977,0,0,0,.829,2.293A3.683,3.683,0,0,0,28.859,34.391Z" transform="translate(-13.053 -14.39)"/>
      <path id="Path_462" data-name="Path 462" class="cls-8" d="M132.84,34.28h0a4.446,4.446,0,0,0,4.44-4.391,4.555,4.555,0,0,0-4.391-4.489h-.1a4.277,4.277,0,0,0-3.074,1.269,4.459,4.459,0,0,0-1.317,3.22A4.414,4.414,0,0,0,132.84,34.28Z" transform="translate(-65.806 -13.059)"/>
    </g>
    <g id="Group_305" data-name="Group 305" transform="translate(378 2490)">
      <path id="Path_981" data-name="Path 981" d="M0,.3A.319.319,0,0,1,.3,0H4.4a6.3,6.3,0,1,1,0,12.6H.3a.319.319,0,0,1-.3-.3ZM4.2,10.9A4.467,4.467,0,0,0,8.8,6.3,4.467,4.467,0,0,0,4.2,1.7H1.8v9.2Z"/>
      <path id="Path_982" data-name="Path 982" d="M14.9,8a4.883,4.883,0,0,1,1.4.2c0-1.1-.2-1.6-1.1-1.6a8.475,8.475,0,0,0-2,.3c-.2.1-.3-.1-.4-.3L12.6,6a.3.3,0,0,1,.2-.4,11.062,11.062,0,0,1,2.5-.4c2.3,0,2.5,1.4,2.5,3.2v3.8a.319.319,0,0,1-.3.3H17c-.2,0-.2-.1-.3-.3l-.2-.5a3.017,3.017,0,0,1-2.2.9A2.181,2.181,0,0,1,12,10.2C12,9.1,13,8,14.9,8Zm-.2,3.5a1.987,1.987,0,0,0,1.6-.9V9.5A2.352,2.352,0,0,0,15,9.2c-.9,0-1.5.5-1.5,1.2A1.2,1.2,0,0,0,14.7,11.5Z"/>
      <path id="Path_983" data-name="Path 983" d="M20.6,6.9h-.8a.319.319,0,0,1-.3-.3V5.7a.265.265,0,0,1,.3-.3h.8v-2a.319.319,0,0,1,.3-.3h1a.319.319,0,0,1,.3.3v2H24a.265.265,0,0,1,.3.3v.8a.265.265,0,0,1-.3.3H22.2v3.6c0,.6.2.7.6.7a2.9,2.9,0,0,0,1.1-.3c.2-.1.3,0,.4.2l.3.8c.1.2,0,.3-.2.4a5.729,5.729,0,0,1-2.1.5c-1.4,0-1.8-.9-1.8-2.1V6.9Z"/>
      <path id="Path_984" data-name="Path 984" d="M28.7,8a4.883,4.883,0,0,1,1.4.2c0-1.1-.2-1.6-1.1-1.6a8.475,8.475,0,0,0-2,.3c-.2.1-.3-.1-.4-.3L26.5,6a.3.3,0,0,1,.2-.4,6.59,6.59,0,0,1,2.5-.4c2.3,0,2.5,1.4,2.5,3.2v3.8a.319.319,0,0,1-.3.3h-.5c-.2,0-.2-.1-.3-.3l-.2-.5a3.017,3.017,0,0,1-2.2.9,2.181,2.181,0,0,1-2.3-2.4C25.8,9.1,26.9,8,28.7,8Zm-.2,3.5a1.987,1.987,0,0,0,1.6-.9V9.5a2.352,2.352,0,0,0-1.3-.3c-.9,0-1.5.5-1.5,1.2A1.2,1.2,0,0,0,28.5,11.5Z"/>
      <path id="Path_985" data-name="Path 985" d="M36.8.5a.338.338,0,0,1,.3-.5h1.3c.1,0,.3.1.3.2l4,8.9h.1l4-8.9c0-.1.1-.2.3-.2h1.3c.3,0,.4.2.3.5L43.2,12.6c-.1.1-.2.2-.3.2h-.2c-.1,0-.3-.1-.3-.2Z"/>
      <path id="Path_986" data-name="Path 986" d="M50.6,8a3.436,3.436,0,0,1,1.4.3c0-1.1-.2-1.6-1.1-1.6a8.475,8.475,0,0,0-2,.3c-.2.1-.3-.1-.4-.3L48.3,6a.3.3,0,0,1,.2-.4A6.59,6.59,0,0,1,51,5.2c2.3,0,2.5,1.4,2.5,3.2v3.8a.319.319,0,0,1-.3.3h-.5c-.2,0-.2-.1-.3-.3l-.2-.5a3.017,3.017,0,0,1-2.2.9,2.181,2.181,0,0,1-2.3-2.4C47.7,9.1,48.8,8,50.6,8Zm-.2,3.5a1.987,1.987,0,0,0,1.6-.9V9.5a2.352,2.352,0,0,0-1.3-.3c-.9,0-1.5.5-1.5,1.2A1.2,1.2,0,0,0,50.4,11.5Z"/>
      <path id="Path_987" data-name="Path 987" d="M55.9.3a.319.319,0,0,1,.3-.3h1a.319.319,0,0,1,.3.3V12.2a.319.319,0,0,1-.3.3h-1a.319.319,0,0,1-.3-.3Z"/>
      <path id="Path_988" data-name="Path 988" d="M59.7,1.4a1.1,1.1,0,0,1,1-1.1,1.11,1.11,0,0,1,1.1,1.1,1.028,1.028,0,0,1-1.1,1A.942.942,0,0,1,59.7,1.4Zm.2,4.3a.319.319,0,0,1,.3-.3h1a.319.319,0,0,1,.3.3v6.5a.319.319,0,0,1-.3.3h-1a.319.319,0,0,1-.3-.3Z"/>
      <path id="Path_989" data-name="Path 989" d="M67,5.2a3.307,3.307,0,0,1,1.7.4V.3A.451.451,0,0,1,69,0h1a.319.319,0,0,1,.3.3V12.2a.319.319,0,0,1-.3.3h-.5a.265.265,0,0,1-.3-.3l-.1-.5a3.342,3.342,0,0,1-2.3,1,3.6,3.6,0,0,1-3.4-3.8A3.671,3.671,0,0,1,67,5.2Zm0,6a1.934,1.934,0,0,0,1.7-1.1V7.2a3.078,3.078,0,0,0-1.6-.4A2.135,2.135,0,0,0,65,9,2.191,2.191,0,0,0,67,11.2Z"/>
      <path id="Path_990" data-name="Path 990" d="M75.1,8a4.883,4.883,0,0,1,1.4.2c0-1.1-.2-1.6-1.1-1.6a8.475,8.475,0,0,0-2,.3c-.2.1-.3-.1-.4-.3L72.9,6a.3.3,0,0,1,.2-.4,6.59,6.59,0,0,1,2.5-.4c2.3,0,2.5,1.4,2.5,3.2v3.8a.319.319,0,0,1-.3.3h-.5c-.2,0-.2-.1-.3-.3l-.2-.5a3.017,3.017,0,0,1-2.2.9,2.181,2.181,0,0,1-2.3-2.4C72.3,9.1,73.3,8,75.1,8Zm-.2,3.5a1.987,1.987,0,0,0,1.6-.9V9.5a2.352,2.352,0,0,0-1.3-.3c-.9,0-1.5.5-1.5,1.2A1.2,1.2,0,0,0,74.9,11.5Z"/>
      <path id="Path_991" data-name="Path 991" d="M80.9,6.9h-.8a.319.319,0,0,1-.3-.3V5.7a.265.265,0,0,1,.3-.3h.8v-2a.319.319,0,0,1,.3-.3h1a.319.319,0,0,1,.3.3v2h1.8a.265.265,0,0,1,.3.3v.8a.265.265,0,0,1-.3.3H82.5v3.6c0,.6.2.7.6.7a2.9,2.9,0,0,0,1.1-.3c.2-.1.3,0,.4.2l.3.8c.1.2,0,.3-.2.4a5.729,5.729,0,0,1-2.1.5c-1.4,0-1.8-.9-1.8-2.1V6.9Z"/>
      <path id="Path_992" data-name="Path 992" d="M86.4,1.4a1.1,1.1,0,0,1,1-1.1,1.11,1.11,0,0,1,1.1,1.1,1.028,1.028,0,0,1-1.1,1A.942.942,0,0,1,86.4,1.4Zm.2,4.3a.319.319,0,0,1,.3-.3h1a.319.319,0,0,1,.3.3v6.5a.319.319,0,0,1-.3.3h-1a.319.319,0,0,1-.3-.3Z"/>
      <path id="Path_993" data-name="Path 993" d="M93.8,5.2A3.7,3.7,0,0,1,97.4,9a3.605,3.605,0,1,1-7.2,0A3.573,3.573,0,0,1,93.8,5.2Zm0,6a2.15,2.15,0,0,0,2-2.3,2.009,2.009,0,1,0-4,0A2.031,2.031,0,0,0,93.8,11.2Z"/>
      <path id="Path_994" data-name="Path 994" d="M99.2,5.7a.319.319,0,0,1,.3-.3h.5c.1,0,.3.1.3.2l.2.6a3.885,3.885,0,0,1,2.5-1c2.2,0,3,1.5,3,3.4v3.6a.319.319,0,0,1-.3.3h-1a.319.319,0,0,1-.3-.3V8.6c0-1.2-.6-1.8-1.5-1.8a2.353,2.353,0,0,0-2,1.1v4.4c0,.2-.1.3-.4.3h-.9a.319.319,0,0,1-.3-.3V5.7Z"/>
    </g>
  </g>
</svg>
