<svg xmlns="http://www.w3.org/2000/svg" xmlns:xlink="http://www.w3.org/1999/xlink" viewBox="2239 1366 363.232 381.56">
  <defs>
    <style>
      .cls-1 {
        fill: #fff;
      }

      .cls-2 {
        fill: #f4f4f4;
      }

      .cls-3 {
        fill: #ff7c5c;
      }

      .cls-4 {
        fill: #f7f8fb;
      }

      .cls-5 {
        fill: #000078;
      }

      .cls-6, .cls-7, .cls-8 {
        fill: #0071ef;
      }

      .cls-7 {
        opacity: 0.2;
      }

      .cls-8 {
        opacity: 0.5;
      }

      .cls-9 {
        filter: url(#Rectangle_34);
      }
    </style>
    <filter id="Rectangle_34" x="2239" y="1366" width="363.232" height="381.56" filterUnits="userSpaceOnUse">
      <feOffset dy="30" input="SourceAlpha"/>
      <feGaussianBlur stdDeviation="10" result="blur"/>
      <feFlood flood-color="#b1b1b1" flood-opacity="0.161"/>
      <feComposite operator="in" in2="blur"/>
      <feComposite in="SourceGraphic"/>
    </filter>
  </defs>
  <g id="Group_195" data-name="Group 195" transform="translate(1990)">
    <g class="cls-9" transform="matrix(1, 0, 0, 1, -1990, 0)">
      <rect id="Rectangle_34-2" data-name="Rectangle 34" class="cls-1" width="303.232" height="321.56" rx="10" transform="translate(2269 1366)"/>
    </g>
    <g id="Group_176" data-name="Group 176" transform="translate(389 1444.192)">
      <path id="Path_433" data-name="Path 433" class="cls-2" d="M85.232,45.97c0-3.511-1.987-5.5-5.531-5.5H64.5a5.013,5.013,0,0,0-.994.066,2.464,2.464,0,0,0-2.053,1.954,2.22,2.22,0,0,0,1.093,2.418,4.893,4.893,0,0,0,1.821.431c4.935.033,9.869.033,14.8.033h.994v1.689H57.347c0-5.663,0-11.326-.033-17.023,0-2.285,1.159-3.974,3.775-3.809,1.325.1,2.683.033,4.04,0a1.016,1.016,0,0,1,1.126.7A7.285,7.285,0,0,0,74.5,30.9,7.4,7.4,0,0,0,74.535,16.5a7.342,7.342,0,0,0-8.478,4.14,1.083,1.083,0,0,1-.795.5c-1.523.033-3.014.066-4.537,0a8.181,8.181,0,0,0-8.379,8.445c.132,5.829.033,11.624.033,17.453h-5.8V17.257c3.113-1.457,4.769-3.742,4.868-6.624A7.337,7.337,0,0,0,37.145,8.05a7.183,7.183,0,0,0,3.775,8.743,1.3,1.3,0,0,1,.861,1.391c0,9.6,0,19.242-.033,28.846H35.754V29.411c-.033-4.438-2.716-7.717-6.988-8.28a31.375,31.375,0,0,0-5.3-.066,1.657,1.657,0,0,1-1.788-1.06,7.368,7.368,0,1,0,.265,6.756.966.966,0,0,1,.994-.662c1.523.033,3.08-.033,4.637.033a4.85,4.85,0,0,1,1.689.4,3.08,3.08,0,0,1,1.557,3.113V47.03H9.889V91.9H7.935V45.341H24.1a2.5,2.5,0,0,0,2.716-2.451,2.4,2.4,0,0,0-2.683-2.385c-5.365-.033-10.7-.033-16.062,0C4.954,40.473,3,42.526,3,45.639V91.607a5.194,5.194,0,0,0,.132,1.424A4.914,4.914,0,0,0,8.3,96.84H41.616v9.372H28.236a6.056,6.056,0,0,0-1.093.066,2.387,2.387,0,0,0-1.689,3.544,2.452,2.452,0,0,0,2.252,1.225H60.824a2.531,2.531,0,0,0,2.086-1.623,2.218,2.218,0,0,0-.53-2.418,2.77,2.77,0,0,0-2.219-.795H47.544c-.331,0-.629-.033-.994-.066V96.84H79.8a6.561,6.561,0,0,0,2.517-.464h1.788V95.084A5.755,5.755,0,0,0,85.3,91.342Q85.2,68.64,85.232,45.97ZM72.879,21.165a2.446,2.446,0,0,1,2.285,1.722,2.265,2.265,0,0,0-1.557-.6,2.406,2.406,0,0,0-2.517,2.385,2.488,2.488,0,0,0,.166.861,2.516,2.516,0,0,1-.828-1.888A2.474,2.474,0,0,1,72.879,21.165ZM41.649,10.3A2.387,2.387,0,0,1,46.02,8.944a2.529,2.529,0,0,0-.894-.2,2.406,2.406,0,0,0-2.517,2.385,2.221,2.221,0,0,0,.5,1.457A2.589,2.589,0,0,1,41.649,10.3ZM12.8,23.682a2.438,2.438,0,0,1,4.239-1.59,2.817,2.817,0,0,0-.729-.132A2.406,2.406,0,0,0,13.8,24.344a2.365,2.365,0,0,0,.629,1.623A2.4,2.4,0,0,1,12.8,23.682Z" transform="translate(-2.006 -2.006)"/>
      <path id="Path_434" data-name="Path 434" class="cls-3" d="M34.918,62.1a2.425,2.425,0,0,0,2.451-2.351A2.382,2.382,0,0,0,35.017,57.3,2.406,2.406,0,0,0,32.5,59.683,2.476,2.476,0,0,0,34.918,62.1Z" transform="translate(-21.737 -38.339)"/>
      <path id="Path_435" data-name="Path 435" class="cls-3" d="M121.918,22.1a2.425,2.425,0,0,0,2.451-2.351,2.382,2.382,0,0,0-2.351-2.451,2.406,2.406,0,0,0-2.517,2.385A2.476,2.476,0,0,0,121.918,22.1Z" transform="translate(-79.924 -11.586)"/>
      <path id="Path_436" data-name="Path 436" class="cls-3" d="M207.918,63.1a2.425,2.425,0,0,0,2.451-2.351,2.382,2.382,0,0,0-2.351-2.451,2.406,2.406,0,0,0-2.517,2.384A2.476,2.476,0,0,0,207.918,63.1Z" transform="translate(-137.442 -39.008)"/>
      <rect id="Rectangle_53" data-name="Rectangle 53" class="cls-4" width="74.185" height="49.346" transform="translate(6.889 44.03)"/>
      <path id="Path_437" data-name="Path 437" class="cls-5" d="M38.583,178.773V169.4H5.266A4.914,4.914,0,0,1,.1,165.592,9.484,9.484,0,0,1,0,164.2V118.233a4.824,4.824,0,0,1,5.067-5.166c5.365-.033,10.7-.033,16.062,0a2.419,2.419,0,0,1,2.683,2.384A2.516,2.516,0,0,1,21.1,117.9H4.935v46.564H77.2V117.9H76.2c-4.935,0-9.869,0-14.8-.033a3.79,3.79,0,0,1-1.821-.431,2.133,2.133,0,0,1-1.093-2.418,2.352,2.352,0,0,1,2.053-1.954c.331-.033.662-.066.994-.066h15.2c3.544,0,5.531,1.987,5.531,5.5v45.372c0,3.477-2.02,5.5-5.464,5.5H43.55v9.306c.331.033.662.066.994.066H57.162a2.664,2.664,0,0,1,2.219.795,2.193,2.193,0,0,1,.53,2.418,2.446,2.446,0,0,1-2.086,1.623,1.865,1.865,0,0,1-.431,0H24.706a2.452,2.452,0,0,1-2.252-1.225,2.387,2.387,0,0,1,1.689-3.544,6.058,6.058,0,0,1,1.093-.066H37.523A9.99,9.99,0,0,0,38.583,178.773Z" transform="translate(0 -75.594)"/>
      <path id="Path_438" data-name="Path 438" class="cls-6" d="M111.671,14.257V74.9a2.578,2.578,0,0,1-1.457,2.683,2.341,2.341,0,0,1-3.279-1.49,5.557,5.557,0,0,1-.132-1.49V15.184a1.3,1.3,0,0,0-.861-1.391,7.183,7.183,0,0,1-3.775-8.743,7.337,7.337,0,0,1,14.307,2.583C116.44,10.514,114.784,12.8,111.671,14.257Zm0-6.756a2.729,2.729,0,0,0-2.517-2.649,2.5,2.5,0,0,0-2.418,2.418,2.559,2.559,0,0,0,2.517,2.517A2.428,2.428,0,0,0,111.671,7.5Z" transform="translate(-68.088)"/>
      <path id="Path_439" data-name="Path 439" class="cls-7" d="M149.029,71.624c0-6.027.1-12.055-.033-18.082a8.135,8.135,0,0,1,8.379-8.412c1.523.066,3.014.033,4.537,0a1.148,1.148,0,0,0,.795-.5,7.305,7.305,0,0,1,8.478-4.14,7.4,7.4,0,0,1-.033,14.406,7.246,7.246,0,0,1-8.246-3.974,1.037,1.037,0,0,0-1.126-.7c-1.358.033-2.683.1-4.04,0-2.616-.166-3.775,1.49-3.775,3.809C154.03,66.027,154,78.015,154,90v.828a2.5,2.5,0,0,1-2.351,2.649A2.461,2.461,0,0,1,149.062,91a8.659,8.659,0,0,1,0-.927C149.029,83.877,149.029,77.75,149.029,71.624Zm20.434-21.56a2.425,2.425,0,0,0,2.451-2.351,2.491,2.491,0,0,0-2.418-2.583,2.468,2.468,0,0,0-.033,4.935Z" transform="translate(-99.65 -26.964)"/>
      <path id="Path_440" data-name="Path 440" class="cls-8" d="M42.566,71.328v18.48a7.808,7.808,0,0,1-.066,1.258,2.446,2.446,0,0,1-2.55,1.954A2.4,2.4,0,0,1,37.631,90.8a8.662,8.662,0,0,1,0-.927V53.411A3.133,3.133,0,0,0,36.075,50.3a3.726,3.726,0,0,0-1.689-.4c-1.523-.066-3.08,0-4.637-.033a.966.966,0,0,0-.994.662,7.377,7.377,0,1,1-.265-6.756,1.7,1.7,0,0,0,1.788,1.06,31.464,31.464,0,0,1,5.3.066c4.272.563,6.988,3.842,6.988,8.28ZM22.033,49.868a2.425,2.425,0,0,0,2.451-2.351,2.382,2.382,0,0,0-2.351-2.451,2.406,2.406,0,0,0-2.517,2.385A2.476,2.476,0,0,0,22.033,49.868Z" transform="translate(-9.845 -26.769)"/>
    </g>
    <g id="Group_307" data-name="Group 307" transform="translate(374 1626)">
      <path id="Path_1010" data-name="Path 1010" d="M0,.3A.319.319,0,0,1,.3,0H4.4a6.3,6.3,0,1,1,0,12.6H.3a.319.319,0,0,1-.3-.3ZM4.2,10.9A4.467,4.467,0,0,0,8.8,6.3,4.467,4.467,0,0,0,4.2,1.7H1.8v9.2Z"/>
      <path id="Path_1011" data-name="Path 1011" d="M14.9,8a4.883,4.883,0,0,1,1.4.2c0-1.1-.2-1.6-1.1-1.6a8.475,8.475,0,0,0-2,.3c-.2.1-.3-.1-.4-.3L12.6,6a.3.3,0,0,1,.2-.4,11.062,11.062,0,0,1,2.5-.4c2.3,0,2.5,1.4,2.5,3.2v3.8a.319.319,0,0,1-.3.3H17c-.2,0-.2-.1-.3-.3l-.2-.5a3.017,3.017,0,0,1-2.2.9A2.181,2.181,0,0,1,12,10.2C12,9.1,13,8,14.9,8Zm-.2,3.5a1.987,1.987,0,0,0,1.6-.9V9.5A2.352,2.352,0,0,0,15,9.2c-.9,0-1.5.5-1.5,1.2A1.2,1.2,0,0,0,14.7,11.5Z"/>
      <path id="Path_1012" data-name="Path 1012" d="M20.6,6.9h-.8a.319.319,0,0,1-.3-.3V5.7a.265.265,0,0,1,.3-.3h.8v-2a.319.319,0,0,1,.3-.3h1a.319.319,0,0,1,.3.3v2H24a.265.265,0,0,1,.3.3v.8a.265.265,0,0,1-.3.3H22.2v3.6c0,.6.2.7.6.7a2.9,2.9,0,0,0,1.1-.3c.2-.1.3,0,.4.2l.3.8c.1.2,0,.3-.2.4a5.729,5.729,0,0,1-2.1.5c-1.4,0-1.8-.9-1.8-2.1V6.9Z"/>
      <path id="Path_1013" data-name="Path 1013" d="M28.7,8a4.883,4.883,0,0,1,1.4.2c0-1.1-.2-1.6-1.1-1.6a8.475,8.475,0,0,0-2,.3c-.2.1-.3-.1-.4-.3L26.5,6a.3.3,0,0,1,.2-.4,6.59,6.59,0,0,1,2.5-.4c2.3,0,2.5,1.4,2.5,3.2v3.8a.319.319,0,0,1-.3.3h-.5c-.2,0-.2-.1-.3-.3l-.2-.5a3.017,3.017,0,0,1-2.2.9,2.181,2.181,0,0,1-2.3-2.4C25.8,9.1,26.9,8,28.7,8Zm-.2,3.5a1.987,1.987,0,0,0,1.6-.9V9.5a2.352,2.352,0,0,0-1.3-.3c-.9,0-1.5.5-1.5,1.2A1.2,1.2,0,0,0,28.5,11.5Z"/>
      <path id="Path_1014" data-name="Path 1014" d="M38.5.3a.265.265,0,0,1,.3-.3H46a.319.319,0,0,1,.3.3v1a.265.265,0,0,1-.3.3H40.3V5.3h4.8a.319.319,0,0,1,.3.3v1a.319.319,0,0,1-.3.3H40.3v3.9H46a.319.319,0,0,1,.3.3v1a.265.265,0,0,1-.3.3H38.8a.319.319,0,0,1-.3-.3Z"/>
      <path id="Path_1015" data-name="Path 1015" d="M48.3,5.7a.319.319,0,0,1,.3-.3h.5c.1,0,.3.1.3.2l.2.6a3.885,3.885,0,0,1,2.5-1c2.2,0,3,1.5,3,3.4v3.6a.319.319,0,0,1-.3.3h-1a.319.319,0,0,1-.3-.3V8.6c0-1.2-.6-1.8-1.5-1.8a2.353,2.353,0,0,0-2,1.1v4.4c0,.2-.1.3-.4.3h-.9a.319.319,0,0,1-.3-.3V5.7Z"/>
      <path id="Path_1016" data-name="Path 1016" d="M60.6,5.2a3.317,3.317,0,0,1,2.6,1.3c.1.2.1.4-.1.5l-.6.5c-.2.2-.3.1-.5-.1a1.75,1.75,0,0,0-1.4-.7,2.135,2.135,0,0,0-2.1,2.2,2.135,2.135,0,0,0,2.1,2.2,2.482,2.482,0,0,0,1.7-.8c.2-.2.3-.2.5,0l.5.4c.2.1.3.3.1.5a3.2,3.2,0,0,1-2.8,1.5,3.8,3.8,0,0,1-3.8-3.8A3.916,3.916,0,0,1,60.6,5.2Z"/>
      <path id="Path_1017" data-name="Path 1017" d="M65.2,5.7a.319.319,0,0,1,.3-.3H66a.319.319,0,0,1,.3.3l.2.6a2.48,2.48,0,0,1,2.1-1c.7,0,1.5.2,1.3.7l-.4.9c0,.1-.2.1-.4,0-.1-.1-.4-.1-.6-.1a2.052,2.052,0,0,0-1.6.9v4.6c0,.3-.2.3-.5.3h-.9a.319.319,0,0,1-.3-.3Z"/>
      <path id="Path_1018" data-name="Path 1018" d="M70.5,5.9a.338.338,0,0,1,.3-.5H72c.1,0,.3.1.3.2l2.2,4.8h0l2.2-4.8c.1-.2.2-.2.4-.2h1c.3,0,.4.2.3.5L72.9,17.8c-.1.1-.2.2-.3.2H71.5c-.3,0-.4-.2-.3-.5l2.4-5.2Z"/>
      <path id="Path_1019" data-name="Path 1019" d="M81.6,17.7c0,.2-.1.3-.4.3h-1a.319.319,0,0,1-.3-.3V5.7a.319.319,0,0,1,.3-.3h.5c.1,0,.2.1.3.2l.2.5a3.177,3.177,0,0,1,2.2-.9A3.538,3.538,0,0,1,86.8,9a3.615,3.615,0,0,1-3.5,3.8,3.884,3.884,0,0,1-1.8-.5v5.4Zm1.5-6.5A2.135,2.135,0,0,0,85.2,9a1.987,1.987,0,0,0-3.7-1.2v2.9A3.041,3.041,0,0,0,83.1,11.2Z"/>
      <path id="Path_1020" data-name="Path 1020" d="M89.1,6.9h-.8a.319.319,0,0,1-.3-.3V5.7a.265.265,0,0,1,.3-.3h.8v-2a.319.319,0,0,1,.3-.3h1a.319.319,0,0,1,.3.3v2h1.8a.265.265,0,0,1,.3.3v.8a.265.265,0,0,1-.3.3H90.7v3.6c0,.6.2.7.6.7a2.9,2.9,0,0,0,1.1-.3c.2-.1.3,0,.4.2l.3.8c.1.2,0,.3-.2.4a5.729,5.729,0,0,1-2.1.5c-1.4,0-1.8-.9-1.8-2.1V6.9Z"/>
      <path id="Path_1021" data-name="Path 1021" d="M94.7,1.4a1.1,1.1,0,0,1,1-1.1,1.11,1.11,0,0,1,1.1,1.1,1.028,1.028,0,0,1-1.1,1C95.1,2.5,94.7,2,94.7,1.4Zm.2,4.3a.319.319,0,0,1,.3-.3h1a.319.319,0,0,1,.3.3v6.5a.319.319,0,0,1-.3.3h-1a.319.319,0,0,1-.3-.3Z"/>
      <path id="Path_1022" data-name="Path 1022" d="M102,5.2A3.7,3.7,0,0,1,105.6,9a3.605,3.605,0,1,1-7.2,0A3.7,3.7,0,0,1,102,5.2Zm0,6a2.15,2.15,0,0,0,2-2.3,2.009,2.009,0,1,0-4,0A2.15,2.15,0,0,0,102,11.2Z"/>
      <path id="Path_1023" data-name="Path 1023" d="M107.5,5.7a.319.319,0,0,1,.3-.3h.5c.1,0,.3.1.3.2l.2.6a3.885,3.885,0,0,1,2.5-1c2.2,0,3,1.5,3,3.4v3.6a.319.319,0,0,1-.3.3h-1a.319.319,0,0,1-.3-.3V8.6c0-1.2-.6-1.8-1.5-1.8a2.353,2.353,0,0,0-2,1.1v4.4c0,.2-.1.3-.4.3h-.9a.319.319,0,0,1-.3-.3V5.7Z"/>
    </g>
  </g>
</svg>
