<svg xmlns="http://www.w3.org/2000/svg" xmlns:xlink="http://www.w3.org/1999/xlink" viewBox="2239 1798 363.232 381.56">
  <defs>
    <style>
      .cls-1 {
        fill: #fff;
      }

      .cls-2 {
        fill: #f4f4f4;
      }

      .cls-3, .cls-5 {
        fill: #0071ef;
      }

      .cls-3 {
        opacity: 0.2;
      }

      .cls-4 {
        fill: #f7f8fb;
      }

      .cls-5 {
        opacity: 0.5;
      }

      .cls-6 {
        fill: #000078;
      }

      .cls-7 {
        fill: #ff7c5c;
      }

      .cls-8 {
        filter: url(#Rectangle_34);
      }
    </style>
    <filter id="Rectangle_34" x="2239" y="1798" width="363.232" height="381.56" filterUnits="userSpaceOnUse">
      <feOffset dy="30" input="SourceAlpha"/>
      <feGaussianBlur stdDeviation="10" result="blur"/>
      <feFlood flood-color="#b1b1b1" flood-opacity="0.161"/>
      <feComposite operator="in" in2="blur"/>
      <feComposite in="SourceGraphic"/>
    </filter>
  </defs>
  <g id="Group_196" data-name="Group 196" transform="translate(1990)">
    <g class="cls-8" transform="matrix(1, 0, 0, 1, -1990, 0)">
      <rect id="Rectangle_34-2" data-name="Rectangle 34" class="cls-1" width="303.232" height="321.56" rx="10" transform="translate(2269 1798)"/>
    </g>
    <g id="Group_177" data-name="Group 177" transform="translate(376 1907.006)">
      <path id="Path_441" data-name="Path 441" class="cls-2" d="M110.833,4.825a2.954,2.954,0,0,0-2.131-.789H8.682c-.789,0-1.657,0-2.6-.039a3.075,3.075,0,0,0-2.249.789A3.052,3.052,0,0,0,3,7V71.269a2.886,2.886,0,0,0,.829,2.21,3.084,3.084,0,0,0,2.21.789H32.276a26.583,26.583,0,0,0-.552,4.38,25.44,25.44,0,0,0,25.449,26.712h.2a25.938,25.938,0,0,0,18.11-7.536,24.5,24.5,0,0,0,7.378-17.637,26.066,26.066,0,0,0-.671-5.879H108.7a2.744,2.744,0,0,0,2.88-2.92V6.956A2.514,2.514,0,0,0,110.833,4.825Zm-4.971,10.3L78.953,37.061l-1.776-1.894,28.685-23.4ZM99.431,9.718,97.971,10.9H18.388L58.16,43.334l-.868.71L15.231,9.718ZM8.721,11.769l28.763,23.4-.75.789L9.9,14.1V64.364L8.721,65.627ZM41.9,38.8l3.512,2.841c3.275,2.644,6.51,5.327,9.785,7.97a3.048,3.048,0,0,0,4.3,0c1.7-1.381,3.354-2.722,5.05-4.1l8.207-6.668L100.89,68.625H99.825L73.9,41.2,65.7,47.872c-1.657,1.381-3.354,2.722-5.05,4.1a2.979,2.979,0,0,1-4.3,0c-3.275-2.644-6.51-5.287-9.785-7.97l-3.512-2.841L17.165,68.586H13.732ZM36.656,79.673A20.788,20.788,0,0,1,72.6,65.666,20.733,20.733,0,0,0,43.324,94.982a7.053,7.053,0,0,1-.552-.513A20.447,20.447,0,0,1,36.656,79.673Z" transform="translate(-1.816 -2.422)"/>
      <path id="Path_442" data-name="Path 442" class="cls-3" d="M94.612,148.4a20.723,20.723,0,0,1,35.037,15.072,20.612,20.612,0,0,1-20.793,20.517H108.7a20.09,20.09,0,0,1-14.283-5.918,20.817,20.817,0,0,1,.2-29.671Z" transform="translate(-53.46 -86.379)"/>
      <path id="Path_443" data-name="Path 443" class="cls-4" d="M219.685,25.8V79.618L191,49.2Z" transform="translate(-115.639 -15.624)"/>
      <path id="Path_444" data-name="Path 444" class="cls-4" d="M74.63,109.727A25.226,25.226,0,0,0,50.8,124.089H30.4L58.532,94.3l3.512,2.841c3.275,2.644,6.51,5.327,9.785,7.97a3.048,3.048,0,0,0,4.3,0c1.7-1.381,3.354-2.722,5.05-4.1l8.207-6.668,28.132,29.789h-20.6A25.011,25.011,0,0,0,74.63,109.727Z" transform="translate(-18.405 -57.097)"/>
      <path id="Path_445" data-name="Path 445" class="cls-4" d="M46.263,49.1,17.5,79.6V25.7Z" transform="translate(-10.595 -15.563)"/>
      <path id="Path_446" data-name="Path 446" class="cls-5" d="M39,17.5h84.2L81.1,51.827Z" transform="translate(-23.612 -10.599)"/>
      <path id="Path_447" data-name="Path 447" class="cls-6" d="M107.833.825A2.954,2.954,0,0,0,105.7.036H5.682c-.789,0-1.657,0-2.6-.039A3.075,3.075,0,0,0,.829.786,3.052,3.052,0,0,0,0,3V67.269a2.886,2.886,0,0,0,.829,2.21,3.084,3.084,0,0,0,2.21.789H29.276a26.583,26.583,0,0,0-.552,4.38,25.44,25.44,0,0,0,25.449,26.712h.2a25.938,25.938,0,0,0,18.11-7.536,24.5,24.5,0,0,0,7.378-17.637,26.066,26.066,0,0,0-.671-5.879H105.7a2.744,2.744,0,0,0,2.88-2.92V2.956A2.514,2.514,0,0,0,107.833.825Zm-4.971,6.984V61.627L74.177,31.206ZM12.231,5.718h84.16l-42.1,34.327Zm27.738,55.12A20.723,20.723,0,0,1,75.006,75.91,20.612,20.612,0,0,1,54.213,96.427h-.158a20.09,20.09,0,0,1-14.283-5.918,20.817,20.817,0,0,1,.2-29.671ZM55.041,50.263A25.226,25.226,0,0,0,31.21,64.625h-20.4L38.943,34.836l3.512,2.841c3.275,2.644,6.51,5.327,9.785,7.97a3.048,3.048,0,0,0,4.3,0c1.7-1.381,3.354-2.722,5.05-4.1L69.8,34.876,97.93,64.665h-20.6A25.011,25.011,0,0,0,55.041,50.263Zm-20.557-19.1L5.721,61.627V7.769Z" transform="translate(0 0)"/>
      <path id="Path_448" data-name="Path 448" class="cls-7" d="M104.174,165.784a48.681,48.681,0,0,0,.789,6.273,18.1,18.1,0,0,0,5.563,9.982,9.886,9.886,0,0,0,6.708,2.762,9.713,9.713,0,0,0,2.091-.237,11.711,11.711,0,0,0,7.26-5.208,24.637,24.637,0,0,0,4.064-12.9.769.769,0,0,1,.039-.316c0-.276.039-.513.039-.789.039-1.815-.829-2.722-2.644-2.88-.158,0-.355-.039-.513-.039a3.611,3.611,0,0,1-.671-.039c-3.748-.395-6-1.46-7.536-3.669a2.521,2.521,0,0,0-1.973-1.026,2.765,2.765,0,0,0-2.288,1.065,8.906,8.906,0,0,1-2.407,2.131,10.972,10.972,0,0,1-5.721,1.5,2.945,2.945,0,0,0-2.249.829,2.707,2.707,0,0,0-.552,2.091Zm4.971,1.3a14.956,14.956,0,0,0,8.049-3.472,15.556,15.556,0,0,0,8.444,3.512c-.039.158-.039.355-.079.513-.158.947-.276,1.854-.473,2.762a16.045,16.045,0,0,1-3.235,7.023,7.64,7.64,0,0,1-.789.829,5.054,5.054,0,0,1-7.615-.2,15.443,15.443,0,0,1-3.827-7.654,19.156,19.156,0,0,1-.355-2.249A4.9,4.9,0,0,0,109.145,167.086Z" transform="translate(-63.061 -95.477)"/>
      <path id="Path_449" data-name="Path 449" class="cls-1" d="M116.8,176.172a14.956,14.956,0,0,0,8.049-3.472,15.555,15.555,0,0,0,8.444,3.512c-.039.158-.039.355-.079.513-.158.947-.276,1.854-.473,2.762a16.045,16.045,0,0,1-3.235,7.023,7.641,7.641,0,0,1-.789.829,5.054,5.054,0,0,1-7.615-.2,15.443,15.443,0,0,1-3.827-7.654,19.154,19.154,0,0,1-.355-2.249A4.9,4.9,0,0,0,116.8,176.172Z" transform="translate(-70.715 -104.563)"/>
    </g>
    <g id="Group_306" data-name="Group 306" transform="translate(374 2058)">
      <path id="Path_995" data-name="Path 995" d="M0,.3A.319.319,0,0,1,.3,0H7.5a.319.319,0,0,1,.3.3v1a.265.265,0,0,1-.3.3H1.9V5.3H6.7c.1.1.3.2.3.4v1a.319.319,0,0,1-.3.3H1.9v3.9H7.6a.319.319,0,0,1,.3.3v1a.265.265,0,0,1-.3.3H.3a.319.319,0,0,1-.3-.3Z"/>
      <path id="Path_996" data-name="Path 996" d="M9.8,5.7a.319.319,0,0,1,.3-.3h.5c.2,0,.3.1.3.2l.2.6a3.323,3.323,0,0,1,2.4-1,2.561,2.561,0,0,1,2.3,1.2,3.863,3.863,0,0,1,2.6-1.2c2.2,0,3,1.5,3,3.4v3.6a.265.265,0,0,1-.3.3h-1a.319.319,0,0,1-.3-.3V8.6c0-1.1-.5-1.8-1.5-1.8a2.967,2.967,0,0,0-1.9.9c0,.2.1.5.1.9v3.7a.319.319,0,0,1-.3.3h-1a.319.319,0,0,1-.3-.3V8.6q0-1.8-1.5-1.8a1.954,1.954,0,0,0-1.8,1.1v4.4a.319.319,0,0,1-.3.3h-1a.319.319,0,0,1-.3-.3V5.7Z"/>
      <path id="Path_997" data-name="Path 997" d="M26,8a4.883,4.883,0,0,1,1.4.2c0-1.1-.2-1.6-1.1-1.6a8.475,8.475,0,0,0-2,.3c-.2.1-.3-.1-.4-.3L23.7,6a.3.3,0,0,1,.2-.4,6.59,6.59,0,0,1,2.5-.4c2.3,0,2.5,1.4,2.5,3.2v3.8a.319.319,0,0,1-.3.3h-.5c-.2,0-.2-.1-.3-.3l-.2-.5a3.017,3.017,0,0,1-2.2.9,2.181,2.181,0,0,1-2.3-2.4C23.1,9.1,24.2,8,26,8Zm-.2,3.5a1.987,1.987,0,0,0,1.6-.9V9.5a2.352,2.352,0,0,0-1.3-.3c-.9,0-1.5.5-1.5,1.2A1.2,1.2,0,0,0,25.8,11.5Z"/>
      <path id="Path_998" data-name="Path 998" d="M31,1.4A1.1,1.1,0,0,1,32,.3a1.11,1.11,0,0,1,1.1,1.1,1.028,1.028,0,0,1-1.1,1A.942.942,0,0,1,31,1.4Zm.2,4.3a.319.319,0,0,1,.3-.3h1a.319.319,0,0,1,.3.3v6.5a.319.319,0,0,1-.3.3h-1a.319.319,0,0,1-.3-.3Z"/>
      <path id="Path_999" data-name="Path 999" d="M35.3.3a.319.319,0,0,1,.3-.3h1a.446.446,0,0,1,.4.3V12.2a.319.319,0,0,1-.3.3h-1a.319.319,0,0,1-.3-.3V.3Z"/>
      <path id="Path_1000" data-name="Path 1000" d="M43.9.3a.319.319,0,0,1,.3-.3h4.1a4.012,4.012,0,0,1,4,4,4.1,4.1,0,0,1-4,4.1H45.7v4.2a.319.319,0,0,1-.3.3H44.2a.319.319,0,0,1-.3-.3Zm4.3,6A2.326,2.326,0,0,0,50.5,4a2.242,2.242,0,0,0-2.3-2.2H45.7V6.3Z"/>
      <path id="Path_1001" data-name="Path 1001" d="M53.6,5.7a.319.319,0,0,1,.3-.3h.5a.319.319,0,0,1,.3.3l.2.6a2.48,2.48,0,0,1,2.1-1c.7,0,1.5.2,1.3.7l-.4.9c-.1.1-.2.1-.4,0-.1-.1-.4-.1-.6-.1a2.052,2.052,0,0,0-1.6.9v4.6c0,.3-.2.3-.5.3h-.9a.319.319,0,0,1-.3-.3V5.7Z"/>
      <path id="Path_1002" data-name="Path 1002" d="M62.7,5.2A3.7,3.7,0,0,1,66.3,9a3.7,3.7,0,0,1-3.6,3.8A3.778,3.778,0,0,1,59,9,3.714,3.714,0,0,1,62.7,5.2Zm0,6a2.15,2.15,0,0,0,2-2.3,2.009,2.009,0,1,0-4,0A2.031,2.031,0,0,0,62.7,11.2Z"/>
      <path id="Path_1003" data-name="Path 1003" d="M68.6,6.9h-.8a.319.319,0,0,1-.3-.3V5.7a.265.265,0,0,1,.3-.3h.8v-2a.319.319,0,0,1,.3-.3h1a.319.319,0,0,1,.3.3v2H72a.265.265,0,0,1,.3.3v.8a.265.265,0,0,1-.3.3H70.2v3.6c0,.6.2.7.6.7a2.9,2.9,0,0,0,1.1-.3c.2-.1.3,0,.4.2l.3.8c.1.2,0,.3-.2.4a5.729,5.729,0,0,1-2.1.5c-1.4,0-1.8-.9-1.8-2.1V6.9Z"/>
      <path id="Path_1004" data-name="Path 1004" d="M77.4,5.2a3.206,3.206,0,0,1,3.3,3.3V9a.319.319,0,0,1-.3.3H75.5a2.082,2.082,0,0,0,2.1,1.9,3.773,3.773,0,0,0,1.6-.5c.2-.1.3-.2.5,0l.5.7a.33.33,0,0,1,0,.5,3.947,3.947,0,0,1-2.7.9A3.573,3.573,0,0,1,73.9,9,3.491,3.491,0,0,1,77.4,5.2Zm1.6,3a1.735,1.735,0,0,0-1.7-1.6,1.759,1.759,0,0,0-1.8,1.6Z"/>
      <path id="Path_1005" data-name="Path 1005" d="M85.7,5.2a3.317,3.317,0,0,1,2.6,1.3c.1.2.1.4-.1.5l-.6.5c-.2.2-.3.1-.5-.1a1.75,1.75,0,0,0-1.4-.7,2.135,2.135,0,0,0-2.1,2.2,2.135,2.135,0,0,0,2.1,2.2,2.482,2.482,0,0,0,1.7-.8c.2-.2.3-.2.5,0l.5.4c.2.1.3.3.1.5a3.2,3.2,0,0,1-2.8,1.5,3.8,3.8,0,0,1-3.8-3.8A3.846,3.846,0,0,1,85.7,5.2Z"/>
      <path id="Path_1006" data-name="Path 1006" d="M90.7,6.9H90a.319.319,0,0,1-.3-.3V5.7a.265.265,0,0,1,.3-.3h.8v-2a.319.319,0,0,1,.3-.3h1a.319.319,0,0,1,.3.3v2h1.8a.265.265,0,0,1,.3.3v.8a.265.265,0,0,1-.3.3H92.4v3.6c0,.6.2.7.6.7a2.9,2.9,0,0,0,1.1-.3c.2-.1.3,0,.4.2l.3.8c.1.2,0,.3-.2.4a5.729,5.729,0,0,1-2.1.5c-1.4,0-1.8-.9-1.8-2.1V6.9Z"/>
      <path id="Path_1007" data-name="Path 1007" d="M96.3,1.4a1.1,1.1,0,0,1,1-1.1,1.11,1.11,0,0,1,1.1,1.1,1.028,1.028,0,0,1-1.1,1C96.7,2.5,96.3,2,96.3,1.4Zm.2,4.3a.319.319,0,0,1,.3-.3h1a.319.319,0,0,1,.3.3v6.5a.319.319,0,0,1-.3.3h-1a.319.319,0,0,1-.3-.3Z"/>
      <path id="Path_1008" data-name="Path 1008" d="M103.6,5.2A3.7,3.7,0,0,1,107.2,9,3.605,3.605,0,1,1,100,9,3.7,3.7,0,0,1,103.6,5.2Zm0,6a2.15,2.15,0,0,0,2-2.3,2.009,2.009,0,1,0-4,0A2.15,2.15,0,0,0,103.6,11.2Z"/>
      <path id="Path_1009" data-name="Path 1009" d="M109.1,5.7a.319.319,0,0,1,.3-.3h.5c.1,0,.3.1.3.2l.2.6a3.885,3.885,0,0,1,2.5-1c2.2,0,3,1.5,3,3.4v3.6a.319.319,0,0,1-.3.3h-1a.319.319,0,0,1-.3-.3V8.6c0-1.2-.6-1.8-1.5-1.8a2.353,2.353,0,0,0-2,1.1v4.4c0,.2-.1.3-.4.3h-.9a.319.319,0,0,1-.3-.3V5.7Z"/>
    </g>
  </g>
</svg>
