<svg xmlns="http://www.w3.org/2000/svg" xmlns:xlink="http://www.w3.org/1999/xlink" viewBox="4229 2230 363.232 381.56">
  <defs>
    <style>
      .cls-1 {
        fill: #fff;
      }

      .cls-2 {
        fill: #f4f4f4;
      }

      .cls-3, .cls-5, .cls-8 {
        fill: #0071ef;
      }

      .cls-3 {
        opacity: 0.5;
      }

      .cls-4 {
        fill: #f2f3f4;
      }

      .cls-5 {
        opacity: 0.2;
      }

      .cls-6 {
        fill: #ff7c5c;
      }

      .cls-7 {
        fill: #000078;
      }

      .cls-9 {
        filter: url(#Rectangle_34);
      }
    </style>
    <filter id="Rectangle_34" x="4229" y="2230" width="363.232" height="381.56" filterUnits="userSpaceOnUse">
      <feOffset dy="30" input="SourceAlpha"/>
      <feGaussianBlur stdDeviation="10" result="blur"/>
      <feFlood flood-color="#b1b1b1" flood-opacity="0.161"/>
      <feComposite operator="in" in2="blur"/>
      <feComposite in="SourceGraphic"/>
    </filter>
  </defs>
  <g id="Group_199" data-name="Group 199" transform="translate(3980)">
    <g class="cls-9" transform="matrix(1, 0, 0, 1, -3980, 0)">
      <rect id="Rectangle_34-2" data-name="Rectangle 34" class="cls-1" width="303.232" height="321.56" rx="10" transform="translate(4259 2230)"/>
    </g>
    <g id="Group_192" data-name="Group 192" transform="translate(379.383 2328.557)">
      <path id="Path_204" data-name="Path 204" class="cls-2" d="M105.61,61.581v-45a15.655,15.655,0,0,0-.333-3.453A11.649,11.649,0,0,0,93.51,4H15.055a15.256,15.256,0,0,0-2.4.2A11.644,11.644,0,0,0,3.007,15.946c-.051,18.571-.026,37.168-.026,55.74A11.636,11.636,0,0,0,7,80.767a12.026,12.026,0,0,0,8.314,2.942H39.74c.026.179.051.256.026.281-1.023,3.325-2.021,6.625-3.07,9.925a.8.8,0,0,1-.64.384c-.972.051-1.944,0-2.916.026a2.179,2.179,0,0,0-2.353,2.123,2.155,2.155,0,0,0,2.379,2.174H75.425a2.19,2.19,0,0,0,2.4-2.174,2.165,2.165,0,0,0-2.353-2.123q-1.458-.038-2.916,0a.623.623,0,0,1-.716-.563c-.588-2.021-1.228-4.016-1.842-6.011-.409-1.3-.793-2.609-1.253-4.067H92.487c.742,0,1.509-.026,2.251-.077A11.657,11.657,0,0,0,105.533,72.76C105.687,69.051,105.61,65.316,105.61,61.581ZM7.228,16.151a7.759,7.759,0,0,1,8.007-7.93c15.834.077,31.668.026,47.5.026H93.28a7.917,7.917,0,0,1,4.2.946,8.535,8.535,0,0,1,1.893,1.484c-.128-.077-.281-.179-.409-.256a8.282,8.282,0,0,0-4.2-.946H64.221c-15.834,0-31.668.051-47.5-.026a7.759,7.759,0,0,0-8.007,7.93c.1,14.53.051,29.034.051,43.563H7.279v-1C7.279,45.338,7.33,30.757,7.228,16.151Zm.486,58.323a5.437,5.437,0,0,1-.384-1.637C7.279,70.33,7.3,67.849,7.3,65.265h93.854c.051.051.1.1.1.128v.844H8.993c0,2.584-.026,5.065.026,7.572A5.437,5.437,0,0,0,9.4,75.446a7.063,7.063,0,0,0,2.379,3.325A7.055,7.055,0,0,1,7.714,74.474ZM42.35,90.231c.588-1.944,1.228-3.888,1.791-5.858.128-.486.358-.614.844-.614,6.216.026,12.432,0,18.648.026.256,0,.665.179.716.384a5.556,5.556,0,0,1,.179.614c-6.19-.026-12.381,0-18.571-.026a.732.732,0,0,0-.844.614c-.563,1.97-1.2,3.914-1.791,5.858-.307,1.023-.64,2.046-.946,3.1H41.1C41.531,92.892,41.94,91.562,42.35,90.231Z" transform="translate(-2.203 -2.977)"/>
      <g id="Group_128" data-name="Group 128" transform="translate(0)">
        <path id="Path_205" data-name="Path 205" class="cls-3" d="M152.8,326.139h26.425c-1.074-3.428-2.1-6.779-3.172-10.13-.051-.179-.46-.384-.716-.384-6.216-.026-12.432,0-18.648-.026a.732.732,0,0,0-.844.614c-.563,1.97-1.2,3.914-1.791,5.858C153.644,323.4,153.235,324.732,152.8,326.139Z" transform="translate(-113.702 -234.868)"/>
        <path id="Path_206" data-name="Path 206" class="cls-4" d="M22.351,74.021H116.41V29.409c0-.333,0-.64-.026-.972a7.34,7.34,0,0,0-3.837-6.165,8.282,8.282,0,0,0-4.2-.946H77.809c-15.834,0-31.668.051-47.5-.026A7.759,7.759,0,0,0,22.3,29.23c.1,14.606.051,29.187.051,43.794Q22.351,73.484,22.351,74.021Z" transform="translate(-16.584 -15.851)"/>
        <path id="Path_207" data-name="Path 207" class="cls-5" d="M23.681,243.3c0,2.584-.026,5.065.026,7.572a5.437,5.437,0,0,0,.384,1.637,7.521,7.521,0,0,0,7.469,4.963h78.3c4.144,0,7.469-2.763,7.776-6.676.2-2.43.026-4.886.026-7.342,0-.051-.077-.077-.1-.128Q70.634,243.287,23.681,243.3Z" transform="translate(-17.607 -181.063)"/>
        <g id="Group_127" data-name="Group 127" transform="translate(60.886 21.576)">
          <g id="Group_126" data-name="Group 126">
            <g id="Group_124" data-name="Group 124" transform="translate(0 5.028)">
              <path id="Path_208" data-name="Path 208" class="cls-4" d="M247.6,122.188c0-3.53,0-6.932-.026-10.309a1.307,1.307,0,0,0-.384-.742c-2.2-2.225-4.4-4.425-6.6-6.625-.153-.153-.358-.307-.588-.512a11.563,11.563,0,0,0-1.1,11.051C240.461,118.939,243.4,121.216,247.6,122.188Z" transform="translate(-237.973 -104)"/>
            </g>
            <g id="Group_125" data-name="Group 125" transform="translate(13.852 5.539)">
              <path id="Path_209" data-name="Path 209" class="cls-4" d="M292.221,123.65a11.661,11.661,0,0,0,8.6-7.035A11.506,11.506,0,0,0,300.048,106c-2.609,2.328-5.116,4.579-7.6,6.83a1.378,1.378,0,0,0-.307.87q-.038,4.643,0,9.286C292.144,123.164,292.2,123.343,292.221,123.65Z" transform="translate(-292.125 -106)"/>
            </g>
            <path id="Path_210" data-name="Path 210" class="cls-6" d="M272.109,86.713c-4.323-3.4-10.846-2.788-13.609-.358,2.2,2.174,4.374,4.349,6.625,6.6C267.428,90.908,269.755,88.836,272.109,86.713Z" transform="translate(-253.249 -84.346)"/>
          </g>
        </g>
        <path id="Path_211" data-name="Path 211" class="cls-7" d="M65.708,79.708c.46,1.458.844,2.763,1.253,4.067.614,2,1.253,3.991,1.842,6.011.128.409.307.563.716.563q1.458-.038,2.916,0a2.16,2.16,0,1,1-.051,4.3H30.126a2.155,2.155,0,0,1-2.379-2.174A2.194,2.194,0,0,1,30.1,90.35c.972-.026,1.944.026,2.916-.026a.8.8,0,0,0,.64-.384c1.049-3.3,2.072-6.625,3.07-9.925.026-.051,0-.1-.026-.281H12.271a12.026,12.026,0,0,1-8.314-2.942A11.787,11.787,0,0,1-.033,67.686q0-27.857,0-55.74A11.6,11.6,0,0,1,9.636.23a12.758,12.758,0,0,1,2.4-.23H90.5a11.649,11.649,0,0,1,11.767,9.132,15.654,15.654,0,0,1,.333,3.453q.038,22.485,0,45c0,3.735.077,7.5-.077,11.23A11.657,11.657,0,0,1,91.724,79.657c-.742.051-1.509.077-2.251.077H66.936C66.578,79.708,66.246,79.708,65.708,79.708ZM4.264,56.942H98.323V12.33c0-.333,0-.64-.026-.972a7.34,7.34,0,0,0-3.837-6.165,8.282,8.282,0,0,0-4.2-.946H59.723c-15.834,0-31.668.051-47.5-.026a7.759,7.759,0,0,0-8.007,7.93c.1,14.606.051,29.187.051,43.794Q4.264,56.4,4.264,56.942Zm.026,4.323c0,2.584-.026,5.065.026,7.572A5.437,5.437,0,0,0,4.7,70.474a7.521,7.521,0,0,0,7.469,4.963h78.3c4.144,0,7.469-2.763,7.776-6.676.2-2.43.026-4.886.026-7.342,0-.051-.077-.077-.1-.128Q51.281,61.252,4.29,61.265ZM38.082,90.3H64.506c-1.074-3.428-2.1-6.779-3.172-10.13-.051-.179-.46-.384-.716-.384-6.216-.026-12.432,0-18.648-.026a.732.732,0,0,0-.844.614c-.563,1.97-1.2,3.914-1.791,5.858C38.926,87.562,38.517,88.892,38.082,90.3Z" transform="translate(0.044)"/>
        <path id="Path_212" data-name="Path 212" class="cls-7" d="M246.522,80.457a16.015,16.015,0,1,1-16.448-16.064A15.915,15.915,0,0,1,246.522,80.457ZM228.385,91.969c0-3.53,0-6.932-.026-10.309a1.307,1.307,0,0,0-.384-.742c-2.2-2.225-4.4-4.425-6.6-6.625-.153-.153-.358-.307-.588-.512a11.844,11.844,0,0,0,7.6,18.188Zm4.349,0a11.661,11.661,0,0,0,8.6-7.035,11.506,11.506,0,0,0-.767-10.616c-2.609,2.328-5.116,4.579-7.6,6.83a1.377,1.377,0,0,0-.307.87q-.038,4.643,0,9.286C232.657,91.457,232.708,91.636,232.734,91.969Zm4.911-20.848c-4.323-3.4-10.846-2.788-13.609-.358,2.2,2.174,4.374,4.349,6.625,6.6C232.964,75.316,235.292,73.244,237.645,71.121Z" transform="translate(-159.614 -47.919)"/>
        <path id="Path_213" data-name="Path 213" class="cls-8" d="M133.439,99.476v11.793a2.346,2.346,0,0,1-.742,1.97,2.049,2.049,0,0,1-2.2.358,2.1,2.1,0,0,1-1.33-1.791,2.188,2.188,0,0,1,0-.409V87.5a2.144,2.144,0,0,1,3.044-2.149,2.187,2.187,0,0,1,1.228,2.174c-.026,3.607,0,7.214,0,10.82Z" transform="translate(-96.106 -63.356)"/>
        <path id="Path_214" data-name="Path 214" class="cls-5" d="M170.926,114.1v-9.925a2.168,2.168,0,0,1,1.432-2.123,2.055,2.055,0,0,1,2.43.793,2.82,2.82,0,0,1,.409,1.432c.026,6.549.026,13.072,0,19.62a2.15,2.15,0,0,1-2.123,2.353,2.182,2.182,0,0,1-2.174-2.379C170.926,120.594,170.926,117.345,170.926,114.1Z" transform="translate(-127.172 -75.854)"/>
        <path id="Path_215" data-name="Path 215" class="cls-5" d="M49.965,121.4v8.953a2.112,2.112,0,0,1-1.612,2.046,2.063,2.063,0,0,1-2.328-1.023,2.55,2.55,0,0,1-.281-1.151c-.026-5.909-.026-11.844,0-17.753a2.035,2.035,0,0,1,2.1-2.174,2.068,2.068,0,0,1,2.149,2.2C49.991,115.493,49.965,118.435,49.965,121.4Z" transform="translate(-34.017 -82.085)"/>
        <path id="Path_216" data-name="Path 216" class="cls-3" d="M91.746,143.328v5.5a2.133,2.133,0,1,1-4.246.026V137.7a2.129,2.129,0,1,1,4.246-.026C91.772,139.543,91.746,141.435,91.746,143.328Z" transform="translate(-65.106 -100.763)"/>
        <path id="Path_217" data-name="Path 217" class="cls-7" d="M339.247,255a2.063,2.063,0,0,1,2.123,2.149,2.164,2.164,0,0,1-2.149,2.072A2.224,2.224,0,0,1,337.1,257.1,2.072,2.072,0,0,1,339.247,255Z" transform="translate(-250.856 -189.77)"/>
      </g>
    </g>
    <g id="Group_302" data-name="Group 302" transform="translate(345 2469)">
      <path id="Path_868" data-name="Path 868" d="M16.7.5A.265.265,0,0,1,17,.2h4.1a6.3,6.3,0,1,1,0,12.6H17a.319.319,0,0,1-.3-.3Zm4.2,10.6a4.467,4.467,0,0,0,4.6-4.6,4.467,4.467,0,0,0-4.6-4.6H18.5v9.2Z"/>
      <path id="Path_869" data-name="Path 869" d="M31.6,8.2a4.883,4.883,0,0,1,1.4.2c0-1.1-.2-1.6-1.1-1.6a8.475,8.475,0,0,0-2,.3c-.2.1-.3-.1-.4-.3l-.1-.7a.3.3,0,0,1,.2-.4,6.59,6.59,0,0,1,2.5-.4c2.3,0,2.5,1.4,2.5,3.2v3.8a.319.319,0,0,1-.3.3h-.5c-.2,0-.2-.1-.3-.3l-.3-.3A3.041,3.041,0,0,1,31,13a2.181,2.181,0,0,1-2.3-2.4C28.7,9.2,29.7,8.2,31.6,8.2Zm-.3,3.5a1.987,1.987,0,0,0,1.6-.9V9.6a2.352,2.352,0,0,0-1.3-.3c-.9,0-1.5.5-1.5,1.2A1.287,1.287,0,0,0,31.3,11.7Z"/>
      <path id="Path_870" data-name="Path 870" d="M37.3,7.1h-.8a.319.319,0,0,1-.3-.3V5.9a.265.265,0,0,1,.3-.3h.8v-2a.319.319,0,0,1,.3-.3h1a.319.319,0,0,1,.3.3v2h1.8a.265.265,0,0,1,.3.3v.8a.265.265,0,0,1-.3.3H39v3.6c0,.6.2.7.6.7a2.9,2.9,0,0,0,1.1-.3c.2-.1.3,0,.4.2l.3.8c.1.2,0,.3-.2.4a5.3,5.3,0,0,1-2.1.6c-1.4,0-1.8-.9-1.8-2.1Z"/>
      <path id="Path_871" data-name="Path 871" d="M45.4,8.2a4.883,4.883,0,0,1,1.4.2c0-1.1-.2-1.6-1.1-1.6a8.475,8.475,0,0,0-2,.3c-.2.1-.3-.1-.4-.3l-.1-.7a.3.3,0,0,1,.2-.4,6.59,6.59,0,0,1,2.5-.4c2.3,0,2.5,1.4,2.5,3.2v3.8a.319.319,0,0,1-.3.3h-.5c-.2,0-.2-.1-.3-.3l-.2-.3a3.1,3.1,0,0,1-2.3,1,2.181,2.181,0,0,1-2.3-2.4C42.5,9.2,43.6,8.2,45.4,8.2Zm-.2,3.5a1.987,1.987,0,0,0,1.6-.9V9.6a2.352,2.352,0,0,0-1.3-.3c-.9,0-1.5.5-1.5,1.2A1.216,1.216,0,0,0,45.2,11.7Z"/>
      <path id="Path_872" data-name="Path 872" d="M56.6.3a.451.451,0,0,1,.3-.3h.3c.1,0,.3.1.3.2l3.8,9.2h.1L65.1.2c0-.1.2-.2.3-.2h.3a.319.319,0,0,1,.3.3l2.2,12.1c.1.3-.1.4-.3.4H66.7a.265.265,0,0,1-.3-.3l-1.3-8H65l-3.2,8.3c0,.1-.1.2-.3.2h-.3c-.1,0-.3-.1-.3-.2L57.6,4.5h-.1l-1.3,8a.451.451,0,0,1-.3.3H54.7c-.3,0-.4-.2-.3-.4Z"/>
      <path id="Path_873" data-name="Path 873" d="M73.2,5.4a3.7,3.7,0,0,1,3.6,3.8,3.605,3.605,0,1,1-7.2,0A3.573,3.573,0,0,1,73.2,5.4Zm0,6a2.15,2.15,0,0,0,2-2.3,2.009,2.009,0,1,0-4,0A2.031,2.031,0,0,0,73.2,11.4Z"/>
      <path id="Path_874" data-name="Path 874" d="M81.6,5.4a3.307,3.307,0,0,1,1.7.4V.5a.319.319,0,0,1,.3-.3h1a.319.319,0,0,1,.3.3V12.4a.319.319,0,0,1-.3.3h-.5a.265.265,0,0,1-.3-.3l-.1-.4a3.342,3.342,0,0,1-2.3,1A3.6,3.6,0,0,1,78,9.2,3.762,3.762,0,0,1,81.6,5.4Zm0,6a1.934,1.934,0,0,0,1.7-1.1V7.4A3.078,3.078,0,0,0,81.7,7a2.135,2.135,0,0,0-2.1,2.2A2.191,2.191,0,0,0,81.6,11.4Z"/>
      <path id="Path_875" data-name="Path 875" d="M90.5,5.4a3.206,3.206,0,0,1,3.3,3.3v.5a.319.319,0,0,1-.3.3H88.6a2.082,2.082,0,0,0,2.1,1.9,3.773,3.773,0,0,0,1.6-.5c.2-.1.3-.2.5,0l.5.7a.33.33,0,0,1,0,.5,3.947,3.947,0,0,1-2.7.9A3.573,3.573,0,0,1,87,9.2,3.441,3.441,0,0,1,90.5,5.4Zm1.6,3a1.735,1.735,0,0,0-1.7-1.6,1.759,1.759,0,0,0-1.8,1.6Z"/>
      <path id="Path_876" data-name="Path 876" d="M95.5,5.9a.319.319,0,0,1,.3-.3h.5a.319.319,0,0,1,.3.3l.2.6a2.48,2.48,0,0,1,2.1-1c.7,0,1.5.2,1.3.7l-.4.9a.4.4,0,0,1-.4.2.6.6,0,0,0-.6-.3,2.052,2.052,0,0,0-1.6.9v4.6c0,.3-.2.3-.5.3h-.9a.319.319,0,0,1-.3-.3Z"/>
      <path id="Path_877" data-name="Path 877" d="M101.6,5.9a.319.319,0,0,1,.3-.3h.5c.1,0,.3.1.3.2l.2.6a3.885,3.885,0,0,1,2.5-1c2.2,0,3,1.5,3,3.4v3.6a.319.319,0,0,1-.3.3h-1a.319.319,0,0,1-.3-.3V8.8c0-1.2-.6-1.8-1.5-1.8a2.353,2.353,0,0,0-2,1.1v4.4c0,.2-.1.3-.4.3H102a.319.319,0,0,1-.3-.3V5.9Z"/>
      <path id="Path_878" data-name="Path 878" d="M110.5,1.6a1.1,1.1,0,0,1,1-1.1,1.11,1.11,0,0,1,1.1,1.1,1.028,1.028,0,0,1-1.1,1A1,1,0,0,1,110.5,1.6Zm.2,4.3a.319.319,0,0,1,.3-.3h1a.319.319,0,0,1,.3.3v6.5a.319.319,0,0,1-.3.3h-1a.319.319,0,0,1-.3-.3Z"/>
      <path id="Path_879" data-name="Path 879" d="M114.2,12.3l3.1-5.1h-2.6a.319.319,0,0,1-.3-.3v-1a.265.265,0,0,1,.3-.3h4.6c.3,0,.5.3.3.5l-3,5.2H119a.265.265,0,0,1,.3.3v.8a.265.265,0,0,1-.3.3h-4.4a.319.319,0,0,1-.3-.3v-.1Z"/>
      <path id="Path_880" data-name="Path 880" d="M123.7,8.2a4.883,4.883,0,0,1,1.4.2c0-1.1-.2-1.6-1.1-1.6a8.475,8.475,0,0,0-2,.3c-.2.1-.3-.1-.4-.3l-.1-.7a.3.3,0,0,1,.2-.4,6.59,6.59,0,0,1,2.5-.4c2.3,0,2.5,1.4,2.5,3.2v3.8a.319.319,0,0,1-.3.3h-.5c-.2,0-.2-.1-.3-.3l-.2-.5a3.017,3.017,0,0,1-2.2.9,2.181,2.181,0,0,1-2.3-2.4C120.8,9.2,121.8,8.2,123.7,8.2Zm-.2,3.5a1.987,1.987,0,0,0,1.6-.9V9.6a2.352,2.352,0,0,0-1.3-.3c-.9,0-1.5.5-1.5,1.2A1.216,1.216,0,0,0,123.5,11.7Z"/>
      <path id="Path_881" data-name="Path 881" d="M129.4,7.1h-.8a.319.319,0,0,1-.3-.3V5.9a.265.265,0,0,1,.3-.3h.8v-2a.319.319,0,0,1,.3-.3h1a.319.319,0,0,1,.3.3v2h1.8a.265.265,0,0,1,.3.3v.8a.265.265,0,0,1-.3.3H131v3.6c0,.6.2.7.6.7a2.9,2.9,0,0,0,1.1-.3c.2-.1.3,0,.4.2l.3.8c.1.2,0,.3-.2.4a5.729,5.729,0,0,1-2.1.5c-1.4,0-1.8-.9-1.8-2.1V7.1Z"/>
      <path id="Path_882" data-name="Path 882" d="M135,1.6a1.1,1.1,0,0,1,1-1.1,1.11,1.11,0,0,1,1.1,1.1,1.028,1.028,0,0,1-1.1,1A.945.945,0,0,1,135,1.6Zm.2,4.3a.319.319,0,0,1,.3-.3h1a.319.319,0,0,1,.3.3v6.5a.319.319,0,0,1-.3.3h-1a.319.319,0,0,1-.3-.3Z"/>
      <path id="Path_883" data-name="Path 883" d="M142.3,5.4a3.7,3.7,0,0,1,3.6,3.8,3.605,3.605,0,1,1-7.2,0A3.7,3.7,0,0,1,142.3,5.4Zm0,6a2.15,2.15,0,0,0,2-2.3,2.009,2.009,0,1,0-4,0A2.15,2.15,0,0,0,142.3,11.4Z"/>
      <path id="Path_884" data-name="Path 884" d="M147.7,5.9a.319.319,0,0,1,.3-.3h.5c.1,0,.3.1.3.2l.2.6a3.885,3.885,0,0,1,2.5-1c2.2,0,3,1.5,3,3.4v3.6a.319.319,0,0,1-.3.3h-1a.319.319,0,0,1-.3-.3V8.8c0-1.2-.6-1.8-1.5-1.8a2.353,2.353,0,0,0-2,1.1v4.4c0,.2-.1.3-.4.3h-.9a.319.319,0,0,1-.3-.3V5.9Z"/>
      <path id="Path_885" data-name="Path 885" d="M2.5,27.6h0l-.4-.5A3.225,3.225,0,0,1,.9,24.5a3.012,3.012,0,0,1,3.3-2.9,2.924,2.924,0,0,1,3.2,2.9c0,1.7-1.7,2.9-2.4,3.4l2.5,2.5a7.714,7.714,0,0,0,.7-2.6c0-.4.2-.5.5-.4l.7.1c.4.1.3.4.3.6a8.5,8.5,0,0,1-1.1,3.5l1.7,1.6c.2.2.4.4,0,.8l-.5.5c-.2.2-.5.2-.8-.1L7.6,33a5.1,5.1,0,0,1-3.9,1.7A3.587,3.587,0,0,1,0,31.2C0,29.1,1.9,28,2.5,27.6Zm1.3,5.5a3.5,3.5,0,0,0,2.7-1.3l-3-3.2a2.97,2.97,0,0,0-1.8,2.5A2.03,2.03,0,0,0,3.8,33.1Zm2-8.6A1.531,1.531,0,0,0,4.1,23a1.5,1.5,0,0,0-1.6,1.5,2.561,2.561,0,0,0,1,1.8l.4.4C4.4,26.4,5.8,25.7,5.8,24.5Z"/>
      <path id="Path_886" data-name="Path 886" d="M16.5,22.1a.265.265,0,0,1,.3-.3h4c2.2,0,3.7,1.4,3.7,3.3A3.44,3.44,0,0,1,22.6,28a3.263,3.263,0,0,1,2.3,2.9A3.645,3.645,0,0,1,21,34.4H16.8a.319.319,0,0,1-.3-.3Zm4.6,10.6a1.866,1.866,0,0,0,1.9-2,2.042,2.042,0,0,0-2.2-1.9H18.3v3.9Zm-.3-5.4a1.9,1.9,0,0,0,0-3.8H18.4v3.8Z"/>
      <path id="Path_887" data-name="Path 887" d="M26.7,23.2a1.1,1.1,0,0,1,1-1.1,1.11,1.11,0,0,1,1.1,1.1,1.028,1.028,0,0,1-1.1,1A.945.945,0,0,1,26.7,23.2Zm.2,4.3a.319.319,0,0,1,.3-.3h1a.319.319,0,0,1,.3.3V34a.319.319,0,0,1-.3.3h-1a.319.319,0,0,1-.3-.3Z"/>
      <path id="Path_888" data-name="Path 888" d="M31.5,31.9a2.839,2.839,0,0,1-.6-1.7A3.137,3.137,0,0,1,34,27h3.2a.265.265,0,0,1,.3.3v.5c0,.1-.1.3-.2.3l-1,.3a2.411,2.411,0,0,1,.8,1.9A2.951,2.951,0,0,1,34,33.2a6.189,6.189,0,0,1-1.6-.3.994.994,0,0,0-.7.9c0,.4.3.7.9.7H35c1.6,0,2.8.8,2.8,2.4s-1.4,3-3.8,3c-2.5,0-3.6-1.3-3.6-2.5a1.934,1.934,0,0,1,1.1-1.7v-.1a1.812,1.812,0,0,1-1.3-1.8A2.491,2.491,0,0,1,31.5,31.9ZM34,38.5c1.1,0,2.1-.6,2.1-1.4,0-.3-.2-1-1.4-1H33.1c-.1,0-1,.3-1,1.1C32.1,37.9,32.9,38.5,34,38.5Zm1.6-8.3a1.53,1.53,0,0,0-1.5-1.7,1.7,1.7,0,0,0,0,3.4A1.655,1.655,0,0,0,35.6,30.2Z"/>
      <path id="Path_889" data-name="Path 889" d="M43.7,22.1a.265.265,0,0,1,.3-.3h4.1a6.3,6.3,0,0,1,0,12.6H44a.319.319,0,0,1-.3-.3Zm4.2,10.6a4.6,4.6,0,0,0,0-9.2H45.5v9.2Z"/>
      <path id="Path_890" data-name="Path 890" d="M58.6,29.8A4.883,4.883,0,0,1,60,30c0-1.1-.2-1.6-1.1-1.6a8.475,8.475,0,0,0-2,.3c-.2.1-.3-.1-.4-.3l-.1-.7a.3.3,0,0,1,.2-.4,6.59,6.59,0,0,1,2.5-.4c2.3,0,2.5,1.4,2.5,3.2V34a.319.319,0,0,1-.3.3h-.5c-.2,0-.2-.1-.3-.3l-.2-.5a3.017,3.017,0,0,1-2.2.9A2.181,2.181,0,0,1,55.8,32C55.7,30.8,56.8,29.8,58.6,29.8Zm-.2,3.5a1.987,1.987,0,0,0,1.6-.9V31.2a2.352,2.352,0,0,0-1.3-.3c-.9,0-1.5.5-1.5,1.2A1.216,1.216,0,0,0,58.4,33.3Z"/>
      <path id="Path_891" data-name="Path 891" d="M64.3,28.7h-.8a.319.319,0,0,1-.3-.3v-.8a.265.265,0,0,1,.3-.3h.8v-2a.319.319,0,0,1,.3-.3h1a.319.319,0,0,1,.3.3v2h1.8a.265.265,0,0,1,.3.3v.8a.265.265,0,0,1-.3.3H66v3.6c0,.6.2.7.6.7a2.9,2.9,0,0,0,1.1-.3c.2-.1.3,0,.4.2l.3.8c.1.2,0,.3-.2.4a5.729,5.729,0,0,1-2.1.5c-1.4,0-1.8-.9-1.8-2.1Z"/>
      <path id="Path_892" data-name="Path 892" d="M72.4,29.8a4.883,4.883,0,0,1,1.4.2c0-1.1-.2-1.6-1.1-1.6a8.475,8.475,0,0,0-2,.3c-.2.1-.3-.1-.4-.3l-.1-.7a.3.3,0,0,1,.2-.4,6.59,6.59,0,0,1,2.5-.4c2.3,0,2.5,1.4,2.5,3.2V34a.319.319,0,0,1-.3.3h-.5c-.2,0-.2-.1-.3-.3l-.2-.5a3.017,3.017,0,0,1-2.2.9A2.181,2.181,0,0,1,69.6,32C69.5,30.8,70.6,29.8,72.4,29.8Zm-.2,3.5a1.987,1.987,0,0,0,1.6-.9V31.2a2.352,2.352,0,0,0-1.3-.3c-.9,0-1.5.5-1.5,1.2A1.216,1.216,0,0,0,72.2,33.3Z"/>
      <path id="Path_893" data-name="Path 893" d="M82.2,22.1a.265.265,0,0,1,.3-.3h4.1a6.3,6.3,0,1,1,0,12.6H82.5a.319.319,0,0,1-.3-.3Zm4.2,10.6a4.6,4.6,0,0,0,0-9.2H84v9.2Z"/>
      <path id="Path_894" data-name="Path 894" d="M97.9,27a3.206,3.206,0,0,1,3.3,3.3v.5a.319.319,0,0,1-.3.3H96A2.082,2.082,0,0,0,98.1,33a3.773,3.773,0,0,0,1.6-.5c.2-.1.3-.2.5,0l.5.7a.33.33,0,0,1,0,.5,3.947,3.947,0,0,1-2.7.9,3.573,3.573,0,0,1-3.6-3.8A3.441,3.441,0,0,1,97.9,27Zm1.6,3a1.735,1.735,0,0,0-1.7-1.6A1.759,1.759,0,0,0,96,30Z"/>
      <path id="Path_895" data-name="Path 895" d="M101.9,27.6c-.1-.2,0-.4.3-.4h1.1c.2,0,.3.1.3.2l1.9,4.2h0l1.9-4.2c.1-.2.3-.2.5-.2h.8c.3,0,.4.2.3.4l-3.2,6.8c0,.1-.1.2-.3.2h-.1c-.2,0-.3-.1-.3-.2Z"/>
      <path id="Path_896" data-name="Path 896" d="M113.5,27a3.206,3.206,0,0,1,3.3,3.3v.5a.319.319,0,0,1-.3.3h-4.9a2.082,2.082,0,0,0,2.1,1.9,3.773,3.773,0,0,0,1.6-.5c.2-.1.3-.2.5,0l.5.7a.33.33,0,0,1,0,.5,3.947,3.947,0,0,1-2.7.9,3.573,3.573,0,0,1-3.6-3.8A3.441,3.441,0,0,1,113.5,27Zm1.6,3a1.735,1.735,0,0,0-1.7-1.6,1.759,1.759,0,0,0-1.8,1.6Z"/>
      <path id="Path_897" data-name="Path 897" d="M118.5,22.1a.319.319,0,0,1,.3-.3h1a.319.319,0,0,1,.3.3V34a.319.319,0,0,1-.3.3h-1a.319.319,0,0,1-.3-.3Z"/>
      <path id="Path_898" data-name="Path 898" d="M125.6,27a3.806,3.806,0,1,1-3.6,3.8A3.7,3.7,0,0,1,125.6,27Zm0,6a2.15,2.15,0,0,0,2-2.3,2.009,2.009,0,1,0-4,0A2.15,2.15,0,0,0,125.6,33Z"/>
      <path id="Path_899" data-name="Path 899" d="M132.8,39.4c0,.2-.1.3-.4.3h-1a.319.319,0,0,1-.3-.3V27.5a.319.319,0,0,1,.3-.3h.5c.1,0,.2.1.3.2l.2.5a3.177,3.177,0,0,1,2.2-.9,3.538,3.538,0,0,1,3.4,3.8,3.615,3.615,0,0,1-3.5,3.8,3.884,3.884,0,0,1-1.8-.5v5.3Zm1.6-6.4a2.135,2.135,0,0,0,2.1-2.2,1.987,1.987,0,0,0-3.7-1.2v2.9A2.648,2.648,0,0,0,134.4,33Z"/>
      <path id="Path_900" data-name="Path 900" d="M139.9,27.5a.319.319,0,0,1,.3-.3h.5c.2,0,.3.1.3.2l.2.6a3.323,3.323,0,0,1,2.4-1,2.561,2.561,0,0,1,2.3,1.2,3.863,3.863,0,0,1,2.6-1.2c2.2,0,3,1.5,3,3.4V34a.265.265,0,0,1-.3.3h-1a.319.319,0,0,1-.3-.3V30.3c0-1.1-.5-1.8-1.5-1.8a2.967,2.967,0,0,0-1.9.9c0,.2.1.5.1.9V34a.319.319,0,0,1-.3.3h-1a.319.319,0,0,1-.3-.3V30.3q0-1.8-1.5-1.8a1.954,1.954,0,0,0-1.8,1.1V34a.319.319,0,0,1-.3.3h-1a.319.319,0,0,1-.3-.3V27.5Z"/>
      <path id="Path_901" data-name="Path 901" d="M156.8,27a3.206,3.206,0,0,1,3.3,3.3v.5a.319.319,0,0,1-.3.3h-4.9A2.082,2.082,0,0,0,157,33a3.773,3.773,0,0,0,1.6-.5c.2-.1.3-.2.5,0l.5.7a.33.33,0,0,1,0,.5,3.947,3.947,0,0,1-2.7.9,3.573,3.573,0,0,1-3.6-3.8A3.5,3.5,0,0,1,156.8,27Zm1.7,3a1.735,1.735,0,0,0-1.7-1.6A1.759,1.759,0,0,0,155,30Z"/>
      <path id="Path_902" data-name="Path 902" d="M161.9,27.5a.319.319,0,0,1,.3-.3h.5c.1,0,.3.1.3.2l.2.6a3.885,3.885,0,0,1,2.5-1c2.2,0,3,1.5,3,3.4V34a.319.319,0,0,1-.3.3h-1a.319.319,0,0,1-.3-.3V30.3c0-1.2-.6-1.8-1.5-1.8a2.353,2.353,0,0,0-2,1.1V34c0,.2-.1.3-.4.3h-.9a.319.319,0,0,1-.3-.3V27.5Z"/>
      <path id="Path_903" data-name="Path 903" d="M171.4,28.7h-.8a.319.319,0,0,1-.3-.3v-.8a.265.265,0,0,1,.3-.3h.8v-2a.319.319,0,0,1,.3-.3h1a.319.319,0,0,1,.3.3v2h1.8a.265.265,0,0,1,.3.3v.8a.265.265,0,0,1-.3.3H173v3.6c0,.6.2.7.6.7a2.9,2.9,0,0,0,1.1-.3c.2-.1.3,0,.4.2l.3.8c.1.2,0,.3-.2.4a5.729,5.729,0,0,1-2.1.5c-1.4,0-1.8-.9-1.8-2.1V28.7Z"/>
    </g>
  </g>
</svg>
