<svg xmlns="http://www.w3.org/2000/svg" xmlns:xlink="http://www.w3.org/1999/xlink" viewBox="4229 1798 363.232 381.56">
  <defs>
    <style>
      .cls-1 {
        fill: #fff;
      }

      .cls-2 {
        fill: #f4f4f4;
      }

      .cls-3, .cls-5 {
        fill: #0071ef;
      }

      .cls-3 {
        opacity: 0.5;
      }

      .cls-4 {
        fill: #ff7c5c;
      }

      .cls-5 {
        opacity: 0.2;
      }

      .cls-6 {
        fill: #f7f8fb;
      }

      .cls-7 {
        fill: #000078;
      }

      .cls-8 {
        filter: url(#Rectangle_34);
      }
    </style>
    <filter id="Rectangle_34" x="4229" y="1798" width="363.232" height="381.56" filterUnits="userSpaceOnUse">
      <feOffset dy="30" input="SourceAlpha"/>
      <feGaussianBlur stdDeviation="10" result="blur"/>
      <feFlood flood-color="#b1b1b1" flood-opacity="0.161"/>
      <feComposite operator="in" in2="blur"/>
      <feComposite in="SourceGraphic"/>
    </filter>
  </defs>
  <g id="Group_200" data-name="Group 200" transform="translate(3980)">
    <g class="cls-8" transform="matrix(1, 0, 0, 1, -3980, 0)">
      <rect id="Rectangle_34-2" data-name="Rectangle 34" class="cls-1" width="303.232" height="321.56" rx="10" transform="translate(4259 1798)"/>
    </g>
    <g id="Group_191" data-name="Group 191" transform="translate(385.544 1871.673)">
      <path id="Path_463" data-name="Path 463" class="cls-2" d="M100,72.1c-.842-.253-.926-.674-.926-1.389,0-3.073.042-6.147,0-9.22a1.564,1.564,0,0,1,1.305-1.81,11.24,11.24,0,0,0,7.915-11.031A11.422,11.422,0,0,0,90.4,39.517Q77.77,29.539,65.266,19.645C68.171,13.2,67.245,7.856,62.614,4.278a11.446,11.446,0,0,0-14.146.211c-3.537,2.905-5.936,8.715-2.4,14.988-.126.168-.168.253-.211.295C37.689,26.255,29.606,32.654,21.48,39.054a1.614,1.614,0,0,1-1.389-.042c-4.168-2.147-8.252-2.105-12.125.547A10.667,10.667,0,0,0,3.124,50.253a10.968,10.968,0,0,0,8.041,9.515A1.237,1.237,0,0,1,12.218,61.2q-.063,4.61,0,9.22c.042,1.053-.295,1.474-1.305,1.81A11.377,11.377,0,1,0,20.933,92.4q12.63,9.978,25.135,19.872C43.2,118.415,44.047,123.72,48.3,127.3a11.329,11.329,0,0,0,13.936.589,11,11,0,0,0,4.294-5.894,11.736,11.736,0,0,0-1.305-9.683c8.462-6.694,16.841-13.3,25.219-19.872.253.126.337.211.463.253,4.168,2.4,8.336,2.442,12.336-.211A10.71,10.71,0,0,0,108.21,81.7,11.056,11.056,0,0,0,100,72.1ZM60.172,43.432a7.527,7.527,0,0,0-3.2-.842,7.242,7.242,0,0,0-7.2,7.157,7.135,7.135,0,0,0,2.568,5.431,7.059,7.059,0,0,1-3.831-6.273,7.187,7.187,0,0,1,7.2-7.157A7.291,7.291,0,0,1,60.172,43.432ZM49.057,58.252a11.759,11.759,0,0,0,13.136,0c3.41,2.526,6.82,5.052,10.357,7.62-.211.253-.379.463-.547.632-3.031,2.231-6.021,4.463-9.094,6.652a1.476,1.476,0,0,1-1.389.084c-4.168-2.273-8.252-2.063-12.42.421-3.368-2.484-6.82-5.052-10.441-7.7C42.194,63.3,45.6,60.82,49.057,58.252Zm4.421,36.46a12.872,12.872,0,0,1-3.621-1.895,13.271,13.271,0,0,0,3.621,1.431ZM48.51,83.05A7.107,7.107,0,0,1,60,77.45a7.326,7.326,0,0,0-3.031-.758,7.178,7.178,0,0,0-7.157,7.157,6.937,6.937,0,0,0,2.779,5.557A7.166,7.166,0,0,1,48.51,83.05Zm9.3,11.2a11.566,11.566,0,0,0,7.41-17.514c2.737-2.021,5.473-4.042,8.168-6.063,2.695-1.979,2.863-2.105,5.179-.421-1.263-.674-1.81-.253-3.915,1.263-2.737,2.021-5.431,4.042-8.168,6.063a11.39,11.39,0,0,1,.884,10.694c-1.558,3.7-4.463,5.81-8.294,6.82,0,4.168,0,8.252.042,12.378a.6.6,0,0,0,.168.421c-.253-.126-.505-.211-.758-.337a1.358,1.358,0,0,1-.674-.926C57.772,102.543,57.814,98.459,57.814,94.249ZM88.548,72.4c-2.779-2.147-5.642-4.21-8.673-6.442,3.452-2.526,6.694-4.926,9.978-7.284a1.435,1.435,0,0,1,1.179,0,15.268,15.268,0,0,0,2.105.926,1.807,1.807,0,0,1,1.474.884c-.084,0-.126-.042-.211-.042a13.325,13.325,0,0,1-2.105-.926,1.623,1.623,0,0,0-1.179,0c-3.284,2.358-6.526,4.757-9.978,7.284,2.989,2.189,5.81,4.21,8.589,6.357A5.1,5.1,0,0,1,88.548,72.4Zm8.336-30.65a7.064,7.064,0,0,1,3.915,1.221,8.811,8.811,0,0,0-2.147-.379A7.178,7.178,0,0,0,91.5,49.747,7.034,7.034,0,0,0,94.653,55.6a7.112,7.112,0,0,1,2.231-13.851Zm-9.515.842a11.745,11.745,0,0,0-.042,12.546c-1.474,1.095-2.989,2.189-4.463,3.326-1.937,1.431-3.831,2.863-5.768,4.21-.337.253-1.01.421-1.263.211-3.537-2.526-7.031-5.136-10.61-7.789a11.354,11.354,0,0,0,1.516-8.757,10.89,10.89,0,0,0-7.578-8.21,1.665,1.665,0,0,1-1.389-2.021c.042-3.452.042-6.9,0-10.315,0-.884.168-1.389,1.137-1.642a29.73,29.73,0,0,0,3.326-1.389Q74.676,32.549,87.369,42.59ZM55.667,6.172A7.215,7.215,0,0,1,61.6,9.414,7.094,7.094,0,0,0,57.014,7.6a7.11,7.11,0,0,0-5.978,11.031,7.206,7.206,0,0,1-2.484-5.263A7.178,7.178,0,0,1,55.667,6.172ZM49.015,22.76a24.466,24.466,0,0,0,3.158,1.347,1.541,1.541,0,0,1,1.347,1.768c-.084,3.915-.042,7.789-.042,11.788a11.32,11.32,0,0,0-8.294,6.82,11.443,11.443,0,0,0,.926,10.652c-3.579,2.61-6.989,5.179-10.441,7.662-.253.168-.842.295-1.053.126-3.579-2.568-7.115-5.179-10.652-7.789a11.745,11.745,0,0,0-.042-12.546C32.3,35.98,40.721,29.328,49.015,22.76Zm-32.5,38.1a1.275,1.275,0,0,1,.674-.926c1.179-.547,2.442-1.01,3.873-1.6.379.295.8.589,1.179.884-1.389.547-2.61,1.01-3.789,1.558a1.358,1.358,0,0,0-.674.926c-.042,3.41-.042,6.778,0,10.189a.812.812,0,0,0,.126.421,3.732,3.732,0,0,1-.716-.337,1.358,1.358,0,0,1-.674-.926C16.47,67.641,16.47,64.273,16.512,60.862ZM7.292,48.905a7.151,7.151,0,0,1,7.157-7.157,7.186,7.186,0,0,1,5.3,2.526,7.291,7.291,0,0,0-4.463-1.684,7.178,7.178,0,0,0-7.157,7.157,6.958,6.958,0,0,0,1.684,4.547A7.082,7.082,0,0,1,7.292,48.905Zm7.2,27.029a7.057,7.057,0,0,1,6.189,3.831A7.032,7.032,0,0,0,15.333,77.2a7.125,7.125,0,0,0-7.2,7.115A6.8,6.8,0,0,0,8.976,87.6,7.433,7.433,0,0,1,7.292,83.05,7.1,7.1,0,0,1,14.491,75.935Zm9.431,13.388a11.575,11.575,0,0,0,0-12.546c3.537-2.61,7.073-5.221,10.652-7.789a1.075,1.075,0,0,1,1.053.126c.337.253.632.463.968.716a1.152,1.152,0,0,0-.758,0c-3.579,2.568-7.115,5.179-10.652,7.789a11.745,11.745,0,0,1,0,12.546q12,9.473,23.956,18.9c-.042,0-.084.042-.126.042C40.679,102.543,32.3,95.975,23.922,89.323Zm31.66,22.145A7.11,7.11,0,0,1,61.94,115.3a6.975,6.975,0,0,0-5.515-2.568,7.18,7.18,0,0,0-7.073,7.115,6.526,6.526,0,0,0,.842,3.242,7.41,7.41,0,0,1-1.684-4.5A7.208,7.208,0,0,1,55.583,111.469Zm34.229-28.5a7.091,7.091,0,0,1,13.388-3.2,7.087,7.087,0,0,0-12.546,4.463,7.494,7.494,0,0,0,.8,3.368A7,7,0,0,1,89.811,82.966Z" transform="translate(-1.853 -1.143)"/>
      <path id="Path_464" data-name="Path 464" class="cls-3" d="M26.388,185.857a7.094,7.094,0,1,0-14.188-.042,7.094,7.094,0,0,0,14.188.042Z" transform="translate(-7.182 -103.487)"/>
      <path id="Path_465" data-name="Path 465" class="cls-3" d="M117.173,263.1a7.115,7.115,0,1,0,7.157,6.989A7.18,7.18,0,0,0,117.173,263.1Z" transform="translate(-63.864 -152.353)"/>
      <path id="Path_466" data-name="Path 466" class="cls-3" d="M215.315,178.7a7.115,7.115,0,1,0,0,14.23,7.217,7.217,0,0,0,7.073-7.157A7.088,7.088,0,0,0,215.315,178.7Z" transform="translate(-120.662 -103.488)"/>
      <path id="Path_467" data-name="Path 467" class="cls-4" d="M118.157,110.73A7.115,7.115,0,0,0,118.2,96.5a7.115,7.115,0,1,0-.042,14.23Z" transform="translate(-64.385 -55.895)"/>
      <path id="Path_468" data-name="Path 468" class="cls-5" d="M26.388,103.657a7.094,7.094,0,1,0-7.073,7.073A7.125,7.125,0,0,0,26.388,103.657Z" transform="translate(-7.181 -55.895)"/>
      <path id="Path_469" data-name="Path 469" class="cls-5" d="M125.388,20.657a7.094,7.094,0,1,0-7.073,7.073A7.125,7.125,0,0,0,125.388,20.657Z" transform="translate(-64.501 -7.839)"/>
      <path id="Path_470" data-name="Path 470" class="cls-5" d="M224.388,103.657a7.094,7.094,0,1,0-7.073,7.073A7.125,7.125,0,0,0,224.388,103.657Z" transform="translate(-121.82 -55.895)"/>
      <path id="Path_471" data-name="Path 471" class="cls-5" d="M125.388,184.657a7.094,7.094,0,1,0-7.073,7.073A7.125,7.125,0,0,0,125.388,184.657Z" transform="translate(-64.501 -102.792)"/>
      <path id="Path_472" data-name="Path 472" class="cls-6" d="M162.755,181.738a11.745,11.745,0,0,1-.042-12.546l-8.21-6.063c-2.863-2.105-2.863-2.105-5.726,0-2.737,2.021-5.431,4.042-8.168,6.063a11.39,11.39,0,0,1,.884,10.694c-1.558,3.7-4.463,5.81-8.294,6.82,0,4.168,0,8.252.042,12.378a1.275,1.275,0,0,0,.674.926c1.179.547,2.442,1.01,3.789,1.558C145.957,195,154.335,188.39,162.755,181.738Z" transform="translate(-77.239 -93.558)"/>
      <path id="Path_473" data-name="Path 473" class="cls-6" d="M77.908,201.256a30.708,30.708,0,0,1,3.579-1.474,1.05,1.05,0,0,0,.926-1.221c-.042-2.821,0-5.6,0-8.42v-3.789c-3.958-1.01-6.778-3.158-8.294-6.82A11.526,11.526,0,0,1,75,168.879c-3.537-2.61-6.947-5.178-10.4-7.663-.253-.168-.842-.295-1.053-.126-3.579,2.568-7.115,5.179-10.652,7.789a11.745,11.745,0,0,1,0,12.546C61.194,188.078,69.572,194.646,77.908,201.256Z" transform="translate(-30.746 -93.246)"/>
      <path id="Path_474" data-name="Path 474" class="cls-6" d="M185.6,143.831c3.031,2.231,5.894,4.252,8.673,6.442,1.179.926,2.189,1.516,3.537.379a2.945,2.945,0,0,1,1.516-.589c1.137-.126,1.221-.758,1.221-1.684-.042-2.863-.126-5.684.042-8.547.084-1.389-.295-2.063-1.684-2.358a13.324,13.324,0,0,1-2.105-.926,1.623,1.623,0,0,0-1.179,0C192.294,138.863,189.052,141.3,185.6,143.831Z" transform="translate(-107.577 -79.018)"/>
      <path id="Path_475" data-name="Path 475" class="cls-6" d="M39.7,135.9c-1.431.589-2.695,1.01-3.873,1.6a1.359,1.359,0,0,0-.674.926c-.042,3.41-.042,6.778,0,10.189a1.275,1.275,0,0,0,.674.926c1.221.589,2.526,1.053,3.873,1.6,3.326-2.442,6.736-4.968,10.315-7.62C46.44,140.868,43.03,138.342,39.7,135.9Z" transform="translate(-20.455 -78.707)"/>
      <path id="Path_476" data-name="Path 476" class="cls-7" d="M42.91,17.533C39.373,11.26,41.731,5.45,45.31,2.545a11.332,11.332,0,0,1,14.146-.211c4.631,3.537,5.6,8.883,2.652,15.367q12.5,9.915,25.135,19.872a11.422,11.422,0,0,1,17.893,9.136A11.255,11.255,0,0,1,97.221,57.74a1.564,1.564,0,0,0-1.305,1.81q.063,4.61,0,9.22c0,.716.084,1.095.926,1.389,4.673,1.474,7.536,4.673,8.168,9.557A10.64,10.64,0,0,1,100.042,90.5c-4,2.652-8.168,2.61-12.336.211-.126-.084-.253-.126-.463-.253-8.336,6.568-16.714,13.22-25.219,19.872a11.432,11.432,0,0,1,1.305,9.683,11,11,0,0,1-4.294,5.894,11.451,11.451,0,0,1-13.936-.589c-4.252-3.537-5.094-8.841-2.231-15.03q-12.5-9.915-25.135-19.872A11.453,11.453,0,0,1-.2,80.9,11.285,11.285,0,0,1,7.713,70.244c1.053-.337,1.347-.758,1.305-1.81-.084-3.073-.042-6.147,0-9.22,0-.8-.211-1.137-1.053-1.431C3.334,56.309.513,53.109-.076,48.267A10.874,10.874,0,0,1,4.85,37.573c3.873-2.652,7.957-2.695,12.125-.547a1.614,1.614,0,0,0,1.389.042c8.126-6.357,16.251-12.8,24.335-19.2C42.741,17.828,42.783,17.7,42.91,17.533ZM84.254,40.6Q71.56,30.563,59.161,20.775a19.4,19.4,0,0,1-3.326,1.389c-1.01.253-1.137.716-1.137,1.642.042,3.452.042,6.9,0,10.315a1.745,1.745,0,0,0,1.389,2.021,10.838,10.838,0,0,1,7.536,8.21,11.354,11.354,0,0,1-1.516,8.757c3.579,2.652,7.073,5.221,10.61,7.789a1.576,1.576,0,0,0,1.263-.211c1.937-1.389,3.873-2.821,5.768-4.21,1.516-1.095,2.989-2.231,4.463-3.326A11.745,11.745,0,0,1,84.254,40.6Zm0,46.733a11.745,11.745,0,0,1-.042-12.546L76,68.729c-2.863-2.105-2.863-2.105-5.726,0-2.737,2.021-5.431,4.042-8.168,6.063a11.39,11.39,0,0,1,.884,10.694c-1.558,3.7-4.463,5.81-8.294,6.82,0,4.168,0,8.252.042,12.378a1.275,1.275,0,0,0,.674.926c1.179.547,2.442,1.01,3.789,1.558C67.455,100.6,75.833,93.99,84.254,87.338Zm-41.3-34.187A11.5,11.5,0,0,1,50.32,35.679c0-4-.042-7.873.042-11.788a1.475,1.475,0,0,0-1.347-1.768,24.465,24.465,0,0,1-3.158-1.347C37.6,27.343,29.185,33.995,20.806,40.6a11.745,11.745,0,0,1,.042,12.546c3.537,2.61,7.073,5.221,10.652,7.789.211.168.8.042,1.053-.126C36.005,58.33,39.415,55.761,42.952,53.151ZM45.9,107.167a30.708,30.708,0,0,1,3.579-1.474,1.05,1.05,0,0,0,.926-1.221c-.042-2.821,0-5.6,0-8.42V92.263c-3.958-1.01-6.778-3.158-8.294-6.82a11.526,11.526,0,0,1,.884-10.652c-3.537-2.61-6.947-5.179-10.4-7.663-.253-.168-.842-.295-1.053-.126-3.579,2.568-7.115,5.179-10.652,7.789a11.745,11.745,0,0,1,0,12.546C29.185,93.99,37.563,100.557,45.9,107.167Zm-10.4-43.2c3.621,2.652,7.073,5.221,10.441,7.7,4.168-2.484,8.252-2.695,12.42-.421a1.615,1.615,0,0,0,1.389-.084c3.073-2.189,6.063-4.421,9.094-6.652a4.218,4.218,0,0,0,.547-.632c-3.494-2.568-6.947-5.094-10.357-7.62a11.683,11.683,0,0,1-13.136,0C42.489,58.835,39.079,61.319,35.5,63.971ZM52.551,18.459a7.115,7.115,0,1,0-7.2-7.031A7.246,7.246,0,0,0,52.551,18.459Zm-.084,55.49a7.115,7.115,0,1,0,7.2,6.989A7.18,7.18,0,0,0,52.467,73.949Zm-34.1,7.157a7.094,7.094,0,1,0-14.188-.042,7.152,7.152,0,0,0,7.073,7.115A7.18,7.18,0,0,0,18.365,81.107Zm34.1,28.377a7.115,7.115,0,1,0,7.157,6.989A7.18,7.18,0,0,0,52.467,109.483Zm.042-55.49a7.115,7.115,0,0,0,.042-14.23,7.115,7.115,0,1,0-.042,14.23ZM18.365,46.92a7.125,7.125,0,0,0-7.031-7.157,7.115,7.115,0,1,0-.042,14.23A7.061,7.061,0,0,0,18.365,46.92ZM93.811,73.949a7.115,7.115,0,1,0,0,14.23,7.217,7.217,0,0,0,7.073-7.157A7.088,7.088,0,0,0,93.811,73.949ZM86.7,46.878a7.089,7.089,0,0,0,7.031,7.115A7.115,7.115,0,1,0,86.7,46.878ZM76.76,63.971c3.031,2.231,5.894,4.252,8.673,6.442,1.179.926,2.189,1.516,3.537.379a2.945,2.945,0,0,1,1.516-.589c1.137-.126,1.221-.758,1.221-1.684-.042-2.863-.126-5.684.042-8.547.084-1.389-.295-2.063-1.684-2.358a13.326,13.326,0,0,1-2.105-.926,1.623,1.623,0,0,0-1.179,0C83.454,59,80.212,61.445,76.76,63.971Zm-58.774-7.62c-1.431.589-2.695,1.01-3.873,1.6a1.358,1.358,0,0,0-.674.926c-.042,3.41-.042,6.778,0,10.189a1.275,1.275,0,0,0,.674.926c1.221.589,2.526,1.053,3.873,1.6,3.326-2.442,6.736-4.968,10.315-7.62C24.722,61.319,21.312,58.793,17.986,56.351Z" transform="translate(0 0)"/>
    </g>
    <g id="Group_303" data-name="Group 303" transform="translate(373 2038.9)">
      <path id="Path_904" data-name="Path 904" d="M0,.5A.265.265,0,0,1,.3.2H4.4a6.3,6.3,0,1,1,0,12.6H.3a.319.319,0,0,1-.3-.3ZM4.2,11.1A4.467,4.467,0,0,0,8.8,6.5,4.467,4.467,0,0,0,4.2,1.9H1.8v9.2Z"/>
      <path id="Path_905" data-name="Path 905" d="M15.6,5.4a3.206,3.206,0,0,1,3.3,3.3v.5a.319.319,0,0,1-.3.3H13.7a2.082,2.082,0,0,0,2.1,1.9,3.773,3.773,0,0,0,1.6-.5c.2-.1.3-.2.5,0l.5.7a.33.33,0,0,1,0,.5,3.947,3.947,0,0,1-2.7.9,3.573,3.573,0,0,1-3.6-3.8A3.5,3.5,0,0,1,15.6,5.4Zm1.7,3a1.735,1.735,0,0,0-1.7-1.6,1.759,1.759,0,0,0-1.8,1.6Z"/>
      <path id="Path_906" data-name="Path 906" d="M23.9,5.4a3.317,3.317,0,0,1,2.6,1.3c.1.2.1.4-.1.5l-.6.5c-.2.2-.3.1-.5-.1A1.841,1.841,0,0,0,23.9,7a2.135,2.135,0,0,0-2.1,2.2,2.135,2.135,0,0,0,2.1,2.2,2.482,2.482,0,0,0,1.7-.8c.2-.2.3-.2.5,0l.5.4c.2.1.3.3.1.5A3.2,3.2,0,0,1,23.9,13a3.8,3.8,0,0,1-3.8-3.8A3.864,3.864,0,0,1,23.9,5.4Z"/>
      <path id="Path_907" data-name="Path 907" d="M28.3,1.6a1.1,1.1,0,0,1,1-1.1,1.11,1.11,0,0,1,1.1,1.1,1.028,1.028,0,0,1-1.1,1A.945.945,0,0,1,28.3,1.6Zm.2,4.3a.319.319,0,0,1,.3-.3h1a.319.319,0,0,1,.3.3v6.5a.319.319,0,0,1-.3.3h-1a.319.319,0,0,1-.3-.3Z"/>
      <path id="Path_908" data-name="Path 908" d="M32.1,11.8l.4-.7A.44.44,0,0,1,33,11a3.633,3.633,0,0,0,1.7.5c.5,0,.9-.2.9-.6,0-.5-.4-.7-1.4-1.2-1.1-.5-2.1-1.2-2.1-2.4,0-.9.7-2,2.5-2a3.269,3.269,0,0,1,2.1.6c.2.1.3.3.1.5l-.3.6c-.1.2-.3.2-.5.1a4.02,4.02,0,0,0-1.5-.4c-.6,0-.8.3-.8.5,0,.5.5.7,1.2,1,1.3.6,2.4,1.1,2.4,2.5,0,1.1-1.1,2.1-2.7,2.1a4,4,0,0,1-2.4-.7C32.1,12.2,32,12,32.1,11.8Z"/>
      <path id="Path_909" data-name="Path 909" d="M38.8,1.6a1.1,1.1,0,0,1,1-1.1,1.11,1.11,0,0,1,1.1,1.1,1.028,1.028,0,0,1-1.1,1A.945.945,0,0,1,38.8,1.6ZM39,5.9a.319.319,0,0,1,.3-.3h1a.319.319,0,0,1,.3.3v6.5a.319.319,0,0,1-.3.3h-1a.319.319,0,0,1-.3-.3Z"/>
      <path id="Path_910" data-name="Path 910" d="M46.1,5.4a3.7,3.7,0,0,1,3.6,3.8,3.605,3.605,0,1,1-7.2,0A3.7,3.7,0,0,1,46.1,5.4Zm0,6a2.15,2.15,0,0,0,2-2.3,2.009,2.009,0,1,0-4,0A2.15,2.15,0,0,0,46.1,11.4Z"/>
      <path id="Path_911" data-name="Path 911" d="M51.6,5.9a.319.319,0,0,1,.3-.3h.5c.1,0,.3.1.3.2l.2.6a3.885,3.885,0,0,1,2.5-1c2.2,0,3,1.5,3,3.4v3.6a.319.319,0,0,1-.3.3h-1a.319.319,0,0,1-.3-.3V8.8c0-1.2-.6-1.8-1.5-1.8a2.353,2.353,0,0,0-2,1.1v4.4c0,.2-.1.3-.4.3H52a.319.319,0,0,1-.3-.3V5.9Z"/>
      <path id="Path_912" data-name="Path 912" d="M64.4,11c.2-.2.3-.5.5-.7s.4-.3.6-.1a5.268,5.268,0,0,0,2.9,1.2,1.834,1.834,0,0,0,2-1.7c0-1.1-.9-1.8-2.7-2.5-1.8-.8-3.3-1.7-3.3-3.8C64.4,2,65.5.1,68.3.1a5.1,5.1,0,0,1,3.3,1.1.428.428,0,0,1,.1.6,3.039,3.039,0,0,1-.5.7.481.481,0,0,1-.6.2,5.133,5.133,0,0,0-2.4-.9,1.76,1.76,0,0,0-2,1.6c0,1,.8,1.7,2.3,2.3,2.1.8,3.9,1.8,3.9,4,0,1.9-1.7,3.4-4,3.4a6.414,6.414,0,0,1-3.9-1.4C64.4,11.4,64.3,11.3,64.4,11Z"/>
      <path id="Path_913" data-name="Path 913" d="M77.6,5.4a3.317,3.317,0,0,1,2.6,1.3c.1.2.1.4-.1.5l-.6.5c-.2.2-.3.1-.5-.1A2.026,2.026,0,0,0,77.6,7a2.135,2.135,0,0,0-2.1,2.2,2.135,2.135,0,0,0,2.1,2.2,2.482,2.482,0,0,0,1.7-.8c.2-.2.3-.2.5,0l.5.4c.2.1.3.3.1.5A3.2,3.2,0,0,1,77.6,13a3.8,3.8,0,0,1-3.8-3.8A3.864,3.864,0,0,1,77.6,5.4Z"/>
      <path id="Path_914" data-name="Path 914" d="M82,1.6A1.1,1.1,0,0,1,83,.5a1.028,1.028,0,0,1,1,1.1,1.028,1.028,0,0,1-1.1,1A.923.923,0,0,1,82,1.6Zm.2,4.3a.319.319,0,0,1,.3-.3h1a.319.319,0,0,1,.3.3v6.5a.319.319,0,0,1-.3.3h-1a.319.319,0,0,1-.3-.3Z"/>
      <path id="Path_915" data-name="Path 915" d="M89.3,5.4a3.206,3.206,0,0,1,3.3,3.3v.5a.319.319,0,0,1-.3.3H87.4a2.082,2.082,0,0,0,2.1,1.9,3.773,3.773,0,0,0,1.6-.5c.2-.1.3-.2.5,0l.5.7a.33.33,0,0,1,0,.5,3.947,3.947,0,0,1-2.7.9,3.573,3.573,0,0,1-3.6-3.8A3.441,3.441,0,0,1,89.3,5.4Zm1.6,3a1.735,1.735,0,0,0-1.7-1.6,1.759,1.759,0,0,0-1.8,1.6Z"/>
      <path id="Path_916" data-name="Path 916" d="M94.3,5.9a.319.319,0,0,1,.3-.3h.5c.1,0,.3.1.3.2l.2.6a3.885,3.885,0,0,1,2.5-1c2.2,0,3,1.5,3,3.4v3.6a.319.319,0,0,1-.3.3h-1a.319.319,0,0,1-.3-.3V8.8C99.5,7.6,98.9,7,98,7a2.353,2.353,0,0,0-2,1.1v4.4c0,.2-.1.3-.4.3h-.9a.319.319,0,0,1-.3-.3V5.9Z"/>
      <path id="Path_917" data-name="Path 917" d="M106.7,5.4a3.317,3.317,0,0,1,2.6,1.3c.1.2.1.4-.1.5l-.6.5c-.2.2-.3.1-.5-.1a1.75,1.75,0,0,0-1.4-.7,2.135,2.135,0,0,0-2.1,2.2,2.135,2.135,0,0,0,2.1,2.2,2.482,2.482,0,0,0,1.7-.8c.2-.2.3-.2.5,0l.5.4c.2.1.3.3.1.5a3.2,3.2,0,0,1-2.8,1.5,3.8,3.8,0,0,1-3.8-3.8A3.846,3.846,0,0,1,106.7,5.4Z"/>
      <path id="Path_918" data-name="Path 918" d="M114.4,5.4a3.206,3.206,0,0,1,3.3,3.3v.5a.319.319,0,0,1-.3.3h-4.9a2.082,2.082,0,0,0,2.1,1.9,3.773,3.773,0,0,0,1.6-.5c.2-.1.3-.2.5,0l.5.7a.33.33,0,0,1,0,.5,3.947,3.947,0,0,1-2.7.9,3.573,3.573,0,0,1-3.6-3.8A3.441,3.441,0,0,1,114.4,5.4Zm1.6,3a1.735,1.735,0,0,0-1.7-1.6,1.759,1.759,0,0,0-1.8,1.6Z"/>
      <path id="Path_919" data-name="Path 919" d="M4.5,29.8a4.883,4.883,0,0,1,1.4.2c0-1.1-.2-1.6-1.1-1.6a8.475,8.475,0,0,0-2,.3c-.2.1-.3-.1-.4-.3l-.1-.7a.3.3,0,0,1,.2-.4c.1.1,1.1-.3,2.5-.3,2.3,0,2.5,1.4,2.5,3.2V34a.319.319,0,0,1-.3.3H6.6c-.2,0-.2-.1-.3-.3l-.2-.5a2.606,2.606,0,0,1-2.2,1.1,2.181,2.181,0,0,1-2.3-2.4C1.6,30.8,2.7,29.8,4.5,29.8Zm-.2,3.5a1.987,1.987,0,0,0,1.6-.9V31.2a2.352,2.352,0,0,0-1.3-.3c-.9,0-1.5.5-1.5,1.2A1.216,1.216,0,0,0,4.3,33.3Z"/>
      <path id="Path_920" data-name="Path 920" d="M9.7,27.5a.319.319,0,0,1,.3-.3h.5c.1,0,.3.1.3.2l.2.6a3.885,3.885,0,0,1,2.5-1c2.2,0,3,1.5,3,3.4V34a.319.319,0,0,1-.3.3h-1a.319.319,0,0,1-.3-.3V30.3c0-1.2-.6-1.8-1.5-1.8a2.353,2.353,0,0,0-2,1.1V34c0,.2-.1.3-.4.3h-.9a.319.319,0,0,1-.3-.3V27.5Z"/>
      <path id="Path_921" data-name="Path 921" d="M21.9,27a3.307,3.307,0,0,1,1.7.4V22.1a.319.319,0,0,1,.3-.3h1a.319.319,0,0,1,.3.3V34a.319.319,0,0,1-.3.3h-.5a.265.265,0,0,1-.3-.3l-.1-.4a3.342,3.342,0,0,1-2.3,1,3.6,3.6,0,0,1-3.4-3.8A3.762,3.762,0,0,1,21.9,27Zm.1,6a1.934,1.934,0,0,0,1.7-1.1V29a3.078,3.078,0,0,0-1.6-.4A2.135,2.135,0,0,0,20,30.8,2.056,2.056,0,0,0,22,33Z"/>
      <path id="Path_922" data-name="Path 922" d="M30.6,22.2a.338.338,0,0,1,.3-.5h1.3c.1,0,.3.1.3.2l4,8.9h.1l4-8.9c0-.1.1-.2.3-.2h1.3c.3,0,.4.2.3.5L37,34.3c-.1.1-.2.2-.3.2h-.2c-.1,0-.3-.1-.3-.2Z"/>
      <path id="Path_923" data-name="Path 923" d="M43.2,23.2a1.1,1.1,0,0,1,1-1.1,1.11,1.11,0,0,1,1.1,1.1,1.028,1.028,0,0,1-1.1,1A1,1,0,0,1,43.2,23.2Zm.2,4.3a.319.319,0,0,1,.3-.3h1a.319.319,0,0,1,.3.3V34a.319.319,0,0,1-.3.3h-1a.319.319,0,0,1-.3-.3Z"/>
      <path id="Path_924" data-name="Path 924" d="M47.1,33.4l.4-.7a.44.44,0,0,1,.5-.1,3.633,3.633,0,0,0,1.7.5c.5,0,.9-.2.9-.6,0-.5-.4-.7-1.4-1.2C47.9,30.9,47,30.2,47,29c0-.9.7-2,2.5-2a3.269,3.269,0,0,1,2.1.6c.2.1.3.3.1.5l-.3.6c-.1.2-.3.2-.5.1a4.02,4.02,0,0,0-1.5-.4c-.6,0-.8.3-.8.5,0,.5.5.7,1.2,1,1.3.6,2.4,1.1,2.4,2.5,0,1.1-1.1,2.1-2.7,2.1a4,4,0,0,1-2.4-.7A.483.483,0,0,1,47.1,33.4Z"/>
      <path id="Path_925" data-name="Path 925" d="M53.8,27.5a.319.319,0,0,1,.3-.3h1a.319.319,0,0,1,.3.3v3.7c0,1.2.6,1.8,1.5,1.8a2,2,0,0,0,1.8-1.2V27.5c0-.3.1-.3.4-.3H60a.319.319,0,0,1,.3.3V34a.319.319,0,0,1-.3.3h-.5a.265.265,0,0,1-.3-.3l-.2-.5a3.515,3.515,0,0,1-2.4,1c-2.2,0-2.9-1.5-2.9-3.4V27.5Z"/>
      <path id="Path_926" data-name="Path 926" d="M65.2,29.8a4.883,4.883,0,0,1,1.4.2c0-1.1-.2-1.6-1.1-1.6a8.475,8.475,0,0,0-2,.3c-.2.1-.3-.1-.4-.3l-.1-.7a.3.3,0,0,1,.2-.4,6.59,6.59,0,0,1,2.5-.4c2.3,0,2.5,1.4,2.5,3.2V34a.319.319,0,0,1-.3.3h-.5c-.2,0-.2-.1-.3-.3l-.2-.5a3.017,3.017,0,0,1-2.2.9A2.181,2.181,0,0,1,62.4,32C62.3,30.8,63.3,29.8,65.2,29.8ZM65,33.3a1.987,1.987,0,0,0,1.6-.9V31.2a2.352,2.352,0,0,0-1.3-.3c-.9,0-1.5.5-1.5,1.2A1.216,1.216,0,0,0,65,33.3Z"/>
      <path id="Path_927" data-name="Path 927" d="M70.4,22.1a.319.319,0,0,1,.3-.3h1a.319.319,0,0,1,.3.3V34a.319.319,0,0,1-.3.3h-1a.319.319,0,0,1-.3-.3Z"/>
      <path id="Path_928" data-name="Path 928" d="M74.3,23.2a1.1,1.1,0,0,1,1-1.1,1.11,1.11,0,0,1,1.1,1.1,1.028,1.028,0,0,1-1.1,1A.945.945,0,0,1,74.3,23.2Zm.2,4.3a.319.319,0,0,1,.3-.3h1a.319.319,0,0,1,.3.3V34a.319.319,0,0,1-.3.3h-1a.319.319,0,0,1-.3-.3Z"/>
      <path id="Path_929" data-name="Path 929" d="M77.9,33.9,81,28.8H78.4a.319.319,0,0,1-.3-.3v-.8a.265.265,0,0,1,.3-.3H83c.3,0,.5.3.3.5l-3,5.2h2.4a.265.265,0,0,1,.3.3V34a.265.265,0,0,1-.3.3H78.3A.319.319,0,0,1,78,34v-.1Z"/>
      <path id="Path_930" data-name="Path 930" d="M87.4,29.8a4.883,4.883,0,0,1,1.4.2c0-1.1-.2-1.6-1.1-1.6a8.475,8.475,0,0,0-2,.3c-.2.1-.3-.1-.4-.3l-.1-.7a.3.3,0,0,1,.2-.4,6.59,6.59,0,0,1,2.5-.4c2.3,0,2.5,1.4,2.5,3.2V34a.319.319,0,0,1-.3.3h-.5c-.2,0-.2-.1-.3-.3l-.2-.5a3.017,3.017,0,0,1-2.2.9A2.181,2.181,0,0,1,84.6,32C84.6,30.8,85.6,29.8,87.4,29.8Zm-.2,3.5a1.987,1.987,0,0,0,1.6-.9V31.2a2.352,2.352,0,0,0-1.3-.3c-.9,0-1.5.5-1.5,1.2A1.287,1.287,0,0,0,87.2,33.3Z"/>
      <path id="Path_931" data-name="Path 931" d="M93.2,28.7h-.8a.319.319,0,0,1-.3-.3v-.8a.265.265,0,0,1,.3-.3h.8v-2a.319.319,0,0,1,.3-.3h1a.319.319,0,0,1,.3.3v2h1.8a.265.265,0,0,1,.3.3v.8a.265.265,0,0,1-.3.3H94.8v3.6c0,.6.2.7.6.7a2.9,2.9,0,0,0,1.1-.3c.2-.1.3,0,.4.2l.3.8c.1.2,0,.3-.2.4a5.729,5.729,0,0,1-2.1.5c-1.4,0-1.8-.9-1.8-2.1V28.7Z"/>
      <path id="Path_932" data-name="Path 932" d="M98.7,23.2a1.1,1.1,0,0,1,1-1.1,1.11,1.11,0,0,1,1.1,1.1,1.028,1.028,0,0,1-1.1,1A1,1,0,0,1,98.7,23.2Zm.2,4.3a.319.319,0,0,1,.3-.3h1a.319.319,0,0,1,.3.3V34a.319.319,0,0,1-.3.3h-1a.319.319,0,0,1-.3-.3Z"/>
      <path id="Path_933" data-name="Path 933" d="M106.1,27a3.806,3.806,0,1,1-3.6,3.8A3.573,3.573,0,0,1,106.1,27Zm0,6a2.15,2.15,0,0,0,2-2.3,2.009,2.009,0,1,0-4,0A2.031,2.031,0,0,0,106.1,33Z"/>
      <path id="Path_934" data-name="Path 934" d="M111.5,27.5a.319.319,0,0,1,.3-.3h.5c.1,0,.3.1.3.2l.2.6a3.885,3.885,0,0,1,2.5-1c2.2,0,3,1.5,3,3.4V34a.319.319,0,0,1-.3.3h-1a.319.319,0,0,1-.3-.3V30.3c0-1.2-.6-1.8-1.5-1.8a2.353,2.353,0,0,0-2,1.1V34c0,.2-.1.3-.4.3h-.9a.319.319,0,0,1-.3-.3V27.5Z"/>
    </g>
  </g>
</svg>
