<svg xmlns="http://www.w3.org/2000/svg" xmlns:xlink="http://www.w3.org/1999/xlink" viewBox="4229 2657 363.232 381.56">
  <defs>
    <style>
      .cls-1, .cls-3 {
        fill: #fff;
      }

      .cls-2 {
        fill: #f4f4f4;
      }

      .cls-2, .cls-3 {
        opacity: 0.5;
      }

      .cls-4, .cls-5 {
        fill: #0071ef;
      }

      .cls-4 {
        opacity: 0.2;
      }

      .cls-6 {
        fill: #000078;
      }

      .cls-7 {
        fill: #ff7c5c;
      }

      .cls-8 {
        filter: url(#Rectangle_54);
      }
    </style>
    <filter id="Rectangle_54" x="4229" y="2657" width="363.232" height="381.56" filterUnits="userSpaceOnUse">
      <feOffset dy="30" input="SourceAlpha"/>
      <feGaussianBlur stdDeviation="10" result="blur"/>
      <feFlood flood-color="#b1b1b1" flood-opacity="0.161"/>
      <feComposite operator="in" in2="blur"/>
      <feComposite in="SourceGraphic"/>
    </filter>
  </defs>
  <g id="Group_198" data-name="Group 198" transform="translate(3980)">
    <g class="cls-8" transform="matrix(1, 0, 0, 1, -3980, 0)">
      <rect id="Rectangle_54-2" data-name="Rectangle 54" class="cls-1" width="303.232" height="321.56" rx="10" transform="translate(4259 2657)"/>
    </g>
    <g id="Group_194" data-name="Group 194" transform="translate(382.147 2717.151)">
      <path id="Path_477" data-name="Path 477" class="cls-2" d="M114.164,86.811c-3.874-6.472-7.566-13.035-11.3-19.6a6.6,6.6,0,0,1-.82-2.233,87.921,87.921,0,0,0-4.6-17.455c-2.917-7.338-7.019-13.809-13.308-18.732a43.181,43.181,0,0,0-19.552-8.431c-.866-.137-1.048-.5-1-1.276.046-3.874.046-7.748,0-11.667A3.161,3.161,0,0,0,60.157,4H47.077C44.8,4,43.522,5.231,43.522,7.509V19.724c-.456.091-.775.182-1.139.228-3.464.82-6.973,1.413-10.3,2.552C21.6,26.1,13.579,32.758,8.657,42.785a56.259,56.259,0,0,0-5.013,33.27,47.247,47.247,0,0,0,17.228,30.672,2.072,2.072,0,0,1,.866,1.96c-.046,8.158,0,16.316,0,24.52,0,2.78,1.185,3.919,3.965,3.919H66.355a3.2,3.2,0,0,0,3.464-3.509v-6.381a9.8,9.8,0,0,1,.091-1.048H89.553a4.665,4.665,0,0,0,1.6-.228c1.458-.5,2.051-1.6,2.051-3.509V97.293c0-.866.228-1.185,1.094-1.367,5.788-1.185,11.576-2.552,17.41-3.646C114.8,91.733,115.486,88.953,114.164,86.811ZM64.4,85.9c5.97-3.418,9.981-8.431,11.3-15.268a21.493,21.493,0,0,0-3.692-16.043A21.782,21.782,0,0,1,77.521,72.91c-1.322,6.882-5.332,11.85-11.3,15.268-4.375,2.507-9.07,3.737-14.128,2.78a23.683,23.683,0,0,1-12.579-6.745A26.848,26.848,0,0,1,36.549,80.7c.365.41.729.82,1.139,1.231a23.219,23.219,0,0,0,12.579,6.745C55.326,89.636,60.02,88.406,64.4,85.9Zm-.82-58.337V26.332A38.881,38.881,0,0,1,73.328,29.2a32.092,32.092,0,0,1,13.08,10.619,32.168,32.168,0,0,0-11.257-8.34A37.077,37.077,0,0,0,65.4,28.611V48.436c-.273-.137-.5-.273-.775-.41a1.665,1.665,0,0,1-1.048-1.732C63.621,40,63.575,33.806,63.575,27.563Zm-13.946-17.5h7.793v1.367H50.541V45.474h-.912Zm4.1,40.744a15.041,15.041,0,0,1,9.07,3.1,15.24,15.24,0,0,0-7.7-2.188c-9.343,0-16.726,7.155-16.544,16.407.091,4.649,2.917,9.616,7.11,12.716-4.922-2.962-8.34-8.477-8.477-13.627C37,57.961,44.388,50.806,53.731,50.806ZM9.8,76.647a51.147,51.147,0,0,1,2.415-26.8C16.769,37.361,25.748,29.841,38.6,26.833c1.55-.365,3.145-.638,4.831-.957a11.554,11.554,0,0,1,.046,1.185v1.413c-1.048.182-2.051.41-3.054.638C27.571,32.12,18.592,39.64,14.035,52.128a50.685,50.685,0,0,0-2.415,26.8,42.8,42.8,0,0,0,7.566,17.957A42.158,42.158,0,0,1,9.8,76.647Zm18,30.262a5.86,5.86,0,0,0-.228-1.6c.046.046.137.091.182.137a4.322,4.322,0,0,1,1.869,3.692c-.046,7.246,0,14.447,0,21.694H27.8v-1.231Q27.73,118.326,27.8,106.909Z" transform="translate(-1.718 -2.177)"/>
      <path id="Path_478" data-name="Path 478" class="cls-3" d="M71.752,53.4V73.318A1.581,1.581,0,0,0,72.8,75.05,21.776,21.776,0,0,1,83.875,97.7c-1.322,6.882-5.332,11.85-11.3,15.268-4.375,2.507-9.07,3.737-14.128,2.78A23.683,23.683,0,0,1,45.865,109c-3.874-3.828-6.426-8.386-6.608-13.946-.319-9.115,3.646-15.906,11.531-20.418a1.563,1.563,0,0,0,.912-1.55c-.046-6.335,0-12.67,0-19,0-.365-.046-.684-.046-1.185-1.686.319-3.281.592-4.831.957C33.97,56.865,24.991,64.385,20.434,76.873a50.685,50.685,0,0,0-2.415,26.8,41.646,41.646,0,0,0,16.088,26.57,4.322,4.322,0,0,1,1.869,3.692c-.046,7.566,0,15.177,0,22.742v1.231h36c0-2.188.137-4.375-.046-6.517-.228-3.19,1.5-4.33,4.239-4.284,5.925.137,11.85.046,17.774.046h1.322V121.4c0-2.233.775-3.236,2.917-3.692,3.281-.729,6.563-1.458,9.844-2.142,2.415-.547,4.831-1.048,7.292-1.6-.273-.5-.456-.82-.638-1.185-3.145-5.423-6.244-10.847-9.343-16.27a7.467,7.467,0,0,1-.82-2.324,82.743,82.743,0,0,0-5.059-18.686C95.815,66.937,90.255,60.1,81.5,56.227A40.8,40.8,0,0,0,71.752,53.4Z" transform="translate(-9.439 -28.791)"/>
      <path id="Path_479" data-name="Path 479" class="cls-4" d="M104.3,16.3V51.712h7.793V16.3H104.3Z" transform="translate(-56.845 -8.871)"/>
      <path id="Path_480" data-name="Path 480" class="cls-5" d="M110.318,120.56c0-8.477-7.292-15.86-15.678-15.86-9.343,0-16.726,7.155-16.544,16.407.137,7.52,7.338,15.769,15.951,15.769C102.433,136.831,110.272,129.037,110.318,120.56Z" transform="translate(-42.582 -56.983)"/>
      <path id="Path_481" data-name="Path 481" class="cls-6" d="M40.436,15.724V3.509C40.436,1.231,41.713,0,43.991,0h13.08A3.118,3.118,0,0,1,60.49,3.418c0,3.874.046,7.748,0,11.667,0,.775.137,1.094,1,1.276a44.19,44.19,0,0,1,19.552,8.431c6.289,4.922,10.391,11.394,13.308,18.732a89.594,89.594,0,0,1,4.6,17.455,6.6,6.6,0,0,0,.82,2.233c3.737,6.563,7.429,13.126,11.3,19.6,1.322,2.188.638,4.922-2.552,5.515-5.834,1.094-11.576,2.461-17.41,3.646-.866.182-1.094.5-1.094,1.367.046,8.386,0,16.772,0,25.158,0,1.869-.592,2.962-2.051,3.509a4.829,4.829,0,0,1-1.6.228H66.733a9.8,9.8,0,0,0-.091,1.048v6.381a3.221,3.221,0,0,1-3.464,3.509H22.525c-2.78,0-3.965-1.139-3.965-3.919v-24.52a2.391,2.391,0,0,0-.866-1.96A47.44,47.44,0,0,1,.467,72.1,56.667,56.667,0,0,1,5.48,38.83C10.4,28.8,18.423,22.15,28.906,18.549c3.327-1.139,6.882-1.732,10.3-2.552C39.662,15.906,39.981,15.815,40.436,15.724ZM60.49,22.332V42.248a1.581,1.581,0,0,0,1.048,1.732A21.776,21.776,0,0,1,72.613,66.631c-1.322,6.882-5.332,11.85-11.3,15.268-4.375,2.507-9.07,3.737-14.128,2.78A23.683,23.683,0,0,1,34.6,77.934c-3.874-3.828-6.426-8.386-6.608-13.946-.319-9.115,3.646-15.906,11.531-20.418a1.563,1.563,0,0,0,.912-1.55c-.046-6.335,0-12.67,0-19,0-.365-.046-.684-.046-1.185-1.686.319-3.281.592-4.831.957C22.708,25.8,13.729,33.316,9.172,45.8A50.685,50.685,0,0,0,6.756,72.6a41.646,41.646,0,0,0,16.088,26.57,4.322,4.322,0,0,1,1.869,3.692c-.046,7.566,0,15.177,0,22.742v1.231h36c0-2.188.137-4.375-.046-6.517-.228-3.19,1.5-4.33,4.239-4.284,5.925.137,11.85.046,17.774.046h1.322V90.331c0-2.233.775-3.236,2.917-3.692,3.281-.729,6.563-1.458,9.844-2.142,2.415-.547,4.831-1.048,7.292-1.6-.273-.5-.456-.82-.638-1.185-3.145-5.423-6.244-10.847-9.343-16.27a7.467,7.467,0,0,1-.82-2.324A82.742,82.742,0,0,0,88.2,44.436c-3.646-8.568-9.206-15.4-17.957-19.278A40.8,40.8,0,0,0,60.49,22.332Zm5.879,40.334c0-8.477-7.292-15.86-15.678-15.86-9.343,0-16.726,7.155-16.544,16.407.137,7.52,7.338,15.769,15.951,15.769C58.484,78.937,66.323,71.143,66.369,62.666ZM46.544,6.062V41.474h7.793V6.062H46.544Z" transform="translate(0)"/>
      <path id="Path_482" data-name="Path 482" class="cls-7" d="M109.08,133.3a2.522,2.522,0,0,0-2.78,2.324,2.632,2.632,0,0,0,2.735,2.415,2.535,2.535,0,0,0,2.37-2.507A2.23,2.23,0,0,0,109.08,133.3Z" transform="translate(-57.933 -72.548)"/>
      <path id="Path_483" data-name="Path 483" class="cls-6" d="M108.413,129.366c.046,3.783-3.692,7.338-7.7,7.383-3.919.046-7.52-3.6-7.611-7.657-.046-3.919,3.464-7.247,7.7-7.292C105.359,121.8,108.367,124.808,108.413,129.366Zm-7.429-2.78a2.522,2.522,0,0,0-2.78,2.324,2.632,2.632,0,0,0,2.735,2.415,2.535,2.535,0,0,0,2.37-2.507A2.23,2.23,0,0,0,100.984,126.585Z" transform="translate(-50.749 -66.289)"/>
      <g id="Group_193" data-name="Group 193" transform="translate(54.535 79.059)">
        <path id="Path_484" data-name="Path 484" class="cls-6" d="M160.792,202.651c-17.729,0-27.8-6.289-33.133-11.576-5.97-5.925-7.566-11.9-7.7-12.579a4.049,4.049,0,0,1,3.054-4.922,4.112,4.112,0,0,1,4.922,3.008c.228.82,5.013,17.866,32.86,17.866h.638a4.1,4.1,0,1,1,.091,8.2Z" transform="translate(-119.836 -173.467)"/>
      </g>
    </g>
    <g id="Group_301" data-name="Group 301" transform="translate(368.038 2892)">
      <path id="Path_853" data-name="Path 853" d="M2.2.3c.1-.2.2-.3.4-.3h.3c.1,0,.2.1.3.2L7,9.4H7L10.7.2c.1-.1.2-.2.3-.2h.3a.319.319,0,0,1,.3.3l2.2,12.1c.1.3-.1.4-.3.4H12.3a.265.265,0,0,1-.3-.3l-1.3-8h-.1L7.4,12.8c0,.1-.1.2-.3.2H6.8c-.1,0-.3-.1-.3-.2L3.2,4.5H3.1l-1.3,8a.451.451,0,0,1-.3.3H.3c-.3,0-.4-.2-.3-.4Z"/>
      <path id="Path_854" data-name="Path 854" d="M18.2,8.2a4.883,4.883,0,0,1,1.4.2c0-1.1-.2-1.6-1.1-1.6a8.475,8.475,0,0,0-2,.3c-.2.1-.3-.1-.4-.3L16,6.1c-.2-.1,0-.2.1-.3a6.59,6.59,0,0,1,2.5-.4c2.3,0,2.5,1.4,2.5,3.2v3.8a.319.319,0,0,1-.3.3h-.5c-.2,0-.2-.1-.3-.3l-.2-.4a3.017,3.017,0,0,1-2.2.9,2.181,2.181,0,0,1-2.3-2.4C15.3,9.2,16.3,8.2,18.2,8.2Zm-.3,3.5a1.987,1.987,0,0,0,1.6-.9V9.6a2.352,2.352,0,0,0-1.3-.3c-.9,0-1.5.5-1.5,1.2A1.287,1.287,0,0,0,17.9,11.7Z"/>
      <path id="Path_855" data-name="Path 855" d="M23.4,5.9a.319.319,0,0,1,.3-.3h.5c.1,0,.3.1.3.2l.2.6a3.885,3.885,0,0,1,2.5-1c2.2,0,3,1.5,3,3.4v3.6a.319.319,0,0,1-.3.3h-1a.319.319,0,0,1-.3-.3V8.8C28.6,7.6,28,7,27.1,7a2.353,2.353,0,0,0-2,1.1v4.4c0,.2-.1.3-.4.3h-.9a.319.319,0,0,1-.3-.3V5.9Z"/>
      <path id="Path_856" data-name="Path 856" d="M34.9,8.2a4.883,4.883,0,0,1,1.4.2c0-1.1-.2-1.6-1.1-1.6a8.475,8.475,0,0,0-2,.3c-.2.1-.3-.1-.4-.3l-.1-.7a.3.3,0,0,1,.2-.4c.1.1,1.1-.3,2.5-.3,2.3,0,2.5,1.4,2.5,3.2v3.8a.319.319,0,0,1-.3.3h-.5c-.2,0-.2-.1-.3-.3l-.2-.4a3.017,3.017,0,0,1-2.2.9A2.18,2.18,0,0,1,32,10.6C32,9.2,33.1,8.2,34.9,8.2Zm-.2,3.5a1.987,1.987,0,0,0,1.6-.9V9.6A2.352,2.352,0,0,0,35,9.3c-.9,0-1.5.5-1.5,1.2A1.216,1.216,0,0,0,34.7,11.7Z"/>
      <path id="Path_857" data-name="Path 857" d="M40.7,10.3a2.839,2.839,0,0,1-.6-1.7,3.137,3.137,0,0,1,3.1-3.2h3.2a.265.265,0,0,1,.3.3v.5c0,.1-.1.3-.2.3l-1,.3a2.411,2.411,0,0,1,.8,1.9,2.951,2.951,0,0,1-3.1,2.9,6.189,6.189,0,0,1-1.6-.3.994.994,0,0,0-.7.9c0,.4.3.7.9.7h2.4c1.6,0,2.8.8,2.8,2.4s-1.4,3-3.8,3c-2.5,0-3.6-1.3-3.6-2.5a1.934,1.934,0,0,1,1.1-1.7V14a1.812,1.812,0,0,1-1.3-1.8A2.491,2.491,0,0,1,40.7,10.3Zm2.6,6.6c1.1,0,2.1-.6,2.1-1.4,0-.3-.2-1-1.4-1H42.4c-.1,0-1,.3-1,1.1C41.4,16.3,42.2,16.9,43.3,16.9Zm1.5-8.3a1.53,1.53,0,0,0-1.5-1.7,1.605,1.605,0,0,0-1.6,1.7,1.605,1.605,0,0,0,1.6,1.7A1.586,1.586,0,0,0,44.8,8.6Z"/>
      <path id="Path_858" data-name="Path 858" d="M51.5,5.4a3.206,3.206,0,0,1,3.3,3.3v.5a.319.319,0,0,1-.3.3H49.6a2.082,2.082,0,0,0,2.1,1.9,3.773,3.773,0,0,0,1.6-.5c.2-.1.3-.2.5,0l.5.7a.33.33,0,0,1,0,.5,3.947,3.947,0,0,1-2.7.9A3.573,3.573,0,0,1,48,9.2,3.5,3.5,0,0,1,51.5,5.4Zm1.7,3a1.735,1.735,0,0,0-1.7-1.6,1.759,1.759,0,0,0-1.8,1.6Z"/>
      <path id="Path_859" data-name="Path 859" d="M59.6,5.4a3.307,3.307,0,0,1,1.7.4V.5a.319.319,0,0,1,.3-.3h1a.319.319,0,0,1,.3.3V12.4a.319.319,0,0,1-.3.3h-.5a.265.265,0,0,1-.3-.3l-.1-.4a3.342,3.342,0,0,1-2.3,1A3.6,3.6,0,0,1,56,9.2,3.7,3.7,0,0,1,59.6,5.4Zm0,6a1.934,1.934,0,0,0,1.7-1.1V7.4A3.078,3.078,0,0,0,59.7,7a2.135,2.135,0,0,0-2.1,2.2A2.191,2.191,0,0,0,59.6,11.4Z"/>
      <path id="Path_860" data-name="Path 860" d="M69.1,11c.2-.2.3-.5.5-.7s.4-.3.6-.1a5.268,5.268,0,0,0,2.9,1.2,1.834,1.834,0,0,0,2-1.7c0-1.1-.9-1.8-2.7-2.5-1.8-.8-3.3-1.7-3.3-3.8C69.1,1.9,70.2,0,73,0a5.1,5.1,0,0,1,3.3,1.1.428.428,0,0,1,.1.6,3.039,3.039,0,0,1-.5.7.481.481,0,0,1-.6.2,4.086,4.086,0,0,0-2.3-1,1.76,1.76,0,0,0-2,1.6c0,1,.8,1.7,2.3,2.3,2.1.8,3.9,1.8,3.9,4,0,1.9-1.7,3.4-4,3.4a6.414,6.414,0,0,1-3.9-1.4C69.1,11.4,68.9,11.3,69.1,11Z"/>
      <path id="Path_861" data-name="Path 861" d="M82.1,5.4a3.206,3.206,0,0,1,3.3,3.3v.5a.319.319,0,0,1-.3.3H80.2a2.082,2.082,0,0,0,2.1,1.9,3.773,3.773,0,0,0,1.6-.5c.2-.1.3-.2.5,0l.5.7a.33.33,0,0,1,0,.5,3.947,3.947,0,0,1-2.7.9,3.573,3.573,0,0,1-3.6-3.8A3.441,3.441,0,0,1,82.1,5.4Zm1.6,3A1.735,1.735,0,0,0,82,6.8a1.759,1.759,0,0,0-1.8,1.6Z"/>
      <path id="Path_862" data-name="Path 862" d="M87.1,5.9a.319.319,0,0,1,.3-.3H88a.319.319,0,0,1,.3.3l.2.6a2.48,2.48,0,0,1,2.1-1c.7,0,1.5.2,1.3.7l-.4.9a.4.4,0,0,1-.4.2.908.908,0,0,0-.7-.3,2.052,2.052,0,0,0-1.6.9v4.6c0,.3-.2.3-.5.3h-.9a.319.319,0,0,1-.3-.3Z"/>
      <path id="Path_863" data-name="Path 863" d="M92.4,6c-.1-.2,0-.4.3-.4h1.1c.2,0,.3.1.3.2L96,10h0l1.9-4.2c.1-.2.3-.2.5-.2h.8c.3,0,.4.2.3.4l-3.2,6.8c0,.1-.1.2-.3.2h-.1c-.2,0-.3-.1-.3-.2Z"/>
      <path id="Path_864" data-name="Path 864" d="M100.7,1.6a1.1,1.1,0,0,1,1-1.1,1.11,1.11,0,0,1,1.1,1.1,1.028,1.028,0,0,1-1.1,1A.945.945,0,0,1,100.7,1.6Zm.2,4.3a.319.319,0,0,1,.3-.3h1a.319.319,0,0,1,.3.3v6.5a.319.319,0,0,1-.3.3h-1a.319.319,0,0,1-.3-.3Z"/>
      <path id="Path_865" data-name="Path 865" d="M108.2,5.4a3.317,3.317,0,0,1,2.6,1.3c.1.2.1.4-.1.5l-.6.5c-.2.2-.3.1-.5-.1a1.75,1.75,0,0,0-1.4-.7,2.135,2.135,0,0,0-2.1,2.2,2.135,2.135,0,0,0,2.1,2.2,2.482,2.482,0,0,0,1.7-.8c.2-.2.3-.2.5,0l.5.4c.2.1.3.3.1.5a3.2,3.2,0,0,1-2.8,1.5,3.8,3.8,0,0,1-3.8-3.8A3.846,3.846,0,0,1,108.2,5.4Z"/>
      <path id="Path_866" data-name="Path 866" d="M115.8,5.4a3.206,3.206,0,0,1,3.3,3.3v.5a.319.319,0,0,1-.3.3h-4.9a2.082,2.082,0,0,0,2.1,1.9,3.773,3.773,0,0,0,1.6-.5c.2-.1.3-.2.5,0l.5.7a.33.33,0,0,1,0,.5,3.947,3.947,0,0,1-2.7.9,3.573,3.573,0,0,1-3.6-3.8A3.5,3.5,0,0,1,115.8,5.4Zm1.7,3a1.735,1.735,0,0,0-1.7-1.6A1.759,1.759,0,0,0,114,8.4Z"/>
      <path id="Path_867" data-name="Path 867" d="M120.4,11.8l.4-.7a.44.44,0,0,1,.5-.1,3.633,3.633,0,0,0,1.7.5c.5,0,.9-.2.9-.6,0-.5-.4-.7-1.4-1.2-1.1-.5-2.1-1.2-2.1-2.4,0-.9.7-2,2.5-2a3.269,3.269,0,0,1,2.1.6c.2.1.3.3.1.5l-.3.6c-.1.2-.3.2-.5.1a4.02,4.02,0,0,0-1.5-.4c-.6,0-.8.3-.8.5,0,.5.5.7,1.2,1,1.3.6,2.4,1.1,2.4,2.5,0,1.1-1.1,2.1-2.7,2.1a4,4,0,0,1-2.4-.7C120.4,12.2,120.4,12,120.4,11.8Z"/>
    </g>
  </g>
</svg>
