<svg xmlns="http://www.w3.org/2000/svg" xmlns:xlink="http://www.w3.org/1999/xlink" viewBox="363 1599 179.811 117.1">
  <defs>
    <style>
      .cls-1 {
        fill: url(#linear-gradient);
      }

      .cls-2 {
        fill: none;
        stroke: #707070;
        stroke-miterlimit: 10;
        stroke-width: 0.5px;
      }

      .cls-3 {
        fill: #292a6f;
      }

      .cls-4 {
        fill: url(#linear-gradient-2);
      }

      .cls-5 {
        fill: url(#linear-gradient-3);
      }

      .cls-6, .cls-8 {
        opacity: 0.15;
      }

      .cls-6 {
        fill: url(#linear-gradient-4);
      }

      .cls-7 {
        fill: url(#linear-gradient-5);
      }

      .cls-8 {
        fill: url(#linear-gradient-6);
      }

      .cls-9 {
        fill: url(#linear-gradient-7);
      }

      .cls-10 {
        fill: #646092;
      }

      .cls-11 {
        fill: url(#linear-gradient-8);
      }

      .cls-12 {
        fill: url(#linear-gradient-9);
      }

      .cls-13 {
        fill: url(#linear-gradient-10);
      }

      .cls-14 {
        fill: url(#linear-gradient-11);
      }

      .cls-15 {
        fill: url(#linear-gradient-12);
      }

      .cls-16 {
        fill: #44427e;
      }

      .cls-17 {
        fill: url(#linear-gradient-13);
      }

      .cls-18 {
        fill: url(#linear-gradient-14);
      }

      .cls-19 {
        fill: url(#linear-gradient-15);
      }

      .cls-20 {
        fill: url(#linear-gradient-16);
      }

      .cls-21 {
        fill: #fff;
      }

      .cls-22 {
        fill: url(#linear-gradient-17);
      }

      .cls-23 {
        fill: url(#linear-gradient-18);
      }

      .cls-24 {
        fill: url(#linear-gradient-19);
      }

      .cls-25 {
        fill: url(#linear-gradient-20);
      }
    </style>
    <linearGradient id="linear-gradient" x1="0.782" y1="1.125" x2="0.41" y2="0.222" gradientUnits="objectBoundingBox">
      <stop offset="0" stop-color="#646092"/>
      <stop offset="0.152" stop-color="#7a74a0" stop-opacity="0.847"/>
      <stop offset="0.432" stop-color="#a39ebe" stop-opacity="0.569"/>
      <stop offset="0.676" stop-color="#c6c3d6" stop-opacity="0.325"/>
      <stop offset="0.874" stop-color="#dfdde8" stop-opacity="0.125"/>
      <stop offset="1" stop-color="#e9e7ef" stop-opacity="0"/>
    </linearGradient>
    <linearGradient id="linear-gradient-2" x1="-0.001" y1="0.498" x2="0.999" y2="0.498" gradientUnits="objectBoundingBox">
      <stop offset="0" stop-color="#292a6f"/>
      <stop offset="1" stop-color="#635e91"/>
    </linearGradient>
    <linearGradient id="linear-gradient-3" x1="0.003" y1="0.497" x2="1.002" y2="0.497" gradientUnits="objectBoundingBox">
      <stop offset="0" stop-color="#f47b5e"/>
      <stop offset="1" stop-color="#f05155"/>
    </linearGradient>
    <linearGradient id="linear-gradient-4" x1="-0.008" y1="0.5" x2="0.999" y2="0.5" gradientUnits="objectBoundingBox">
      <stop offset="0" stop-color="#fff" stop-opacity="0.2"/>
      <stop offset="1" stop-color="#c2c4c6"/>
    </linearGradient>
    <linearGradient id="linear-gradient-5" x1="-0.003" y1="0.504" x2="0.998" y2="0.504" xlink:href="#linear-gradient-3"/>
    <linearGradient id="linear-gradient-6" x1="-0.005" y1="0.501" x2="0.999" y2="0.501" xlink:href="#linear-gradient-4"/>
    <linearGradient id="linear-gradient-7" x1="-0.001" y1="0.501" x2="0.999" y2="0.501" xlink:href="#linear-gradient-2"/>
    <linearGradient id="linear-gradient-8" x1="-0.001" y1="0.5" x2="0.999" y2="0.5" xlink:href="#linear-gradient-3"/>
    <linearGradient id="linear-gradient-9" x1="-0.004" y1="0.5" x2="0.994" y2="0.5" xlink:href="#linear-gradient-3"/>
    <linearGradient id="linear-gradient-10" x1="-0.006" y1="0.5" x2="1.001" y2="0.5" xlink:href="#linear-gradient-3"/>
    <linearGradient id="linear-gradient-11" x1="0" y1="0.5" x2="1" y2="0.5" xlink:href="#linear-gradient-3"/>
    <linearGradient id="linear-gradient-12" x1="-0.001" y1="0.499" x2="0.999" y2="0.499" xlink:href="#linear-gradient-2"/>
    <linearGradient id="linear-gradient-13" x1="0" y1="0.5" x2="1" y2="0.5" xlink:href="#linear-gradient-2"/>
    <linearGradient id="linear-gradient-14" x1="0.257" y1="0.23" x2="1.031" y2="1.101" gradientUnits="objectBoundingBox">
      <stop offset="0" stop-color="#646092"/>
      <stop offset="1" stop-color="#292a6f"/>
    </linearGradient>
    <linearGradient id="linear-gradient-15" x1="0.12" y1="0.175" x2="1.23" y2="1.283" xlink:href="#linear-gradient-14"/>
    <linearGradient id="linear-gradient-16" x1="0.348" y1="0.302" x2="0.91" y2="0.878" xlink:href="#linear-gradient-14"/>
    <linearGradient id="linear-gradient-17" x1="0.018" y1="0.498" x2="1.018" y2="0.498" gradientUnits="objectBoundingBox">
      <stop offset="0.007" stop-color="#292a6f"/>
      <stop offset="1" stop-color="#646092"/>
    </linearGradient>
    <linearGradient id="linear-gradient-18" x1="0.001" y1="0.501" x2="1.001" y2="0.501" xlink:href="#linear-gradient-2"/>
    <linearGradient id="linear-gradient-19" x1="-0.002" y1="0.501" x2="1.001" y2="0.501" xlink:href="#linear-gradient-2"/>
    <linearGradient id="linear-gradient-20" x1="0.001" y1="0.501" x2="1" y2="0.501" gradientUnits="objectBoundingBox">
      <stop offset="0" stop-color="#fff"/>
      <stop offset="1" stop-color="#c2c4c6"/>
    </linearGradient>
  </defs>
  <g id="Group_268" data-name="Group 268" transform="translate(363 1599)">
    <path id="Path_665" data-name="Path 665" class="cls-1" d="M79.6,107.2,0,61.2l79.6-47,59.1,35Z"/>
    <g id="Group_267" data-name="Group 267">
      <g id="Group_265" data-name="Group 265">
        <line id="Line_2" data-name="Line 2" class="cls-2" y2="7.3" transform="translate(163.3 37.9)"/>
        <g id="Group_264" data-name="Group 264">
          <path id="Path_667" data-name="Path 667" class="cls-3" d="M147.5,64.8h0a5.283,5.283,0,0,1-.1-1.3V63a10.282,10.282,0,0,0,.1,1.8Z"/>
          <path id="Path_668" data-name="Path 668" class="cls-4" d="M179.8,66.1a7.58,7.58,0,0,1-2.9,5.6c-2.9,2.6-7.8,4.2-13.3,4.2h-.3c-5.9-.1-11-2.1-13.8-5a7.216,7.216,0,0,1-2.1-4.8,4.868,4.868,0,0,1,.1-1.2V65h0c1.1,4.7,7.7,8.4,15.7,8.5h.3c6.9,0,12.8-2.6,15.1-6.4a6.826,6.826,0,0,0,.9-2.2A2.375,2.375,0,0,1,179.8,66.1Z"/>
          <path id="Path_669" data-name="Path 669" class="cls-3" d="M179.8,63.6a4.868,4.868,0,0,1-.1,1.2h0a8.488,8.488,0,0,1-.9,2.2c-2.3,3.7-8.2,6.4-15.1,6.4h-.3c-8-.1-14.6-3.7-15.7-8.5h0v-.1a9.7,9.7,0,0,1-.1-1.7c.4-5.1,7.3-9.3,15.9-9.3h.3c7.3,0,13.5,3,15.5,7A12.61,12.61,0,0,1,179.8,63.6Z"/>
          <path id="Path_670" data-name="Path 670" class="cls-5" d="M167.2,46.1l-3.9-2.3-4,2.3a17.012,17.012,0,0,0-8.5,14.7V63a6.6,6.6,0,0,0,.1,1.4v.1h0c.9,3.7,6,6.5,12.3,6.6h.3c5.4,0,10-2.1,11.9-5a5.625,5.625,0,0,0,.7-1.8h0a3.083,3.083,0,0,0,.1-1C176.4,61.9,174.4,51.7,167.2,46.1Z"/>
          <path id="Path_671" data-name="Path 671" class="cls-6" d="M179.8,63.6c-.1.4,0,.8-.1,1.2h0a8.488,8.488,0,0,1-.9,2.2c-2.3,3.7-8.2,6.4-15.1,6.4h-.3c-8-.1-14.6-3.7-15.7-8.5h0v-.1a9.7,9.7,0,0,1-.1-1.7V60.4a21.5,21.5,0,0,1,10.8-18.7l5.1-2.9,5,2.9C177.4,48.9,180,61.9,179.8,63.6Z"/>
          <path id="Path_672" data-name="Path 672" class="cls-7" d="M175.1,32.1a20.3,20.3,0,0,1-6,5.3l-5.7,3.3-5.7-3.3a19.317,19.317,0,0,1-6.6-6.1,13.69,13.69,0,0,1,11.8-6.6A14.194,14.194,0,0,1,175.1,32.1Z"/>
          <path id="Path_673" data-name="Path 673" class="cls-8" d="M179.1,13.4V20A20.614,20.614,0,0,1,169,37.6l-5.7,3.3-5.7-3.3A20.157,20.157,0,0,1,147.5,20V13.4l15.9-9.2Z"/>
          <ellipse id="Ellipse_14" data-name="Ellipse 14" class="cls-9" cx="16.2" cy="9.9" rx="16.2" ry="9.9" transform="translate(147.4 2.8)"/>
          <ellipse id="Ellipse_15" data-name="Ellipse 15" class="cls-10" cx="16.2" cy="9.9" rx="16.2" ry="9.9" transform="translate(147.4 0)"/>
        </g>
      </g>
      <g id="Group_266" data-name="Group 266">
        <path id="Path_675" data-name="Path 675" class="cls-11" d="M55.3,67.8V93.1l37.2,21.5V89.3Z"/>
        <path id="Path_676" data-name="Path 676" class="cls-12" d="M100,90.5v25.3l-7.5-1.2V89.3Z"/>
        <path id="Path_677" data-name="Path 677" class="cls-13" d="M107.4,114.6V89.3L100,90.5v25.3Z"/>
        <path id="Path_678" data-name="Path 678" class="cls-14" d="M163.6,54.1V79.5l-.6,2.7-2.9,2-52.7,30.4V89.3l54.5-31.5S163.6,57.7,163.6,54.1Z"/>
        <path id="Path_679" data-name="Path 679" class="cls-15" d="M55.3,67.8v5.6L92.5,94.9V89.3Z"/>
        <path id="Path_680" data-name="Path 680" class="cls-10" d="M100,90.5l-7.5-1.2v5.6l7.5,1.2Z"/>
        <path id="Path_681" data-name="Path 681" class="cls-16" d="M107.4,89.3v5.6L100,96.1V90.5Z"/>
        <path id="Path_682" data-name="Path 682" class="cls-17" d="M163.6,54.1s.1,2.7-1.7,3.7L107.4,89.3v5.6l55-31.8S164.4,61.5,163.6,54.1Z"/>
        <path id="Path_683" data-name="Path 683" class="cls-3" d="M92.5,89.3l7.5,1.2,7.4-1.2,6.5-3.7.6-.4,47.4-27.4a3.373,3.373,0,0,0,0-5.8L122.3,29.1l-67,38.7Z"/>
        <path id="Path_684" data-name="Path 684" class="cls-18" d="M77.6,63.5,114.9,42l29.7,17.2L108,80.4Z"/>
        <path id="Path_685" data-name="Path 685" class="cls-19" d="M114.9,46.1V42l29.7,17.2-3.4,2Z"/>
        <path id="Path_686" data-name="Path 686" class="cls-20" d="M77.6,63.5,114.9,42v4.1L81.3,65.5Z"/>
        <path id="Path_687" data-name="Path 687" class="cls-3" d="M55.3,28.3,86.9,10l25.2,33.7L80.3,62Z"/>
        <path id="Path_688" data-name="Path 688" class="cls-21" d="M62.1,31.9,88.7,16.5l21.2,28.3L83.1,60.2Z"/>
        <path id="Path_689" data-name="Path 689" class="cls-3" d="M153.7,72.4V87.9l-23.4,13.5-.7.4-9.4,5.4V91.7L144,78Z"/>
        <path id="Path_690" data-name="Path 690" class="cls-22" d="M151.3,74.5v12l2.4,1.4V72.4l-2.5,1.4Z"/>
        <path id="Path_691" data-name="Path 691" class="cls-3" d="M120.3,99.9,150,82.7l29.8,17.2L150,117.1Z"/>
        <path id="Path_692" data-name="Path 692" class="cls-3" d="M120.3,98.5,150,81.3l29.8,17.2L150,115.7Z"/>
        <path id="Path_693" data-name="Path 693" class="cls-23" d="M179.8,98.5v1.4L150,117.1v-1.4Z"/>
        <path id="Path_694" data-name="Path 694" class="cls-24" d="M120.3,98.5,150,115.7v1.4L120.3,99.9Z"/>
        <path id="Path_695" data-name="Path 695" class="cls-25" d="M170.5,94.2l-27.1,15.6-13.8-8-9.4-5.4V91.9l23.2-13.4,10.3,6,16.1,9.3Z"/>
        <path id="Path_696" data-name="Path 696" class="cls-21" d="M170.5,93.3l-.7.5L143.4,109l-13.1-7.6-10.1-5.8V91.7L144,78l9.7,5.7Z"/>
      </g>
    </g>
  </g>
</svg>
