<svg xmlns="http://www.w3.org/2000/svg" xmlns:xlink="http://www.w3.org/1999/xlink" viewBox="371.11 1970 155.09 135.053">
  <defs>
    <style>
      .cls-1 {
        fill: url(#linear-gradient);
      }

      .cls-2 {
        fill: url(#linear-gradient-2);
      }

      .cls-3 {
        fill: #646092;
      }

      .cls-4 {
        fill: #2d2e71;
      }

      .cls-5 {
        fill: #f8aa9d;
      }

      .cls-6 {
        fill: #f58771;
      }

      .cls-7 {
        fill: #ed6e5b;
      }

      .cls-8 {
        fill: #e0e6ef;
      }

      .cls-9 {
        fill: #f1f4f8;
      }

      .cls-10 {
        fill: #bec9df;
      }

      .cls-11 {
        fill: url(#linear-gradient-3);
      }

      .cls-12 {
        fill: url(#linear-gradient-4);
      }

      .cls-13 {
        fill: url(#linear-gradient-5);
      }

      .cls-14 {
        fill: #292a6f;
      }

      .cls-15 {
        fill: none;
      }

      .cls-16 {
        fill: url(#linear-gradient-6);
      }

      .cls-17 {
        fill: url(#linear-gradient-7);
      }

      .cls-18 {
        fill: url(#linear-gradient-8);
      }
    </style>
    <linearGradient id="linear-gradient" x1="0.624" y1="1.235" x2="0.468" y2="0.325" gradientUnits="objectBoundingBox">
      <stop offset="0" stop-color="#646092"/>
      <stop offset="0.152" stop-color="#7a74a0" stop-opacity="0.847"/>
      <stop offset="0.432" stop-color="#a39ebe" stop-opacity="0.569"/>
      <stop offset="0.676" stop-color="#c6c3d6" stop-opacity="0.325"/>
      <stop offset="0.874" stop-color="#dfdde8" stop-opacity="0.125"/>
      <stop offset="1" stop-color="#e9e7ef" stop-opacity="0"/>
    </linearGradient>
    <linearGradient id="linear-gradient-2" x1="13.509" y1="0.5" x2="14.509" y2="0.5" gradientUnits="objectBoundingBox">
      <stop offset="0" stop-color="#e9e7ef"/>
      <stop offset="1" stop-color="#d7d4e6"/>
    </linearGradient>
    <linearGradient id="linear-gradient-3" x1="87.301" y1="0.507" x2="88.302" y2="0.507" xlink:href="#linear-gradient-2"/>
    <linearGradient id="linear-gradient-4" x1="17.465" y1="0.501" x2="18.464" y2="0.501" gradientUnits="objectBoundingBox">
      <stop offset="0.01" stop-color="#635e91"/>
      <stop offset="1" stop-color="#1e1c5a"/>
    </linearGradient>
    <linearGradient id="linear-gradient-5" x1="17.278" y1="0.501" x2="18.278" y2="0.501" xlink:href="#linear-gradient-2"/>
    <linearGradient id="linear-gradient-6" x1="1247.668" y1="0.373" x2="1248.604" y2="0.373" xlink:href="#linear-gradient-2"/>
    <linearGradient id="linear-gradient-7" x1="30.281" y1="0.5" x2="31.279" y2="0.5" gradientUnits="objectBoundingBox">
      <stop offset="0" stop-color="#f47b5e"/>
      <stop offset="1" stop-color="#f05155"/>
    </linearGradient>
    <linearGradient id="linear-gradient-8" x1="140.585" y1="0.505" x2="141.583" y2="0.505" xlink:href="#linear-gradient-2"/>
  </defs>
  <g id="Group_284" data-name="Group 284" transform="translate(371.11 1970.041)">
    <path id="Path_763" data-name="Path 763" class="cls-1" d="M64.941,132.339,0,93.46,97.839,39.2,155.09,80.536Z" transform="translate(0 2.673)"/>
    <g id="Group_282" data-name="Group 282" transform="translate(46.783 43.475)">
      <path id="Path_764" data-name="Path 764" class="cls-2" d="M152.107,72.874,134.269,62.3,43.8,114.317l18.158,10.468Z" transform="translate(-43.8 -39.229)"/>
      <path id="Path_765" data-name="Path 765" class="cls-3" d="M60.8,124.11v5.981l90.149-51.8V72.2Z" transform="translate(-42.642 -38.554)"/>
      <path id="Path_766" data-name="Path 766" class="cls-4" d="M43.8,111v5.981l18.158,10.467v-5.981Z" transform="translate(-43.8 -35.912)"/>
      <g id="Group_281" data-name="Group 281" transform="translate(13.031)">
        <g id="Group_277" data-name="Group 277" transform="translate(38.025 0.427)">
          <path id="Path_767" data-name="Path 767" class="cls-5" d="M110.826,46.654,101.213,41.1,91.6,46.654l9.613,5.554Z" transform="translate(-91.6 -41.1)"/>
          <path id="Path_768" data-name="Path 768" class="cls-6" d="M110.213,90.2V46.3L100.6,51.854v43.9Z" transform="translate(-90.987 -40.746)"/>
          <path id="Path_769" data-name="Path 769" class="cls-7" d="M91.6,46.3V90.2l9.613,5.554v-43.9Z" transform="translate(-91.6 -40.746)"/>
        </g>
        <g id="Group_278" data-name="Group 278" transform="translate(57.998)">
          <path id="Path_770" data-name="Path 770" class="cls-8" d="M129.526,46.254,119.913,40.7,110.3,46.254l9.613,5.554Z" transform="translate(-110.3 -40.7)"/>
          <path id="Path_771" data-name="Path 771" class="cls-9" d="M128.913,79.118V45.9L119.3,51.454V84.672Z" transform="translate(-109.687 -40.346)"/>
          <path id="Path_772" data-name="Path 772" class="cls-10" d="M110.3,45.9V79.118l9.613,5.554V51.454Z" transform="translate(-110.3 -40.346)"/>
        </g>
        <g id="Group_279" data-name="Group 279" transform="translate(19.226 22.217)">
          <path id="Path_773" data-name="Path 773" class="cls-8" d="M93.226,67.054,83.613,61.5,74,67.054,83.613,72.5Z" transform="translate(-74 -61.5)"/>
          <path id="Path_774" data-name="Path 774" class="cls-9" d="M92.613,99.918V66.7L83,72.147v33.325Z" transform="translate(-73.387 -61.146)"/>
          <path id="Path_775" data-name="Path 775" class="cls-10" d="M74,66.7V99.918l9.613,5.554V72.147Z" transform="translate(-74 -61.146)"/>
        </g>
        <g id="Group_280" data-name="Group 280" transform="translate(0 44.327)">
          <path id="Path_776" data-name="Path 776" class="cls-8" d="M75.226,87.754,65.613,82.2,56,87.754l9.613,5.554Z" transform="translate(-56 -82.2)"/>
          <path id="Path_777" data-name="Path 777" class="cls-9" d="M74.613,110.044V87.4L65,92.954V115.6Z" transform="translate(-55.387 -81.846)"/>
          <path id="Path_778" data-name="Path 778" class="cls-10" d="M56,87.4v22.644l9.613,5.554V92.954Z" transform="translate(-56 -81.846)"/>
        </g>
      </g>
    </g>
    <g id="Group_283" data-name="Group 283" transform="translate(27.13 -0.041)">
      <path id="Path_779" data-name="Path 779" class="cls-11" d="M76.7,49.057,81.079,46.6l6.2,2.777L82.9,52.154Z" transform="translate(-21.906 3.217)"/>
      <path id="Path_780" data-name="Path 780" class="cls-12" d="M81.9,19.87C81.9,2.139,69.3-5.124,53.919,3.741l-.534.32C38,12.927,25.4,34.716,25.4,52.447v.641c0,17.731,12.6,24.994,27.985,16.128l.534-.32C69.3,60.031,81.9,38.241,81.9,20.511Z" transform="translate(-25.4 0.041)"/>
      <path id="Path_781" data-name="Path 781" class="cls-13" d="M86.8,23.17C86.8,5.439,74.2-1.824,58.819,7.041l-.534.32C42.9,16.227,30.3,38.016,30.3,55.747v.641c0,17.731,12.6,24.994,27.985,16.128l.534-.32C74.2,63.331,86.8,41.541,86.8,23.811Z" transform="translate(-25.066 0.265)"/>
      <ellipse id="Ellipse_16" data-name="Ellipse 16" class="cls-3" cx="27.771" cy="16.022" rx="27.771" ry="16.022" transform="matrix(0.5, -0.866, 0.866, 0.5, 5.8, 57.957)"/>
      <ellipse id="Ellipse_17" data-name="Ellipse 17" class="cls-14" cx="12.604" cy="7.263" rx="12.604" ry="7.263" transform="matrix(0.5, -0.866, 0.866, 0.5, 20.968, 49.202)"/>
      <path id="Path_782" data-name="Path 782" class="cls-15" d="M80.027,59.607A.642.642,0,0,0,79.6,59.5" transform="translate(-21.708 4.096)"/>
      <path id="Path_783" data-name="Path 783" class="cls-16" d="M76.8,66.5a4.644,4.644,0,0,0,.748.427Z" transform="translate(-21.899 4.573)"/>
      <path id="Path_784" data-name="Path 784" class="cls-17" d="M59.666,38.141h0L86.8,53.735l-.534,3.525-1.816.961L57.1,42.52h0l-.427-.214-.641-.641A2.592,2.592,0,0,1,57.957,37.5h.534c.107,0,.214,0,.214.107Z" transform="translate(-23.35 2.598)"/>
      <path id="Path_785" data-name="Path 785" class="cls-18" d="M75.22,50.7l-.32,3.952,5.554,3.525,1.068-3.845Z" transform="translate(-22.028 3.497)"/>
      <ellipse id="Ellipse_18" data-name="Ellipse 18" class="cls-14" cx="2.563" cy="1.495" rx="2.563" ry="1.495" transform="matrix(0.5, -0.866, 0.866, 0.5, 59.79, 60.034)"/>
    </g>
  </g>
</svg>
