<svg xmlns="http://www.w3.org/2000/svg" viewBox="7187.015 1637.159 237.169 376.588">
  <defs>
    <style>
      .cls-1 {
        fill: #5b6977;
      }

      .cls-2 {
        fill: #a3cbe5;
      }

      .cls-3 {
        fill: #f89c69;
      }

      .cls-4 {
        fill: #f9a873;
      }

      .cls-5 {
        fill: #fbb686;
      }

      .cls-6 {
        fill: #b9e5fb;
      }

      .cls-7 {
        fill: #060115;
      }

      .cls-8 {
        fill: #1b181a;
      }

      .cls-9 {
        fill: #08041e;
      }

      .cls-10 {
        fill: #020009;
      }

      .cls-11 {
        fill: #0f0a2c;
      }

      .cls-12 {
        fill: #15123a;
      }

      .cls-13 {
        fill: #08051d;
      }

      .cls-14 {
        fill: #2b254d;
      }

      .cls-15 {
        fill: #3a0f00;
      }

      .cls-16 {
        fill: #522915;
      }

      .cls-17 {
        fill: #310b00;
      }

      .cls-18 {
        fill: #431a00;
      }

      .cls-19 {
        fill: #0c0825;
      }

      .cls-20 {
        fill: #310a00;
      }

      .cls-21 {
        fill: #110b14;
      }

      .cls-22 {
        fill: #a97c50;
      }

      .cls-23 {
        fill: #d4effc;
      }

      .cls-24 {
        fill: #8b5e3c;
      }

      .cls-25 {
        fill: #2b282f;
      }

      .cls-26 {
        fill: #c7c6c1;
      }

      .cls-27 {
        fill: #603913;
      }

      .cls-28 {
        fill: #0f0c2c;
      }

      .cls-29 {
        fill: #754c29;
      }

      .cls-30 {
        fill: #e8f6ff;
      }
    </style>
  </defs>
  <g id="Contact" transform="translate(7165.815 1606.743)">
    <g id="Group_3021" data-name="Group 3021" transform="translate(21.2 30.416)">
      <path id="Path_3778" data-name="Path 3778" d="M135.017,309.037c.043-3.916-4.512-4.086-7.151-8a.042.042,0,0,0-.043-.043c-.128-.17-.255-.383-.383-.6-1.277-2.043-3.7-5.278-4-6.981v-.043c.043-12.216-3.15-54.7-5.874-90.875-.17-2.511-.383-4.98-.553-7.406-.213-2.767-.426-5.363-.638-7.96-.128-1.66-.213-3.277-.341-4.895-.128-2.128-.3-4.214-.468-6.257a12.567,12.567,0,0,0,1.362-1.7c.638-.936.851-2.426,1.49-3.235l.128.043a3.644,3.644,0,0,1,.979-1.4,24.521,24.521,0,0,1-2-4.129c-.213-.341-.383-.638-.6-.979a60.759,60.759,0,0,1-3.958-11.109c.213-6.981.383-14.046.681-21.069a36.954,36.954,0,0,0,5.533,9.492c4.3,1.277,11.578-.3,15.025-1.022,8.087-1.617,12.727-1.575,20.048-3.661a7.967,7.967,0,0,1-1.4-2.341,5.14,5.14,0,0,0,3.363-.766,7.1,7.1,0,0,1-1.192-2.554c5.576,2.213,13.238-.426,18.388-2.128l.085.085a5.366,5.366,0,0,0,.681-.851h.043a3.731,3.731,0,0,0,3.235-2.767c1.873-1.192,5.874-5.7,4.086-7.534,1.958-1.958,3.746-3.959,5.321-5.874-3.235-2.6-7.406-6.9-11.492-8.6l-.17.341c-2.852,2.767-6.129,5.406-9.236,8.087a.156.156,0,0,0-.128-.043c-.468-.17-3.405,1.575-4.044,1.788-.936.17-3.235-.17-3.873.341-1.192.638-2.341,3.235-3.065,4.852v.085h-.043a7.962,7.962,0,0,1-3.788.468c0-.6.043-1.149.043-1.66-1.788.17-4.554,1.064-6.172,1.277a.724.724,0,0,1-.3.043c-5.406,1.107-10.939,1.064-16.515,1.022-1.362-3.15-2.256-8.045-2.809-10.343-.936-3.7-2.341-7.236-3.235-10.726-1.4-4.682-2.6-9.577-4.214-14a46.138,46.138,0,0,0-2.98-7.534c-.341-1.447-.766-2.809-1.192-4.129a51.165,51.165,0,0,0-2.554-6.385,2.6,2.6,0,0,0-.213-.511c-2-1.83-10.13-3.873-15.281-1.958-.043-.724-.085-1.49-.085-2.384-.043-2.341.213-4.086-.255-6.087.553-4.682-.511-10.343-.936-12.344.511-.809.979-1.66,1.447-2.554,1.532-3.022,3.32-7.151-.511-8.853-2.852-1.192-6.342-.341-9.151-.681a30.346,30.346,0,0,1-3.405-.6c-1.362-.255-2.852-.6-4.384-.851h-.043a25.061,25.061,0,0,0-10.215,1.107A18.818,18.818,0,0,0,61,35.687l-.043-.043a22.66,22.66,0,0,0-5.193,7.066c-1.49,3.277-1.873,6.725-.3,9.577A167.185,167.185,0,0,0,65.85,68.973l.17-.128A15.257,15.257,0,0,1,67.6,71.952c.894.553,1.447.341,2.171.851l.17-.043c.043.128.043.3.085.468a34.358,34.358,0,0,0-4.6,7.151c-.213.17-.468.426-.638.6-6.087,5.746-13.025,11.875-17.579,18.3a.042.042,0,0,0-.043.043l-.17.17c-.213.3-.511.6-.724.936a12.976,12.976,0,0,0-.809,1.277c-.128.213-.255.468-.341.638a14.386,14.386,0,0,0-.936,2,5.685,5.685,0,0,0-.3.766,7.156,7.156,0,0,0-.638,1.277,1.417,1.417,0,0,1-.128.255A7.347,7.347,0,0,0,42.653,108a43.229,43.229,0,0,0-1.617,7.236c-.128.809-.213,1.575-.3,2.384s-.128,1.66-.17,2.469c-.468,8.087-.511,47.374-.383,57.249.043,4.384.17,8.726.255,12.982.043,2.384.128,4.725.128,7.066.085.128.213.255.3.383a10.247,10.247,0,0,0,1.745,1.575,6.522,6.522,0,0,0-.468,1.149,4.609,4.609,0,0,0-1.49-.128c-3.15.128-3.873,4.086-4,7.832-2.256-1.064-4.044-1.958-5.15-2.554l-10.258,4.469-.043.043v42.82l14.472,8.087,22.389,12.6,2.682,1.49c-.213,7.576.638,13.578,1.022,21.878v.043a112.341,112.341,0,0,1-1.234,14.94,12.459,12.459,0,0,0,1.107.766,2.611,2.611,0,0,0,.255.17c-.128.6-.255,1.192-.341,1.617-.213,1.447-.255,2.511-.341,3.7.936.894,2.511,2.256,4.512,3.916.468-.936,1.83-.6,2.6-.043a4.76,4.76,0,0,1,1.66,3.405c5.959,4.6,13.067,9.62,16.345,10.769v-.043a14.1,14.1,0,0,0,6-1.4c2.384-1.107,4.214-2.682,4.427-4.044a28.557,28.557,0,0,0,.3-3.235,1.656,1.656,0,0,0,0-1.277c0-4.171-4.81-4.427-7.619-8.47-.468-.724-3.065-3.661-3.49-4.6a1.853,1.853,0,0,0,.3-.255,1.227,1.227,0,0,0,.3-.851v-.17a8.2,8.2,0,0,1-.043-1.022c-.255-13.663,2.469-54.653,4.554-86.7.255,1.064.553,2.171.809,3.448.766,3.448,4.384,33.03,5.406,39.713,2,13.365,3.15,19.92,4.214,24.56a7.771,7.771,0,0,1,.553.681c-.17,1.958-.3,3.873-.468,5.15l-.043-.043c-.213,1.319-.255,2.341-.341,3.448.426.426,1.107,1.064,2,1.83.681.638,1.575,1.362,2.511,2.128.511-.724,1.745-.383,2.511.128a4.942,4.942,0,0,1,1.617,3.107c5.491,4.256,12,8.853,15.068,9.918a11.546,11.546,0,0,0,3.746-.638l3.746-1.788a4.743,4.743,0,0,0,2.171-2.639,24.215,24.215,0,0,0,.3-3.022A1.057,1.057,0,0,0,135.017,309.037Zm31.54-194.009a7.359,7.359,0,0,1-2.426,2.256C164.94,116.475,165.749,115.751,166.558,115.028Zm-126.5,94.834c-.085.851-.128,1.745-.213,2.639.043-.809.043-1.745.128-2.639a13.077,13.077,0,0,1,.213-1.447v-.043c.213-1.107.511-2,1.022-2.171a.719.719,0,0,1,.638.085,1.058,1.058,0,0,1,.043.341,36.317,36.317,0,0,0,.681,3.7,70.887,70.887,0,0,0,11.79,4.427c.851-.851,2.852-2.682,3.916-3.533,0,1.575.043,4.81.043,7.449C51.889,215.565,45.249,212.373,40.056,209.861Zm18.09-2.98c-.213-1.234-.426-2.6-.724-3.916-.341.043-.681.128-1.022.17.043-.766.043-1.532.043-2.256l-.128-.213a.927.927,0,0,0,.341-.213,2.883,2.883,0,0,0,1.022-.851,4.888,4.888,0,0,0-.043-.809c0-1.66.043-3.49.17-5.363.085,2.426.255,5.023.553,8,.128,1.362.3,3.32.468,5.789C58.614,207.137,58.4,207.009,58.146,206.882ZM88.537,86.722c-.085-.085-.128-.17-.213-.255a1.494,1.494,0,0,1,.341-.213A1.509,1.509,0,0,0,88.537,86.722Zm7.7,2.128h.128a1.622,1.622,0,0,0,.128.426A3.741,3.741,0,0,1,96.241,88.85Z" transform="translate(-21.2 -30.416)"/>
      <path id="Path_3779" data-name="Path 3779" d="M420.536,215.32c4.767-8.47,6.938-19.282,6.938-29.625a64.638,64.638,0,0,0-1.66-14.983,5.163,5.163,0,0,0-.426-.6c-2.341-3.15-8.258-6.47-13.45-6.555-.383,0-6.3.553-9.577.851a9.091,9.091,0,0,0-2.043-.979.323.323,0,0,1-.085.17,2.572,2.572,0,0,0-.809,0,25.461,25.461,0,0,1-3.15.34h-.128v-.255c-1.319.085-2.894.213-4.512.383v-.043c1.149-.128,2.256-.255,3.277-.341h0a12.256,12.256,0,0,1-.468-2.384H394.4v-.043c.979-.724,1.575-1.362,1.575-1.575.17-1.107,1.362-2.256,2.256-3.405a142.5,142.5,0,0,0,8.172-18.941c2.128-6.087-2.809-13.323-8.9-17.366l-.043.085c-11.961-7.917-33.924-1.575-34.562,13.025a10.924,10.924,0,0,0,1.873,2.426,29.479,29.479,0,0,0-.426,3.15c1.149,2.554.6,2.682.085,5.916-.3,1.958.34,3.575.724,5.746.724,3.661,1.4,11.024,2.469,12.386.724,1.32,2.682,2.086,5.406,2.511h.043c.17,1.064.6,2.128.724,3.022.085,1.149.17,2.3.3,3.32a.527.527,0,0,0-.128.085c-.511.979-.681,1.873-1.234,2.724a3.358,3.358,0,0,1-.511.638c-.085.043-.213.128-.3.17-.681.426-1.32.809-2,1.234-.255.17-.553.34-.809.511-1.575.979-3.15,2-4.725,3.022-.851.553-1.66,1.107-2.469,1.617h0c-.979.638-1.958,1.319-2.937,2h0c-3.49,2.384-6.9,4.852-10.045,7.364-.3.255-.6.468-.894.724l.128.17a10,10,0,0,0-.809,1.064,20.944,20.944,0,0,0-2.384,4.427c-.128.3-.213.553-.341.851-.255.468-.511.979-.724,1.447a2.928,2.928,0,0,0-.128.341c-.213.511-.383.979-.553,1.49a49.258,49.258,0,0,0-1.83,8.172c-.128.894-.213,1.788-.341,2.682-.085.936-.17,1.873-.213,2.809-.511,9.109.681,18.43,1.49,27.369.085,1.32.3,2.639.511,3.958-2.213,10.684-2.511,22.006-2.426,33.115a63.7,63.7,0,0,1-3.49,9.918,14.458,14.458,0,0,0,3.788,4.64c.043,2.682.085,5.321.085,7.917a3.7,3.7,0,0,0,.383.468l-.255,2.937c-3.575.17-4.342,4.6-4.469,8.811-2.511-1.234-4.512-2.213-5.789-2.852l-11.535,5.023-.085.043v48.183l16.26,9.109c-1.149,13.833-2.426,28.6-3.916,44.31-.128,1.447-.255,2.809-.383,4.044v.085a57.426,57.426,0,0,1-1.745,9.79c.043.043.043.128.085.17-2.6.341-2.554-.3-5.108-1.022-1.49-.426-1.107-.979-3.192-.894a9.771,9.771,0,0,0-4.171,1.234,2.053,2.053,0,0,0-1.149,1.532v.511h0c0,.553-.043,1.234-.043,1.958,0,1.532.043,3.32.043,4.512,3.065,3.235,11.578,7.874,18.218,10.982.426-3.618,5.023,1.022,6.044,2.682a22.979,22.979,0,0,0,2.3.809s5.618,2.639,9.492,1.958c2.937-.511,3.575-1.745,3.7-2.3h0a.724.724,0,0,1,.043-.3h0c.17-1.447.255-2.894.3-4.3.128-2.341.128-4.554.128-6.555a10.35,10.35,0,0,0,.894-4.512,22.005,22.005,0,0,0-.128-2.3c.553-6.3,2.852-19.495,5.916-35.541.724-3.746,1.319-7.193,1.788-10.386l7.193,4.044h0l.17-.128,10.769-6.257c.3,3.022.553,5.831.809,8.343a11.259,11.259,0,0,1,.085,1.149c-2.128.468-5.065,1.362-7.364.17-1.362-.724-3.15.17-4.512.638a2.813,2.813,0,0,0-2.256,2.213h0c-.3,1.4-.851,4.937-.213,6.853,4.3,3.916,10.854,7.96,16.175,10.9.6-3.661,4.895,1.234,5.576,2.852a17.372,17.372,0,0,0,3.022,1.234s5.406,2.767,9.364,2.086c2.979-.511,3.7-1.788,3.873-2.426h0c0-.128.043-.213.043-.341.255-1.532.468-3.065.638-4.554.213-1.915.383-3.746.511-5.448a2.866,2.866,0,0,0,.3-.468,9.679,9.679,0,0,0,1.4-4.767c-.724-5.618-.766-20.388-.809-36.393-.043-9.449-.553-52.525-.128-63.421.3-8,.6-16.089.724-23.708.936-.724,1.83-1.49,2.724-2.256-3.022-5.235-4.171-12.812-3.873-19.75h0C412.364,245.5,416.195,230.218,420.536,215.32ZM340,315.985c-.085.979-.17,1.958-.255,2.979,0-.936.085-2,.17-3.022.043-.553.128-1.107.213-1.66C340.132,314.836,340.047,315.389,340,315.985Zm19.452-115.563h0a2.6,2.6,0,0,1,.3.6A3.893,3.893,0,0,1,359.456,200.423Zm16.43,132.886c.6-2.043,1.192-4.086,1.745-6,.17,2.3.341,4.682.511,7.108C377.461,334.033,376.695,333.692,375.886,333.309Zm9.151-162.554c.766-.255,1.49-.553,2.213-.809-.809.3-1.575.638-2.384.936C384.952,170.84,384.952,170.8,385.038,170.755Zm18.771,116.414c-.638.468-1.319.936-2,1.362-2.256,1.532-4.554,3.022-6.725,4.469-.3.17-.638.383-.936.6-.553.383-1.107.766-1.7,1.192-1.362.936-2.767,1.873-4.256,2.767-1.277.809-2.6,1.575-3.958,2.341a.54.54,0,0,0,.043-.255c1.7-.894,3.363-1.83,4.938-2.809,1.4-.851,2.767-1.745,4.044-2.639.553-.383,1.107-.766,1.617-1.107.3-.17.6-.383.851-.553,2.086-1.362,4.256-2.767,6.427-4.214.638-.426,1.277-.851,1.915-1.319.17-.128.383-.255.553-.383C404.4,286.743,404.106,286.956,403.808,287.169Z" transform="translate(-190.348 -79.93)"/>
    </g>
    <g id="XMLID_25_" transform="translate(21.413 30.459)">
      <g id="Group_3022" data-name="Group 3022" transform="translate(0)">
        <path id="Path_3780" data-name="Path 3780" class="cls-1" d="M343.6,237.082q.766-.958,1.66-1.915a5.143,5.143,0,0,0,4.044-.766c-.468.468-.936.979-1.362,1.49v.043a42.472,42.472,0,0,1,7.491,5.916c.766-.553,1.49-1.192,2.256-1.788l.17.213a4.5,4.5,0,0,0-1.149,4.384c-.6.511-1.234,1.064-1.83,1.575C350.921,243.424,346.75,240.742,343.6,237.082Z" transform="translate(-206.585 -147.618)"/>
        <path id="Path_3781" data-name="Path 3781" class="cls-1" d="M368.127,221.911c3.746-3.15,7.364-6.683,10.769-10.173-1.4-1.4-2.979-2.426-4.554-3.746-.766-.724-2.086-1.958-2.98-1.958-2.724,2.213-5.235,4.044-7.7,6.47-.468.511-.979.979-1.49,1.447.724-1.149.766-2.256-.468-2.724,3.107-2.682,6.342-5.321,9.236-8.087l.17-.34c4.044,1.7,8.258,6,11.492,8.6-1.575,1.915-3.363,3.916-5.321,5.874-.128-.085-.255-.213-.383-.3-1.49-.809-3.448,1.362-3.831,3.022-1.107-.383-2.809.851-2.98,2.256a1.229,1.229,0,0,0-1.745-.128Z" transform="translate(-216.981 -129.468)"/>
        <path id="Path_3782" data-name="Path 3782" class="cls-2" d="M363.647,226.277c-.724.6-1.49,1.234-2.256,1.788a44.085,44.085,0,0,0-7.491-5.916v-.043a14.854,14.854,0,0,1,1.362-1.49,7.806,7.806,0,0,0,2.426-2.256c0-.043,0-.043.043-.043.511-.468,1.022-.936,1.49-1.447a93.83,93.83,0,0,1,7.7-6.47c.851,0,2.171,1.234,2.98,1.958,1.575,1.319,3.15,2.341,4.554,3.746C370.968,219.594,367.393,223.127,363.647,226.277Z" transform="translate(-212.501 -133.833)"/>
        <path id="Path_3783" data-name="Path 3783" class="cls-3" d="M392.686,236.9c1.788,1.83-2.213,6.342-4.086,7.534a9.767,9.767,0,0,0,.638-2.086,4.1,4.1,0,0,0-.085-2C390.345,239.2,391.537,238.049,392.686,236.9Z" transform="translate(-232.431 -149.054)"/>
        <path id="Path_3784" data-name="Path 3784" class="cls-3" d="M392.514,236.262c-1.107,1.192-2.341,2.3-3.533,3.448a1.059,1.059,0,0,0-.681-.724c.383-1.66,2.341-3.831,3.831-3.022A1.174,1.174,0,0,1,392.514,236.262Z" transform="translate(-232.259 -148.416)"/>
        <path id="Path_3785" data-name="Path 3785" class="cls-4" d="M384.731,244.9a4.193,4.193,0,0,1,.085,2,9.767,9.767,0,0,1-.638,2.086,3.631,3.631,0,0,1-3.235,2.767H380.9a5.866,5.866,0,0,0,.894-4.214C382.773,246.73,383.752,245.794,384.731,244.9Z" transform="translate(-228.008 -153.649)"/>
        <path id="Path_3786" data-name="Path 3786" class="cls-4" d="M385.018,243.773c-.979.894-1.915,1.788-2.894,2.639a1.573,1.573,0,0,0-.213-.468,3.141,3.141,0,0,0-.511-.681c.17-1.362,1.873-2.639,2.98-2.256A1.7,1.7,0,0,1,385.018,243.773Z" transform="translate(-228.296 -152.522)"/>
        <path id="Path_3787" data-name="Path 3787" class="cls-5" d="M374.257,252.252a4.468,4.468,0,0,1,1.149-4.384,1.2,1.2,0,0,1,1.745.128,2.194,2.194,0,0,1,.511.681,1.575,1.575,0,0,1,.213.468C376.684,250.209,375.449,251.231,374.257,252.252Z" transform="translate(-224.09 -155.17)"/>
        <path id="Path_3788" data-name="Path 3788" class="cls-5" d="M351.544,227.623a5.174,5.174,0,0,1-4.044.766,77.349,77.349,0,0,1,6-5.789c1.234.468,1.192,1.617.468,2.724-.043,0-.043,0-.043.043C353.161,226.133,352.352,226.856,351.544,227.623Z" transform="translate(-208.825 -140.841)"/>
        <path id="Path_3789" data-name="Path 3789" class="cls-5" d="M335.31,241.809c-.936-3.575-.341-8.726-.128-12.259v-.085c.724-1.66,1.83-4.214,3.065-4.852.638-.511,2.894-.17,3.873-.341.638-.17,3.575-1.958,4.044-1.788.043,0,.085.043.128.043a64.631,64.631,0,0,0-6,5.789,24.366,24.366,0,0,0-1.66,1.915c3.15,3.661,7.321,6.342,11.28,9.194.6-.511,1.234-1.022,1.83-1.575,1.192-1.022,2.426-2.043,3.661-3.15a5.908,5.908,0,0,1-.894,4.214,2.967,2.967,0,0,1-.681.851l-.085-.085C348.505,241.383,340.886,244.022,335.31,241.809Z" transform="translate(-201.53 -140.768)"/>
        <path id="Path_3790" data-name="Path 3790" class="cls-6" d="M330.674,251.359a6.458,6.458,0,0,0,1.192,2.554,4.731,4.731,0,0,1-3.363.766c-1.873-4.214-1.83-10.726-1.745-15.11a7.962,7.962,0,0,0,3.788-.468h.043C330.333,242.633,329.7,247.783,330.674,251.359Z" transform="translate(-196.894 -150.317)"/>
        <path id="Path_3791" data-name="Path 3791" class="cls-7" d="M277.9,198.736a7.152,7.152,0,0,0,1.4,2.341c-7.321,2.086-12,2.043-20.048,3.661-3.405.766-10.684,2.341-15.025,1.022a36.954,36.954,0,0,1-5.533-9.492c.3-8.087.766-16.174,1.362-24.219,2.937-9.236,2.511-20.474-.043-30.348a44.676,44.676,0,0,1,2.98,7.534c1.617,4.427,2.809,9.322,4.214,14,.936,3.49,2.341,7.023,3.235,10.726.553,2.3,1.447,7.236,2.809,10.343,5.576.043,11.109.043,16.515-1.022.085,0,.213-.043.3-.043,1.617-.213,4.384-1.107,6.172-1.277,0,.511-.043,1.064-.043,1.66C276.072,188.01,276.029,194.523,277.9,198.736Z" transform="translate(-146.335 -94.375)"/>
        <path id="Path_3792" data-name="Path 3792" class="cls-8" d="M231.584,647.9l.638-.638.043-.043c.3,1.745,2.682,4.98,4,6.981.128.213.255.426.383.6l.043.043c2.639,3.916,7.151,4.086,7.151,8a1.629,1.629,0,0,1,.043,1.192c-.851,2.171-5.618,4.725-9.62,4.64v.043c-3.831-1.319-13.365-8.428-19.239-13.2a57.428,57.428,0,0,1-4.427-3.873c.213-1.277.3-3.192.468-5.15,5.278,6,10.3,5.533,15.238,3.575Z" transform="translate(-130.196 -384.31)"/>
        <path id="Path_3793" data-name="Path 3793" class="cls-9" d="M239.414,388.364c2.724,36.18,5.916,78.659,5.874,90.875v.043l-.043.043-.638.638-.043-.3L233.8,374.914h0l-.468-4.682c.128-.043.17-.17.255-.341-.085-1.234-.213-2.511-.383-3.746a12,12,0,0,0,1.532-1.4,79.635,79.635,0,0,1,1.447-9.407c.17-.638.383-1.107.638-1.234a2.617,2.617,0,0,1,.043.6c.128,2.256.341,4.64.511,7.151.17,2.043.341,4.129.468,6.257.128,1.617.255,3.192.341,4.895.213,2.6.426,5.193.638,7.96C239.031,383.384,239.2,385.9,239.414,388.364Z" transform="translate(-143.176 -216.368)"/>
        <path id="Path_3794" data-name="Path 3794" class="cls-10" d="M212.12,498.373c-4.937,1.958-9.96,2.426-15.238-3.575a7.758,7.758,0,0,0-.553-.681c-1.064-4.6-2.171-11.194-4.214-24.56-1.022-6.683-4.64-36.265-5.406-39.713-.3-1.277-.553-2.384-.809-3.448.426-6.64.851-12.94,1.192-18.516.043-.3.043-.553.085-.809.128-2.128.255-4.129.341-6,.213-3.235.383-6.087.511-8.47a69.183,69.183,0,0,0,6.981-3.235c.809-.426,1.66-.851,2.511-1.319a47.751,47.751,0,0,0,8.555-5.746c.128,1.277.3,2.511.383,3.746a.722.722,0,0,1-.255.34l.468,4.682h0L217.4,495.819l.043.3Z" transform="translate(-116.009 -232.565)"/>
        <path id="Path_3795" data-name="Path 3795" d="M214.212,665.906c-.936-.766-1.83-1.447-2.511-2.128-.894-.766-1.575-1.4-2-1.83.085-1.107.128-2.128.341-3.448l.043.043a57.412,57.412,0,0,0,4.427,3.873c5.874,4.767,15.366,11.875,19.239,13.195v-.043c4,.085,8.768-2.511,9.62-4.64a14.553,14.553,0,0,1-.3,3.022,4.614,4.614,0,0,1-2.171,2.639l-3.746,1.788a13.053,13.053,0,0,1-3.746.638c-3.065-1.064-9.577-5.661-15.068-9.918a4.942,4.942,0,0,0-1.617-3.107C216,665.523,214.723,665.183,214.212,665.906Z" transform="translate(-129.679 -391.202)"/>
        <path id="Path_3796" data-name="Path 3796" class="cls-11" d="M218.325,163.921c-2.937,2.426-6.172,4.937-9.662,7.449.085-.213.128-.468.213-.681,1.277-4.171,2.852-8.47,3.405-12.854.468-4.086,1.575-9.534,1.064-13.706-.213-1.745-.766-6.427-1.532-8l-5.7-2c-.681-.936,1.32-3.788,1.192-4.512a5.952,5.952,0,0,0-2-2.341c.979-.766,1.958-1.617,2.98-2.384,2.511-2.086,6.9-4.937,8.683-7.789a58.676,58.676,0,0,1,2.554,6.385c.426,1.362.851,2.724,1.192,4.129,2.554,9.875,2.98,21.112.043,30.348A31.8,31.8,0,0,1,218.325,163.921Z" transform="translate(-127.152 -80.246)"/>
        <path id="Path_3797" data-name="Path 3797" class="cls-12" d="M210.572,112.788c-1.788,2.852-6.172,5.7-8.683,7.789-1.022.766-2,1.575-2.98,2.384a29.6,29.6,0,0,0-4.81-3.065c.936-.766,1.617-1.617,1.532-2.426.213-2.511-.3-4.427-.511-7.108,5.108-1.915,13.238.128,15.281,1.958A2.81,2.81,0,0,1,210.572,112.788Z" transform="translate(-120.719 -75.934)"/>
        <path id="Path_3798" data-name="Path 3798" class="cls-13" d="M207.562,285.289l-.085-.085c-.085-1.532-.3-3.277-.511-5.278v-.17c-.128-1.277-.3-2.6-.468-4.044.043-.043.043-.043,0-.043-1.107-10.258-2.554-24.389-1.788-37.967v-.043c.043-.724.043-1.447.128-2.171a8.578,8.578,0,0,0,.3-.979c.128-.341.213-.681.341-1.022.043-.043.043-.128.085-.213.851-2.256,1.873-4.469,2.639-6.768,3.448-2.511,6.725-5.065,9.662-7.449a35.234,35.234,0,0,0,2.511-5.959c-.6,8-1.022,16.089-1.362,24.219-.3,7.023-.511,14.046-.681,21.069a60.758,60.758,0,0,0,3.958,11.109c.213.341.383.638.6.979a23.041,23.041,0,0,0,2,4.129,3.352,3.352,0,0,0-.979,1.4l-.128-.043c-.638.809-.851,2.341-1.49,3.235a10.393,10.393,0,0,1-1.362,1.7c-.17-2.511-.383-4.895-.511-7.151a3.015,3.015,0,0,1-.043-.6,2.628,2.628,0,0,0-.638,1.234,79.63,79.63,0,0,0-1.447,9.407,16.219,16.219,0,0,1-1.532,1.4,52.739,52.739,0,0,1-8.555,5.746,33.581,33.581,0,0,1-.766-5.448C207.434,285.375,207.52,285.375,207.562,285.289Z" transform="translate(-126.69 -135.384)"/>
        <path id="Path_3799" data-name="Path 3799" class="cls-14" d="M196.271,177.016a79.325,79.325,0,0,0-.213-14.217l-.128-1.277A70.811,70.811,0,0,0,192.27,145.6a19.2,19.2,0,0,0-2.426-4.725,7.527,7.527,0,0,0-.681-.936c-1.532-1.958-3.405-3.575-5.363-3.916a17.588,17.588,0,0,0,4.342-2.426,27.882,27.882,0,0,1,4.81,3.065,5.951,5.951,0,0,1,2,2.341c.128.724-1.83,3.533-1.192,4.512l5.7,2c.766,1.617,1.277,6.257,1.532,8,.511,4.171-.6,9.62-1.064,13.706-.6,4.427-2.128,8.726-3.405,12.854-.085.213-.128.468-.213.681-.766,2.3-1.788,4.512-2.639,6.768.638-2,1.4-4.129,1.958-6.257A20.152,20.152,0,0,0,196.271,177.016Z" transform="translate(-114.803 -89.723)"/>
        <path id="Path_3800" data-name="Path 3800" class="cls-6" d="M202.536,171.344c.043.426.128.851.128,1.277-1.107-5.278-3.49-9.7-6.172-14.259-.043-.128-.085-.3-.128-.426-.341-1.447-.6-3.277-1.064-4.81a3.961,3.961,0,0,0,.809.468,5.34,5.34,0,0,0,.341-2.894,20.8,20.8,0,0,1,2.426,4.725A73.2,73.2,0,0,1,202.536,171.344Z" transform="translate(-121.408 -99.544)"/>
        <path id="Path_3801" data-name="Path 3801" class="cls-15" d="M202.2,182.442a79.325,79.325,0,0,1,.213,14.217,19.943,19.943,0,0,1-.681,4.384c-.553,2.128-1.277,4.256-1.958,6.257-.043.043-.043.128-.085.213-.128.341-.213.724-.341,1.022-.085.34-.213.638-.3.979v-.128c.085-.766.128-1.49.213-2.256a39.876,39.876,0,0,0,1.362-5.278c1.83-10.684-.809-23.581-6.129-33.583a4.091,4.091,0,0,1,1.192-.468c.085.128.17.3.255.426C198.756,172.737,201.1,177.207,202.2,182.442Z" transform="translate(-120.949 -109.366)"/>
        <path id="Path_3802" data-name="Path 3802" class="cls-16" d="M197.091,203.8a30.182,30.182,0,0,0-1.107-7.789c-.213-4.086-.255-8.683-.681-12.6-.511-4.554-2.3-9.194-3.7-13.408a5.217,5.217,0,0,1,1.32-1.107c5.321,10,7.917,22.9,6.129,33.583a41.66,41.66,0,0,1-1.362,5.278c-.085.766-.128,1.49-.213,2.256v.128l-.128,2.171v-1.022a3.222,3.222,0,0,1-.043-.638c-.043-.511-.043-1.064-.085-1.617C197.133,207.378,197.133,205.591,197.091,203.8Z" transform="translate(-119.283 -109.998)"/>
        <path id="Path_3803" data-name="Path 3803" d="M191.764,67.933s-.383-1.617-1.064-3.788a17.911,17.911,0,0,0,1.192-1.745,42.333,42.333,0,0,1,.936,12.344c-.043-.128-.043-.213-.085-.341C191.722,70.913,191.168,70.913,191.764,67.933Z" transform="translate(-118.766 -48.829)"/>
        <path id="Path_3804" data-name="Path 3804" class="cls-17" d="M183.543,151.732a.256.256,0,0,1-.043-.17l.085-.043a4.034,4.034,0,0,1,2.937.724,19.85,19.85,0,0,1,2,1.277c.468,1.532.681,3.405,1.064,4.81h-.128a4.352,4.352,0,0,0-1.192.468,43.606,43.606,0,0,0-3.363-5.321C184.436,152.882,183.968,152.286,183.543,151.732Z" transform="translate(-114.631 -99.981)"/>
        <path id="Path_3805" data-name="Path 3805" class="cls-18" d="M184.55,160.013a17.992,17.992,0,0,1-5.15-3.746c.043-.17.085-.341.128-.468.383-1.49.851-2.937,1.32-4.214l.128-.085c.085.043.128.128.213.255.468.553.894,1.149,1.362,1.788a43.6,43.6,0,0,1,3.363,5.321A5.755,5.755,0,0,0,184.55,160.013Z" transform="translate(-112.276 -100.004)"/>
        <path id="Path_3806" data-name="Path 3806" class="cls-5" d="M163.571,97.913c-1.107.17-5.491-.383-9.7-1.49.213-2.426-.553-4.214-.426-7.406,0-2,.341-3.533-.213-5.278-.936-2.809-1.447-2.809-.766-5.321a34.622,34.622,0,0,0-1.362-4.086c3.788-.085,8.3-2.128,11.492-3.448A13.352,13.352,0,0,0,168,66.5c.681,2.171,1.064,3.788,1.064,3.788-.6,2.98-.043,3.022.936,6.47.043.128.043.213.085.341.468,2,.213,3.746.255,6.087,0,.894.043,1.66.085,2.384.213,2.682.724,4.6.511,7.108.128.809-.553,1.66-1.532,2.426a17.588,17.588,0,0,1-4.342,2.426,4.975,4.975,0,0,1-.851.255A5.584,5.584,0,0,1,163.571,97.913Z" transform="translate(-96.022 -51.184)"/>
        <path id="Path_3807" data-name="Path 3807" class="cls-7" d="M167.309,444.951l.341-35.712c.213-.043.468-.085.681-.128a42.067,42.067,0,0,0,8.555-2.511c-.128,2.384-.3,5.235-.511,8.47-.085,1.873-.213,3.873-.34,6-.043.255-.043.511-.085.809-.341,5.576-.766,11.875-1.192,18.516-2.086,32.051-4.81,73.083-4.554,86.7a7.866,7.866,0,0,0,.043,1.022v.17a1.584,1.584,0,0,1-.3.851.8.8,0,0,1-.3.255.156.156,0,0,1-.043-.128c-.724.724-.809.681-2.6,1.107a2.138,2.138,0,0,1-.511.085l.809-85.512Z" transform="translate(-104.867 -246.522)"/>
        <path id="Path_3808" data-name="Path 3808" class="cls-19" d="M150.878,319.863c-1.022.468-2.086.894-3.15,1.277a9.793,9.793,0,0,1-2.937.128.938.938,0,0,1-.34-.043,30.5,30.5,0,0,1-1.49-3.405c-3.277-9.237-2.98-21.538-4.044-30.348-.6-4.427-1.022-9.151-1.575-13.833,0-1.107-.043-2.171-.043-3.235,8.215-5.023,18.473-11.62,27.922-18.3a4.43,4.43,0,0,0,.255.681,19.561,19.561,0,0,1,.6,3.958c.043.553.085,1.107.085,1.617a3.22,3.22,0,0,0,.043.638v1.064c-.766,13.578.724,27.752,1.788,37.968.043,0,.043.043,0,.043.17,1.447.3,2.767.468,4.044v.17c.213,2,.383,3.746.511,5.278l.085.085c-.043.085-.128.085-.17.128a39.031,39.031,0,0,0,.766,5.448c-.851.468-1.7.936-2.511,1.319a69.191,69.191,0,0,1-6.981,3.235,41.285,41.285,0,0,1-8.555,2.511c-.213.043-.426.085-.681.128v-.553Z" transform="translate(-88.095 -157.784)"/>
        <path id="Path_3809" data-name="Path 3809" class="cls-20" d="M160.284,31.551c-1.362-.255-2.852-.6-4.384-.851A21.593,21.593,0,0,1,160.284,31.551Z" transform="translate(-98.778 -30.622)"/>
        <path id="Path_3810" data-name="Path 3810" class="cls-21" d="M134.923,50.217c-3.192,1.319-7.747,3.363-11.492,3.448a7.123,7.123,0,0,1-1.66-.085,6.223,6.223,0,0,1-.851-.213c-6.47-1.49-12.6-6.512-17.92-10.556a22.181,22.181,0,0,1,5.193-7.066l.043.043a18.818,18.818,0,0,1,7.066-4.044,25.061,25.061,0,0,1,10.215-1.107h.043c1.49.255,2.98.6,4.384.851,1.234.255,2.341.468,3.405.6,2.852.341,6.342-.511,9.151.681,3.831,1.66,2,5.831.511,8.853-.426.851-.936,1.745-1.447,2.554a12.6,12.6,0,0,1-1.192,1.745A14.677,14.677,0,0,1,134.923,50.217Z" transform="translate(-68.395 -30.516)"/>
        <path id="Path_3811" data-name="Path 3811" class="cls-10" d="M157,496.2c.128.085.3.128.426.213l-.426.17Z" transform="translate(-99.41 -297.984)"/>
        <path id="Path_3812" data-name="Path 3812" class="cls-22" d="M142.813,497.1v5.7l-.255,38.521L132.3,547.284v-45.5l1.022-.468h.043l8.6-3.831.043-.043Z" transform="translate(-85.224 -298.501)"/>
        <path id="Path_3813" data-name="Path 3813" class="cls-9" d="M133.647,406.023l-.341,35.712-4.427-.043c-.128-.085-.3-.128-.426-.213a11.579,11.579,0,0,1-1.064-.511c-1.447-.681-3.533-1.66-5.959-2.894-2-.936-4.214-2-6.6-3.15-1.107-.553-2.213-1.107-3.363-1.66.426-5.363,1.107-10.428-3.15-13.152-.17-2.469-.341-4.427-.468-5.789-.3-2.979-.468-5.576-.553-8,.085-1.745.213-3.533.383-5.321.511.255,1.022.511,1.575.766,5.363,2.6,13.578,5.916,18.3,5.619a4.653,4.653,0,0,1-.341-.638.938.938,0,0,0,.341.043,11.417,11.417,0,0,0,2.937-.128,22.19,22.19,0,0,0,3.15-1.277v.638Z" transform="translate(-70.865 -243.306)"/>
        <path id="Path_3814" data-name="Path 3814" class="cls-6" d="M145.544,167.184a23.1,23.1,0,0,1-4.044-3.916,18.785,18.785,0,0,0,5.789,2.426,36.874,36.874,0,0,0,4.256.851c2.128.341,4.384.426,5.448-.341h.043a28.159,28.159,0,0,1,.553-3.405,20.218,20.218,0,0,0,5.15,3.746c1.4,4.214,3.192,8.853,3.7,13.408.426,3.916.511,8.513.681,12.6-.085-.213-.17-.468-.255-.638a48.9,48.9,0,0,0-9.279-15.11c-2.98-3.32-6.172-5.406-9.662-7.832A26.749,26.749,0,0,0,145.544,167.184Z" transform="translate(-90.508 -106.494)"/>
        <path id="Path_3815" data-name="Path 3815" class="cls-4" d="M140.954,84.413a7,7,0,0,0,1.66.085,29.027,29.027,0,0,1,1.362,4.086c-.638,2.511-.128,2.511.766,5.321.6,1.745.213,3.235.213,5.278-.128,3.235.638,4.98.426,7.406a27.206,27.206,0,0,1-4.554-1.49,10.037,10.037,0,0,1-3.363-4.342c.043,0,.085-.043.128-.085a26.176,26.176,0,0,1-1.192-3.746c1.022.681,2.171,1.277,3.32,1.915-1.362-4.937-.17-6.768.043-9.194a27.327,27.327,0,0,0,.383-5.448C140.358,84.285,140.656,84.328,140.954,84.413Z" transform="translate(-87.579 -61.35)"/>
        <path id="Path_3816" data-name="Path 3816" class="cls-11" d="M123.6,191.964a6.55,6.55,0,0,1,2.639-.936c.638,1.49.128,2.724-.043,4.086-.3,2.086-.3,2.086,1.362,2.937,3.49,1.745,7.236,2.767,10.726,4.64,5.789,2.98,8.087,7.874,10.428,14.3-9.449,6.683-19.707,13.238-27.922,18.3-.553-15.834-4.6-26.092-12.088-36.095.085-.043.128-.085.213-.128.043,0,.043,0,.085-.043,4.342-2.554,7.789-5.406,11.79-8.13a8.975,8.975,0,0,0,.6.936C122.7,193.241,121.725,192.773,123.6,191.964Z" transform="translate(-71.669 -122.633)"/>
        <path id="Path_3817" data-name="Path 3817" class="cls-23" d="M137.663,143.3c4.171,6.044,18.43,3.661,18.9.128a1.171,1.171,0,0,0-.085-.766c-.128-.979-.255-1.958-.34-2.937l-.085-.17a3.244,3.244,0,0,0,.851-.255c1.958.3,3.831,1.915,5.363,3.916.213.3.468.6.681.936a4.967,4.967,0,0,1-.34,2.894,7.9,7.9,0,0,1-.809-.468,19.854,19.854,0,0,0-2-1.277,4.242,4.242,0,0,0-2.937-.724l-.085.043c0,.085,0,.128.043.17-.085-.128-.128-.213-.213-.255l-.128.085c-.426,1.277-.936,2.724-1.32,4.214a1.493,1.493,0,0,0-.341.213c.085.085.128.17.213.255a20.935,20.935,0,0,0-.553,3.405h-.043c-1.107.809-3.32.724-5.448.341-1.7-.255-3.32-.638-4.256-.851a18.785,18.785,0,0,1-5.789-2.426c-1.617-2.128-2.682-4.6-1.617-7.023l.043-.043A1.555,1.555,0,0,0,137.663,143.3Z" transform="translate(-87.863 -92.997)"/>
        <path id="Path_3818" data-name="Path 3818" class="cls-14" d="M131.344,144.961a23.1,23.1,0,0,0,4.044,3.916c.851.6,1.66,1.192,2.469,1.788,3.49,2.384,6.683,4.512,9.662,7.832a50.243,50.243,0,0,1,9.279,15.11c.085.17.17.426.255.638a28.452,28.452,0,0,1,1.107,7.789c.043,1.788.043,3.575.128,5.193a19.562,19.562,0,0,0-.6-3.959,4.431,4.431,0,0,1-.255-.681c-2.341-6.427-4.64-11.365-10.428-14.3-3.49-1.873-7.236-2.937-10.726-4.64-1.7-.851-1.7-.851-1.362-2.937.213-1.362.681-2.6.043-4.086a6.126,6.126,0,0,0-2.639.936c-1.873.809-.894,1.277-2.171-.17a8.98,8.98,0,0,1-.6-.936c-.766-1.49-1.532-3.533-2.171-4.937-1.277-2.724-4.3-9.236-3.405-12.727l.638-.638a33.272,33.272,0,0,1,4.6-7.151c.085.851.213,1.66.3,2.554.213,1.66.426,3.32.638,4.937-.128-.213-.3-.426-.383-.6l-.043.043C128.663,140.364,129.727,142.833,131.344,144.961Z" transform="translate(-80.352 -88.23)"/>
        <path id="Path_3819" data-name="Path 3819" class="cls-3" d="M140.31,127.5a28.549,28.549,0,0,0,4.554,1.49c4.214,1.107,8.6,1.66,9.7,1.49a5.587,5.587,0,0,0,.638-.128l.085.17c.128.979.213,1.958.341,2.937.043.255.043.468.085.766-.468,3.533-14.727,5.874-18.9-.128-.213-1.66-.426-3.32-.638-4.937-.128-.851-.213-1.7-.3-2.554-.043-.128-.043-.3-.085-.468-.128-.809-.213-1.617-.3-2.426a2.085,2.085,0,0,0,1.447-.511A10.2,10.2,0,0,0,140.31,127.5Z" transform="translate(-87.062 -83.75)"/>
        <path id="Path_3820" data-name="Path 3820" class="cls-5" d="M129.908,107.033a26.174,26.174,0,0,0,1.192,3.746c-.043.043-.085.085-.128.085a2.313,2.313,0,0,1-1.447.511c-2.086-.213-3.15-4.767-4.086-6.768-1.192-2.511,1.915-3.448,3.022-2.554A42.347,42.347,0,0,1,129.908,107.033Z" transform="translate(-81.129 -71.414)"/>
        <path id="Path_3821" data-name="Path 3821" class="cls-24" d="M68.776,479.545v22.687l-.17-.085-4.512-2.3-2.384-1.192-.681-.341-.085-.085v-2.3l-4.81-2.469v2.3l-18.516-9.492-4.81-2.469v-2.426L28,478.949v2.384l-6.3-3.192V452.9h.043l17.835,8.939,20.984,10.513,3.788,1.915,4.342,2.171.085.043v3.065Z" transform="translate(-21.7 -273.115)"/>
        <path id="Path_3822" data-name="Path 3822" class="cls-7" d="M132.185,508.1v.085l-.085-.043Z" transform="translate(-85.109 -304.819)"/>
        <path id="Path_3823" data-name="Path 3823" d="M140.913,719.95c-3.277-1.149-10.386-6.172-16.345-10.769-.255-1.277-.468-2.554-1.66-3.405-.766-.553-2.086-.894-2.6.043-2-1.617-3.575-3.022-4.512-3.916.085-1.192.128-2.256.341-3.7,3.831,3.661,19.75,16.217,25.156,18.047h.128c4.256,0,9.279-2.724,10.215-5.023a16.638,16.638,0,0,1-.3,3.235c-.213,1.32-2.043,2.937-4.427,4.044a14.3,14.3,0,0,1-6,1.447Z" transform="translate(-75.747 -414.004)"/>
        <path id="Path_3824" data-name="Path 3824" class="cls-8" d="M116.868,694c4.044,2.724,14.472,2.894,20.771,1.532a1.828,1.828,0,0,0,.511-.085c1.788-.426,1.873-.34,2.6-1.107a.156.156,0,0,1,.043.128c.468.936,3.022,3.873,3.49,4.6,2.809,4.044,7.619,4.3,7.619,8.47a1.656,1.656,0,0,1,0,1.277c-.936,2.3-5.916,5.023-10.215,5.023h-.128c-5.406-1.83-21.325-14.387-25.156-18.047.085-.426.213-.979.341-1.617C116.826,694.128,116.868,694.085,116.868,694Z" transform="translate(-76.091 -411.592)"/>
        <path id="Path_3825" data-name="Path 3825" class="cls-25" d="M119.068,69.9a35.241,35.241,0,0,1-.383,5.448c-.213,2.426-1.4,4.256-.043,9.194q-1.724-.894-3.32-1.915c-.511-1.915-1.022-3.916-1.4-5.023-1.107-.851-4.214.043-3.022,2.554.936,2,2,6.555,4.086,6.768.128.809.213,1.617.3,2.426l-.17.043c-.724-.468-1.277-.3-2.171-.851a13.35,13.35,0,0,0-1.575-3.107l-.17.128a159.715,159.715,0,0,1-10.386-16.685c-1.617-2.852-1.192-6.3.3-9.577C106.469,63.386,112.6,68.409,119.068,69.9Z" transform="translate(-66.543 -47.048)"/>
        <path id="Path_3826" data-name="Path 3826" class="cls-9" d="M137.27,496.8l-.894,85.469c-6.257,1.362-16.728,1.192-20.771-1.532a.384.384,0,0,0-.043.213c-.085-.043-.213-.085-.255-.17a5.621,5.621,0,0,1-1.107-.766,112.341,112.341,0,0,0,1.234-14.94v-.043c-.383-8.3-1.234-14.259-1.022-21.878l.851.511,6.427,3.575v.043l.3-.17,10.3-5.959.255-38.478v-5.7l.426-.17Z" transform="translate(-74.828 -298.329)"/>
        <path id="Path_3827" data-name="Path 3827" class="cls-7" d="M120.84,263.333c1.107,8.768.766,21.112,4.044,30.348a27.405,27.405,0,0,0,1.49,3.405,4.652,4.652,0,0,0,.341.638c-4.725.3-12.9-3.022-18.3-5.619-.553-.3-1.107-.553-1.575-.766.128-1.745.3-3.448.426-5.193a102.134,102.134,0,0,0,.383-12.259c-.043-1.107-.043-3.405,0-6.512.128-13.45.681-42.011.511-52.1q-.958-2.3-1.915-4.469H106.2a3.518,3.518,0,0,0-.3-.553h.043a5.825,5.825,0,0,1,.681-.085,2.074,2.074,0,0,0,.681-.17c-.085.043-.128.128-.213.128,7.491,10,11.535,20.261,12.088,36.095.043,1.064.043,2.128.043,3.235C119.819,254.182,120.244,258.907,120.84,263.333Z" transform="translate(-70.061 -133.604)"/>
        <path id="Path_3828" data-name="Path 3828" class="cls-3" d="M104,435.8c.3,1.277.468,2.639.724,3.916a13.465,13.465,0,0,0-2.341-.894l-.085-.043a7.56,7.56,0,0,0,.681-2.767A8.716,8.716,0,0,1,104,435.8Z" transform="translate(-67.993 -263.293)"/>
        <path id="Path_3829" data-name="Path 3829" class="cls-26" d="M102.6,548.2l4.81,2.469v6.172l-.426-.213-4.384-2.469V548.2Z" transform="translate(-68.165 -327.851)"/>
        <path id="Path_3830" data-name="Path 3830" class="cls-27" d="M103.493,443.794a3.857,3.857,0,0,1,.681.468c4.3,2.724,3.575,7.789,3.15,13.152-.085,1.149-.17,2.341-.213,3.533h-.17c-.213.851-.936.894-1.66.638a2.566,2.566,0,0,1-.936-.383c-.936-.426-1.022-.936-1.022-1.83l.17-.043c.043-.6.043-2.043.043-3.7,0-2.639-.043-5.874-.043-7.449a.831.831,0,0,1-.3.043c-.851,0-1.277-.809-2-1.234a.228.228,0,0,0-.17-.128,2.107,2.107,0,0,1-.3-3.15l-.085-.213c.128-.17.213-.383.341-.6l.085.043A10.049,10.049,0,0,1,103.493,443.794Z" transform="translate(-66.759 -267.371)"/>
        <path id="Path_3831" data-name="Path 3831" class="cls-28" d="M73.708,195.358h.043a5.136,5.136,0,0,1,5.193-.128,18.812,18.812,0,0,1,2.213,2.852c.724,1.107,1.4,2.256,1.958,3.32a2.293,2.293,0,0,1,.3.553h.043q.958,2.171,1.915,4.469c.128,10.088-.426,38.606-.511,52.1-.043,3.107-.043,5.406,0,6.512a102.387,102.387,0,0,1-.383,12.259c-.128,1.745-.3,3.448-.426,5.193-.128,1.788-.3,3.575-.383,5.321-.128,1.83-.17,3.661-.17,5.363a4.888,4.888,0,0,1,.043.809,4.03,4.03,0,0,1-1.022.851.926.926,0,0,1-.341.213,8.108,8.108,0,0,1-2.341.894c-.085.043-.213.043-.3.085a14.494,14.494,0,0,1-10.9-2.213,12.41,12.41,0,0,1-1.745-1.575c-.128-.128-.213-.3-.3-.383,0-2.3-.043-4.682-.128-7.066-.085-4.256-.213-8.6-.255-12.982-.128-9.875-.085-49.162.383-57.249.043-.851.085-1.66.17-2.469s.17-1.575.3-2.384a43.23,43.23,0,0,1,1.617-7.236c.128-.426.3-.894.468-1.362l.128-.255c.213-.426.383-.851.638-1.277l.383-.638h0c.043-.085.085-.128.128-.213.043-.128.043-.213.085-.34l.085.043C71.239,196.423,72.3,195.614,73.708,195.358Z" transform="translate(-47.232 -124.751)"/>
        <path id="Path_3832" data-name="Path 3832" class="cls-5" d="M83.455,441.03c-4.767-.128-10.045-.681-13.919-3.235a.83.83,0,0,0-.043-.341,14.965,14.965,0,0,1,.213-4.554c3.49,2.937,9.577,2.086,14.387,1.447a7.354,7.354,0,0,1-.681,2.767c-.128.213-.213.426-.341.6l.085.213A2.033,2.033,0,0,0,83.455,441.03Z" transform="translate(-49.106 -261.627)"/>
        <path id="Path_3833" data-name="Path 3833" class="cls-12" d="M101.533,166.907c-4,2.724-7.449,5.619-11.79,8.13-.043.043-.043.043-.085.043a2.073,2.073,0,0,1-.681.17c-.17.043-.383.043-.681.085h-.043c-.553-1.064-1.234-2.213-1.958-3.32a21.992,21.992,0,0,0-2.213-2.852,5.136,5.136,0,0,0-5.193.128h-.043a3.771,3.771,0,0,0-3.065,2.894l-.085-.043c-.043.128-.043.213-.085.341-.043.085-.128.128-.128.213h0l-.383.638c.128-.255.17-.511.3-.766a14.078,14.078,0,0,1,.936-2c.085-.17.213-.426.341-.638a9.352,9.352,0,0,1,.809-1.277c.213-.341.511-.638.724-.936l.17-.17a.042.042,0,0,1,.043-.043c4.554-6.427,11.492-12.514,17.579-18.3-.894,3.448,2.086,10,3.405,12.727C100,163.417,100.766,165.417,101.533,166.907Z" transform="translate(-52.371 -98.683)"/>
        <path id="Path_3834" data-name="Path 3834" class="cls-6" d="M84.487,431.261c-4.81.638-10.9,1.49-14.387-1.447.085-.341.213-.724.3-1.064.128-.383.3-.766.468-1.149a14.308,14.308,0,0,0,10.9,2.213.79.79,0,0,1,.3-.085,8.108,8.108,0,0,0,2.341-.894l.128.213C84.529,429.728,84.529,430.494,84.487,431.261Z" transform="translate(-49.499 -258.583)"/>
        <path id="Path_3835" data-name="Path 3835" class="cls-4" d="M69.7,444.4c3.873,2.554,9.151,3.107,13.919,3.235.043.043.128.085.17.128.681.426,1.149,1.234,2,1.234a.724.724,0,0,0,.3-.043c-1.064.851-3.065,2.682-3.916,3.533a70.887,70.887,0,0,1-11.79-4.427A33.362,33.362,0,0,1,69.7,444.4Z" transform="translate(-49.269 -268.233)"/>
        <path id="Path_3836" data-name="Path 3836" class="cls-27" d="M60.793,443.882c-.851,1.064-2.511,0-2.809-1.192h.043c0-1.277-.085-3.107-.043-4.98.128-3.7.809-7.662,4-7.832a4.7,4.7,0,0,1,1.49.128,9.933,9.933,0,0,0-.3,1.064,12.683,12.683,0,0,0-.213,4.554.719.719,0,0,0-.638-.085c-.468.213-.809,1.064-1.022,2.171v.043c-.085.426-.128.936-.213,1.447-.085.894-.128,1.83-.128,2.639C60.921,442.563,60.836,443.2,60.793,443.882Z" transform="translate(-42.533 -259.883)"/>
        <path id="Path_3837" data-name="Path 3837" class="cls-29" d="M78.553,466.123l-8.6,3.831-.043.043-1.022.468-.085.043-4.3-2.171-3.831-1.915L39.735,455.908,21.9,446.969,32.158,442.5c1.107.6,2.894,1.49,5.15,2.554-.043,1.873.043,3.7.043,4.98h-.085c.3,1.192,1.958,2.256,2.809,1.192.043-.681.128-1.32.17-1.958.085-.851.128-1.745.213-2.639,5.193,2.511,11.833,5.7,18.175,8.768,0,1.66,0,3.107-.043,3.7l-.17.043c0,.936.085,1.4,1.022,1.83a2.565,2.565,0,0,0,.936.383c.681.255,1.447.213,1.66-.638h.17c.043-1.192.128-2.384.213-3.533,1.149.553,2.256,1.107,3.363,1.66,2.426,1.107,4.64,2.213,6.6,3.15,2.426,1.192,4.512,2.171,5.959,2.894a11.581,11.581,0,0,0,1.064.511v.383l-.851.341Z" transform="translate(-21.815 -267.141)"/>
        <path id="Path_3838" data-name="Path 3838" class="cls-26" d="M41.31,518.952v3.788l-4.81-2.724V514.1l4.81,2.426Z" transform="translate(-30.2 -308.265)"/>
        <path id="Path_3839" data-name="Path 3839" class="cls-29" d="M68.776,536.292v19.665l-.3.17v-.043l-6.427-3.533-.851-.511-2.682-1.532-22.389-12.6L21.7,529.822V512.2l6.3,3.192v3.533l4.81,2.724v-3.788l4.81,2.469,18.516,9.492v3.661l4.384,2.469.426.213V532.29l.085.085.681.341,2.384,1.192,4.512,2.3Z" transform="translate(-21.7 -307.174)"/>
      </g>
    </g>
    <g id="Group_3024" data-name="Group 3024" transform="translate(146.552 67.067)">
      <path id="Path_3840" data-name="Path 3840" class="cls-8" d="M532.1,809.851a6.087,6.087,0,0,0,.6-.851v.128A4.9,4.9,0,0,1,532.1,809.851Z" transform="translate(-439.99 -514.251)"/>
      <path id="Path_3841" data-name="Path 3841" class="cls-9" d="M525.467,637.388,522.7,511.269l.894-.638c.341-.255.681-.468,1.022-.724.638-.468,1.277-.894,1.873-1.362.043-.043.085-.043.128-.085.128-.128.3-.213.426-.34l1.149-.894c.17-.128.383-.3.553-.426h0c-.128,7.619-.383,15.706-.724,23.708-.426,10.939.085,53.972.128,63.421.043,16,.085,30.732.809,36.393a9.679,9.679,0,0,1-1.4,4.767,2.851,2.851,0,0,1-.3.468v-.128a6.077,6.077,0,0,1-.6.851.149.149,0,0,0-.043.085A8.924,8.924,0,0,1,525.467,637.388Z" transform="translate(-434.591 -340.681)"/>
      <path id="Path_3842" data-name="Path 3842" class="cls-19" d="M523.824,510.5c-.17.128-.383.255-.553.383l-.17-1.83c1.192-.809,2.384-1.66,3.533-2.554.085.6.17,1.149.255,1.745h0c-.043.043-.085.043-.128.085-.638.468-1.234.936-1.873,1.362C524.5,509.99,524.164,510.246,523.824,510.5Z" transform="translate(-434.821 -340.508)"/>
      <path id="Path_3843" data-name="Path 3843" class="cls-19" d="M503.138,519.821c-.213-.426-.426-.851-.638-1.319.383-.255.766-.511,1.149-.809.3-.213.6-.426.894-.6,2.213-1.49,4.469-3.022,6.725-4.6l.17,1.83c-.638.426-1.277.894-1.915,1.319C507.395,517.054,505.224,518.459,503.138,519.821Z" transform="translate(-422.99 -343.954)"/>
      <path id="Path_3844" data-name="Path 3844" class="cls-10" d="M500.152,527.919c-.3.17-.6.383-.851.553-.511.383-1.064.724-1.617,1.107-.128-.468-.255-.979-.383-1.447.553-.383,1.107-.766,1.66-1.107a5.159,5.159,0,0,0,.6-.426A5.243,5.243,0,0,0,500.152,527.919Z" transform="translate(-420.003 -352.053)"/>
      <path id="Path_3845" data-name="Path 3845" class="cls-19" d="M496.3,424.365c-1.532-3.533-2.256-8.045-3.15-11.322a56.342,56.342,0,0,1-1.362-13.706c-.043.128-.043.255-.085.383.468-11.961,1.022-23.07,3.15-34.647,8.13-3.7,16.047-7.364,22.687-10.939l.128.128a36.083,36.083,0,0,0,3.916-5.661c-4.342,14.9-8.172,30.178-11.79,45.331h0c-.979,4.044-1.915,8.045-2.852,12.046.6,3.107,1.149,6.427,1.66,9.875-1.149.851-2.341,1.7-3.533,2.554-2.256,1.575-4.554,3.107-6.725,4.6-.3.213-.6.383-.894.6C497.021,423.854,496.68,424.109,496.3,424.365Z" transform="translate(-416.786 -249.818)"/>
      <path id="Path_3846" data-name="Path 3846" class="cls-10" d="M492.821,481.448c.851,3.277,1.617,7.789,3.15,11.322a7.214,7.214,0,0,1-.6.426c-.553.383-1.064.766-1.66,1.107-1.788-7.108-2.767-15.834-2.554-20.6.085-1.915.17-3.788.213-5.619.043-.128.043-.255.085-.383A54.846,54.846,0,0,0,492.821,481.448Z" transform="translate(-416.461 -318.223)"/>
      <path id="Path_3847" data-name="Path 3847" class="cls-10" d="M486.2,497.559c-2.426-8.726-.085-20.6,1.745-28.859-.085,1.83-.17,3.7-.213,5.618-.213,4.725.766,13.493,2.554,20.6-.851.6-1.7,1.149-2.6,1.7C487.177,496.92,486.708,497.261,486.2,497.559Z" transform="translate(-413.029 -318.798)"/>
      <path id="Path_3848" data-name="Path 3848" class="cls-10" d="M487.6,532.939c.511-.3,1.022-.638,1.49-.936.894-.553,1.745-1.149,2.6-1.7.128.511.255.979.383,1.447-1.277.894-2.639,1.745-4.044,2.639C487.855,533.875,487.728,533.407,487.6,532.939Z" transform="translate(-414.432 -354.178)"/>
      <path id="Path_3849" data-name="Path 3849" class="cls-19" d="M481.937,537.847c-1.617.979-3.277,1.958-4.937,2.809.128-.638.3-1.277.426-1.873,1.4-.766,2.767-1.575,4.129-2.384A8.035,8.035,0,0,0,481.937,537.847Z" transform="translate(-408.343 -357.681)"/>
      <path id="Path_3850" data-name="Path 3850" class="cls-7" d="M476.283,546.755a1.729,1.729,0,0,1-.383.213c0-.085.043-.17.043-.255a3.929,3.929,0,0,1,.426-.213C476.326,546.585,476.326,546.67,476.283,546.755Z" transform="translate(-407.712 -363.482)"/>
      <path id="Path_3851" data-name="Path 3851" class="cls-7" d="M473.8,552.421q.511-2.681.894-5.108c.128-.085.255-.128.383-.213C474.694,548.76,474.268,550.548,473.8,552.421Z" transform="translate(-406.506 -363.827)"/>
      <path id="Path_3852" data-name="Path 3852" class="cls-7" d="M466.255,573.278c-.085-.6-.17-1.149-.255-1.7,1.277-4.3,2.426-8.3,3.32-11.875-.724,3.7-1.66,7.832-2.767,12.429A7.513,7.513,0,0,0,466.255,573.278Z" transform="translate(-402.026 -371.064)"/>
      <path id="Path_3853" data-name="Path 3853" class="cls-10" d="M490.2,643.3c-5.448,3.916-16.643,1.362-22.559-6.512-.128-2.213.766-5.746.043-9.577a2.141,2.141,0,0,1-.511.085,10.433,10.433,0,0,0-.085-1.149c-.255-2.511-.553-5.321-.809-8.343l.936-.511.255-43.288v-6.47l.468-.213a5,5,0,0,0-.468-.213c-.341-.17-.724-.341-1.192-.553-1.192-.6-2.724-1.32-4.469-2.171h0c-.17-2.469-.341-4.81-.511-7.108.851-2.979,1.575-5.789,2.3-8.513.085-.426.213-.809.3-1.192,1.149-4.554,2.086-8.726,2.767-12.429.468-1.873.894-3.618,1.277-5.321,1.362-.724,2.682-1.532,3.958-2.341,1.49-.894,2.894-1.83,4.256-2.767.6-.383,1.149-.809,1.7-1.192.3-.213.6-.383.936-.6,2.213-1.447,4.469-2.937,6.725-4.469.681-.426,1.319-.894,2-1.362Z" transform="translate(-399.326 -346.596)"/>
      <path id="Path_3854" data-name="Path 3854" class="cls-7" d="M460.568,574.8c-.17-2.256-.3-4.469-.468-6.512.128-.426.255-.809.383-1.234,1.49-4.81,2.724-9.194,3.746-13.11q.958-3.129,1.788-5.874c.3-.17.553-.3.809-.468q-.383,2.362-.894,5.108-1.4,5.427-3.32,11.875c.085.553.17,1.107.255,1.7C462.186,569.01,461.419,571.862,460.568,574.8Z" transform="translate(-398.637 -364.114)"/>
      <path id="Path_3855" data-name="Path 3855" class="cls-7" d="M447.106,580.5c-2.213-1.064-4.725-2.256-7.406-3.575l3.533-25.581A46.452,46.452,0,0,0,455.108,547c0,.085-.043.17-.043.255-.255.17-.553.3-.809.468q-.766,2.745-1.788,5.874c-.979,3.916-2.256,8.3-3.746,13.11-.128.426-.255.809-.383,1.234.128,2.043.3,4.256.468,6.512C448.3,576.412,447.745,578.413,447.106,580.5Z" transform="translate(-386.92 -363.77)"/>
      <path id="Path_3856" data-name="Path 3856" class="cls-29" d="M371.536,585c5.831,2.852,13.28,6.427,20.474,9.918,0,1.873,0,3.49-.043,4.171h-.213c0,1.064.085,1.575,1.107,2.086.979.511,2.554,1.107,2.937-.3h.17c0-1.319.085-2.639.213-3.958,1.277.6,2.6,1.234,3.788,1.83l-1.49,10.684-27.88-14c.17-1.788.3-3.575.426-5.321.043-.724.128-1.447.17-2.171C371.366,586.958,371.451,585.936,371.536,585Z" transform="translate(-347.232 -385.595)"/>
      <path id="Path_3857" data-name="Path 3857" class="cls-19" d="M447.225,455.161a45.458,45.458,0,0,1-11.875,4.342,25.652,25.652,0,0,1-7.832.383c-.383-2.554-.766-5.193-1.064-7.832-.213-1.873-.383-3.788-.553-5.7,0-4.3.128-8.811.468-12.344.6-7.023.3-14.089,1.362-21.112.766-4.384,1.277-8.811,1.745-13.238,8.385-4.044,18.09-8.258,27.582-12.557-2.128,11.578-2.639,22.687-3.15,34.647-1.83,8.258-4.171,20.133-1.745,28.859-1.362.809-2.724,1.617-4.129,2.384-.128.6-.255,1.234-.426,1.873A1.173,1.173,0,0,1,447.225,455.161Z" transform="translate(-378.994 -271.93)"/>
      <path id="Path_3858" data-name="Path 3858" class="cls-7" d="M425.9,526.3c.128,1.915.34,3.831.553,5.7h0c-.043-.3-.511-1.745-.511-1.745C425.9,528.982,425.9,527.662,425.9,526.3Z" transform="translate(-378.994 -351.88)"/>
      <path id="Path_3859" data-name="Path 3859" class="cls-7" d="M425.387,451.007c-.341,3.533-.468,8.045-.468,12.344-.255-3.448-.426-6.853-.426-10.088,0-4.852-.341-10.556-.3-16.26.085-6.47.638-12.982,2.767-18.26a.149.149,0,0,1,.043-.085c.213-.553.468-1.107.724-1.617.255-.128.511-.255.724-.341-.511,4.427-1.022,8.811-1.745,13.238C425.727,436.961,425.983,443.984,425.387,451.007Z" transform="translate(-378.013 -288.931)"/>
      <path id="Path_3860" data-name="Path 3860" class="cls-9" d="M420.857,588.5Z" transform="translate(-376.079 -387.605)"/>
      <path id="Path_3861" data-name="Path 3861" class="cls-9" d="M419.868,556.028a6.92,6.92,0,0,1-.468.724V555.9C419.57,555.943,419.7,555.985,419.868,556.028Z" transform="translate(-375.261 -368.881)"/>
      <path id="Path_3862" data-name="Path 3862" class="cls-7" d="M419.4,503.246c-.085-9.577,1.958-22.3,1.532-31.668-.043-1.234-.043-3.788,0-7.279h.6c-.043,5.7.3,11.407.3,16.26,0,3.277.17,6.64.426,10.088,0,1.362,0,2.682.043,3.958,0,0,.426,1.447.511,1.745h0c.3,2.639.638,5.278,1.064,7.832a20.224,20.224,0,0,1-3.873-.809A1.127,1.127,0,0,1,419.4,503.246Z" transform="translate(-375.257 -316.27)"/>
      <path id="Path_3863" data-name="Path 3863" class="cls-9" d="M421.323,580.377c.6-7.236,1.575-13.876-6.938-16.345l-.085-.043a13.177,13.177,0,0,0,.809-5.619l-.128-.213a5.434,5.434,0,0,0,1.532-1.234,4.217,4.217,0,0,0,.468-.724,20.224,20.224,0,0,0,3.873.809,25.588,25.588,0,0,0,7.832-.383l-3.533,25.581C423.92,581.611,422.6,581.015,421.323,580.377Z" transform="translate(-372.331 -369.054)"/>
      <path id="Path_3864" data-name="Path 3864" class="cls-27" d="M413.108,579c-.043-.043-.128-.085-.213-.17a2.341,2.341,0,0,1-.3-3.533l-.085-.213c.128-.213.255-.468.383-.681l.085.043c8.555,2.469,7.534,9.109,6.938,16.345-1.362-.681-2.809-1.362-4.214-2.043,0-2.979-.043-6.64-.043-8.385h0C414.555,580.657,414,579.593,413.108,579Z" transform="translate(-370.969 -379.507)"/>
      <path id="Path_3865" data-name="Path 3865" class="cls-12" d="M384.026,306.328h0a6.411,6.411,0,0,0-.426.724c.128-.3.213-.6.341-.851C383.94,306.243,383.983,306.285,384.026,306.328Z" transform="translate(-354.699 -225.465)"/>
      <path id="Path_3866" data-name="Path 3866" class="cls-28" d="M382.3,308.841h0c.17-.553.341-1.064.511-1.617.128-.255.3-.468.426-.724.553.766.383,1.617-.936,2.341Z" transform="translate(-353.952 -225.637)"/>
      <path id="Path_3867" data-name="Path 3867" class="cls-28" d="M382.3,312Z" transform="translate(-353.952 -228.796)"/>
      <path id="Path_3868" data-name="Path 3868" class="cls-28" d="M382.624,308.2c-.17.511-.383,1.064-.511,1.617-.043-.043-.128-.085-.213-.17C382.113,309.179,382.368,308.668,382.624,308.2Z" transform="translate(-353.722 -226.614)"/>
      <path id="Path_3869" data-name="Path 3869" class="cls-28" d="M381.841,311.77a2.518,2.518,0,0,1-.341.17c.043-.128.085-.213.128-.341a.93.93,0,0,1,.213.17Z" transform="translate(-353.493 -228.566)"/>
      <path id="Path_3870" data-name="Path 3870" class="cls-28" d="M377.258,376.733a34.652,34.652,0,0,0-.724-6.81c-.213-1.32-.426-2.639-.511-3.958-.809-8.939-2-18.26-1.49-27.369.043-.936.128-1.873.213-2.809.085-.894.213-1.788.34-2.682a6.052,6.052,0,0,0,.979-1.4h.17c-.851,9.279.426,19.495,1.192,26.518a116.217,116.217,0,0,1,.724,14.3h-.043c0,1.362-.043,2.767-.085,4.214Z" transform="translate(-349.421 -240.111)"/>
      <path id="Path_3871" data-name="Path 3871" class="cls-4" d="M378.309,580.529c-.3-1.234-.6-2.639-.809-4.129,4.342,2.852,10.258,3.49,15.621,3.575.085.043.128.128.213.17.894.6,1.4,1.66,2.6,1.4h0c-1.192.979-3.448,3.022-4.384,4A83.517,83.517,0,0,1,378.309,580.529Z" transform="translate(-351.195 -380.656)"/>
      <path id="Path_3872" data-name="Path 3872" class="cls-5" d="M393.026,569.12c-5.406-.085-11.28-.766-15.621-3.575,0-.17-.043-.3-.043-.426a14.549,14.549,0,0,1,.6-6.3c.17-.426.341-.894.553-1.32a16.336,16.336,0,0,0,12.216,2.511c.128-.043.213-.043.341-.085a10.957,10.957,0,0,0,2.639-1.022l.128.213a13.177,13.177,0,0,1-.809,5.619c-.128.213-.255.468-.383.681l.085.213A2.266,2.266,0,0,0,393.026,569.12Z" transform="translate(-351.058 -369.8)"/>
      <path id="Path_3873" data-name="Path 3873" class="cls-28" d="M377.83,313.66a10.561,10.561,0,0,1,.553-1.49c.128-.043.213-.128.341-.17a44.1,44.1,0,0,0-1.575,8.428h-.17a5.277,5.277,0,0,1-.979,1.4A49.262,49.262,0,0,1,377.83,313.66Z" transform="translate(-350.334 -228.796)"/>
      <path id="Path_3874" data-name="Path 3874" class="cls-28" d="M389.674,547.448a15.964,15.964,0,0,1-12.216-2.511,13.223,13.223,0,0,1-1.958-1.788c.213-2.554.426-5.023.638-7.449,5.108,3.916,12.429,6.47,17.494,8.385a2.4,2.4,0,0,0,.511.17v.851a5.578,5.578,0,0,1-1.532,1.234,12.152,12.152,0,0,1-2.639,1.022A.5.5,0,0,1,389.674,547.448Z" transform="translate(-350.046 -357.279)"/>
      <path id="Path_3875" data-name="Path 3875" class="cls-9" d="M393.273,589.189c-7.193-3.448-14.642-7.066-20.474-9.917.043-.553.085-1.107.128-1.7h0c.213-1.277.553-2.256,1.107-2.469h0c.255.17.511.341.724.511a32.275,32.275,0,0,0,.809,4.129,82.287,82.287,0,0,0,13.238,4.98c.936-.936,3.192-3.022,4.384-4C393.273,582.591,393.273,586.209,393.273,589.189Z" transform="translate(-348.496 -379.909)"/>
      <path id="Path_3876" data-name="Path 3876" class="cls-28" d="M377.3,302.5h0c1.319-.724,1.447-1.575.979-2.341h0c2.256-3.533,5.874-6,9.7-3.958a33.83,33.83,0,0,1,4.725,6.938c.085.213.213.426.3.6h0v.043c.766,1.617,1.447,3.277,2.128,4.98.128,11.365-.468,43.458-.6,58.611-.043,3.49-.043,6.044,0,7.279.426,9.364-1.617,22.091-1.532,31.668-.17-.043-.341-.128-.511-.17-5.065-1.915-12.386-4.512-17.494-8.385-.383-.3-.766-.6-1.107-.894-.085-4.767-.213-9.662-.3-14.557a124.639,124.639,0,0,0,3.873-26.262c.043-1.447.085-2.852.085-4.214h.043a116.212,116.212,0,0,0-.724-14.3c-.766-7.023-2.043-17.239-1.192-26.518A49.549,49.549,0,0,1,377.3,302.5Z" transform="translate(-348.955 -219.297)"/>
      <path id="Path_3877" data-name="Path 3877" class="cls-28" d="M376.133,421.5a34.995,34.995,0,0,1,.724,6.81l.766.043a127.461,127.461,0,0,1-3.873,26.262C373.579,443.506,373.919,432.184,376.133,421.5Z" transform="translate(-349.019 -291.688)"/>
      <g id="Group_3023" data-name="Group 3023" transform="translate(0 0)">
        <path id="Path_3878" data-name="Path 3878" class="cls-9" d="M535.7,507.226c.17-.128.383-.3.553-.426C536.041,506.97,535.87,507.1,535.7,507.226Z" transform="translate(-442.058 -340.681)"/>
        <path id="Path_3879" data-name="Path 3879" class="cls-19" d="M532.081,505.707a3.707,3.707,0,0,0-.426.341c-.085-.6-.17-1.192-.255-1.745.766-.553,1.532-1.149,2.256-1.7l.128,1.788h0c-.17.128-.383.3-.553.426Z" transform="translate(-439.588 -338.268)"/>
        <path id="Path_3880" data-name="Path 3880" class="cls-19" d="M532,510.241c.128-.128.3-.213.426-.341a2.983,2.983,0,0,0-.426.341Z" transform="translate(-439.933 -342.461)"/>
        <path id="Path_3881" data-name="Path 3881" class="cls-19" d="M527.5,467.046c.936-4,1.915-8,2.852-12.046-.3,6.981.851,14.557,3.873,19.75-.894.766-1.788,1.532-2.724,2.256l-.128-1.788c-.766.553-1.49,1.149-2.256,1.7C528.649,473.516,528.1,470.2,527.5,467.046Z" transform="translate(-437.348 -310.929)"/>
        <path id="Path_3882" data-name="Path 3882" class="cls-19" d="M527.2,512.262c.638-.468,1.277-.936,1.873-1.362C528.477,511.368,527.838,511.836,527.2,512.262Z" transform="translate(-437.176 -343.035)"/>
        <path id="Path_3883" data-name="Path 3883" class="cls-14" d="M516.784,227.777a5.273,5.273,0,0,0-2.384-1.107.323.323,0,0,0,.085-.17,11.285,11.285,0,0,1,2.043.979c.085.085.17.128.213.213C516.741,227.777,516.741,227.777,516.784,227.777Z" transform="translate(-429.824 -179.689)"/>
        <path id="Path_3884" data-name="Path 3884" class="cls-14" d="M507.356,228.915c-.809-.043-1.49-1.4-2.256-1.575,1.064-.043,2.128-.213,3.15-.341h.809a6.467,6.467,0,0,1-1.66,1.234C507.4,228.447,507.356,228.7,507.356,228.915Z" transform="translate(-424.483 -179.976)"/>
        <path id="Path_3885" data-name="Path 3885" class="cls-14" d="M509.8,233.3c-.043.468-.085.979-.128,1.447a2.755,2.755,0,0,0-.17-.553l.128-.809A.17.17,0,0,1,509.8,233.3Z" transform="translate(-427.01 -183.594)"/>
        <path id="Path_3886" data-name="Path 3886" class="cls-14" d="M509,235.583a11.223,11.223,0,0,0,.085-1.192,5.5,5.5,0,0,0,.3-3.32h0c.043-.468.085-.979.128-1.447,0-.255.043-.511.043-.766,0-.213.043-.468.043-.724a5.6,5.6,0,0,0,1.66-1.234,5.274,5.274,0,0,1,2.384,1.107C515.768,230.561,512.873,233.37,509,235.583Z" transform="translate(-426.723 -179.919)"/>
        <path id="Path_3887" data-name="Path 3887" class="cls-14" d="M509.5,236.7a4.9,4.9,0,0,1-.3,3.32C509.328,238.913,509.413,237.807,509.5,236.7Z" transform="translate(-426.838 -185.547)"/>
        <path id="Path_3888" data-name="Path 3888" class="cls-14" d="M472.887,237.018c4.256-1.7,8.343-3.235,11.067-3.618l-.128.809a3.957,3.957,0,0,1,.17.553h0c-.085,1.107-.17,2.213-.3,3.32a8.341,8.341,0,0,1-1.064,1.745c-1.192.638-2.426,1.192-3.618,1.7a30.407,30.407,0,0,1-5.959,2c-1.617.255-3.192.511-4.725.724a8.477,8.477,0,0,1-3.533-1.66c1.83-1.447,3.746-3.065,5.661-4.682C471.312,237.614,472.078,237.316,472.887,237.018Z" transform="translate(-401.336 -183.652)"/>
        <path id="Path_3889" data-name="Path 3889" class="cls-14" d="M506.8,246.245a7.376,7.376,0,0,0,1.064-1.745,11.223,11.223,0,0,0-.085,1.192A7.279,7.279,0,0,0,506.8,246.245Z" transform="translate(-425.459 -190.027)"/>
        <path id="Path_3890" data-name="Path 3890" class="cls-11" d="M503.727,268.52a47.913,47.913,0,0,0-1.192-11.067c5.448-2.3,21.878-10.854,28.348-15.153a5.166,5.166,0,0,1,.426.6,67.038,67.038,0,0,1,1.66,14.983c0,10.3-2.171,21.155-6.938,29.625a36.073,36.073,0,0,1-3.916,5.661l-.128-.128c-6.64,3.575-14.557,7.236-22.687,10.939.341-1.915.766-3.873,1.192-5.831A143.857,143.857,0,0,0,503.727,268.52Z" transform="translate(-421.152 -188.764)"/>
        <path id="Path_3891" data-name="Path 3891" class="cls-30" d="M504.6,227.743h-.3c.043,0,.128-.043.17-.043A.156.156,0,0,0,504.6,227.743Z" transform="translate(-424.023 -180.378)"/>
        <path id="Path_3892" data-name="Path 3892" class="cls-30" d="M504.257,227.8Z" transform="translate(-423.98 -180.435)"/>
        <path id="Path_3893" data-name="Path 3893" class="cls-5" d="M491.519,223.926h0c-1.022.085-2.128.213-3.277.341-.341.043-.638.085-.979.128-1.064.17-2.213.3-3.363.511a21.691,21.691,0,0,0,7.108-3.405v.043h.043A9.723,9.723,0,0,0,491.519,223.926Z" transform="translate(-412.306 -176.817)"/>
        <path id="Path_3894" data-name="Path 3894" class="cls-12" d="M502.477,248.608a69.145,69.145,0,0,0-3.277-9.918,11.728,11.728,0,0,0,3.235-2.6c.341-.17.638-.341.979-.553,3.873-2.213,6.768-5.023,4.64-7.534l-.043-.043-.213-.213c3.277-.3,9.194-.851,9.577-.851,5.235.085,11.109,3.405,13.45,6.555C524.356,237.754,507.883,246.309,502.477,248.608Z" transform="translate(-421.094 -179.919)"/>
        <path id="Path_3895" data-name="Path 3895" class="cls-12" d="M501.975,248.6a11.728,11.728,0,0,1-3.235,2.6c-.128-.3-.213-.6-.341-.894C499.549,249.792,500.784,249.2,501.975,248.6Z" transform="translate(-420.635 -192.382)"/>
        <path id="Path_3896" data-name="Path 3896" class="cls-30" d="M484.041,233.6a12.045,12.045,0,0,1-2.341.894C482.509,234.2,483.275,233.9,484.041,233.6Z" transform="translate(-411.043 -183.767)"/>
        <path id="Path_3897" data-name="Path 3897" class="cls-30" d="M485.453,229.119c1.447-.511,2.809-.936,4.044-1.319h.341c.766.17,1.447,1.575,2.256,1.575a4.625,4.625,0,0,0-.043.766.256.256,0,0,0-.17.043c-2.682.383-6.768,1.915-11.067,3.618-.724.255-1.49.553-2.213.809C480.984,232.61,483.367,230.609,485.453,229.119Z" transform="translate(-409.262 -180.435)"/>
        <path id="Path_3898" data-name="Path 3898" class="cls-14" d="M468.436,244.1c-1.915,1.617-3.831,3.235-5.661,4.682a6.335,6.335,0,0,1-1.575-1.915C463.456,246.058,465.925,245.079,468.436,244.1Z" transform="translate(-399.269 -189.797)"/>
        <path id="Path_3899" data-name="Path 3899" class="cls-8" d="M476.2,798.3c5.916,7.874,17.111,10.428,22.559,6.512a8.914,8.914,0,0,0,1.192-1.022,5.878,5.878,0,0,1-1.319,1.192c-5.193,3.661-15.834,1.575-22.3-5.789A3.025,3.025,0,0,1,476.2,798.3Z" transform="translate(-407.884 -508.105)"/>
        <path id="Path_3900" data-name="Path 3900" class="cls-10" d="M475.7,635.126V634.7a4.139,4.139,0,0,0,.468.213Z" transform="translate(-407.597 -414.141)"/>
        <path id="Path_3901" data-name="Path 3901" class="cls-22" d="M474.494,642.227V642.1c-.3-2-.6-4-.894-5.917h0l.894-.383Z" transform="translate(-406.391 -414.772)"/>
        <path id="Path_3902" data-name="Path 3902" class="cls-22" d="M474.436,642.7c-.34-2.043-.638-4.044-.936-6h.043c.3,1.958.6,3.958.894,5.916Z" transform="translate(-406.333 -415.289)"/>
        <path id="Path_3903" data-name="Path 3903" class="cls-10" d="M475.441,785.264c-.341-2.128,0-5.15-.341-9.279a2.138,2.138,0,0,1,.511-.085c.724,3.831-.17,7.364-.043,9.577A.93.93,0,0,0,475.441,785.264Z" transform="translate(-407.252 -495.24)"/>
        <path id="Path_3904" data-name="Path 3904" class="cls-12" d="M484.324,253.394a16.517,16.517,0,0,1-11.024,1.83c1.532-.17,3.107-.426,4.725-.724a33.7,33.7,0,0,0,5.959-2A4.352,4.352,0,0,0,484.324,253.394Z" transform="translate(-406.218 -194.622)"/>
        <path id="Path_3905" data-name="Path 3905" class="cls-29" d="M473.485,636.37h-.043a.256.256,0,0,0-.043-.17h.043A.256.256,0,0,1,473.485,636.37Z" transform="translate(-406.276 -415.002)"/>
        <path id="Path_3906" data-name="Path 3906" class="cls-29" d="M473,633.3c.426.213.851.383,1.192.553v.426l-.894.383a.256.256,0,0,0-.043-.17h-.043A8.579,8.579,0,0,1,473,633.3Z" transform="translate(-406.046 -413.336)"/>
        <path id="Path_3907" data-name="Path 3907" class="cls-29" d="M467.14,631.705l-4.086,1.83a.322.322,0,0,0-.17-.085c-.128-1.745-.255-3.448-.383-5.15q2.682,1.277,4.469,2.171C467.012,630.854,467.1,631.28,467.14,631.705Z" transform="translate(-400.015 -410.465)"/>
        <path id="Path_3908" data-name="Path 3908" class="cls-22" d="M455.8,641.438l-.468.213-.511,6.853c1.107,14,2.341,28.774,3.448,40.351L447.5,695.112l.128-.085V647.44c.3-1.022.638-2.043.894-2.98.128-.383.213-.724.341-1.107l5.7-2.554a6.183,6.183,0,0,1,.766.426A1.2,1.2,0,0,1,455.8,641.438Z" transform="translate(-391.4 -417.644)"/>
        <path id="Path_3909" data-name="Path 3909" class="cls-22" d="M464.966,638.771c-.213-.128-.511-.255-.766-.426l3.958-1.745c.3,2,.638,4,.936,6l-.255,43.288-.936.511c-1.107-11.62-2.341-26.347-3.448-40.351l.511-6.853.468-.213A2.289,2.289,0,0,1,464.966,638.771Z" transform="translate(-400.992 -415.232)"/>
        <path id="Path_3910" data-name="Path 3910" class="cls-29" d="M450.8,643.3c0-.043.043-.128.043-.17l5.491-2.426c.043.043.128.043.17.085Z" transform="translate(-393.295 -417.587)"/>
        <path id="Path_3911" data-name="Path 3911" class="cls-29" d="M467.929,636.47l-3.958,1.745c-.043-.043-.128-.043-.17-.085l4.086-1.83C467.886,636.343,467.929,636.385,467.929,636.47Z" transform="translate(-400.762 -415.06)"/>
        <path id="Path_3912" data-name="Path 3912" class="cls-5" d="M449.862,219.986c-.255-2.213-1.149-5.491-1.362-8.087a2.492,2.492,0,0,0,.085-.553c1.234.341,1.958-.468,2.426-1.745l.213.085c1.107,2,2.384,5.108,3.533,7.364a9.51,9.51,0,0,0,6.3,1.447,62.521,62.521,0,0,0-11.067,3.15V221.6C449.99,221.05,449.9,220.5,449.862,219.986Z" transform="translate(-391.974 -169.982)"/>
        <path id="Path_3913" data-name="Path 3913" class="cls-29" d="M456.391,632.042l-5.491,2.426c.894-2.937,1.66-5.533,2.213-7.406.128-.468.3-.936.426-1.362.809.383,1.532.724,2.256,1.107h0c.128,1.7.255,3.405.383,5.15C456.263,631.957,456.306,632,456.391,632.042Z" transform="translate(-393.353 -408.971)"/>
        <path id="Path_3914" data-name="Path 3914" class="cls-20" d="M461.026,197.7a1.128,1.128,0,0,1,.213.255c-.255.724-.468,1.4-.638,2C460.728,199.062,460.9,198.3,461.026,197.7Z" transform="translate(-398.924 -163.147)"/>
        <path id="Path_3915" data-name="Path 3915" class="cls-14" d="M458.526,252.26c-.128-.341-.255-.766-.426-1.234.426-.128.851-.3,1.319-.426a6.335,6.335,0,0,0,1.575,1.915c-.468.383-.936.724-1.362,1.064A8.632,8.632,0,0,1,458.526,252.26Z" transform="translate(-397.488 -193.531)"/>
        <path id="Path_3916" data-name="Path 3916" class="cls-30" d="M468.379,243.928c-2.511.979-4.98,1.958-7.236,2.767,0-.043-.043-.043-.043-.085,1.064-.341,2.128-.724,3.235-1.192,1.277-.511,2.724-1.064,4.171-1.617C468.464,243.843,468.464,243.885,468.379,243.928Z" transform="translate(-399.211 -189.625)"/>
        <path id="Path_3917" data-name="Path 3917" class="cls-30" d="M458.745,248.332c-.426.128-.894.255-1.32.383-.128-.383-.255-.766-.426-1.192.383-.255.766-.468,1.149-.724h0A12.771,12.771,0,0,0,458.745,248.332Z" transform="translate(-396.856 -191.348)"/>
        <path id="Path_3918" data-name="Path 3918" class="cls-20" d="M459.1,206.9a1.8,1.8,0,0,0,.3.213c-.128.724-.17,1.447-.255,2.086C459.1,208.262,459.1,207.5,459.1,206.9Z" transform="translate(-398.063 -168.431)"/>
        <path id="Path_3919" data-name="Path 3919" class="cls-30" d="M459.362,250.485c-.468.17-.894.3-1.319.426,0-.043-.043-.085-.043-.128.426-.128.851-.255,1.32-.383C459.362,250.443,459.362,250.443,459.362,250.485Z" transform="translate(-397.431 -193.416)"/>
        <path id="Path_3920" data-name="Path 3920" class="cls-30" d="M457.1,238.449v-.043a64.247,64.247,0,0,1,10.513-5.363h0a22.11,22.11,0,0,0,2.341-.894H470c1.107-.426,2.128-.809,3.192-1.149-2.086,1.532-4.469,3.49-6.853,5.491-1.49.553-2.937,1.107-4.171,1.617-1.107.468-2.171.851-3.235,1.192a8.192,8.192,0,0,1-.6-1.532h0A8.463,8.463,0,0,0,457.1,238.449Z" transform="translate(-396.914 -182.273)"/>
        <path id="Path_3921" data-name="Path 3921" class="cls-5" d="M452.4,235.591c-.128-1.022-.213-2.171-.3-3.32v.043a59.118,59.118,0,0,1,11.067-3.15h0c.851-.17,1.66-.3,2.469-.426,1.149-.17,2.256-.341,3.363-.511.341-.043.638-.085.979-.128v.043a38.377,38.377,0,0,0-5.916,1.149C460.145,230.356,453.334,234.953,452.4,235.591Z" transform="translate(-394.042 -180.608)"/>
        <path id="Path_3922" data-name="Path 3922" class="cls-30" d="M450.2,250.543c.553-.468,1.149-.894,1.745-1.319h0c.383-.255.766-.468,1.192-.724.128.426.3.851.426,1.192C452.456,249.99,451.349,250.288,450.2,250.543Z" transform="translate(-392.951 -192.325)"/>
        <path id="Path_3923" data-name="Path 3923" class="cls-29" d="M450.728,646.3c0,.043-.043.128-.043.17l-.085.043a.256.256,0,0,0,.043-.17Z" transform="translate(-393.18 -420.803)"/>
        <path id="Path_3924" data-name="Path 3924" class="cls-22" d="M449.943,647.736l.255-.894.085-.043c-.128.341-.213.724-.341,1.107l-.043-.043C449.9,647.822,449.943,647.779,449.943,647.736Z" transform="translate(-392.778 -421.09)"/>
        <path id="Path_3925" data-name="Path 3925" class="cls-30" d="M448.8,251.647c.766-.468,1.575-.979,2.341-1.447-.6.426-1.192.851-1.745,1.32C449.183,251.562,448.97,251.6,448.8,251.647Z" transform="translate(-392.147 -193.301)"/>
        <path id="Path_3926" data-name="Path 3926" class="cls-22" d="M448.794,647.736c0,.043-.043.085-.043.128l-.851-.426v-.128l1.192-.511A6.033,6.033,0,0,0,448.794,647.736Z" transform="translate(-391.63 -421.09)"/>
        <path id="Path_3927" data-name="Path 3927" class="cls-5" d="M449.6,225.1Z" transform="translate(-392.606 -178.885)"/>
        <path id="Path_3928" data-name="Path 3928" class="cls-3" d="M449.141,225.085v.936c-.128-.341-.213-.681-.341-1.022.128.043.213.043.341.085Z" transform="translate(-392.147 -178.827)"/>
        <path id="Path_3929" data-name="Path 3929" class="cls-4" d="M450.494,197.147c-.468,1.277-1.192,2.086-2.426,1.745-.043,0-.085-.043-.128-.043V198.3l-.341-.894v-2.086a67.415,67.415,0,0,1,.383-6.81c1.064-1.149,4.6-.724,3.746,2.256C451.261,192.337,451.175,195.274,450.494,197.147Z" transform="translate(-391.457 -157.529)"/>
        <path id="Path_3930" data-name="Path 3930" class="cls-30" d="M448.994,252.151c1.149-.255,2.256-.553,3.363-.851,0,.043.043.085.043.128a24.127,24.127,0,0,1-4.3,1.064c.043-.043.128-.085.17-.17.043-.043.085-.043.128-.085A3.34,3.34,0,0,0,448.994,252.151Z" transform="translate(-391.745 -193.933)"/>
        <path id="Path_3931" data-name="Path 3931" class="cls-30" d="M467.695,227.583c1.617-.213,3.192-.341,4.512-.383v.255a.256.256,0,0,0-.17.043h-.043c-1.234.383-2.6.809-4.044,1.319q-1.532.511-3.192,1.149h-.043c-.766.3-1.532.6-2.341.894h0a64.242,64.242,0,0,0-10.513,5.363v.043c-.383.213-.766.468-1.192.724h0c-.766.468-1.575.979-2.341,1.447-.043.043-.085.043-.128.085a6.711,6.711,0,0,0,.511-.638,22.914,22.914,0,0,0,1.234-2.724.527.527,0,0,1,.128-.085c.936-.638,7.7-5.193,11.62-6.3A37.447,37.447,0,0,1,467.695,227.583Z" transform="translate(-391.802 -180.091)"/>
        <path id="Path_3932" data-name="Path 3932" class="cls-5" d="M449.194,221.725c-.085-.766-.213-1.575-.341-2.384h0V219.3h0c-.17-1.319-.383-2.682-.553-3.916.043-.128.043-.255.085-.383.213,2.6,1.107,5.874,1.362,8.087.085.553.128,1.107.17,1.66C449.79,223.811,449.322,222.789,449.194,221.725Z" transform="translate(-391.859 -173.084)"/>
        <path id="Path_3933" data-name="Path 3933" class="cls-4" d="M448.528,213.585c-.043.17-.043.383-.085.553,0-.213-.043-.426-.043-.638C448.4,213.543,448.485,213.585,448.528,213.585Z" transform="translate(-391.917 -172.222)"/>
        <path id="Path_3934" data-name="Path 3934" class="cls-4" d="M448.128,214.464c-.043-.383-.085-.724-.128-1.064.043.043.128.043.17.085,0,.213.043.426.043.638A.8.8,0,0,0,448.128,214.464Z" transform="translate(-391.687 -172.165)"/>
        <path id="Path_3935" data-name="Path 3935" class="cls-30" d="M447.928,254.028a.156.156,0,0,0-.128.043c.085-.043.213-.128.3-.17C448.013,253.9,447.97,253.943,447.928,254.028Z" transform="translate(-391.572 -195.426)"/>
        <path id="Path_3936" data-name="Path 3936" class="cls-24" d="M447.67,656.4v25.5l-.17-.085.17-25.326C447.628,656.443,447.67,656.443,447.67,656.4Z" transform="translate(-391.4 -426.604)"/>
        <path id="Path_3937" data-name="Path 3937" class="cls-22" d="M447.9,652.265v-.255h0c.3-.936.6-1.873.851-2.809l.043.043C448.5,650.222,448.2,651.243,447.9,652.265Z" transform="translate(-391.63 -422.469)"/>
        <path id="Path_3938" data-name="Path 3938" class="cls-22" d="M447.9,648.3l.851.426c-.255.894-.553,1.83-.851,2.809Z" transform="translate(-391.63 -421.952)"/>
        <path id="Path_3939" data-name="Path 3939" class="cls-7" d="M447.785,648v.128l-.085-.085Z" transform="translate(-391.515 -421.779)"/>
        <path id="Path_3940" data-name="Path 3940" class="cls-24" d="M447.843,656.055c0,.043,0,.085-.043.085v-.255a.149.149,0,0,1,.043-.085Z" transform="translate(-391.572 -426.259)"/>
        <path id="Path_3941" data-name="Path 3941" class="cls-29" d="M447.228,716.228V716.1l.213.085v22.091l-.128.085-.213.128h0Z" transform="translate(-391.17 -460.893)"/>
        <path id="Path_3942" data-name="Path 3942" class="cls-29" d="M447.313,768.4l-.213.128h0Z" transform="translate(-391.17 -490.932)"/>
        <path id="Path_3943" data-name="Path 3943" class="cls-4" d="M447.1,207c-.128-.894-.213-1.7-.3-2.3a1.85,1.85,0,0,0,.3.17C447.1,205.679,447.055,206.4,447.1,207Z" transform="translate(-390.998 -167.168)"/>
        <path id="Path_3944" data-name="Path 3944" class="cls-29" d="M437.521,712.654v.128l-.128,22.261L430.2,731a208.931,208.931,0,0,0,2.3-20.9Z" transform="translate(-381.464 -457.447)"/>
        <path id="Path_3945" data-name="Path 3945" class="cls-3" d="M447.085,219.6c.085.341.128.681.213.979-.085-.3-.213-.553-.3-.809A.323.323,0,0,0,447.085,219.6Z" transform="translate(-391.113 -175.726)"/>
        <path id="Path_3946" data-name="Path 3946" class="cls-29" d="M447.1,768.7Z" transform="translate(-391.17 -491.104)"/>
        <path id="Path_3947" data-name="Path 3947" class="cls-3" d="M442.708,219.858c.128.809.213,1.617.341,2.384h-.043c-2.724-.426-4.682-1.192-5.406-2.511.809.426,3.32-.724,4.044-2.086.085.255.17.511.3.809-.043-.3-.128-.638-.213-.979a.148.148,0,0,1,.043-.085c.085-.341.255-.851.383-1.49.128,1.234.341,2.6.553,3.958-.128-.043-.213-.043-.341-.085.128.34.213.638.341,1.022Z" transform="translate(-385.714 -173.601)"/>
        <path id="Path_3948" data-name="Path 3948" class="cls-4" d="M446.368,218.162c-.17-.553-.341-.979-.468-1.362.128.043.213.085.341.128.085.383.128.724.213,1.064A.323.323,0,0,1,446.368,218.162Z" transform="translate(-390.481 -174.118)"/>
        <path id="Path_3949" data-name="Path 3949" class="cls-24" d="M435.543,673.753c.213-.681,2.767-9.151,5.193-17.153l-.17,25.326-5.065-2.6C435.755,675.456,435.628,673.541,435.543,673.753Z" transform="translate(-384.508 -426.719)"/>
        <path id="Path_3950" data-name="Path 3950" class="cls-14" d="M444.194,252.764a28.485,28.485,0,0,0,4.3-1.064c.17.468.3.894.426,1.234a6.738,6.738,0,0,0,1.107,1.32c.468-.341.894-.724,1.362-1.064a8.477,8.477,0,0,0,3.533,1.66,40.851,40.851,0,0,1-13.621-.255c.255-.17.553-.341.809-.511.681-.426,1.32-.851,2-1.234C444.109,252.764,444.152,252.764,444.194,252.764Z" transform="translate(-387.839 -194.163)"/>
        <path id="Path_3951" data-name="Path 3951" d="M443.828,784.072c9.364,6.81,25.837,18.856,34.818,13.408a5.818,5.818,0,0,0,1.022-.766c-.17,1.49-.383,3.022-.638,4.554,0,.085-.043.213-.043.34h0c-.17.639-.936,1.916-3.873,2.426-3.958.724-9.364-2.086-9.364-2.086a17.386,17.386,0,0,1-3.022-1.234c-.681-1.618-5.023-6.512-5.576-2.852-5.321-2.894-11.875-6.98-16.174-10.9-.681-1.915-.085-5.406.213-6.853h0c.553-1.4.936-1.83,2.256-2.213C440.594,779.432,441.019,782.029,443.828,784.072Z" transform="translate(-387.473 -496.388)"/>
        <path id="Path_3952" data-name="Path 3952" class="cls-8" d="M457.051,786.172c6.427,7.364,17.068,9.449,22.3,5.789a5.876,5.876,0,0,0,1.319-1.192c.043-.043.043-.043.043-.085a4.9,4.9,0,0,0,.6-.724c-.128,1.7-.255,3.533-.511,5.448l-1.022.766c-8.981,5.491-25.454-6.6-34.818-13.408-2.809-2.043-3.235-4.64-.383-6.172,1.362-.468,3.15-1.319,4.512-.638,2.3,1.192,5.235.3,7.364-.17.341,4.171.043,7.193.341,9.279.043.043.085.128.128.17A2.754,2.754,0,0,0,457.051,786.172Z" transform="translate(-388.607 -495.126)"/>
        <path id="Path_3953" data-name="Path 3953" class="cls-29" d="M437.747,617.3c2.682,1.277,5.193,2.511,7.406,3.575-.128.468-.255.894-.426,1.362-.553,1.873-1.32,4.469-2.213,7.406l-.043.043a.322.322,0,0,0-.043.17l-1.192.511-.085.043-4.852-2.426Z" transform="translate(-384.967 -404.147)"/>
        <path id="Path_3954" data-name="Path 3954" class="cls-7" d="M436.04,394.526l.255-2.426a45.652,45.652,0,0,1-.6,5.406C435.828,396.527,435.913,395.505,436.04,394.526Z" transform="translate(-384.623 -274.802)"/>
        <path id="Path_3955" data-name="Path 3955" class="cls-24" d="M436.2,648.444c-2.426,8-4.98,16.472-5.193,17.154.085-.213.17,1.7,0,5.576l-.213-.128-3.192-1.66,3.7-26.986,4.852,2.426.085.043V648.1h0c0,.043,0,.085-.043.085Z" transform="translate(-379.97 -418.563)"/>
        <path id="Path_3956" data-name="Path 3956" class="cls-11" d="M435.1,363.5a44.976,44.976,0,0,1,1.064,5.916,38.129,38.129,0,0,1-.213,6.257A53.646,53.646,0,0,0,435.1,363.5Z" transform="translate(-384.278 -258.375)"/>
        <path id="Path_3957" data-name="Path 3957" class="cls-11" d="M432.3,410.291a34.749,34.749,0,0,0,1.447-5.491c-.213,1.7-.383,3.405-.6,5.065a5.542,5.542,0,0,1-.724.341C432.385,410.248,432.343,410.248,432.3,410.291Z" transform="translate(-382.67 -282.096)"/>
        <path id="Path_3958" data-name="Path 3958" class="cls-12" d="M431.624,417.5c-.255.511-.511,1.064-.724,1.617.213-.511.426-1.022.6-1.532C431.538,417.543,431.581,417.543,431.624,417.5Z" transform="translate(-381.866 -289.391)"/>
        <path id="Path_3959" data-name="Path 3959" class="cls-4" d="M432.524,167.342c.638,2.469,3.107,6,2.809,11.194.553.383,1.107.724,1.7,1.107.043.6.17,1.362.3,2.3l.341.894v.553a.323.323,0,0,1-.17-.085c.043.341.085.681.128,1.064-.128.6-.3,1.107-.383,1.49a.149.149,0,0,1-.043.085c-.085-.341-.128-.724-.213-1.064-.128-.043-.213-.085-.341-.128.128.383.255.851.468,1.362-.724,1.362-3.235,2.511-4.044,2.086-1.022-1.362-1.7-8.726-2.469-12.386-.383-2.213-1.022-3.788-.724-5.746.511-3.277,1.064-3.363-.085-5.916a29.469,29.469,0,0,1,.426-3.15c.213.213.468.426.681.681h.17A50.434,50.434,0,0,0,432.524,167.342Z" transform="translate(-381.234 -142.069)"/>
        <path id="Path_3960" data-name="Path 3960" class="cls-20" d="M440.433,157.29c.043-.638.128-1.32.255-2.086a.763.763,0,0,0-.3-.213C440.433,155.587,440.433,156.354,440.433,157.29Zm19.2,2.341c0,.255-.553.851-1.575,1.575a21.69,21.69,0,0,1-7.108,3.405c-.809.128-1.66.3-2.469.426h0a9.51,9.51,0,0,1-6.3-1.447c-1.149-2.256-2.426-5.363-3.533-7.364l-.213-.085c.681-1.915.766-4.852,1.234-6.427.851-2.98-2.724-3.405-3.746-2.256a49.107,49.107,0,0,0-.383,6.81,1.851,1.851,0,0,0-.3-.17c-.553-.383-1.149-.724-1.7-1.107.3-5.235-2.171-8.768-2.809-11.194a39.686,39.686,0,0,1-1.4-5.7h-.17c-.213-.213-.468-.426-.681-.681a13.753,13.753,0,0,1-1.873-2.426c.638-14.6,22.6-20.942,34.562-13.025l.043-.085c6.044,4.044,11.024,11.28,8.9,17.366a157.489,157.489,0,0,1-8.172,18.941C460.992,157.375,459.843,158.524,459.63,159.631Zm-17.92-8.3c-.085-.085-.128-.17-.213-.255-.128.6-.255,1.362-.426,2.256C441.242,152.736,441.455,152.055,441.71,151.331Z" transform="translate(-379.396 -116.523)"/>
        <path id="Path_3961" data-name="Path 3961" class="cls-29" d="M427.5,705.9Z" transform="translate(-379.913 -455.035)"/>
        <path id="Path_3962" data-name="Path 3962" class="cls-24" d="M427.5,705.9l3.235,1.617Z" transform="translate(-379.913 -455.035)"/>
        <path id="Path_3963" data-name="Path 3963" class="cls-29" d="M427.385,705.785h0l-.085.681V705.7Z" transform="translate(-379.798 -454.92)"/>
        <path id="Path_3964" data-name="Path 3964" class="cls-24" d="M427.385,705.843l-.085-.043Z" transform="translate(-379.798 -454.977)"/>
        <path id="Path_3965" data-name="Path 3965" class="cls-26" d="M426.668,707.5v3.618l-.17-.085-.3-.17Z" transform="translate(-379.166 -455.954)"/>
        <path id="Path_3966" data-name="Path 3966" class="cls-26" d="M419.948,695.924v2.6l-5.448-2.767V693.2Z" transform="translate(-372.446 -447.74)"/>
        <path id="Path_3967" data-name="Path 3967" class="cls-26" d="M419.48,706.1l-4.98-2.809V699.2l5.448,2.767v.766Z" transform="translate(-372.446 -451.186)"/>
        <path id="Path_3968" data-name="Path 3968" class="cls-29" d="M426.2,715.4l.3.17Z" transform="translate(-379.166 -460.491)"/>
        <path id="Path_3969" data-name="Path 3969" class="cls-29" d="M420.9,726.331l2.256-16.387.3.17.17.085v-3.618l.085-.681,3.192,1.66.213.128a195.578,195.578,0,0,1-2.3,20.9Z" transform="translate(-376.122 -455.035)"/>
        <path id="Path_3970" data-name="Path 3970" class="cls-29" d="M426.2,715.4Z" transform="translate(-379.166 -460.491)"/>
        <path id="Path_3971" data-name="Path 3971" class="cls-7" d="M422.9,385.311c.128-15.153.724-47.247.6-58.611a82.2,82.2,0,0,1,4.6,15.664h0a56.074,56.074,0,0,1,.894,12.173l-.255,2.426c-.128.979-.255,1.958-.341,2.937a34.748,34.748,0,0,1-1.447,5.491c-.17.511-.383,1.022-.6,1.532a.149.149,0,0,1-.043.085c-2.128,5.278-2.724,11.748-2.767,18.26Z" transform="translate(-377.271 -237.239)"/>
        <path id="Path_3972" data-name="Path 3972" class="cls-11" d="M458.3,289.024a141.018,141.018,0,0,1-3.277,29.625c-.468,1.958-.851,3.916-1.192,5.831-9.449,4.256-19.2,8.513-27.582,12.556.17-1.7.383-3.363.6-5.065a38.2,38.2,0,0,0,.6-5.406,50.367,50.367,0,0,0,.213-6.257,44.975,44.975,0,0,0-1.064-5.916h0a83.117,83.117,0,0,0-4.6-15.664v-.724h0a25.658,25.658,0,0,0-1.788-5.15c10.854-4.129,30.944-12.386,36.9-14.855A47.269,47.269,0,0,1,458.3,289.024Z" transform="translate(-375.72 -209.268)"/>
        <path id="Path_3973" data-name="Path 3973" class="cls-27" d="M421.507,614.557c-1.064-.511-1.107-1.064-1.107-2.086h.213c.043-.681.043-2.3.043-4.171l4.214,2.043c-.085,1.319-.213,2.639-.213,3.958h-.17C424.061,615.664,422.486,615.068,421.507,614.557Z" transform="translate(-375.835 -398.978)"/>
        <path id="Path_3974" data-name="Path 3974" class="cls-11" d="M418.8,313.751a3.891,3.891,0,0,0-.3-.6c.213-.085.468-.17.681-.255a28.629,28.629,0,0,1,1.788,5.15h0v.724c-.681-1.745-1.4-3.405-2.171-5.023Z" transform="translate(-374.744 -229.313)"/>
        <path id="Path_3975" data-name="Path 3975" class="cls-12" d="M399.531,272.79c-1.788-1.873-3.788-3.065-5.831-2.511,3.15-2.511,6.512-4.937,10.045-7.364h0c.979-.681,1.958-1.319,2.937-2h0c.809-.553,1.66-1.107,2.469-1.617,1.575-1.022,3.15-2.043,4.725-3.022a38.721,38.721,0,0,0,13.621.255,16.477,16.477,0,0,0,11.024-1.83,69.16,69.16,0,0,1,3.277,9.918c-6,2.511-26.092,10.726-36.9,14.855a17.618,17.618,0,0,0-3.192-4.98A7.781,7.781,0,0,0,399.531,272.79Z" transform="translate(-360.5 -195.886)"/>
        <path id="Path_3976" data-name="Path 3976" class="cls-8" d="M404.671,883c0,2,0,4.214-.128,6.555a8.593,8.593,0,0,1-3.916,1.873l-.128-.6.681-4.895A5.4,5.4,0,0,0,404.671,883Z" transform="translate(-364.405 -556.753)"/>
        <path id="Path_3977" data-name="Path 3977" class="cls-12" d="M412.125,304.138A33.829,33.829,0,0,0,407.4,297.2a8.583,8.583,0,0,1,2.213,1.7,17.618,17.618,0,0,1,3.192,4.98,7.071,7.071,0,0,0-.681.255Z" transform="translate(-368.368 -220.296)"/>
        <path id="Path_3978" data-name="Path 3978" class="cls-7" d="M402.1,811.83l8-57.93,3.958,2.213c-.511,3.192-1.107,6.683-1.788,10.386-3.065,16.047-5.363,29.242-5.916,35.541a22.639,22.639,0,0,1,.128,2.3,9.893,9.893,0,0,1-.894,4.512A5.6,5.6,0,0,1,402.1,811.83Z" transform="translate(-365.324 -482.604)"/>
        <path id="Path_3979" data-name="Path 3979" class="cls-12" d="M394.19,293.59c-3.831-2.043-7.449.426-9.7,3.958-.043-.043-.085-.085-.085-.128a23.071,23.071,0,0,1,2.384-4.427,9.993,9.993,0,0,1,.809-1.064l-.128-.17c.3-.255.6-.468.894-.724C390.4,290.525,392.4,291.675,394.19,293.59Z" transform="translate(-355.158 -216.686)"/>
        <path id="Path_3980" data-name="Path 3980" class="cls-9" d="M376.481,575.125c0,.17.043.3.043.426-.255-.17-.511-.341-.724-.511A.8.8,0,0,1,376.481,575.125Z" transform="translate(-350.219 -379.849)"/>
        <path id="Path_3981" data-name="Path 3981" class="cls-9" d="M377.113,555.088a12.249,12.249,0,0,0-.553,1.32,6.089,6.089,0,0,0-1.66-.17l.255-2.937A13.221,13.221,0,0,0,377.113,555.088Z" transform="translate(-349.702 -367.388)"/>
        <path id="Path_3982" data-name="Path 3982" class="cls-28" d="M374.585,541.517c0-2.6-.043-5.235-.085-7.917.341.3.724.6,1.107.894-.213,2.426-.426,4.938-.638,7.449A1.73,1.73,0,0,1,374.585,541.517Z" transform="translate(-349.472 -356.073)"/>
        <path id="Path_3983" data-name="Path 3983" class="cls-27" d="M375.584,560.213a14.608,14.608,0,0,0-.6,6.3.683.683,0,0,0-.681-.085h0c-.553.255-.894,1.234-1.107,2.469.255-3.022.511-6,.766-8.9A8.06,8.06,0,0,1,375.584,560.213Z" transform="translate(-348.725 -371.236)"/>
        <path id="Path_3984" data-name="Path 3984" class="cls-27" d="M367.89,570.713c-1.234-.6-2.426-1.192-3.49-1.7.128-4.214.936-8.641,4.469-8.811-.255,2.894-.511,5.831-.766,8.9h0C368.018,569.564,367.975,570.118,367.89,570.713Z" transform="translate(-343.671 -371.351)"/>
        <path id="Path_3985" data-name="Path 3985" class="cls-7" d="M369.288,513.857a14.926,14.926,0,0,1-3.788-4.64,60.99,60.99,0,0,0,3.49-9.918C369.075,504.237,369.2,509.09,369.288,513.857Z" transform="translate(-344.303 -336.373)"/>
        <path id="Path_3986" data-name="Path 3986" class="cls-24" d="M365.6,637.1c.766-9.662,1.532-18.856,2.213-27.5l27.88,14-3.7,26.986h0l-.085-.043v-2.639l-5.406-2.724v2.6Z" transform="translate(-344.36 -399.724)"/>
        <path id="Path_3987" data-name="Path 3987" class="cls-29" d="M361.7,693.95c.553-6.81,1.107-13.408,1.66-19.75l20.857,10.684v4.086l4.937,2.809h0L386.9,708.166Z" transform="translate(-342.12 -436.828)"/>
        <path id="Path_3988" data-name="Path 3988" class="cls-29" d="M341.024,576.952c-.085,2.086.043,4.129.043,5.618h-.043c.3,1.32,2.171,2.511,3.15,1.277-.128,1.745-.3,3.533-.426,5.321L323.7,579.123l11.535-5.023C336.512,574.738,338.512,575.717,341.024,576.952Z" transform="translate(-320.295 -379.335)"/>
        <path id="Path_3989" data-name="Path 3989" class="cls-27" d="M367.534,587.8c-.979,1.192-2.852.043-3.15-1.277h.043c0-1.447-.085-3.49-.043-5.619,1.064.511,2.256,1.107,3.49,1.7-.085,1.022-.128,2.086-.17,3.022C367.661,586.306,367.619,587.029,367.534,587.8Z" transform="translate(-343.655 -383.24)"/>
        <path id="Path_3990" data-name="Path 3990" class="cls-26" d="M345.606,663.909v4.214l-5.406-3.065V661.1Z" transform="translate(-329.772 -429.304)"/>
        <path id="Path_3991" data-name="Path 3991" class="cls-24" d="M336.014,620.718v-2.767l-5.406-2.724v2.724l-7.108-3.618V585.943l.085-.043,20.048,10.045q-1.085,13.025-2.213,27.5Z" transform="translate(-320.18 -386.112)"/>
        <path id="Path_3992" data-name="Path 3992" class="cls-9" d="M349.245,768.953c.128-1.234.255-2.554.383-4.044,1.447-15.706,2.724-30.434,3.916-44.31l25.2,14.174-8,57.93c-6.981,2.171-20.218-6.087-23.155-13.706-.043-.085-.043-.128-.085-.17a57.435,57.435,0,0,0,1.745-9.79Z" transform="translate(-333.964 -463.478)"/>
        <path id="Path_3993" data-name="Path 3993" class="cls-26" d="M345.606,660.291l-5.406-2.809V654.8l5.406,2.724Z" transform="translate(-329.772 -425.685)"/>
        <path id="Path_3994" data-name="Path 3994" class="cls-29" d="M341.42,661.794c-.511,6.385-1.064,12.94-1.66,19.75l-16.26-9.109V652.6l7.108,3.618v3.958l5.406,3.022v-4.214Z" transform="translate(-320.18 -424.422)"/>
        <path id="Path_3995" data-name="Path 3995" class="cls-8" d="M329.321,855.2c2.937,7.619,16.175,15.877,23.155,13.706l-.681,4.895.128.6c-8.853,1.788-22.729-7.576-32.136-12.684-2.128-1.149-3.958-3.363-4.086-5.15h0v-.511a2.127,2.127,0,0,1,1.149-1.532,8.916,8.916,0,0,1,4.171-1.234c2.086-.085,1.7.468,3.192.894C326.724,854.948,326.724,855.544,329.321,855.2Z" transform="translate(-315.7 -539.683)"/>
        <path id="Path_3996" data-name="Path 3996" d="M340,881.133c-1.022-1.66-5.618-6.3-6.044-2.682-6.64-3.15-15.2-7.747-18.218-10.982,0-1.192-.043-2.937-.043-4.512,0-.724,0-1.4.043-1.958.128,1.745,1.958,4,4.086,5.15,9.407,5.108,23.325,14.429,32.136,12.684a8.2,8.2,0,0,0,3.916-1.873c-.043,1.4-.17,2.852-.3,4.3h0c0,.085-.043.213-.043.3h0c-.128.6-.766,1.788-3.7,2.3-3.916.681-9.492-1.958-9.492-1.958A10.865,10.865,0,0,1,340,881.133Z" transform="translate(-315.7 -544.117)"/>
      </g>
    </g>
  </g>
</svg>
