<svg xmlns="http://www.w3.org/2000/svg" xmlns:xlink="http://www.w3.org/1999/xlink" viewBox="7112.5 290.755 400.258 651.656">
  <defs>
    <style>
      .cls-1 {
        fill: url(#linear-gradient);
      }

      .cls-2 {
        fill: #f58771;
      }

      .cls-3 {
        fill: #fff;
      }

      .cls-4 {
        fill: url(#linear-gradient-2);
      }

      .cls-5 {
        fill: url(#linear-gradient-3);
      }

      .cls-6 {
        fill: url(#linear-gradient-4);
      }

      .cls-7 {
        fill: #292a6f;
      }

      .cls-8 {
        fill: url(#linear-gradient-5);
      }

      .cls-9 {
        fill: #f47b5e;
      }

      .cls-10 {
        fill: url(#linear-gradient-6);
      }

      .cls-11 {
        fill: url(#linear-gradient-7);
      }

      .cls-12 {
        fill: url(#linear-gradient-8);
      }

      .cls-13 {
        fill: url(#linear-gradient-9);
      }

      .cls-14 {
        fill: url(#linear-gradient-10);
      }

      .cls-15 {
        fill: url(#linear-gradient-11);
      }

      .cls-16 {
        fill: url(#linear-gradient-12);
      }

      .cls-17 {
        fill: url(#linear-gradient-13);
      }

      .cls-18 {
        fill: url(#linear-gradient-14);
      }

      .cls-19 {
        fill: url(#linear-gradient-15);
      }

      .cls-20 {
        fill: #fab685;
      }

      .cls-21 {
        fill: #f8a773;
      }

      .cls-22 {
        fill: #2372b9;
      }

      .cls-23 {
        fill: #f7a191;
      }

      .cls-24 {
        fill: #8dc9ee;
      }

      .cls-25 {
        fill: url(#linear-gradient-16);
      }

      .cls-26 {
        fill: url(#linear-gradient-17);
      }

      .cls-27 {
        fill: #252f30;
      }

      .cls-28 {
        fill: #9bdbf8;
      }

      .cls-29 {
        fill: #b1dbee;
      }

      .cls-30 {
        fill: #171d1d;
      }

      .cls-31 {
        fill: #d6eaf3;
      }

      .cls-32 {
        fill: #f58c55;
      }

      .cls-33 {
        fill: #56333d;
      }

      .cls-34 {
        fill: #3892d0;
      }

      .cls-35 {
        fill: #f8a36d;
      }

      .cls-36 {
        fill: #f79b6a;
      }

      .cls-37 {
        fill: url(#linear-gradient-18);
      }

      .cls-38 {
        fill: #ed6e5b;
      }

      .cls-39 {
        fill: url(#linear-gradient-19);
      }

      .cls-40 {
        fill: #33261d;
      }

      .cls-41, .cls-42, .cls-43, .cls-44, .cls-45, .cls-46 {
        fill: none;
        stroke: #fff;
        stroke-miterlimit: 10;
      }

      .cls-42 {
        stroke-dasharray: 4.013 4.013;
      }

      .cls-43, .cls-44 {
        stroke-width: 0.75px;
      }

      .cls-44 {
        stroke-dasharray: 4.012 4.012;
      }

      .cls-45, .cls-46 {
        stroke-width: 0.5px;
      }

      .cls-46 {
        stroke-dasharray: 3.999 3.999;
      }

      .cls-47 {
        fill: #c4e1f6;
      }

      .cls-48 {
        fill: #c6e9fb;
      }

      .cls-49 {
        fill: #9cb5cc;
      }

      .cls-50 {
        fill: #d7e7f7;
      }

      .cls-51 {
        fill: #f8f9fc;
      }

      .cls-52 {
        fill: #646092;
      }

      .cls-53 {
        fill: url(#linear-gradient-21);
      }

      .cls-54 {
        fill: url(#linear-gradient-22);
      }

      .cls-55 {
        fill: url(#linear-gradient-23);
      }

      .cls-56 {
        fill: #2d2e71;
      }
    </style>
    <linearGradient id="linear-gradient" y1="-24.562" x2="0.99" y2="-24.562" gradientUnits="objectBoundingBox">
      <stop offset="0" stop-color="#f47b5e"/>
      <stop offset="1" stop-color="#f05155"/>
    </linearGradient>
    <linearGradient id="linear-gradient-2" y1="-27.088" x2="0.998" y2="-27.088" gradientUnits="objectBoundingBox">
      <stop offset="0" stop-color="#292a6f"/>
      <stop offset="1" stop-color="#635e91"/>
    </linearGradient>
    <linearGradient id="linear-gradient-3" x1="-0.009" y1="-107.511" x2="0.986" y2="-107.511" xlink:href="#linear-gradient-2"/>
    <linearGradient id="linear-gradient-4" x1="-0.002" y1="-152.247" x2="0.972" y2="-152.247" xlink:href="#linear-gradient-2"/>
    <linearGradient id="linear-gradient-5" x1="0.986" y1="-48.698" x2="0.519" y2="-49.385" xlink:href="#linear-gradient"/>
    <linearGradient id="linear-gradient-6" x1="0.002" y1="-81.373" x2="0.993" y2="-81.373" xlink:href="#linear-gradient"/>
    <linearGradient id="linear-gradient-7" x1="-0.013" y1="-130.432" x2="0.991" y2="-130.432" xlink:href="#linear-gradient"/>
    <linearGradient id="linear-gradient-8" x1="0.972" y1="-74.265" x2="0.51" y2="-74.954" gradientUnits="objectBoundingBox">
      <stop offset="0.01" stop-color="#635e91"/>
      <stop offset="1" stop-color="#1e1c5a"/>
    </linearGradient>
    <linearGradient id="linear-gradient-9" x1="0.963" y1="-100.275" x2="0.504" y2="-100.965" xlink:href="#linear-gradient-8"/>
    <linearGradient id="linear-gradient-10" x1="0.972" y1="-135.974" x2="0.507" y2="-136.678" xlink:href="#linear-gradient-8"/>
    <linearGradient id="linear-gradient-11" x1="0.891" y1="-111.27" x2="0.518" y2="-111.944" gradientUnits="objectBoundingBox">
      <stop offset="0" stop-color="#fff"/>
      <stop offset="1" stop-color="#c2c4c6"/>
    </linearGradient>
    <linearGradient id="linear-gradient-12" x1="0.158" y1="-125.242" x2="0.962" y2="-125.231" xlink:href="#linear-gradient-11"/>
    <linearGradient id="linear-gradient-13" x1="0.157" y1="-181.172" x2="0.957" y2="-181.161" xlink:href="#linear-gradient-11"/>
    <linearGradient id="linear-gradient-14" y1="0.5" x2="1" y2="0.5" gradientUnits="objectBoundingBox">
      <stop offset="0" stop-color="#e9e7ef"/>
      <stop offset="1" stop-color="#d7d4e6"/>
    </linearGradient>
    <linearGradient id="linear-gradient-15" x1="-0.001" y1="0.502" x2="0.999" y2="0.502" xlink:href="#linear-gradient-11"/>
    <linearGradient id="linear-gradient-16" x1="-0.001" y1="0.5" x2="1.001" y2="0.5" xlink:href="#linear-gradient"/>
    <linearGradient id="linear-gradient-17" x1="-0.002" y1="0.51" x2="0.996" y2="0.51" xlink:href="#linear-gradient"/>
    <linearGradient id="linear-gradient-18" x1="0.002" y1="0.499" x2="0.996" y2="0.499" xlink:href="#linear-gradient-8"/>
    <linearGradient id="linear-gradient-19" x1="-0.006" y1="0.499" x2="1.01" y2="0.499" xlink:href="#linear-gradient-14"/>
    <linearGradient id="linear-gradient-21" x1="-48.089" y1="0.498" x2="-47.093" y2="0.498" xlink:href="#linear-gradient"/>
    <linearGradient id="linear-gradient-22" x1="-0.014" y1="-30.864" x2="1" y2="-30.864" xlink:href="#linear-gradient"/>
    <linearGradient id="linear-gradient-23" x1="0.746" y1="-68.438" x2="-1.413" y2="-68.687" xlink:href="#linear-gradient-11"/>
  </defs>
  <g id="Group_3012" data-name="Group 3012" transform="translate(7112.5 290.814)">
    <g id="Group_2966" data-name="Group 2966" transform="translate(81.071 29.165)">
      <g id="Group_2960" data-name="Group 2960" transform="translate(27.134 33.444)">
        <path id="Path_3421" data-name="Path 3421" class="cls-1" d="M87.069,45.9,47.752,23.2a.858.858,0,0,0-.554-.277h0a4.258,4.258,0,0,0-4.707.831,12.944,12.944,0,0,0-2.769,2.492c-.277.277,1.108.277,2.769.277V43.687c0,2.769,1.938,5.814,4.43,7.476L87.069,74.42l.277,3.876,2.769-2.215a4.032,4.032,0,0,0,1.661-2.492,2.5,2.5,0,0,0,.277-1.384h0V53.654C91.5,50.609,89.561,47.286,87.069,45.9Z" transform="translate(-38.892 -22.575)"/>
        <path id="Path_3422" data-name="Path 3422" class="cls-2" d="M84.531,47.615,43.83,24.081C41.338,22.7,39.4,23.8,39.4,26.573V45.123c0,2.769,1.938,5.814,4.43,7.476l11.352,6.645v8.583l12.183-1.661,17.166,9.968c2.492,1.384,4.43.277,4.43-2.492V55.091A11.048,11.048,0,0,0,84.531,47.615Z" transform="translate(-39.4 -20.966)"/>
        <g id="Group_2959" data-name="Group 2959" transform="translate(12.736 20.004)">
          <g id="Group_2956" data-name="Group 2956">
            <path id="Path_3423" data-name="Path 3423" class="cls-3" d="M50.091,35.891c0,1.938-1.384,2.769-3.046,1.661A7.063,7.063,0,0,1,44,32.015c0-2.215,1.384-2.769,3.046-1.661A7.521,7.521,0,0,1,50.091,35.891Z" transform="translate(-44 -29.8)"/>
          </g>
          <g id="Group_2957" data-name="Group 2957" transform="translate(8.306 4.765)">
            <path id="Path_3424" data-name="Path 3424" class="cls-3" d="M53.091,37.554c0,1.938-1.384,2.769-3.046,1.661A7.063,7.063,0,0,1,47,33.678c0-1.938,1.384-2.769,3.046-1.661A8.042,8.042,0,0,1,53.091,37.554Z" transform="translate(-47 -31.521)"/>
          </g>
          <g id="Group_2958" data-name="Group 2958" transform="translate(16.613 9.691)">
            <path id="Path_3425" data-name="Path 3425" class="cls-3" d="M56.091,39.391c0,1.938-1.384,2.769-3.046,1.661A7.063,7.063,0,0,1,50,35.515c0-2.215,1.384-2.769,3.046-1.661A7.521,7.521,0,0,1,56.091,39.391Z" transform="translate(-50 -33.3)"/>
          </g>
        </g>
      </g>
      <g id="Group_2965" data-name="Group 2965">
        <path id="Path_3426" data-name="Path 3426" class="cls-4" d="M71.082,30.719,37.026,11.061c-.277-.277-.277-.277-.554-.277h0a4.417,4.417,0,0,0-4.153.554c-1.108.831-1.938,1.661-2.492,1.938-.277.277.831.277,2.215.277V28.5a7.97,7.97,0,0,0,3.6,6.368L70.528,55.084l.277,3.323L73.3,56.469a8.413,8.413,0,0,0,1.384-1.938V52.869h0V36.811C74.4,34.6,73.02,31.827,71.082,30.719Z" transform="translate(-29.274 -10.496)"/>
        <path id="Path_3427" data-name="Path 3427" class="cls-5" d="M42.476,33.659V25.353L35,21.2Z" transform="translate(-20.049 8.437)"/>
        <path id="Path_3428" data-name="Path 3428" class="cls-6" d="M36.4,32.06,40,30.122V24.584L36.4,23.2Z" transform="translate(-17.572 11.975)"/>
        <path id="Path_3429" data-name="Path 3429" class="cls-7" d="M41.176,34.359V26.053L33.7,21.9Z" transform="translate(-22.348 9.675)"/>
        <path id="Path_3430" data-name="Path 3430" class="cls-7" d="M29.6,13.864c0-2.492,1.661-3.323,3.6-1.938L68.363,32.138a7.97,7.97,0,0,1,3.6,6.368V54.565c0,2.492-1.661,3.323-3.6,1.938L33.2,36.291a7.97,7.97,0,0,1-3.6-6.368Z" transform="translate(-29.6 -9.146)"/>
        <g id="Group_2964" data-name="Group 2964" transform="translate(10.521 17.504)">
          <g id="Group_2961" data-name="Group 2961">
            <path id="Path_3431" data-name="Path 3431" class="cls-3" d="M38.938,22.029c0,1.661-1.108,2.492-2.769,1.384A6.46,6.46,0,0,1,33.4,18.707c0-1.661,1.108-2.492,2.769-1.384A5.359,5.359,0,0,1,38.938,22.029Z" transform="translate(-33.4 -16.818)"/>
          </g>
          <g id="Group_2962" data-name="Group 2962" transform="translate(7.199 4.153)">
            <path id="Path_3432" data-name="Path 3432" class="cls-3" d="M41.538,23.529c0,1.661-1.108,2.492-2.769,1.384A6.46,6.46,0,0,1,36,20.207c0-1.661,1.108-2.492,2.769-1.384A5.988,5.988,0,0,1,41.538,23.529Z" transform="translate(-36 -18.318)"/>
          </g>
          <g id="Group_2963" data-name="Group 2963" transform="translate(14.398 8.029)">
            <path id="Path_3433" data-name="Path 3433" class="cls-3" d="M44.138,24.929c0,1.661-1.108,2.492-2.769,1.384A6.46,6.46,0,0,1,38.6,21.607c0-1.661,1.108-2.492,2.769-1.384A5.71,5.71,0,0,1,44.138,24.929Z" transform="translate(-38.6 -19.718)"/>
          </g>
        </g>
      </g>
    </g>
    <g id="Group_2967" data-name="Group 2967" transform="translate(65.012 367.521)">
      <path id="Path_3434" data-name="Path 3434" class="cls-8" d="M23.8,217.811l40.147,23.258V194Z" transform="translate(-23.8 -24.274)"/>
      <path id="Path_3435" data-name="Path 3435" class="cls-9" d="M78.447,217.811,38.3,241.069V194Z" transform="translate(1.847 -24.274)"/>
      <path id="Path_3436" data-name="Path 3436" class="cls-10" d="M100.1,152.759l21.32,12.183V140.3Z" transform="translate(111.158 -119.257)"/>
      <path id="Path_3437" data-name="Path 3437" class="cls-9" d="M128.843,152.759,107.8,164.942V140.3Z" transform="translate(124.777 -119.257)"/>
      <path id="Path_3438" data-name="Path 3438" class="cls-11" d="M93.9,178.783l13.844,8.029V170.2Z" transform="translate(100.191 -66.371)"/>
      <path id="Path_3439" data-name="Path 3439" class="cls-9" d="M112.744,178.783,98.9,186.813V170.2Z" transform="translate(109.035 -66.371)"/>
      <path id="Path_3440" data-name="Path 3440" class="cls-12" d="M100.1,215.759l26.58,15.228V199.7Z" transform="translate(111.158 -14.192)"/>
      <path id="Path_3441" data-name="Path 3441" class="cls-7" d="M136.28,215.759,109.7,230.987V199.7Z" transform="translate(128.138 -14.192)"/>
      <path id="Path_3442" data-name="Path 3442" class="cls-13" d="M77.8,238.859l21.043,12.183V226.4Z" transform="translate(71.714 33.034)"/>
      <path id="Path_3443" data-name="Path 3443" class="cls-7" d="M105.889,238.859,85.4,251.042V226.4Z" transform="translate(85.157 33.034)"/>
      <path id="Path_3444" data-name="Path 3444" class="cls-14" d="M35.8,182.629l13.844,8.029V174.6Z" transform="translate(-2.575 -58.588)"/>
      <path id="Path_3445" data-name="Path 3445" class="cls-7" d="M54.644,182.629,40.8,190.659V174.6Z" transform="translate(6.269 -58.588)"/>
      <path id="Path_3446" data-name="Path 3446" class="cls-15" d="M45.8,168.014l16.059,9.414V158.6Z" transform="translate(15.113 -86.889)"/>
      <path id="Path_3447" data-name="Path 3447" class="cls-3" d="M67.659,168.014,51.6,177.428V158.6Z" transform="translate(25.372 -86.889)"/>
      <path id="Path_3448" data-name="Path 3448" class="cls-16" d="M110.8,162.906l14.4,8.306V154.6Z" transform="translate(130.084 -93.964)"/>
      <path id="Path_3449" data-name="Path 3449" class="cls-3" d="M130.121,162.906,116,171.213V154.6Z" transform="translate(139.281 -93.964)"/>
      <path id="Path_3450" data-name="Path 3450" class="cls-17" d="M94.8,138.238l9.137,5.261V132.7Z" transform="translate(101.783 -132.7)"/>
      <path id="Path_3451" data-name="Path 3451" class="cls-3" d="M107.237,138.238,98.1,143.5V132.7Z" transform="translate(107.62 -132.7)"/>
    </g>
    <g id="Group_2969" data-name="Group 2969" transform="translate(101.56 -0.059)">
      <path id="Path_3452" data-name="Path 3452" class="cls-18" d="M202.019,129.129c-.831-3.323-1.661-6.368-2.492-9.414h0a18.54,18.54,0,0,0-5.538-7.2h0c-.554-.554-1.384-1.108-1.938-1.661a106.341,106.341,0,0,0-14.4-9.137,1.017,1.017,0,0,0-.831-.277v-.277l-.831-.831c-1.108-1.384-6.091-6.645-9.137-8.583a1.017,1.017,0,0,1,.277-.831h0c15.782,0,27.965-14.4,32.672-30.457A54.539,54.539,0,0,0,202.3,45.512c.277-8.583-1.661-16.89-7.753-21.873h-.554a2.093,2.093,0,0,1,.277-1.108h0a35.484,35.484,0,0,0-8.306-11.352A48.9,48.9,0,0,0,173.5,2.873C167.133-.45,157.719-.726,150.243.935c-8.306,1.938-16.059,5.538-21.32,11.629a11.608,11.608,0,0,1-4.43-1.108,7.166,7.166,0,0,0,4.153,3.876c-4.984-.277-9.691-2.215-12.736-6.091h0c1.661,2.215,1.661,6.091,3.046,8.86,0,.277.277.554.277.831,1.108,2.215,1.938,4.153,3.876,5.538l-.277.277c-10.244,13.567-5.538,31.01,1.661,45.408,0,1.938-1.108,3.6-3.323,2.769a21.255,21.255,0,0,0,4.984,4.984c-9.137.831-14.675,9.414-16.059,19.658h-.277c-.554,3.323-.554,6.645-1.108,9.968-4.43,6.922-10.8,13.567-11.906,21.32,0,.831-.277,1.384-.277,2.215a23.2,23.2,0,0,0,4.43,7.476h0c.831,12.183.831,26.027,3.6,37.932a15.518,15.518,0,0,1-4.153-2.769,15.891,15.891,0,0,0,.277,3.323,8.29,8.29,0,0,0,1.108,2.215,18.319,18.319,0,0,0,5.261,4.153,11.684,11.684,0,0,0-3.323.831c-.831-1.661-1.384-3.323-2.215-4.707l-.277-.277c-.554-.554-.554-1.384-.831-1.938-3.876-8.583-7.753-17.166-10.521-25.2a80.624,80.624,0,0,0-14.951-11.075h0C62.75,133.836,48.352,128.3,37,124.976c4.153,7.753,15.782,26.857,27.134,46.239,2.492,4.153,4.707,8.306,7.2,12.459l.831,1.661c9.968,6.091,21.873,12.183,32.118,19.1-2.215,18.274-4.153,36.271-4.43,55.1v.831c.277,6.091-.831,11.629,0,17.72.277,4.43,2.492,9.137,4.153,13.567,1.108,26.027,4.153,57.867,4.43,60.913,0,21.32.831,42.362,2.769,63.682.831,11.352,1.938,22.7,2.769,34.333-.277,10.244-.831,22.427-5.538,29.349a35.262,35.262,0,0,0,5.261,3.6c.554.277.831.554,1.384.831a20.956,20.956,0,0,1-.277,4.153,72.963,72.963,0,0,1-.554,7.753,10.387,10.387,0,0,1-.277,2.769H113.7c-3.046,11.906-8.029,24.088-11.629,35.994h0c-2.215,1.938-6.645,5.814-6.645,7.476.554,5.538,15.505,5.814,20.489,5.538,5.538-5.814,9.414-16.89,12.736-26.3.831,3.323.277,7.753-.277,11.075a16.014,16.014,0,0,0,3.876,1.384h.554c.831-.554,1.384-.831,2.215-1.384h0c0-12.183,5.814-25.2,0-36.825h0a16.915,16.915,0,0,1-1.938-3.876,21.7,21.7,0,0,1-1.384-3.876,13.539,13.539,0,0,0,6.368-2.215c-2.492-2.769-3.323-8.029-3.323-13.844,1.661-9.414,4.153-18.828,5.538-28.518,2.215-16.613,6.645-33.779.277-60.636.277-8.86.831-18,1.108-26.857,1.107,7.476,2.492,14.951,3.6,22.15,4.153,26.857,5.261,53.714,10.244,80.295,1.108,6.368,2.215,12.46,3.323,18.828h0c0,3.046.277,8.583,0,11.906-.554,7.753.554,22.427-4.153,29.072,2.769.277,5.538.277,8.306.277a26.861,26.861,0,0,0,.277,4.707v4.984c-2.215,13.29-2.769,28.518-4.984,42.639a139.587,139.587,0,0,1-3.046,15.505c3.046,3.046,6.922,3.876,11.352,4.707h0c6.922.277,10.244-5.261,12.183-11.906a6.881,6.881,0,0,1,2.215-.277c3.6-14.675,7.753-33.5,2.215-48.454v3.323c-1.108-4.984-2.769-9.691-3.046-14.951v-1.938a38.487,38.487,0,0,0,7.753-3.323,23.9,23.9,0,0,1-4.153-16.613c4.43-13.844,8.583-27.688,8.029-41.255-.554-13.844-.831-27.411-4.153-40.7-1.661-5.814-7.476-16.336-6.922-23.535h0a3.512,3.512,0,0,1,.277-1.661h0c1.108-7.2.831-14.951,1.938-21.873,4.43-23.811,10.244-45.685,11.075-70.05.831-22.981-3.046-49.284-18.274-67.558a25.333,25.333,0,0,0-.277-4.707c5.814,2.215,11.906,4.43,18,6.368,4.984-1.108,6.091-8.306,7.2-14.4.277-1.108.277-1.938.554-2.769C206.449,187.827,208.387,157.094,202.019,129.129ZM116.741,198.9a1.017,1.017,0,0,0-.277-.831c.277,1.108.554,2.492.831,3.6A9.838,9.838,0,0,0,116.741,198.9Zm65.066,6.368a27.188,27.188,0,0,0-4.984-2.215,122.913,122.913,0,0,1,4.43-16.613C181.53,193.088,181.807,199.733,181.807,205.271ZM167.686,46.343h0Zm1.108,0,3.323-.831A28.735,28.735,0,0,1,168.794,46.343Z" transform="translate(-37 0.059)"/>
      <g id="XMLID_1_" transform="translate(0 0.277)">
        <g id="Group_2968" data-name="Group 2968" transform="translate(0 0)">
          <path id="Path_3453" data-name="Path 3453" class="cls-19" d="M37,45c4.153,7.753,15.782,26.857,27.134,46.239,2.492,4.153,4.707,8.306,7.2,12.459,3.6.554,7.2,0,9.137-3.323,2.492-4.43,2.769-8.583,2.492-13.567a55.663,55.663,0,0,0-3.323-14.951c-1.108-3.6-2.215-8.029-4.707-10.521h0A176.242,176.242,0,0,0,37,45Z" transform="translate(-37 79.481)"/>
          <path id="Path_3454" data-name="Path 3454" class="cls-20" d="M63.076,86.888c2.769-.831,5.538-1.108,8.306-2.215,3.323-1.384,5.261-4.153,8.86-4.153.277-2.215,0-4.153-1.108-4.707h-.277c-.831-2.492-2.769-4.153-4.984-5.538-2.769-1.661-6.091-3.046-8.86-4.707A15.518,15.518,0,0,1,60.861,62.8a15.89,15.89,0,0,0,.277,3.323,8.29,8.29,0,0,0,1.108,2.215,18.319,18.319,0,0,0,5.261,4.153,11.685,11.685,0,0,0-3.323.831,44.823,44.823,0,0,1-4.707,1.661H59.2c.831,1.384,1.108,4.707,1.384,6.091Z" transform="translate(2.267 110.965)"/>
          <path id="Path_3455" data-name="Path 3455" class="cls-21" d="M63.777,125.187c-.554-12.459-.554-23.535.277-29.349v-.554l-.554-.277A13.707,13.707,0,0,0,59.9,93.9c.277,6.091-.831,11.629,0,17.72C60.178,116.05,62.393,120.48,63.777,125.187Z" transform="translate(2.95 165.974)"/>
          <path id="Path_3456" data-name="Path 3456" class="cls-21" d="M70.313,83.159h0A13.533,13.533,0,0,0,73.358,85.1a5.133,5.133,0,0,1-.554-1.938,49.917,49.917,0,0,1-2.215-5.814c-.277-1.661-.554-4.707-1.384-6.091a70.419,70.419,0,0,0-7.753-4.43h0c-1.938-1.661-6.368-3.046-7.753-.554h.277c.554.277,1.384.831,1.938,1.108h0c0,2.215,1.384,3.876,3.046,5.538l-.277.554C62.56,76.513,66.713,79.836,70.313,83.159Z" transform="translate(-7.461 114.695)"/>
          <path id="Path_3457" data-name="Path 3457" class="cls-22" d="M72.459,92.562c-3.6-16.89-7.753-35.44-11.075-40.7h0A7.342,7.342,0,0,1,60,50.2h0c.831,12.183.831,26.026,3.6,37.932C66.368,89.517,69.691,90.9,72.459,92.562Z" transform="translate(3.682 88.679)"/>
          <path id="Path_3458" data-name="Path 3458" class="cls-20" d="M64.553,223.092c2.492-8.583,9.137-16.336,12.183-24.919,1.661-4.707,3.876-20.212-3.6-21.873a72.97,72.97,0,0,1-.554,7.753,10.386,10.386,0,0,1-.277,2.769h-.277C68.983,198.727,64,210.91,60.4,222.815h0a17.03,17.03,0,0,1,3.6.277Z" transform="translate(4.389 311.722)"/>
          <path id="Path_3459" data-name="Path 3459" class="cls-23" d="M74.36,334.673c4.43-42.916,3.6-85,.831-127.917-.831-22.427-1.661-45.685-.831-68.112.831-15.505,2.492-38.763,4.984-51.776A27.041,27.041,0,0,1,72.422,76.9a413.1,413.1,0,0,0-10.8,48.73v.554c-.831,5.814-.831,16.89-.277,29.349,1.108,26.027,4.153,57.867,4.43,60.913,0,21.32.831,42.362,2.769,63.682.831,11.352,1.938,22.7,2.769,34.333-.277,10.244-.831,22.427-5.538,29.349a35.262,35.262,0,0,0,5.261,3.6A78.778,78.778,0,0,0,74.36,334.673Z" transform="translate(5.381 135.905)"/>
          <path id="Path_3460" data-name="Path 3460" class="cls-3" d="M82.348,114.3a101.014,101.014,0,0,1,10.244,8.029c-1.108-1.661-3.6-8.86-4.43-11.906a9.261,9.261,0,0,1-6.645-.554,20.651,20.651,0,0,1-3.323-1.938v-.277c-3.6-3.323-7.753-6.368-11.629-9.414l.277-.554C65.182,96.031,63.8,94.37,63.8,92.155h0c-.554-.277-1.384-.831-1.938-1.108h-.277c1.384-2.769,5.814-1.108,7.753.554h0a70.417,70.417,0,0,1,7.753,4.43h.277c1.938-.554,3.323-1.384,4.707-1.661-.831-1.661-1.384-3.323-2.215-4.707l-.277-.277a5.452,5.452,0,0,1-1.108-2.215C74.6,78.588,70.72,70,67.951,61.975A80.624,80.624,0,0,0,53,50.9c2.769,2.769,3.6,7.2,4.707,10.521,1.384,4.707,3.046,9.968,3.323,14.951s.277,9.137-2.492,13.567C56.322,93.262,53,93.816,49.4,93.262l.831,1.661C60.2,101.015,72.1,107.106,82.348,114.3Z" transform="translate(-15.067 89.917)"/>
          <path id="Path_3461" data-name="Path 3461" class="cls-24" d="M92.633,28.277A25.336,25.336,0,0,0,88.2,28c.277.277.554.277.831.554-9.968,1.108-11.906,11.906-14.121,20.489h-.554c-.554,3.046-2.215,6.091-3.876,8.86-4.43,6.922-10.8,13.567-11.906,21.32,0,.831-.277,1.384-.277,2.215a23.2,23.2,0,0,0,4.43,7.476,7.341,7.341,0,0,1,1.384,1.661l2.492,2.492c6.922,3.6,12.736,9.414,19.1,13.013V105.8C83.5,87.252,94.848,82.268,96.786,71.47v-.831c0-6.368-6.645-22.427-13.29-18.551,2.215-6.922,7.753-14.4,15.228-16.613C96.509,34.368,94.294,31.876,92.633,28.277Z" transform="translate(0.675 49.412)"/>
          <path id="Path_3462" data-name="Path 3462" class="cls-22" d="M74.275,81.829A77.4,77.4,0,0,0,64.03,73.8c-2.215,18.274-4.153,36.271-4.43,55.1v.831c1.384.277,2.492.831,3.6,1.108l.831.277c2.492-16.613,6.368-32.395,10.8-48.73v-.277Z" transform="translate(2.974 130.422)"/>
          <path id="Path_3463" data-name="Path 3463" class="cls-21" d="M87.373,178.4c-5.538.831-11.352-.831-16.613-3.6a20.957,20.957,0,0,1-.277,4.153c7.476,1.661,5.261,17.166,3.6,21.873-3.046,8.583-9.691,16.336-12.183,24.919a15.723,15.723,0,0,1,6.091,1.938c8.306-10.521,18.274-31.564,20.766-45.408C88.2,181.168,87.926,179.784,87.373,178.4Z" transform="translate(7.043 309.068)"/>
          <path id="Path_3464" data-name="Path 3464" class="cls-25" d="M82.6,345.372a13.539,13.539,0,0,0,6.368-2.215c-2.492-2.769-3.323-8.029-3.323-13.844C87.3,319.9,89.8,310.485,91.18,300.795c2.215-16.613,6.645-33.779.277-60.636.277-8.86.831-18,1.108-26.857-.831-5.814-1.661-11.629-2.215-17.166-1.661-11.352-6.368-39.317-6.645-59.529h.277a17.027,17.027,0,0,0-.277-3.876c-3.6-13.567-3.876-34.056-3.876-47.346A44.306,44.306,0,0,1,72.906,80.4c-2.492,13.013-4.153,36.548-4.984,51.776-.831,22.427,0,45.685.831,68.112,2.769,42.916,3.6,85-.831,127.918A78.778,78.778,0,0,1,64.6,340.942c.554.277.831.554,1.384.831C71.245,344.541,77.06,346.2,82.6,345.372Z" transform="translate(11.818 142.096)"/>
          <path id="Path_3465" data-name="Path 3465" class="cls-7" d="M78.236,15.156c-4.984-.277-9.691-2.215-12.736-6.091h0c1.661,2.215,1.661,6.091,3.046,8.86,0,.277.277.554.277.831,5.814,4.707,13.013,8.029,19.1,10.521,8.306,3.6,16.059,3.6,25.2,3.046a79.98,79.98,0,0,1-14.675-7.2c2.769-2.215,9.691-.554,13.013-.277,3.876,0,7.476-.277,11.075.831-4.153-3.323-9.968-5.538-13.013-9.414,3.323-1.108,9.968.554,13.844.554a31.623,31.623,0,0,1,12.183,3.046c-2.769-3.323-5.261-7.2-7.753-10.521a25.721,25.721,0,0,1,8.029,1.938,48.9,48.9,0,0,0-12.459-8.306C117-.35,107.585-.626,100.11,1.035,91.8,2.973,84.051,6.572,78.79,12.664a11.608,11.608,0,0,1-4.43-1.108A6.252,6.252,0,0,0,78.236,15.156Z" transform="translate(13.41 -0.041)"/>
          <path id="Path_3466" data-name="Path 3466" class="cls-22" d="M68.384,86.351l2.492-9.137c0-.277,0-.554.277-.554h0c-.277-1.108-.554-2.492-.831-3.876a11.992,11.992,0,0,1-.277-1.384h-.554A35.71,35.71,0,0,1,63.4,74.169c1.108,3.323,3.323,10.244,4.43,11.906l.554-.277C68.107,86.075,68.107,86.075,68.384,86.351Z" transform="translate(9.696 126.177)"/>
          <path id="Path_3467" data-name="Path 3467" class="cls-26" d="M120.3,93.335l-2.492.831h-.277c-11.352,4.153-26.027,2.215-36.825-4.43A34.98,34.98,0,0,1,68.8,77.83q-.415-1.661-.831-4.153l-.277-.277L65.2,82.537A22.489,22.489,0,0,0,72.122,92.5a31.515,31.515,0,0,0,6.922,4.984l3.323,1.661a64.072,64.072,0,0,0,18.828,5.538c10.8,1.384,20.489,0,24.642-4.984h.554A25.335,25.335,0,0,0,126.113,95,17.9,17.9,0,0,1,120.3,93.335Z" transform="translate(12.879 129.714)"/>
          <path id="Path_3468" data-name="Path 3468" class="cls-27" d="M66.554,74.031a1.017,1.017,0,0,0-.277-.831c0,.277,0,.554-.277.554A.857.857,0,0,0,66.554,74.031Z" transform="translate(14.295 129.361)"/>
          <path id="Path_3469" data-name="Path 3469" class="cls-24" d="M76.659,96.939a93.252,93.252,0,0,0,13.29,4.153,252.938,252.938,0,0,0-4.43-33.225,25.729,25.729,0,0,0-2.769-1.384c-.277,0-.277-.277-.554-.277-6.645-3.6-12.183-9.691-19.1-13.013L60.6,50.7h0c3.323,5.538,7.476,24.088,11.075,40.7,1.938,1.661,3.876,3.323,4.984,5.538Z" transform="translate(4.743 89.563)"/>
          <path id="Path_3470" data-name="Path 3470" class="cls-24" d="M67.084,77.6a104.359,104.359,0,0,0,13.29,7.2c0-1.661.277-3.6.277-5.538-4.707-2.492-9.414-4.984-13.844-7.476,0,0-.831-.831-1.108-.554l1.108,5.538h0A1.017,1.017,0,0,1,67.084,77.6Z" transform="translate(13.764 125.787)"/>
          <path id="Path_3471" data-name="Path 3471" class="cls-21" d="M77.766,69.2c-3.6,0-5.538,2.492-8.86,4.153-2.769,1.108-5.538,1.384-8.306,2.215a5.133,5.133,0,0,1,.554,1.938,9.261,9.261,0,0,0,6.645.554,28.161,28.161,0,0,0,6.091-2.769h.554v-.277c.277.277.554.277,1.107.554a13.09,13.09,0,0,0,1.661-5.261C77.49,69.754,77.49,69.477,77.766,69.2Z" transform="translate(4.743 122.286)"/>
          <path id="Path_3472" data-name="Path 3472" class="cls-28" d="M67.761,69.5A19.646,19.646,0,0,1,66.1,74.761c4.43,2.492,9.137,4.984,13.844,7.476,0-2.215.277-4.707.277-6.922a55.305,55.305,0,0,1-11.629-5.261C68.315,70.054,68.038,69.777,67.761,69.5Z" transform="translate(14.471 122.816)"/>
          <path id="Path_3473" data-name="Path 3473" class="cls-29" d="M79.69,71.653A93.254,93.254,0,0,1,66.4,67.5c1.108.831,1.384,2.769,1.108,4.707v.831a1.017,1.017,0,0,0,.831.277c3.323,2.492,7.476,3.876,11.629,5.261a57.876,57.876,0,0,1-.277-6.922Z" transform="translate(15.002 119.279)"/>
          <path id="Path_3474" data-name="Path 3474" class="cls-22" d="M81.174,28.654c-.277-.277-.554-.277-.831-.554-9.137.831-14.675,9.414-16.059,19.658h-.277c-.554,3.323-.554,6.645-1.108,9.968a22.849,22.849,0,0,0,3.876-8.86h.554C68.991,40.559,71.206,29.484,81.174,28.654Z" transform="translate(8.811 49.589)"/>
          <path id="Path_3475" data-name="Path 3475" class="cls-20" d="M103.066,20.668C89.776,19.56,78.977,17.622,70.394,10.7c-1.661,14.4-2.215,31.564,1.938,45.131.277,1.108.831,2.215,1.108,3.046a17.287,17.287,0,0,0,6.368,7.476,12.233,12.233,0,0,0,4.43,1.661,17.734,17.734,0,0,0,9.137-.831,10.574,10.574,0,0,0,2.492-2.492A8.254,8.254,0,0,1,93.1,60.815a8.533,8.533,0,0,0,3.876,1.938,50.854,50.854,0,0,0,4.153-11.906c1.938-6.922,4.43-16.059,3.323-23.535-5.261-.277-12.183-1.938-19.935-5.538C96.7,22.606,98.082,22.052,103.066,20.668Z" transform="translate(19.868 18.812)"/>
          <path id="Path_3476" data-name="Path 3476" class="cls-2" d="M73.976,129.546c-.554-14.951-.554-30.733-.554-45.685L70.1,82.2C70.377,95.767,70.377,116.256,73.976,129.546Z" transform="translate(21.547 145.28)"/>
          <path id="Path_3477" data-name="Path 3477" d="M69.9,205.466a16.011,16.011,0,0,0,3.876,1.384c0-5.261.277-10.8.277-16.059V184.7a64.859,64.859,0,0,0-3.6,9.691C71.008,197.713,70.454,202.143,69.9,205.466Z" transform="translate(21.193 326.579)"/>
          <path id="Path_3478" data-name="Path 3478" class="cls-7" d="M74.927,62.061a12.333,12.333,0,0,1,4.43.277,9.919,9.919,0,0,1-1.108-3.046C74.1,46,74.651,28.835,76.589,13.884A27.032,27.032,0,0,1,71.882,8.9c-10.244,13.567-5.538,31.01,1.661,45.408,0,1.938-1.108,3.6-3.323,2.769C70.774,58.738,72.712,60.676,74.927,62.061Z" transform="translate(14.227 15.628)"/>
          <path id="Path_3479" data-name="Path 3479" class="cls-24" d="M67.131,77.653A32.726,32.726,0,0,0,79.036,89.559c0-2.215.277-5.261.554-8.86A101.573,101.573,0,0,1,66.3,73.5Q66.715,75.992,67.131,77.653Z" transform="translate(14.825 129.891)"/>
          <path id="Path_3480" data-name="Path 3480" class="cls-30" d="M97.594,218.2c0-12.183,5.814-25.2,0-36.825h0a16.914,16.914,0,0,1-1.938-3.876c-2.769,13.844-12.736,34.887-20.766,45.408A15.722,15.722,0,0,0,68.8,220.97h-.554c-1.108,0-2.215-.277-3.6-.277h0C62.43,222.631,58,226.507,58,228.169c.554,5.538,15.505,5.814,20.489,5.538,5.538-5.814,9.414-16.89,12.736-26.3,1.107-3.6,2.492-6.922,3.6-9.691V203.8c0,5.261-.277,10.8-.277,16.059H95.1a13,13,0,0,1,2.492-1.661Z" transform="translate(0.144 313.844)"/>
          <path id="Path_3481" data-name="Path 3481" class="cls-31" d="M86.7,42.606h0c.277-3.046.554-6.922.554-10.244a12.233,12.233,0,0,1-4.43-1.661C75.353,33.192,70.092,40.668,67.6,47.313,74.245,43.159,80.89,59.5,80.89,65.863v.831h.277c.554-3.6,1.384-8.86,1.938-14.121a91.677,91.677,0,0,0,.831-11.629A24.35,24.35,0,0,1,86.7,42.606Z" transform="translate(17.125 54.188)"/>
          <path id="Path_3482" data-name="Path 3482" class="cls-24" d="M88.377,42.6a46,46,0,0,0-8.583,3.876v-.554h-.277C77.856,56.721,66.5,61.981,68.442,80.255v.277c.277,0,.277.277.554.277a25.729,25.729,0,0,0,2.769,1.384,164.84,164.84,0,0,1,15.228,8.583,56.2,56.2,0,0,0,12.183,3.876c19.658,0,23.811-18.274,17.443-34.61-2.492.831-4.153,2.769-6.368,4.153-3.046-5.538-3.046-11.075-8.86-15.782C98.345,45.646,93.084,42.6,88.377,42.6Z" transform="translate(18.221 75.236)"/>
          <path id="Path_3483" data-name="Path 3483" class="cls-32" d="M74.031,34.5c0,3.323-.554,7.476-.831,11.629a25.334,25.334,0,0,0,3.6-10.244A8.661,8.661,0,0,0,74.031,34.5Z" transform="translate(27.03 60.909)"/>
          <path id="Path_3484" data-name="Path 3484" class="cls-33" d="M77.8,28.8a7.768,7.768,0,0,0,2.769,3.876,5.793,5.793,0,0,0,1.108-1.661A19.267,19.267,0,0,1,77.8,28.8Z" transform="translate(35.166 50.827)"/>
          <path id="Path_3485" data-name="Path 3485" class="cls-34" d="M70.9,84.783c10.8,6.645,25.2,8.583,36.825,4.43-7.476,1.938-17.72-4.984-24.365-7.753-4.153-1.938-8.029-3.6-11.906-5.261C71.177,79.523,70.9,82.845,70.9,84.783Z" transform="translate(22.962 134.667)"/>
          <path id="Path_3486" data-name="Path 3486" class="cls-20" d="M81.5,31.031a3.823,3.823,0,0,1-1.108-.831c-.831.831-1.384,1.938-2.492,2.492,1.108-.277,2.215-.831,3.323-1.108Z" transform="translate(35.343 53.303)"/>
          <path id="Path_3487" data-name="Path 3487" class="cls-35" d="M91.328,48.5a56.658,56.658,0,0,0,2.492-16.89A9.835,9.835,0,0,1,91.328,30.5l-.277.554a15.609,15.609,0,0,1-3.323,1.108,25.644,25.644,0,0,1-9.137.831,63.555,63.555,0,0,1-.554,10.244h0a25.333,25.333,0,0,1-3.6,10.244c-.554,5.261-1.384,10.8-1.938,14.121v.554c1.938-2.769,8.029-7.2,14.675-11.075C88.282,54.311,90.22,51.543,91.328,48.5Z" transform="translate(25.792 53.834)"/>
          <path id="Path_3488" data-name="Path 3488" class="cls-36" d="M94.69,36.338a21.348,21.348,0,0,1-8.029-1.384,13.246,13.246,0,0,0,4.707-2.769A30.687,30.687,0,0,1,84.445,30.8a56.658,56.658,0,0,1-2.492,16.89c-1.108,3.046-3.046,5.814-4.153,8.583,5.261-3.046,11.075-5.814,15.228-6.922.554-4.43.831-7.476,1.661-12.459,0,0,0-.277,0-.554Z" transform="translate(35.166 54.365)"/>
          <path id="Path_3489" data-name="Path 3489" class="cls-23" d="M102.742,83.1C98.589,87.807,88.9,89.468,78.1,88.084c.277,85.555,11.629,170,18,254.727.831,9.137.831,19.935-2.215,28.8a52.97,52.97,0,0,0,13.29-1.661,38.486,38.486,0,0,0,7.753-3.323,23.9,23.9,0,0,1-4.153-16.613c4.43-13.844,8.583-27.688,8.029-41.255-.554-13.844-.831-27.411-4.153-40.7-1.661-5.814-7.476-16.336-6.922-23.535h0a3.512,3.512,0,0,1,.277-1.661h0c1.108-7.2.831-14.951,1.938-21.873,4.43-23.811,10.244-45.685,11.075-70.05.831-22.981-3.046-49.284-18.274-67.558h0Z" transform="translate(35.697 146.872)"/>
          <path id="Path_3490" data-name="Path 3490" class="cls-37" d="M108.962,40.712a48.408,48.408,0,0,0,6.368,0h1.384l3.323-.831c10.521-3.046,19.935-11.906,21.6-22.15a2.093,2.093,0,0,1,.277-1.108h0A35.485,35.485,0,0,0,133.6,5.272c-2.769-1.384-6.091-2.215-8.029-1.938,2.769,3.323,5.261,7.2,7.753,10.521a35.852,35.852,0,0,0-12.183-3.046c-4.153-.277-10.521-1.661-13.844-.554,3.046,3.876,8.86,6.091,13.013,9.414-3.876-1.108-7.476-.831-11.075-.831-3.323-.277-10.244-1.938-13.013.277a72.155,72.155,0,0,0,14.675,7.2c-8.86.554-16.89.554-25.2-3.046-5.814-2.492-13.29-5.814-19.1-10.521,1.108,2.215,1.938,4.153,3.876,5.538l-.277.277a40.094,40.094,0,0,0,4.707,4.984c8.583,7.2,19.1,8.86,32.672,9.968-4.984,1.661-6.368,2.215-18.828,1.384A60.218,60.218,0,0,0,108.962,40.712Z" transform="translate(15.356 5.689)"/>
          <path id="Path_3491" data-name="Path 3491" class="cls-24" d="M108.363,68.806a31.1,31.1,0,0,1-11.352.554,44.265,44.265,0,0,1-12.183-3.876C79.844,62.161,74.584,59.669,69.6,56.9a222.806,222.806,0,0,1,4.43,33.225C84,92.617,95.073,94.832,105.594,97.6c.277-4.707,1.938-10.244,2.769-15.228C108.917,77.943,108.363,73.513,108.363,68.806Z" transform="translate(20.662 100.53)"/>
          <path id="Path_3492" data-name="Path 3492" class="cls-24" d="M82.829,85.175c6.368,2.769,16.613,9.691,24.365,7.753h.277l2.492-.831c-13.29-5.261-26.027-11.629-38.486-18,0,1.938-.277,3.876-.277,5.538C74.8,81.576,78.676,83.237,82.829,85.175Z" transform="translate(23.492 130.953)"/>
          <path id="Path_3493" data-name="Path 3493" class="cls-38" d="M105.91,371.96c2.769-9.137,3.046-19.658,2.215-28.8-6.368-84.725-17.72-169.172-18-254.727A64.072,64.072,0,0,1,71.3,82.9c0,14.675,0,30.733.554,45.685a17.026,17.026,0,0,0,.277,3.876h-.277c.277,20.489,4.984,48.177,6.645,59.529.554,5.538,1.384,11.352,2.215,17.166,1.108,7.476,2.492,14.951,3.6,22.15,4.153,26.857,5.261,53.714,10.244,80.294,1.107,6.368,2.215,12.46,3.323,18.828h0c0,3.046.277,8.583,0,11.906-.554,7.753.554,22.427-4.153,29.072,2.769.277,5.538.277,8.306.277A19.618,19.618,0,0,0,105.91,371.96Z" transform="translate(23.669 146.518)"/>
          <path id="Path_3494" data-name="Path 3494" class="cls-20" d="M87.622,236.623c4.43-7.476,9.691-46.792-1.938-47.623v4.984c-2.215,13.29-2.769,28.518-4.984,42.639h.554a13.478,13.478,0,0,1,3.323-.277A12.415,12.415,0,0,0,87.622,236.623Z" transform="translate(40.296 334.185)"/>
          <path id="Path_3495" data-name="Path 3495" class="cls-34" d="M85.269,80.173C84.715,84.88,83.054,90.418,82.5,95.4a101.546,101.546,0,0,1,13.844,4.707,122.912,122.912,0,0,1,4.43-16.613c-.277-8.583-.831-17.443-1.384-25.2-4.43,4.43-9.137,7.2-13.844,8.306C85.546,71.036,86.1,75.466,85.269,80.173Z" transform="translate(43.479 103.006)"/>
          <path id="Path_3496" data-name="Path 3496" class="cls-21" d="M94.705,34.52c1.661-7.2,1.661-14.4-1.661-17.72h0a24.412,24.412,0,0,1-6.368,0c1.108,7.476-1.108,16.613-3.323,23.535-1.108,3.6-2.215,8.306-4.153,11.906C86.122,53.625,92.49,44.211,94.705,34.52Z" transform="translate(37.642 29.602)"/>
          <path id="Path_3497" data-name="Path 3497" class="cls-31" d="M103.787,73.524c6.922-8.583,8.583-19.381,10.244-30.733v-.277l-.831-.831c-1.108-1.384-6.091-6.645-9.137-8.583-.831,4.984-1.108,7.753-1.661,12.459-4.153,1.108-9.968,3.876-15.228,6.922C80.529,56.358,74.438,60.788,72.5,63.557a33.084,33.084,0,0,1,8.583-3.876C94.1,55.8,102.68,63.833,103.787,73.524Z" transform="translate(25.792 58.433)"/>
          <path id="Path_3498" data-name="Path 3498" class="cls-34" d="M88.967,58.85c5.538,4.43,5.538,9.968,8.86,15.782a36.119,36.119,0,0,1,6.368-4.153c6.368,16.059,2.215,34.333-17.443,34.61a26.05,26.05,0,0,0,11.352-.554c4.707-1.108,9.414-3.876,13.844-8.306-.831-11.906-1.661-21.873-2.492-25.2h-.277a36.879,36.879,0,0,1,1.938-13.29h0c2.215-6.922,6.368-12.183,12.736-11.629a106.344,106.344,0,0,0-14.4-9.137,1.017,1.017,0,0,0-.831-.277c-1.661,11.352-3.323,22.15-10.244,30.733C97.273,57.743,88.69,49.713,75.4,53.59h0C80.384,53.036,85.644,56.081,88.967,58.85Z" transform="translate(30.921 64.8)"/>
          <path id="Path_3499" data-name="Path 3499" class="cls-24" d="M102.664,120.426c-10.244-2.769-21.32-4.984-31.564-7.476v.277a62.388,62.388,0,0,1,0,7.2c6.368,1.938,13.29,3.323,19.1,5.814,6.368,2.769,13.013,5.538,19.658,7.753,5.261,1.661,12.183,3.046,16.336,6.645a8.525,8.525,0,0,0,0-5.261c2.492,1.384,4.153,2.769,5.261,5.538h.277c.831-8.306,2.769-16.89,3.323-25.2,1.384-13.567-.831-26.58-1.938-40.147-.554-7.476-.554-15.782-3.876-22.7-1.661-3.6-6.645-9.691-11.075-8.583h0a45.429,45.429,0,0,0-1.938,13.29h.277c.831,3.323,1.938,13.29,2.492,25.2.554,8.029.831,16.89,1.384,25.2.277,6.645.554,13.29.554,18.828a27.188,27.188,0,0,0-4.984-2.215A95.132,95.132,0,0,0,102.664,120.426Z" transform="translate(23.315 77.981)"/>
          <path id="Path_3500" data-name="Path 3500" class="cls-21" d="M82.579,193.068c11.629.831,6.368,40.147,1.938,47.623a17.111,17.111,0,0,1,7.476,2.492c2.769-13.013,9.968-26.58,10.8-39.594h0c-1.108-4.984-2.769-9.691-3.046-14.951V186.7a54.616,54.616,0,0,1-13.29,1.661H82.579A26.727,26.727,0,0,0,82.579,193.068Z" transform="translate(43.401 330.117)"/>
          <path id="Path_3501" data-name="Path 3501" class="cls-30" d="M89.391,232.024c-.831,0-1.938-.277-2.769-.277a13.48,13.48,0,0,0-3.323.277h-.554A139.581,139.581,0,0,1,79.7,247.529c3.046,3.046,6.922,3.876,11.352,4.707h0c6.922.277,10.244-5.261,12.183-11.906a6.881,6.881,0,0,1,2.215-.277c3.6-14.674,7.753-33.5,2.215-48.454v3.323h0c-.831,13.013-8.029,26.58-10.8,39.594A18.4,18.4,0,0,0,89.391,232.024Z" transform="translate(38.527 338.784)"/>
          <path id="Path_3502" data-name="Path 3502" class="cls-34" d="M71.1,134.263c12.459,6.368,25.473,12.459,38.486,18,1.938.831,3.876,1.384,5.538,2.215,5.814,2.215,11.906,4.43,18,6.368,4.984-1.108,6.091-8.306,7.2-14.4.277-1.107.277-1.938.554-2.769,4.984-26.58,6.922-57.314.554-85.278-.831-3.323-1.661-6.368-2.492-9.414h0a18.54,18.54,0,0,0-5.538-7.2h0c-.554-.554-1.384-1.108-1.938-1.661-6.368-.554-10.521,4.984-12.736,11.629,4.43-1.108,9.414,4.984,11.075,8.583,3.323,6.922,3.046,15.228,3.876,22.7,1.108,13.567,3.323,26.58,1.938,40.147-.554,8.583-2.492,17.166-3.323,25.2h-.277c-1.108-2.769-3.046-4.153-5.261-5.538a8.537,8.537,0,0,1,0,5.261c-4.153-3.876-11.075-4.984-16.336-6.645-6.645-2.215-13.29-5.261-19.658-7.753-6.091-2.492-12.736-3.876-19.1-5.814C71.377,129.556,71.377,132.048,71.1,134.263Z" transform="translate(23.315 70.79)"/>
          <path id="Path_3503" data-name="Path 3503" class="cls-7" d="M82.323,57.609a30.688,30.688,0,0,0,6.922,1.384,13.246,13.246,0,0,1-4.707,2.769,28.787,28.787,0,0,0,8.029,1.384c15.782,0,27.965-14.4,32.672-30.457a54.538,54.538,0,0,0,2.492-14.951A11.664,11.664,0,0,1,125.239,23c-.554-2.492-.554-4.984-1.661-7.2-2.492,5.261-3.876,10.8-6.922,16.059C115.271,33.8,112.5,38.5,111.395,34.9c-.554-1.938,1.108-6.368,1.384-8.029-2.769,4.707-6.091,8.583-11.352,10.244a11.213,11.213,0,0,1,1.938-5.814c-2.492,2.215-4.707,4.43-7.753,5.538-2.492,9.691-8.583,19.1-15.505,17.72-.277.554-.831,1.108-1.108,1.661.277.277.831.554,1.108.831C80.384,57.055,81.215,57.332,82.323,57.609Z" transform="translate(37.289 27.833)"/>
          <path id="Path_3504" data-name="Path 3504" class="cls-39" d="M85.131,31.381a1.017,1.017,0,0,0-.831.277c3.323,3.6,3.323,10.8,1.661,17.72,3.323-1.108,5.538-3.323,7.753-5.538a11.213,11.213,0,0,0-1.938,5.814c5.261-1.661,8.583-5.538,11.352-10.244-.277,1.661-1.938,6.368-1.384,8.029,1.384,3.6,4.153-1.108,5.261-3.046,3.046-5.261,4.43-10.8,6.922-16.059a21.035,21.035,0,0,1,1.661,7.2,11.664,11.664,0,0,0,2.492-5.261c.277-8.583-1.661-16.89-7.753-21.873h-.554c-1.938,10.244-11.352,19.1-21.6,22.15a14.692,14.692,0,0,1-3.046.831Z" transform="translate(46.663 14.744)"/>
        </g>
      </g>
      <path id="Path_3505" data-name="Path 3505" class="cls-40" d="M69.1,16.131l2.769-.831c2.492,1.384,6.368,3.323,6.368,3.323l.554,2.769-6.645-5.538Z" transform="translate(19.778 27.225)"/>
      <path id="Path_3506" data-name="Path 3506" class="cls-40" d="M75.2,19.515l.831-2.215,11.352,1.661,5.261,4.707-5.261-3.6Z" transform="translate(30.567 30.763)"/>
      <path id="Path_3507" data-name="Path 3507" class="cls-36" d="M78.045,26.374s-3.6-2.769-4.707-3.046a2.079,2.079,0,0,0-1.938.831,5.885,5.885,0,0,0,2.769,2.492A10.6,10.6,0,0,0,78.045,26.374Z" transform="translate(23.846 41.347)"/>
    </g>
    <g id="Group_2971" data-name="Group 2971" transform="translate(0.5 130.514)">
      <g id="Group_2970" data-name="Group 2970">
        <path id="Path_3508" data-name="Path 3508" class="cls-41" d="M98.1,48.5c1.938.277,3.6.554,5.538.831" transform="translate(172.133 -44.624)"/>
        <path id="Path_3509" data-name="Path 3509" class="cls-42" d="M287.068,53.314C353.8,67.158,399.758,96.784,399.758,130.84c0,47.623-89.432,86.109-199.629,86.109S.5,178.463.5,130.84C.5,90.97,63.351,57.468,148.906,47.5" transform="translate(-0.5 -46.392)"/>
        <path id="Path_3510" data-name="Path 3510" class="cls-41" d="M56.1,47.654c1.938-.277,3.6-.277,5.538-.554" transform="translate(97.844 -47.1)"/>
      </g>
    </g>
    <g id="Group_2973" data-name="Group 2973" transform="translate(0.5 162.631)">
      <g id="Group_2972" data-name="Group 2972">
        <path id="Path_3511" data-name="Path 3511" class="cls-43" d="M98.1,58.7c1.938.277,3.6.554,5.538.831" transform="translate(172.133 -58.7)"/>
        <path id="Path_3512" data-name="Path 3512" class="cls-44" d="M287.068,59.8c66.728,13.844,112.689,43.47,112.689,77.526,0,47.623-89.432,86.109-199.629,86.109S.5,184.672.5,137.326c0-32.672,42.085-61.19,104.383-75.588" transform="translate(-0.5 -56.754)"/>
        <path id="Path_3513" data-name="Path 3513" class="cls-43" d="M40.1,60.708c1.661-.277,3.6-.831,5.538-1.108" transform="translate(69.544 -57.108)"/>
      </g>
    </g>
    <g id="Group_2975" data-name="Group 2975" transform="translate(0.5 189.765)">
      <g id="Group_2974" data-name="Group 2974">
        <path id="Path_3514" data-name="Path 3514" class="cls-45" d="M98.1,68.8c1.938.277,3.6.554,5.538.831" transform="translate(172.133 -67.969)"/>
        <path id="Path_3515" data-name="Path 3515" class="cls-46" d="M287.068,71.315c66.728,13.844,112.689,43.47,112.689,77.526,0,47.623-89.432,86.109-199.629,86.109S.5,196.464.5,148.841C.5,112.847,51.722,82.113,124.264,69.1" transform="translate(-0.5 -67.439)"/>
        <path id="Path_3516" data-name="Path 3516" class="cls-45" d="M47.2,69.331c1.938-.277,3.6-.554,5.538-.831" transform="translate(82.102 -68.5)"/>
      </g>
    </g>
    <path id="Path_3517" data-name="Path 3517" class="cls-19" d="M37,45c4.153,7.753,15.782,26.857,27.134,46.239,2.492,4.153,4.707,8.306,7.2,12.459,3.6.554,7.2,0,9.137-3.323,2.492-4.43,2.769-8.583,2.492-13.567a55.663,55.663,0,0,0-3.323-14.951c-1.108-3.6-2.215-8.029-4.707-10.521h0A176.242,176.242,0,0,0,37,45Z" transform="translate(64.56 79.699)"/>
    <g id="Group_2976" data-name="Group 2976" transform="translate(322.356 236.814)">
      <path id="Path_3518" data-name="Path 3518" class="cls-22" d="M140.9,71.438,137.3,69.5v6.091Z" transform="translate(-76.387 -51.78)"/>
      <path id="Path_3519" data-name="Path 3519" class="cls-22" d="M115.3,115.53,146.033,63.2l30.18,17.443h0V124.39a6.186,6.186,0,0,1-2.769,4.984l-54.822,31.564c-1.384.831-3.046-.277-3.323-1.938V115.53Z" transform="translate(-115.3 -62.923)"/>
      <path id="Path_3520" data-name="Path 3520" class="cls-34" d="M118.623,84.038,115.3,82.1l.277,43.193a2.483,2.483,0,0,0,1.384,1.938l3.046,1.938Z" transform="translate(-115.3 -29.493)"/>
      <path id="Path_3521" data-name="Path 3521" class="cls-47" d="M174.367,63.1,116.5,98.263l.277,55.652a2.059,2.059,0,0,0,3.046,1.938L171.6,124.29a5.815,5.815,0,0,0,2.769-4.984Z" transform="translate(-113.177 -63.1)"/>
      <path id="Path_3522" data-name="Path 3522" class="cls-3" d="M174.567,63.2,116.7,98.363l.277,55.652a2.059,2.059,0,0,0,3.046,1.938L171.8,124.39a5.815,5.815,0,0,0,2.769-4.984Z" transform="translate(-112.824 -62.923)"/>
      <path id="Path_3523" data-name="Path 3523" class="cls-24" d="M116.5,82.8l.277,43.193a2.265,2.265,0,0,0,3.323,1.938l54.822-31.564a5.815,5.815,0,0,0,2.769-4.984" transform="translate(-113.177 -28.255)"/>
      <path id="Path_3524" data-name="Path 3524" class="cls-48" d="M116.6,148.556a2.265,2.265,0,0,0,3.323,1.938l54.822-31.564a5.815,5.815,0,0,0,2.769-4.984V70.2" transform="translate(-113.001 -50.542)"/>
      <path id="Path_3525" data-name="Path 3525" class="cls-9" d="M159.54,67.8,120.5,91.335V97.98l39.04-23.535Z" transform="translate(-106.102 -54.787)"/>
    </g>
    <g id="Group_2999" data-name="Group 2999" transform="translate(12.207 139.796)">
      <g id="Group_2981" data-name="Group 2981">
        <g id="Group_2980" data-name="Group 2980">
          <g id="Group_2977" data-name="Group 2977" transform="translate(0 22.15)">
            <path id="Path_3526" data-name="Path 3526" class="cls-49" d="M4.415,101.729l-1.938-1.108L2.2,42.2l1.938,1.108Z" transform="translate(-2.2 -42.2)"/>
          </g>
          <g id="Group_2978" data-name="Group 2978">
            <path id="Path_3527" data-name="Path 3527" class="cls-50" d="M4.138,57.458,2.2,56.35,40.409,34.2l2.215,1.107Z" transform="translate(-2.2 -34.2)"/>
          </g>
          <g id="Group_2979" data-name="Group 2979" transform="translate(1.938 1.108)">
            <path id="Path_3528" data-name="Path 3528" class="cls-51" d="M41.386,34.6V93.021L3.177,115.171,2.9,56.75Z" transform="translate(-2.9 -34.6)"/>
          </g>
        </g>
      </g>
      <g id="Group_2986" data-name="Group 2986" transform="translate(4.43 2.769)">
        <g id="Group_2985" data-name="Group 2985">
          <g id="Group_2982" data-name="Group 2982" transform="translate(0 22.15)">
            <path id="Path_3529" data-name="Path 3529" class="cls-49" d="M6.015,103.006,3.8,101.621V43.2l1.938,1.384Z" transform="translate(-3.8 -43.2)"/>
          </g>
          <g id="Group_2983" data-name="Group 2983">
            <path id="Path_3530" data-name="Path 3530" class="cls-50" d="M5.738,58.735,3.8,57.35,42.009,35.2l1.938,1.384Z" transform="translate(-3.8 -35.2)"/>
          </g>
          <g id="Group_2984" data-name="Group 2984" transform="translate(1.938 1.384)">
            <path id="Path_3531" data-name="Path 3531" class="cls-51" d="M42.709,35.7l.277,58.421L4.777,116.271,4.5,57.85Z" transform="translate(-4.5 -35.7)"/>
          </g>
        </g>
      </g>
      <g id="Group_2991" data-name="Group 2991" transform="translate(8.86 6.368)">
        <g id="Group_2990" data-name="Group 2990">
          <g id="Group_2987" data-name="Group 2987" transform="translate(0 22.15)">
            <path id="Path_3532" data-name="Path 3532" class="cls-49" d="M7.615,104.029l-1.938-1.108L5.4,44.5l1.938,1.384Z" transform="translate(-5.4 -44.5)"/>
          </g>
          <g id="Group_2988" data-name="Group 2988">
            <path id="Path_3533" data-name="Path 3533" class="cls-50" d="M7.338,60.035,5.4,58.65,43.609,36.5l2.215,1.384Z" transform="translate(-5.4 -36.5)"/>
          </g>
          <g id="Group_2989" data-name="Group 2989" transform="translate(1.938 1.384)">
            <path id="Path_3534" data-name="Path 3534" class="cls-51" d="M44.586,37V95.421L6.377,117.295,6.1,59.15Z" transform="translate(-6.1 -37)"/>
          </g>
        </g>
      </g>
      <g id="Group_2998" data-name="Group 2998" transform="translate(13.29 22.981)">
        <g id="Group_2992" data-name="Group 2992" transform="translate(0 16.336)">
          <path id="Path_3535" data-name="Path 3535" class="cls-49" d="M40.5,48.4v3.323L7.277,71.1,7,67.5Z" transform="translate(-7 -48.4)"/>
        </g>
        <g id="Group_2993" data-name="Group 2993" transform="translate(0 1.384)">
          <path id="Path_3536" data-name="Path 3536" class="cls-49" d="M40.5,43v3.323L7,65.7V62.1Z" transform="translate(-7 -43)"/>
        </g>
        <g id="Group_2994" data-name="Group 2994">
          <path id="Path_3537" data-name="Path 3537" class="cls-9" d="M29.7,42.5v3.6L7,59.113v-3.6Z" transform="translate(-7 -42.5)"/>
        </g>
        <g id="Group_2995" data-name="Group 2995" transform="translate(0 8.86)">
          <path id="Path_3538" data-name="Path 3538" class="cls-49" d="M40.5,45.7v3.323L7,68.4V64.8Z" transform="translate(-7 -45.7)"/>
        </g>
        <g id="Group_2996" data-name="Group 2996" transform="translate(0.277 31.287)">
          <path id="Path_3539" data-name="Path 3539" class="cls-49" d="M40.325,53.8v3.323L7.1,76.5V72.9Z" transform="translate(-7.1 -53.8)"/>
        </g>
        <g id="Group_2997" data-name="Group 2997" transform="translate(0.277 23.811)">
          <path id="Path_3540" data-name="Path 3540" class="cls-49" d="M40.325,51.1v3.323L7.1,73.8V70.2Z" transform="translate(-7.1 -51.1)"/>
        </g>
      </g>
    </g>
    <g id="Group_3006" data-name="Group 3006" transform="translate(64.647 267.58)">
      <g id="Group_3000" data-name="Group 3000" transform="translate(31.287 41.809)">
        <path id="Path_3541" data-name="Path 3541" class="cls-50" d="M30.453,94.56l3.323-1.938L29.623,85.7,26.3,87.638Z" transform="translate(-26.3 -85.7)"/>
      </g>
      <g id="Group_3001" data-name="Group 3001" transform="translate(27.134 43.747)">
        <path id="Path_3542" data-name="Path 3542" class="cls-51" d="M28.953,86.4a12.042,12.042,0,0,1-1.938,1.661,4.419,4.419,0,0,1-2.215.831l4.153,6.922,4.43-2.492Z" transform="translate(-24.8 -86.4)"/>
      </g>
      <g id="Group_3002" data-name="Group 3002" transform="translate(29.072 49.561)">
        <path id="Path_3543" data-name="Path 3543" class="cls-52" d="M33.806,88.5l-1.938,1.107L27.438,92.1,25.5,93.207l14.675,25.75,8.583-4.707Z" transform="translate(-25.5 -88.5)"/>
      </g>
      <g id="Group_3003" data-name="Group 3003" transform="translate(37.378 47.623)">
        <path id="Path_3544" data-name="Path 3544" class="cls-7" d="M43.451,115.488l3.323-1.938L32.1,87.8l-3.6,1.938Z" transform="translate(-28.5 -87.8)"/>
      </g>
      <path id="Path_3545" data-name="Path 3545" class="cls-53" d="M20.4,71.708a9.753,9.753,0,0,1,6.922-.831,14.3,14.3,0,0,1,5.261,2.215,29.475,29.475,0,0,1,8.306,7.476,39.567,39.567,0,0,1,3.876,5.538c6.091,10.244,6.645,21.32,1.938,26.58a4.967,4.967,0,0,1-1.938,1.384l-3.6,1.938a4.966,4.966,0,0,0,1.938-1.384c4.707-4.984,4.153-16.059-1.938-26.58a39.569,39.569,0,0,0-3.876-5.538,34.432,34.432,0,0,0-8.306-7.476,21.359,21.359,0,0,0-5.261-2.215,9.753,9.753,0,0,0-6.922.831Z" transform="translate(-11.816 -70.6)"/>
      <g id="Group_3004" data-name="Group 3004" transform="translate(0 2.038)">
        <path id="Path_3546" data-name="Path 3546" class="cls-23" d="M32.166,73.728A33.858,33.858,0,0,1,44.349,86.465c6.091,10.244,6.645,21.32,1.938,26.58a12.043,12.043,0,0,1-1.938,1.661,4.419,4.419,0,0,1-2.215.831c-3.046.554-6.368-.277-9.968-2.215a33.858,33.858,0,0,1-12.183-12.736c-6.645-11.629-6.645-24.088,0-27.965C23.306,70.406,27.736,71.236,32.166,73.728Zm-9.414,25.2a24.443,24.443,0,0,0,9.414,9.691c3.323,1.938,6.645,2.492,9.414.831,5.261-3.046,5.261-12.459,0-21.32a24.443,24.443,0,0,0-9.414-9.691c-3.323-1.938-6.645-2.492-9.414-.831-4.984,2.769-4.984,12.459,0,21.32Z" transform="translate(-15 -71.336)"/>
      </g>
      <g id="Group_3005" data-name="Group 3005" transform="translate(3.807 7.323)">
        <path id="Path_3547" data-name="Path 3547" class="cls-3" d="M29.734,75.059c-3.323-1.938-6.645-2.492-9.414-.831-5.261,3.046-5.261,12.46,0,21.32a24.443,24.443,0,0,0,9.414,9.691c3.323,1.938,6.645,2.492,9.414.831,5.261-3.046,5.261-12.459,0-21.32A28.75,28.75,0,0,0,29.734,75.059Z" transform="translate(-16.375 -73.245)"/>
      </g>
    </g>
    <g id="Group_3007" data-name="Group 3007" transform="translate(316.254 127.81)">
      <path id="Path_3548" data-name="Path 3548" class="cls-54" d="M105.3,49.861l9.137-5.261V87.239L105.3,92.777Z" transform="translate(-95.886 -28.818)"/>
      <path id="Path_3549" data-name="Path 3549" class="cls-2" d="M101.9,44.6l9.414,5.261V92.777L101.9,87.239Z" transform="translate(-101.9 -28.818)"/>
      <path id="Path_3550" data-name="Path 3550" class="cls-3" d="M101.9,54.682,111.314,38.9V59.943Z" transform="translate(-101.9 -38.9)"/>
      <path id="Path_3551" data-name="Path 3551" class="cls-55" d="M114.437,54.682,105.3,59.943V38.9Z" transform="translate(-95.886 -38.9)"/>
      <path id="Path_3552" data-name="Path 3552" class="cls-52" d="M101.9,60l9.414,5.538V76.059L101.9,70.8Z" transform="translate(-101.9 -1.579)"/>
      <path id="Path_3553" data-name="Path 3553" class="cls-56" d="M114.437,60,105.3,65.538V76.059l9.137-5.261Z" transform="translate(-95.886 -1.579)"/>
      <path id="Path_3554" data-name="Path 3554" class="cls-52" d="M103.9,45.268l3.876-6.368v8.306Z" transform="translate(-98.362 -38.9)"/>
      <path id="Path_3555" data-name="Path 3555" class="cls-56" d="M108.9,45.268l-3.6,1.938V38.9Z" transform="translate(-95.886 -38.9)"/>
    </g>
    <g id="Group_3011" data-name="Group 3011" transform="translate(328.713 86.832)">
      <g id="Group_3008" data-name="Group 3008" transform="translate(0 33.502)">
        <path id="Path_3556" data-name="Path 3556" class="cls-7" d="M106.954,38.969h0a.6.6,0,0,1-.554-.554,8.851,8.851,0,0,1,.277-1.938c0-.277.277-.277.554-.277s.277.277.277.554a8.851,8.851,0,0,0-.277,1.938A.271.271,0,0,1,106.954,38.969Z" transform="translate(-106.4 -36.2)"/>
      </g>
      <g id="Group_3009" data-name="Group 3009" transform="translate(1.384 6.091)">
        <path id="Path_3557" data-name="Path 3557" class="cls-7" d="M107.454,50.388h0c-.554,0-.554-.277-.554-.554.554-1.384,1.108-2.769,1.661-3.876,0-.277.277-.277.831-.277.277,0,.277.277.277.831-.554,1.108-1.108,2.492-1.661,3.6C108.008,50.388,107.731,50.388,107.454,50.388Zm3.876-7.2h-.277a.519.519,0,0,1,0-.831,29.327,29.327,0,0,1,2.769-3.323.587.587,0,0,1,.831.831,13.321,13.321,0,0,0-2.492,3.046A2.143,2.143,0,0,1,111.33,43.19Zm5.814-5.814c-.277,0-.277,0-.277-.277-.277-.277,0-.554,0-.831a11.491,11.491,0,0,1,3.6-1.938,1.017,1.017,0,0,1,.831.277c.277.277,0,.554-.277.831a22.884,22.884,0,0,0-3.6,1.938Zm40.147-.554a.554.554,0,1,1,0-1.108,17.026,17.026,0,0,0,3.876-.277.967.967,0,0,1,.554.277.967.967,0,0,1-.277.554,10.762,10.762,0,0,1-4.153.554Zm-4.153-.277h0a21.372,21.372,0,0,1-4.153-.554c-.277,0-.554-.277-.277-.554,0-.277.277-.554.554-.277,1.384.277,2.769.277,3.876.554a.6.6,0,0,1,.554.554C153.692,36.544,153.415,36.544,153.139,36.544Zm12.183-.831c-.277,0-.277,0-.554-.277,0-.277,0-.554.277-.554a14.317,14.317,0,0,0,3.6-1.661c.277-.277.554,0,.831,0s0,.554,0,.831c-1.107.277-2.492,1.108-4.153,1.661Zm-20.489-.554h0a4,4,0,0,1-1.938-.554c-.554-.277-1.384-.277-1.938-.554-.277,0-.277-.277-.277-.554s.277-.277.554-.277a6.516,6.516,0,0,1,2.215.554,17.649,17.649,0,0,0,1.938.554c.277,0,.277.277.277.554C145.386,35.16,145.386,35.16,144.832,35.16ZM124.62,34.053c-.277,0-.277-.277-.554-.277,0-.277,0-.554.277-.554l4.153-.831a.554.554,0,0,1,0,1.108,6.089,6.089,0,0,0-3.876.554ZM136.8,33.5h0a20.955,20.955,0,0,0-4.153-.277.554.554,0,1,1,0-1.108c1.384,0,2.769.277,4.153.277.277,0,.554.277.277.554C137.357,33.222,137.08,33.5,136.8,33.5Zm35.44-2.492h-.277a.519.519,0,0,1,0-.831,14.916,14.916,0,0,0,1.938-3.6c0-.277.277-.277.554-.277s.277.277.277.554a9.769,9.769,0,0,1-2.215,3.6A.966.966,0,0,1,172.243,31.007Z" transform="translate(-106.9 -26.3)"/>
      </g>
      <g id="Group_3010" data-name="Group 3010" transform="translate(69.219)">
        <path id="Path_3558" data-name="Path 3558" class="cls-7" d="M131.954,27.146h0a.6.6,0,0,1-.554-.554V24.654a.554.554,0,1,1,1.107,0v2.215A.967.967,0,0,0,131.954,27.146Z" transform="translate(-131.4 -24.1)"/>
      </g>
    </g>
  </g>
</svg>
